<svg xmlns="http://www.w3.org/2000/svg" viewBox="0 0 468.34 164"><defs><style>.cls-1{fill:#fff;}</style></defs><title>activities_kf</title><g id="Layer_2" data-name="Layer 2"><g id="Mobile"><g id="Activities"><path class="cls-1" d="M0,142.62c21.27,15.1,66.85,16,84.1,8.94-1,0-2-.07-3,0-21.4,1.64-42.56.84-63.14-6-1.59-.53-3.1-1.32-4.71-1.81C8.6,142.27,7,139.28,8.41,135c37.64,11.87,75.15,11.63,112.85.4.6,5.56,6.7,1,9.25,4.23,2,10,1.07,12-8.78,15.94-15.45,6.18-31.75,7.82-48.19,8.25-20.13.52-40.23-.08-59.51-6.65-5-1.71-9.37-5.37-14-8.14Z"/><path class="cls-1" d="M148.63,21.76c.65-.42,1.29-1.19,1.95-1.19q11.87-.12,23.74,0c.65,0,1.28.8,2.13,1.36-.73.54-.8.64-.89.65-8.37,1-8.81,1.55-8.81,10.12s.07,17.37,0,26.05C166.57,75,176.8,81.88,191.59,81.63A31.53,31.53,0,0,0,197,81c10.65-2.07,16.75-8.84,17.13-19.83.34-9.93.2-19.88,0-29.81-.12-6.28-1.84-7.84-8-8.76a8.44,8.44,0,0,1-2.38-1.22l.37-1.07H207c11.29.06,22.57.07,33.86.28a6.22,6.22,0,0,1,3.89,1.85q23.11,23.93,46.08,48a8.3,8.3,0,0,0,1,.69c.06-1.12.16-2,.16-2.92q0-18.09,0-36.19c0-7.63-1.15-8.85-8.76-9.31-.38,0-.76-.07-2.2-.2,1-1,1.53-1.93,2.07-1.94q10.71-.15,21.42,0c.61,0,1.22.79,1.83,1.21l-.32.71c-1.59.18-3.19.26-4.76.55-3.57.66-4.54,1.83-4.54,5.5q0,27.07,0,54.13c0,1.15,0,2.29,0,4.56-1.86-1.2-3.28-1.79-4.25-2.79Q277,68.53,261.75,52.5q-10.1-10.56-20.18-21.13a16.2,16.2,0,0,0-1.28-1c0,1.54,0,2.56,0,3.57q0,20,0,39.95c0,7.9,1.26,9.24,9.09,9.66a2.63,2.63,0,0,1,1.64.74c-.56.49-1.12,1.39-1.68,1.4q-10.71.14-21.42,0c-.57,0-1.12-.86-1.86-1.46.73-.44.88-.61,1.05-.62,7.05-.73,8.17-2,8.17-9.08,0-15.54-.06-31.07.06-46.61,0-2.38-.84-3.58-3-4.18a29.49,29.49,0,0,0-3.06-.84c-6.11-1-10.28,2.34-10.34,8.52-.08,8.88,0,17.76,0,26.63,0,17.69-9,27.67-26.78,29a51.38,51.38,0,0,1-13.2-.7c-13.19-2.46-21-12-21.1-25.43-.09-9.55,0-19.11,0-28.66,0-8.15-.7-8.94-8.59-9.71Z"/><path class="cls-1" d="M369.89,22.48l1,15-.68.55c-.68-.5-1.7-.85-2-1.51-4.48-10.6-15.4-16.38-28.75-14.3-11.68,1.82-19.89,10.39-22.17,22.86-2.58,14.12,3.07,28.19,14.11,35.17,13.35,8.43,29.84,4.56,38.92-9.09a15.64,15.64,0,0,1,2.59-2.45l1.09.87c-2.05,4.52-4.09,9.06-6.19,13.56a2,2,0,0,1-1.2,1.09c-6.93,1.06-13.84,2.5-20.81,2.94-11.64.73-22.27-2.28-30.47-11.11-16.43-17.69-8.28-47.17,15.16-55,9.13-3,18.37-2.86,27.62-.39C361.91,21.73,365.46,24.19,369.89,22.48Z"/><path class="cls-1" d="M4.68,40.38c-.14-4.2,1.8-6.51,5.13-8.18,11.59-5.81,24.08-8,36.79-9.26,6.5-.64,13-.88,20.45-1.35-6.87-6.22-14.65-8.34-22.75-8.21S28.39,15,20.13,15.94C36.49.44,56.47-1.91,77.5,1.18c22.28,3.27,45.14,22.16,48.42,39.18C107.23,28.72,86.36,26.92,65.45,26.79S23.39,27.75,4.68,40.38Z"/><path class="cls-1" d="M13.67,45.3c-3.37-3.32-2.93-5.64.66-6.58,8.56-2.24,17.13-4.81,25.86-6a171.42,171.42,0,0,1,68,4A88.68,88.68,0,0,1,116.89,40c-.65,7.84-1.65,14.61-1.71,21.4q-.31,33.59,0,67.19c0,4.37-1.49,5.7-5.48,5.66-3.73,0-5.34-1.26-5.31-5.41.19-23.93.07-47.86.14-71.8,0-1.77.77-3.54,1.28-5.77-1.59-.4-5.56-.58-1.33-4.45-9.1-6.94-19.46-9-30.36-9.32-2.53-.09-5.33,1-7-2.6C66.7,34,62.25,34,60.48,35c-4.3,2.5-10.69,2.72-14.81.38-1.42-.81-4.64-.47-5.77.64-3.3,3.24-7.43,4.15-11.25,2.12-1-.51-2.89.62-4.3,1.18-2.28.92-5.34,3.45-6.58,2.72C13.91,39.82,14.17,42.54,13.67,45.3Z"/><path class="cls-1" d="M39.27,47.16l-3.11-2.57c1.22-.52,2.42-1.42,3.68-1.5,3.31-.21,6.64-.07,9.48-.07-.24,4.8-.63,9-.64,13.13q-.09,38,0,76c0,5.2-4.73,8-9.18,5.21A4.61,4.61,0,0,1,38,133.87q-.12-41.2,0-82.4C38,50,38.84,48.51,39.27,47.16Z"/><path class="cls-1" d="M82,46.87l-3.26-2.47.71-1h12.7c-.29,4.92-.78,9.48-.8,14-.08,25,0,50,0,74.93,0,4.86-4.75,7.62-8.93,4.93-1-.65-1.44-2.83-1.44-4.31-.09-21-.06-42-.06-63,0-6-.07-12,0-17.93A29.88,29.88,0,0,1,82,46.87Z"/><path class="cls-1" d="M16.16,51.9,13,49.39c1.27-.49,2.52-1.31,3.81-1.39,3.28-.2,6.59-.07,8.84-.07,0,10.16,0,19.52,0,28.88,0,17.48-.16,35,.1,52.45.07,4.93-2.64,5-6.11,5.13-3.85.2-5-1.4-5-5.16.14-23.92,0-47.85.13-71.77C14.8,55.55,15.71,53.65,16.16,51.9Z"/><path class="cls-1" d="M156.5,149.77c4.38-.42,3.45-3.36,3.49-5.83q0-2.74,0-5.49c0-2,1-4.66-3.09-4.62,4.93-.82,9.42-1.71,13.85-.13,3.65,1.3,3.85,4.33.5,7,2.34,1.3,3.83,3.13,3,5.89s-3.1,3.67-5.61,3.79c-3.84.18-7.7,0-11.56,0Zm7.55-8.25c0,1.46,0,2.79,0,4.12,0,1.6,0,3.15,2.23,3.24s3.52-.78,4-2.89C170.94,142.65,168.54,140.8,164,141.52Zm.14-1.1c1.84-.63,3.56-.86,4.72-1.79.54-.43.44-2.76-.18-3.31-1.09-1-2.8-1.21-4.55-1.87Z"/><path class="cls-1" d="M422.74,104c5-.73,10-1.92,14.66.34,3.59,1.74,3,5.64-1.52,8.65l7.35,7.38c-2.14,1.12-5.69.46-7.73-2a43.63,43.63,0,0,0-2.85-3.64,13.65,13.65,0,0,0-3.12-1.69c-.75,4.95-.51,5.48,3.63,7.15H423c3.57-.92,2.63-3.78,2.66-6.2,0-1.74-.08-3.48,0-5.21C425.84,106.52,425.85,104.46,422.74,104Zm6.91-.39v9.19c2.19-1.17,4.09-1.78,5.34-3,.61-.61.51-3-.16-3.59C433.62,105,431.76,104.54,429.65,103.56Z"/><path class="cls-1" d="M397.56,150h-8.8c3.39-1.84,2-4.81,2.09-7.55h-8.63c.3,2.68-1.44,5.63,2.74,7.7H375.9c3.35-3,3.28-14.25-.4-16.63H385c-3.91,1.52-3.09,4.15-2.92,6.82h8.31c.91-3.9.7-4.69-2-6.89h8.83C393.36,136.22,393.38,147.46,397.56,150Z"/><path class="cls-1" d="M163.77,113.43c0,2.4-1.07,5.19,2.41,6.73H157c4.34-1.87,2.89-5.28,2.74-8s2.08-6.29-2-8.38H167c-4.65,1.73-2.73,4.82-3,7.34l.82.64c1.61-1.75,3.3-3.44,4.73-5.32.23-.31-.69-1.49-1.16-2.43h6.29l-6.54,6.91,8.51,9.52h-8.94l2.13-1.64-5.32-5.9Z"/><path class="cls-1" d="M438.1,132.68c5.82,0,9.69,3.49,9.69,8.75,0,5.46-4.31,9.33-10.33,9.26-5.78-.07-9.76-3.67-9.74-8.82C427.74,136.38,431.91,132.69,438.1,132.68Zm5.63,9c-.12-2.59-.85-5.74-4.07-7a6.59,6.59,0,0,0-5.28.67c-2.93,2-2.76,5.29-2.11,8.39.77,3.68,3.62,6,6.57,5.65S443.76,146.35,443.73,141.71Z"/><path class="cls-1" d="M412.48,132.69c5.72,0,9.78,3.68,9.73,8.8,0,5.29-4.34,9.17-10.18,9.22s-10.17-3.79-10.08-8.86C402.06,136.4,406.35,132.67,412.48,132.69Zm-6.19,8.83c0,.34.11,1.11.24,1.86.66,3.85,3.37,6.36,6.51,6.05s5.12-3.1,5.09-7a11.83,11.83,0,0,0-.42-2.84c-1-3.75-3.45-5.86-6.35-5.5C408.18,134.5,406.3,137.1,406.29,141.52Z"/><path class="cls-1" d="M253.94,103.86c3.55-.87,6.22-.39,8.48,2.42s5,5.33,7.53,8c1.52-4.59.72-8.82-2.41-10.5h7.63c-3.1,1.16-2.89,3.22-2.86,5.28,0,3.66,0,7.31-.07,11,0,.15-.19.3-.76,1.18l-13.53-13.75c0,3.89-.15,7.17.11,10.41.06.75,1.56,1.38,2.69,2.3H254C257,117.51,257,106.26,253.94,103.86Z"/><path class="cls-1" d="M64.14,106.91l-7.25-3.36.56-1.32H72.09c-.63,8.94-2,17.74.63,26.55.64,2.12,0,3.61-2.63,3.56-3.21-.06-6.46.23-9.63-.17-.94-.12-2.38-2.07-2.34-3.14.11-3.39,1.12-6.76,1.21-10.15C59.53,111.25,59.39,111.25,64.14,106.91Z"/><path class="cls-1" d="M367.51,112.65h8.17a22,22,0,0,0-1,4.54c0,1.67-.59,2.61-2.14,2.82-2.55.34-5.17,1-7.65.7-5.31-.65-8.16-4.34-7.82-9.31.32-4.57,3.87-8,9-8.09a62,62,0,0,1,8.18.87v5.52c-.89-1.38-1.29-2.05-1.74-2.69a5.61,5.61,0,0,0-7.16-2c-2.9,1.3-4.49,5-3.71,8.62s3.13,5.84,6.19,5.85c1.42,0,3.09.18,3-2.1-.09-1.73.62-3.95-2.43-3.8-.31,0-.63-.24-.94-.37Z"/><path class="cls-1" d="M239.2,149.95c3.23-2.76,3.19-13.78.14-16.17,3.66-1.17,5-.79,7.55,1.64,2.83,2.74,5.78,5.36,8.49,7.86,1.33-4,.48-8.15-2.17-9.66h6.48c-2.72.81-2.47,2.92-2.44,5a100.17,100.17,0,0,1-.38,11.72c-5.35-3.42-8.86-8.75-13.9-12.52.78,4-2.41,8.74,3,12.1Z"/><path class="cls-1" d="M197.43,103.48l.17,3.59c-2.43-3.4-5.63-1.68-8.61-1.9v6.28l7.16-1.57v3.8l-7.89-1.82c.6,2.87.36,5.58,1.57,6.65,1.83,1.62,6.2-.1,8.18-2.77v4.46H181.91c3-.71,3.15-2.75,3-5.14-.13-2.11-.07-4.24,0-6.37s.3-4.23-2.42-5.21Z"/><path class="cls-1" d="M209,108.1c.9,4-2.46,8.77,2.86,12.12h-6.77c3.11-2.81,3.14-13.95,0-16.37,3.17-.6,5.83-.81,8.12,2a74.84,74.84,0,0,0,8.32,8.36c-.74-3.39,2.56-7.6-2.85-10.31h7.42c-2.75,1.42-2.75,1.42-2.76,4.52a119.77,119.77,0,0,1-.44,12.35C217.64,117.11,214,112,209,108.1Z"/><path class="cls-1" d="M402.06,103.43h14.67l.28,3.65c-2.43-3.09-5.6-1.86-8.73-2v5.81c2.32-.29,5,1.54,7-1.72v4.28L407.58,112c.54,2.76.32,5.23,1.45,6.52,1.38,1.58,6.32-.18,8.39-2.67v4.4H401.5c5.12-3.67,1.93-8.92,2.63-13.29C404.29,106,402.87,104.73,402.06,103.43Z"/><path class="cls-1" d="M271.56,141.92v6.57c3.24-.39,6.75,1.46,9.15-3.42V150h-16.2c3.94-.63,3-3.6,3.08-6.05,0-2-.07-4,0-6.07s-.06-3.68-2.73-4l.23-.86h4.55c2.5,0,5,0,7.51,0,3.19,0,3.38.29,2.65,4.09-2.06-3.57-5.25-1.71-8.23-2.18v6.15l7-1.11v3.37Z"/><path class="cls-1" d="M248.95,120.06h-8.11l-.11-.48,2.5-1.1c-.47-1.24-.6-3.1-1.45-3.52-1.55-.77-3.78-1.35-5.25-.79-1.26.48-1.85,2.69-2.85,4.3l3.11,1.24,0,.45H229.9c4.55-3.93,4.56-9.85,6.91-14.71.55-1.14.4-2.55,2.42-2.58s2.57,1.08,3.14,2.62c1.2,3.24,2.43,6.48,3.81,9.65A54,54,0,0,0,248.95,120.06Zm-10.68-13.45-2.07,5.65h4.36Z"/><path class="cls-1" d="M353.34,120.05h-9l3.1-1.64c-.89-1.84-.31-4.52-3.68-4.51-4.16,0-4.17-.1-5.32,4.73l2.68,1.14-.07.44h-6.32a66.23,66.23,0,0,0,3.11-5.9c1.28-3.11,2.2-6.37,3.5-9.47.34-.81,1.51-1.82,2.23-1.77a3.69,3.69,0,0,1,2.69,1.73c1.62,3.59,2.87,7.34,4.42,11A34,34,0,0,0,353.34,120.05Zm-12.75-7.92h4.29l-2.31-5.55Z"/><path class="cls-1" d="M193.07,133.45h6.57c-2.62,1.16-2.51,3.33-2.41,5.53.06,1.35,0,2.7,0,4-.09,2.94-.7,5.68-3.86,6.78-3.53,1.23-7.14,1.28-10.08-1.28-1.07-.93-1.58-2.81-1.8-4.34a49.16,49.16,0,0,1-.08-6.35c0-1.76.56-3.86-2.17-4.52h7.5a35.07,35.07,0,0,0-1.41,5.13,31.73,31.73,0,0,0,0,5.77c.17,2.88,1.52,4.12,4.41,4.26,3.2.15,5.21-1.08,5.5-3.81a39.43,39.43,0,0,0,.05-8.06C195.19,135.57,194,134.65,193.07,133.45Z"/><path class="cls-1" d="M287.85,149.59l-.61-4.34.62-.28a7.33,7.33,0,0,0,1.29,1.87c1.17.89,2.41,2,3.76,2.22a3.6,3.6,0,0,0,2.84-1.8c.33-.67-.32-2.26-1-2.91a26.77,26.77,0,0,0-4.15-2.57c-2.08-1.29-3.74-2.92-3-5.63s3.06-3.54,5.66-3.42c1.61.07,3.2.4,5,.64l.5,4-.65.22c-.48-.64-.82-1.51-1.46-1.88a13.58,13.58,0,0,0-4-1.66c-.5-.1-1.52.82-1.77,1.48-.18.46.38,1.5.91,1.87,1.32.94,2.84,1.6,4.23,2.46,3.18,2,4.31,4.52,3.24,7.19-1,2.47-3.62,3.65-7,3.16Z"/><path class="cls-1" d="M370.06,134.22v4.18c-2-2.13-3.74-4.58-7-3.83a8.13,8.13,0,0,0-3.94,2.1c-2.58,2.73-2.27,7.73.38,10.57s5.08,2.61,10.86-1.65c.55,3.23-.18,4.49-3.15,4.61s-5.82.33-8.47-.44c-3.46-1-5.39-3.82-5.52-7.64a7.67,7.67,0,0,1,5.13-7.92c2.3-.88,5-.86,7.54-.93A17.46,17.46,0,0,1,370.06,134.22Z"/><path class="cls-1" d="M336.22,149.55l-.36-4.23.64-.29c.4.63.66,1.48,1.23,1.85a14.51,14.51,0,0,0,4.35,2.12c.64.15,2-.93,2.28-1.71a3.19,3.19,0,0,0-.83-2.75,25.76,25.76,0,0,0-4.13-2.6c-2.92-1.77-4-3.79-3.19-6,1.09-2.85,3.49-3.35,6.15-3.13,1.42.12,2.82.41,4.48.66l.51,3.95-.69.28c-.41-.53-.72-1.22-1.25-1.55a18.23,18.23,0,0,0-4.15-2.06c-.49-.15-1.7.71-1.88,1.32a2.56,2.56,0,0,0,1,2.1c1.21.92,2.66,1.53,4,2.34,3.31,2,4.45,4.46,3.42,7.09s-3.59,3.83-7.21,3.3Z"/><path class="cls-1" d="M317.61,133.43l.41,3.88-.63.28a7.41,7.41,0,0,0-1.39-1.82,8.76,8.76,0,0,0-3.43-1.73c-.78-.11-1.72.86-2.59,1.35.47.78.76,1.79,1.43,2.28,1.47,1.07,3.18,1.8,4.7,2.8,2.34,1.55,3.39,3.75,2.4,6.47s-3.37,3.56-6.05,3.41c-1.68-.09-3.35-.48-5.35-.79l-.61-4.34.63-.24a7.81,7.81,0,0,0,1.52,2.16,9.56,9.56,0,0,0,3.9,1.91c.78.1,2.13-1,2.5-1.83a3.07,3.07,0,0,0-.87-2.71,28.47,28.47,0,0,0-4.37-2.74c-2.3-1.36-3.71-3.22-2.79-6s3.12-3.23,5.6-3.07C314.23,132.84,315.82,133.18,317.61,133.43Z"/><path class="cls-1" d="M205.83,149.57l-.41-4.25.66-.2c.62.89,1.06,2.09,1.91,2.59a8.49,8.49,0,0,0,4.14,1.18c.7,0,2.08-1.56,1.93-2a7.92,7.92,0,0,0-2.3-3.33,32.83,32.83,0,0,0-3.94-2.38c-1.94-1.24-2.94-3.3-1.91-5.19a7.21,7.21,0,0,1,4.33-3.09c1.85-.43,4,.22,6.24.43l.24,4-.65.21c-.46-.64-.78-1.55-1.41-1.87-1.36-.71-2.89-1.6-4.33-1.56-1.78.06-2.2,2-.76,3.11a41.26,41.26,0,0,0,4.22,2.48c3.3,2,4.5,4.44,3.54,7.06s-3.67,4-7.43,3.39Z"/><path class="cls-1" d="M381.21,103.44h8.85c-3.35.9-2.66,3.53-2.68,5.81,0,3,0,5.94,0,8.8,4,1.5,7.09.28,9.78-3.41-.55,5.54-.86,5.86-5,5.86-3.62,0-7.23,0-11.1-.27,4.33-1.81,2.65-5.4,2.55-8.18S385.56,105.52,381.21,103.44Z"/><path class="cls-1" d="M331.11,115.6l-1.62,4.73H314.93c4.33-1.92,2.36-5.68,2.34-8.53s2.12-6.59-2.48-8.33h8.85c-3.55,1.06-2.61,3.93-2.65,6.36,0,2.22,0,4.44,0,6.66,0,1.48.55,2,2,2.1,2.6.1,5.05,0,6.56-2.58a1.47,1.47,0,0,1,.67-.5C330.36,115.45,330.57,115.54,331.11,115.6Z"/><path class="cls-1" d="M308.19,113.52l-7-1.35c.75,3.1-1.61,6.18,2.33,8.08h-7.81c2.56-3.1,2.57-13.74-.26-16.35h13.72v4.55c-1.77-4.32-4.72-3.12-7.62-3.08v5.94l6.68-1.4Z"/><path class="cls-1" d="M451.92,133.22h9.19c-3.29,1.19-2.46,3.91-2.5,6.25a45.51,45.51,0,0,0,0,4.9c.12,1.32.61,3.77.84,3.75A27.17,27.17,0,0,0,466,147c.8-.25,1.33-1.39,2.36-2.53-.44,5.45-.75,5.76-5.17,5.76H451.67C456.06,147.44,456.1,135.91,451.92,133.22Z"/><path class="cls-1" d="M223.78,149.92c3.34-2.59,3.35-13.77.09-16.4h9.07c-3.56,2.3-3.86,13.74-.31,16.4Z"/><path class="cls-1" d="M289.55,113.74v2.64c-2.86,0-5.69.09-8.5-.1-.38,0-.67-1.43-1.14-2.54Z"/></g></g></g></svg>