<svg xmlns="http://www.w3.org/2000/svg" viewBox="0 0 324.39 266.11"><defs><style>.cls-1{fill:#fff;}</style></defs><title>activities_ben</title><g id="Layer_2" data-name="Layer 2"><g id="Mobile"><g id="Activities"><path class="cls-1" d="M0,.21C1.8.14,3.61,0,5.41,0h319V146.72c-1.33.07-2.62.21-3.92.21H4.73c-1.58,0-3.15-.13-4.73-.2Zm2.74,144H322.2V2.86H2.74Z"/><path class="cls-1" d="M14.67,264.55H1.55c0-.51,0-.9.06-.92,5.29-1.51,5.69-5.59,5.57-10.15q-.23-9,0-18c.11-4-1-7.1-5-8.62-.45-.17-.77-.66-1.24-1.07,4.89-2.18,9.13-1.14,11.65,2.76,5,7.69,9.87,15.4,14.82,23.1.57.89,1.23,1.72,1.85,2.57l1-.23q0-2.93,0-5.86c0-4.52-.08-9,0-13.56.09-3.88-.8-7-5.15-7.91-.27-.06-.49-.41-.71-.64-.06-.07,0-.22-.09-.73H37.68c-.06.48,0,.86-.12.88-5,1.31-5.64,5-5.55,9.39.16,8.47.05,16.95,0,25.42,0,1.19-.13,2.38-.19,3.57l-1.15.49L10,233.23l-.85.26a25.62,25.62,0,0,0-.31,2.78c0,5.2,0,10.4,0,15.59,0,5-.85,10.39,6.8,11.65Z"/><path class="cls-1" d="M30.49,193.37a7.73,7.73,0,0,1,.6,1.68c-.12,3-.28,6.07-.45,9.3H2.55l-.13-.69a5.86,5.86,0,0,0,1.89-.9c1-1.11,2.71-2.37,2.74-3.6.23-9.48.34-19-.06-28.44-.08-1.84-2.56-3.58-4.09-5.56a13.51,13.51,0,0,1,2.29-.33c6.77,0,13.55,0,20.32-.05,2.26,0,3.36.61,3.16,3.06-.17,2.09,0,4.21,0,6.31l-.89.31c-.51-1-1-1.93-1.52-2.92-2.18-4.5-8.7-6.94-13.2-4.75a3.27,3.27,0,0,0-1.16,2.45c-.14,3.15-.18,6.33,0,9.48.09,1.58-1.08,3.81,1.61,4.52,3.38.9,6.36-.17,7.59-2.78a11.28,11.28,0,0,1,2-3.51v14.46l-.59.26c-.38-1-.51-2.29-1.18-3.05-1.17-1.33-2.54-3.09-4.07-3.37-4.91-.92-5.41-.28-5.42,4.7,0,2.71-.07,5.42,0,8.13.13,3.7,1.32,4.81,5,4.9a15.06,15.06,0,0,1,2,0c5.43.89,8.53-1.76,10.21-6.65A32.14,32.14,0,0,1,30.49,193.37Z"/><path class="cls-1" d="M133.6,204.5c.22,4.93-2.15,10.19,4.57,12.53H126l-.86-.69c5.86-1,4.61-5,4.64-8.5.05-7,0-14,0-21,0-3.45.42-7-4.62-8l.58-.9,7.1-1.41,1.23,3.15a13.59,13.59,0,0,0,1.81-.92c4.91-3.56,9.34-2.75,12.61,2.32,3.49,5.41,3.37,14.65-.27,20-2.86,4.21-7.08,5.59-12.07,4A25.81,25.81,0,0,0,133.6,204.5Zm-.08-13.38h0c0,2.36-.14,4.74,0,7.09.21,2.84,1.81,5.21,4.52,5.6a7.33,7.33,0,0,0,5.57-1.94c4.12-4.4,4-15.75.2-20.34a5.46,5.46,0,0,0-6.31-2c-2.48.86-4.21,2.53-4.07,5.52C133.59,187.07,133.52,189.1,133.52,191.12Z"/><path class="cls-1" d="M176,250.43a106.93,106.93,0,0,0,7.3-9.08c.46-.7-1.07-2.71-1.8-4.37h9.93c-1.26,1.05-2,1.6-2.61,2.19-2.42,2.17-5,4.22-7.16,6.6a3.7,3.7,0,0,0-.2,3.42c2.19,3.81,4.56,7.53,7.1,11.13a27,27,0,0,0,4,3.77c-4.29,1.72-6.07,1.17-8.28-2.47s-4.36-7.09-6.52-10.58c-4.75,2.11-4.19,9.2,1.31,13.31h-11.4c4.47-2.25,3.26-6.35,3.28-10,0-7.9,0-15.81,0-23.71,0-5.69-.06-5.77-5.66-8.64l9.28-1.65V249.9Z"/><path class="cls-1" d="M61,204.33H50.18c4.38-1.77,3.59-5.44,3.59-8.74,0-3.5.1-7-.14-10.51-.28-4.12-2.11-6-5.15-5.8a6.25,6.25,0,0,0-5.72,6.36c-.05,3.62.11,7.24-.05,10.85-.14,3.11.08,5.89,3.51,7.74H35.39c3.7-1.52,3.34-4.58,3.31-7.52,0-3.39-.06-6.78,0-10.17s.07-6.4-3.62-8.63l7.1-1.46,1,4a15.24,15.24,0,0,0,1.88-1.27c2.28-2.12,4.84-3.39,8-2.4,3.35,1,4.3,3.88,4.49,6.91.25,3.94.13,7.9.22,11.86.07,3.16-1.06,6.81,4,8.09Z"/><path class="cls-1" d="M201,177.74l7-1.22,1,4.14,2.6-2.19c4.88-4.06,10.69-2.11,11.51,4.13.55,4.22.33,8.55.41,12.84.06,3.19-.77,6.69,3.81,8.2l-.67.68H216l-.92-.81c5.32-.63,4.48-4.17,4.5-7.25,0-3.72.09-7.45-.09-11.17s-2-5.81-4.8-5.81a6.29,6.29,0,0,0-6.14,6.31c-.07,3.38,0,6.77,0,10.16s-.62,6.78,4.47,7.72l-.77.83H201.32c4.51-2.32,3-6.46,3.17-10,.09-2.48,0-5,0-7.45,0-3.29.51-6.76-4.23-8.05Z"/><path class="cls-1" d="M109.65,238.07h7.77c-5.95,7.21-6.41,16.35-9.43,24.52a4.42,4.42,0,0,1-2.06,2.33l-6.36-18.84-.92-.06-6.87,19.77c-5.19-9.3-4.17-19.94-11.33-27.69H91.23c-3.88,2.25-2.92,4.8-2.13,7.4,1.16,3.84,2.21,7.72,3.3,11.58l1,.06,6.23-18.43H101l6.22,18.1,1.08,0c1.33-4.81,2.87-9.57,3.84-14.45C112.41,241.21,110.66,239.69,109.65,238.07Z"/><path class="cls-1" d="M119,250.83c1.05-3.08,1.71-6.32,3.21-9.11a9.63,9.63,0,0,1,9.88-5.16,10.54,10.54,0,0,1,9.11,7.09,19.6,19.6,0,0,1-.5,15.77c-1.84,4-5.05,6.42-9.46,6.54a9.79,9.79,0,0,1-9.64-6.17C120.35,257.08,119.86,254.06,119,250.83Zm19.67.45c-.9-3.43-1.28-6.88-2.69-9.83-2.09-4.38-7.06-4.34-9.76-.29-3,4.46-2.94,15.62.06,20.16,2.71,4.09,7.58,4.09,9.67-.33C137.29,258,137.73,254.6,138.62,251.28Z"/><path class="cls-1" d="M59.87,259.4a8.24,8.24,0,0,1-7.63,6.55,9.76,9.76,0,0,1-9.52-4.67c-3.56-5.31-3.31-15,.36-20.29,2.8-4,7-5.45,11.17-3.79a9.68,9.68,0,0,1,5.82,10.67,3.23,3.23,0,0,1-2.4,1.85c-3.48.22-7,.15-10.48.09-2.25,0-3.13.86-2.57,3.1.46,1.85.59,3.84,1.35,5.55,2.34,5.25,8,6.28,12.2,2.4C58.72,260.35,59.31,259.88,59.87,259.4ZM50,248.05c6.58,0,7.18-.68,5.36-6.07-.91-2.7-2.69-4.16-5.62-3.62-2.74.5-5.58,4.8-5,8s3.3,1.12,5,1.72A1,1,0,0,0,50,248.05Z"/><path class="cls-1" d="M197.13,199.32a9.07,9.07,0,0,1-7.4,6.34,9.59,9.59,0,0,1-9.86-3.9c-4.23-5.44-4-16.33.43-21.69a9.14,9.14,0,0,1,11.24-2.8,9.93,9.93,0,0,1,5.25,10.42,3.27,3.27,0,0,1-2.42,1.86,66.61,66.61,0,0,1-9.48.06c-3.36-.23-4,1.14-3.53,4.21,1,6.44,4.49,10.11,9.49,9C193,202.37,194.8,200.67,197.13,199.32Zm-10.32-11.37c.9,0,1.81-.07,2.71,0,3.05.28,3.83-1.2,3.1-3.9-.18-.65-.3-1.32-.5-2-.95-3-3.17-4.51-5.8-3.88s-5.32,4.64-5,7.76c.42,3.58,3.39,1.33,5.11,2A1,1,0,0,0,186.81,187.94Z"/><path class="cls-1" d="M251.63,199.2c-1.88,4.22-4.76,6.22-8.54,6.57a9.36,9.36,0,0,1-9.62-5.07,19.28,19.28,0,0,1-.05-18.84c2.34-4.45,6.88-6.39,11-5.1a9.52,9.52,0,0,1,6.61,10.53,3.39,3.39,0,0,1-2.34,2.26c-3.48.27-7,.18-10.5.11-2.23,0-2.93.82-2.73,3.07.64,7,4.23,11.18,9.52,10.11C247.15,202.41,249,200.69,251.63,199.2Zm-10.69-11.25c5.89,0,6.13-.09,6.16-2.38.06-4.16-2.27-7.42-5.33-7.45s-6.43,3.73-6.12,7.66C236,189.9,239.45,187,240.93,187.95Z"/><path class="cls-1" d="M122.21,199.13a8.15,8.15,0,0,1-7.58,6.63,9.27,9.27,0,0,1-9.7-4.9,19.27,19.27,0,0,1,.09-19.42,9.17,9.17,0,0,1,11.25-4.5,9.46,9.46,0,0,1,6.11,10.49,3.45,3.45,0,0,1-2.49,2.13c-3.48.26-7,.15-10.5.12-2,0-3,.73-2.53,2.86a33.42,33.42,0,0,0,1.31,5.58c2.29,5.46,8.09,6.57,12.37,2.51C121.09,200.1,121.66,199.62,122.21,199.13Zm-9.86-11.18c.9,0,1.81-.07,2.71,0,3,.27,3.9-1.11,3.2-3.86-.17-.66-.32-1.32-.52-2-.93-3.08-3.07-4.54-5.74-3.93s-5.65,5-5,8,3.34,1.16,5,1.7A1.09,1.09,0,0,0,112.35,187.94Z"/><path class="cls-1" d="M304.84,203.66v-8.92c.74,1.33,1,1.91,1.38,2.47a41,41,0,0,0,3,4.86c1.65,2,4.11,2.82,6.38,1.62a6.84,6.84,0,0,0,2.94-4c.67-2.65-1-4.49-3.34-5.62-1.42-.69-2.91-1.24-4.36-1.86-4.86-2.08-6.84-6.38-5.08-11,1.42-3.76,5.48-5.36,10.16-4.19a19.09,19.09,0,0,0,4.18,0v7.67c-.85-1.46-1.42-2.55-2.1-3.59-1.5-2.3-3.74-3.67-6.32-2.74a6.09,6.09,0,0,0-3.27,3.72c-.68,2.69,1.29,4.36,3.58,5.46,1.93.93,4,1.6,5.85,2.66a8.35,8.35,0,0,1,3,11.23,8.47,8.47,0,0,1-11.08,3.48A29.48,29.48,0,0,0,304.84,203.66Z"/><path class="cls-1" d="M79.56,238.85a15.17,15.17,0,0,1-2.84.57c-5.49-.22-4.55.8-4.59,5,0,4.06,0,8.11,0,12.17.06,5.18.81,6,5.82,6.57a9.45,9.45,0,0,1,1.59.57,7.9,7.9,0,0,1-7.89,2c-2.6-.77-3.38-3.1-3.39-5.66,0-4.85,0-9.69,0-14.54,0-3.09,1.19-7-4.29-6.39a7.08,7.08,0,0,1,.21-1c4.41,0,4.45-2.86,4.21-6.08a15.6,15.6,0,0,1,.43-3.26,33.76,33.76,0,0,1,3.26.93c.16.06,0,.85.07,1.3.13,2-.39,4.5.63,5.84.8,1.05,3.5.65,5.34.94C78.37,237.84,78.6,238.14,79.56,238.85Z"/><path class="cls-1" d="M284.31,177.8l7.19-1.29.82,3.85c1.54-1.14,2.71-2.41,4.15-3,1.28-.48,3.32-.74,4.2,0s1.27,2.73,1.25,4.16a3,3,0,0,1-2,2.13c-.71.05-1.66-1.13-2.24-2a6.85,6.85,0,0,1-.49-2.4c-3.34,1-5.32,2.75-5.27,6.27,0,3.73.17,7.47,0,11.19-.19,3.43.44,6.08,4.49,7.21a31,31,0,0,1-11.91.27c6-3.35,3.21-8.8,3.31-13.21s2.49-9.8-4-12.58Z"/><path class="cls-1" d="M82.63,204.27c3.64-1.64,3.33-4.65,3.28-7.6-.06-3.27-.08-6.55,0-9.82s.22-6.62-3.52-9l7-1.37,1.1,3.72c1.75-1.21,3.16-2.73,4.86-3.19,1.25-.34,3.73.31,4.13,1.2.6,1.35-.12,3.3-.29,5-1.11-.26-2.45-.24-3.25-.89-.59-.48-.45-1.83-.7-3.12-3.12,1-5.23,2.52-5.28,5.86A113.73,113.73,0,0,0,90.08,199c.2,1.85,2.24,3.49,3.5,5.31Z"/><path class="cls-1" d="M156,204.26c3.63-1.61,3.35-4.61,3.29-7.56-.07-3.38-.1-6.77,0-10.15s.08-6.37-3.52-8.66l7-1.41c.2.82.35,1.44.52,2.06s.29,1,.5,1.73c1.73-1.22,3.13-2.73,4.81-3.2,1.25-.36,3.73.22,4.15,1.1.64,1.33,0,3.29-.16,5-1.11-.22-2.44-.15-3.24-.77-.59-.46-.49-1.82-.74-3-3.25.74-5.22,2.39-5.28,5.68a111.86,111.86,0,0,0,.14,13.86c.2,1.85,2.19,3.51,3.42,5.34Z"/><path class="cls-1" d="M147.08,264.37c3.33-1.62,3.26-4.43,3.18-7.33-.09-3.27,0-6.54,0-9.82s.66-7-4.29-8.37l.66-.81,7.11-1.44,1,3.79c1.67-1.18,3.09-2.2,4.53-3.19,1.7-1.17,3.54-1,4.3.8a7.39,7.39,0,0,1,.1,5c-.6,1.63-2.9,1.2-3.6-.59a16.59,16.59,0,0,1-.51-3c-3.11,1.05-5.28,2.47-5.32,5.83a117,117,0,0,0,.14,13.86c.2,1.85,2.19,3.51,3.41,5.31Z"/><path class="cls-1" d="M78.89,203.73c-3.33,1.89-6,2.94-8.93,1.5s-2.64-4.21-2.67-6.79c0-4.06,0-8.13,0-12.2,0-3.37,1.39-7.54-5-7.86,8.15-.38,3.81-6.54,5.55-9.88H71.1c0,2,.11,3.73,0,5.5-.2,2.59.73,3.8,3.45,3.52a18.73,18.73,0,0,1,3.43.26l0,1.09a27.92,27.92,0,0,1-3.94.35c-2.19-.1-3,.79-3,3,.1,4.85,0,9.71.06,14.57s.93,5.69,5.82,6.27A13.12,13.12,0,0,1,78.89,203.73Z"/><path class="cls-1" d="M270.69,201.51a6.54,6.54,0,0,1-7.18,4.22c-3.48-.38-4.88-3.19-5.12-6.25-.33-4.26-.21-8.55-.22-12.83,0-3.3.49-6.78-4.42-7.86l.63-.92,7.67-1.44c0,5.15,0,10,0,14.76,0,1.69,0,3.38,0,5.07.19,6.28,3,8,8.71,5.32Z"/><path class="cls-1" d="M270.78,201.58c.69-1.95,1.76-3.86,2-5.86a80.2,80.2,0,0,0,.09-9.13c0-3.48.68-7.32-5-7.78l.61-.95,8.44-1.48c0,4.3,0,8.2,0,12.09,0,2.48.11,5,0,7.44-.17,2.91.24,5.4,3.51,7.17l-5.78,1.36-3.87-2.94Z"/><path class="cls-1" d="M40.92,97.82c1.39.59,2.21,1,3,1.29a11.81,11.81,0,0,1,7.88,11.81c-.05,5.56-3.13,10.4-8.35,11.85A48.51,48.51,0,0,1,32.82,124c-4.17.2-8.36.11-12.54,0-.8,0-1.58-.79-2.37-1.21.67-.58,1.28-1.53,2-1.66,2.65-.47,3.58-2.07,3.57-4.53q0-16.61,0-33.23A4.29,4.29,0,0,0,20,78.68c-.78-.22-1.33-1.23-2-1.88.83-.38,1.65-1.08,2.48-1.1q8.47-.14,17,0c6.37.1,10.71,2.94,11.86,7.62,1.42,5.73-.9,10.37-6.8,13.62ZM30.16,99.93c0,5.32.24,10.16-.07,15s2.3,6.41,7.17,5.61c5.4-.88,8.32-6.38,7.13-12.87-.82-4.45-3.4-7.26-7.34-7.66C35,99.76,32.81,99.93,30.16,99.93Zm0-21c0,5.68-.05,10.85.07,16A2.44,2.44,0,0,0,31.7,96.7a9.11,9.11,0,0,0,9.7-4.46c1.75-3.59.92-10-1.68-12a6.34,6.34,0,0,0-3-1.27C34.68,78.79,32.65,78.93,30.19,78.93Z"/><path class="cls-1" d="M142.69,107.38c-4.26,4-3.58,11.29.67,13.88a2.7,2.7,0,0,1,1.07,1.74c0,.26-.95,1-1.48,1-3.72.09-7.45.11-11.18,0-.56,0-1.09-.85-1.63-1.3.4-.47.74-1.28,1.22-1.37,2.88-.54,3-2.59,3-4.88q0-17.62,0-35.24c0-3-.39-5.69-4.16-6.25-.6-.09-1.08-.93-1.62-1.43.63-.53,1.21-1.43,1.9-1.51a39.26,39.26,0,0,1,7.74-.43c.66,0,1.71,1.82,1.72,2.81.13,9.37.07,18.75.09,28.12a7.22,7.22,0,0,0,.88,3.67c2.85-3.38,5.78-6.69,8.44-10.21.31-.42-.79-2-1.34-3a15.93,15.93,0,0,0-1.47-1.88c.71-.38,1.41-1,2.14-1.08a80.31,80.31,0,0,1,8.13,0,7.83,7.83,0,0,1,2.5,1.11,13.33,13.33,0,0,1-1.7,2.24c-3,2.63-6.13,5.2-9.23,7.75-1.51,1.24-1.53,2.42-.41,4,2.76,4,5.22,8.19,8.05,12.12,1.12,1.55,2.93,2.61,4.38,3.93a14.73,14.73,0,0,1,1.35,1.62c-.6.4-1.16,1-1.81,1.15-5.18.92-6.73.18-9.56-4.37Z"/><path class="cls-1" d="M252.48,93.43c2.72-1.3,5.17-3.06,7.87-3.64,4.79-1,8.09,1.39,9.24,6.18a26.62,26.62,0,0,1,.71,5.68c.1,5.2-.13,10.41.16,15.59.07,1.33,1.5,2.61,2.4,3.86a15.12,15.12,0,0,0,1.66,1.7c-.68.42-1.35,1.17-2,1.2-3.5.12-7,.12-10.51,0-.68,0-1.34-.82-2-1.25a16.51,16.51,0,0,0,1.76-1.61c.9-1.09,2.39-2.23,2.43-3.39.22-6,.19-12,0-18-.13-3.92-2.09-5.9-5.16-5.82-3.49.09-6.71,3-6.75,6.27-.08,5.65,0,11.3,0,17,0,2.18,1,3.29,2.89,4,.58.21.94,1,1.4,1.58-.67.43-1.33,1.21-2,1.23-3.5.13-7,.11-10.51,0-.63,0-1.24-.65-1.85-1,.48-.61.87-1.62,1.45-1.75,2.34-.5,2.68-2.09,2.67-4.05,0-6.33,0-12.66,0-19,0-2.22-.54-3.94-2.71-5-.64-.31-1-1.24-1.47-1.89a8.84,8.84,0,0,1,2.16-1.26,15.71,15.71,0,0,1,3-.18C251.86,89.66,251.86,89.66,252.48,93.43Z"/><path class="cls-1" d="M89.83,120.44c-.83.78-1.46,1.41-2.14,2-4.43,3.82-9.87,3.66-12.82-.36-3.13-4.26-2.07-10.95,2.55-13.67,3.17-1.86,6.82-2.88,10.09-4.59a5.39,5.39,0,0,0,2.61-3.24c.54-2.9-.13-5.93-2.91-7.34-1.47-.75-3.69-.26-5.49.06-.46.08-.8,1.63-.94,2.55s.37,2.23-.06,3c-.59,1-1.78,2.23-2.77,2.28s-2.74-1.29-2.75-2c0-1.87.27-4.13,1.34-5.55,3-3.91,10.34-5.58,14.5-3,2,1.26,4.21,3.94,4.45,6.18.64,5.9.26,11.91.27,17.88,0,5.37,0,5.37,5.66,7.56-1.67.94-2.66,1.81-3.8,2.09C94.32,125,93,124.35,89.83,120.44Zm.3-14.71c-4.23,1.31-8.28,2.47-9.83,6.42a11,11,0,0,0,.33,7.23c.35.94,3.39,1.59,4.93,1.21,2.68-.66,4.73-2.45,4.6-5.78C90,111.91,90.13,109,90.13,105.73Z"/><path class="cls-1" d="M238.89,107.11c-.48,4.91-1.48,9.46-4.73,13.26-5.53,6.46-14.51,6.46-20,0-5.84-6.82-5.78-19.66.12-26.4,6.74-7.69,19.56-5,22.95,4.93A64.48,64.48,0,0,1,238.89,107.11Zm-6.33.17c-.59-3.23-.9-6.27-1.73-9.16-.88-3.05-2.6-5.5-6.33-5.56s-5.74,2.14-6.76,5.14a27.59,27.59,0,0,0,.41,19.82c1.14,2.82,3.15,4.81,6.36,4.67s5.2-2.38,6.07-5.16A88.84,88.84,0,0,0,232.56,107.28Z"/><path class="cls-1" d="M283.9,106.72c.89,3.5,1.18,6.83,2.55,9.62,3,6,10,6.37,14.12,1.05a10.2,10.2,0,0,1,2.71-1.79c-.19,1.17,0,2.58-.63,3.48-2.83,4.23-6.76,6.67-12,6s-8.62-3.6-10.59-8.38a23.47,23.47,0,0,1,.34-19.39A12.59,12.59,0,0,1,295.75,90c4.89,1.38,8.87,8.46,7.82,14.36a3.52,3.52,0,0,1-2.66,2c-4.28.21-8.58.08-12.88.1C286.93,106.49,285.84,106.6,283.9,106.72Zm.56-3.32c4,0,7.36.11,10.71-.08a2.89,2.89,0,0,0,2.1-1.79c.63-4.32-1.74-8.42-4.87-8.89-3.5-.52-6.47,2-7.54,6.65A33.66,33.66,0,0,0,284.46,103.4Z"/><path class="cls-1" d="M184,90.54v9.73l-.78.35a26,26,0,0,1-1.61-2.72c-1.63-3.69-4-5.43-7.45-5.35-2.45.06-4.57,1.18-4.63,3.53a7.34,7.34,0,0,0,2.36,5.32c2.16,1.67,5.08,2.32,7.61,3.56,6.3,3.08,8.38,8.74,5.44,14.54-2.63,5.17-9.81,7.17-15.27,4.23-1.26-.68-2.41-1.95-3.8-.14-.06.08-1.88-.7-1.93-1.16a79.81,79.81,0,0,1-.26-8.46c0-.61.65-1.22,1-1.83a8.66,8.66,0,0,1,1.59,1.39c1.66,2.37,2.92,5.13,4.95,7.12,2.31,2.26,5.43,2.3,8.1.32a4.8,4.8,0,0,0,1.39-6.39,8.21,8.21,0,0,0-3.28-3.15c-2-1.08-4.19-1.65-6.25-2.57-5.58-2.51-7.94-7.33-6.26-12.63,1.57-4.94,6.39-7.44,12.26-6.46C179.07,90.09,181,90.22,184,90.54Z"/><path class="cls-1" d="M109.21,106.84c.77,3,1.12,6.23,2.4,9,2.93,6.42,9.39,7,13.69,1.45.28-.36.42-.88.77-1.09a11.19,11.19,0,0,1,1.92-.76c.08.77.49,1.74.17,2.28-2.39,4.08-5.69,7.13-10.63,7.38s-9.13-1.83-11.45-6.36c-4-7.9-4.08-15.87.89-23.43,3.76-5.72,10.94-7.45,16.29-4.24,3.14,1.88,4.84,5.6,3.61,9-.43,1.18-2.27,2.82-3.13,2.64-1.3-.27-2.44-1.85-3.37-3.08-.37-.49.1-1.54,0-2.31-.22-1.49-.59-3-.9-4.44-2.09.47-5.13.25-6.07,1.55-1.81,2.51-2.53,5.86-3.5,8.92a11.62,11.62,0,0,0-.05,3.37Z"/><path class="cls-1" d="M65.93,95.87c0,6.66,0,13.33,0,20,0,2.42.29,4.49,3,5.39.56.18.89,1.06,1.33,1.62-.6.39-1.2,1.1-1.82,1.12-3.5.11-7,.13-10.5,0-.66,0-1.3-.85-1.94-1.31.49-.51.91-1.35,1.48-1.47,2.33-.5,2.63-2.09,2.63-4.06q0-18.3,0-36.59c0-2.77-.65-4.86-3.85-5.39-.67-.11-1.19-1.11-1.78-1.7.65-.52,1.26-1.42,2-1.51a38.38,38.38,0,0,1,7.74-.36c.66.05,1.64,1.89,1.66,2.92C66,81.63,65.93,88.75,65.93,95.87Z"/><path class="cls-1" d="M192.35,94.12a16.35,16.35,0,0,1-3.5-.26c-.7-.22-1.24-1-1.85-1.48.59-.69,1.24-2,1.75-2,4,.37,3.75-2.15,3.61-4.76-.06-1.13,0-2.26,0-3.39-.08-2.26,1.34-2.47,3.12-2.5s2.74.58,2.68,2.53c-.08,2.47,0,4.94,0,8,1.81,0,3.34-.06,4.87,0s3.65-.55,3.38,1.93c-.07.69-2,1.44-3.21,1.67a27.21,27.21,0,0,1-4.88.07c0,7.69-.14,15,.08,22.3.07,2.52,1.76,4.08,4.59,3.88,1.22-.09,2.46,0,4.68,0-.82,1.22-1.18,2.47-1.91,2.73a22.88,22.88,0,0,1-6.49,1.57c-4.22.21-6.43-1.64-6.64-5.9-.32-6.54-.19-13.1-.25-19.65C192.34,97.4,192.35,95.95,192.35,94.12Z"/></g></g></g></svg>