<svg xmlns="http://www.w3.org/2000/svg" viewBox="0 0 445.67 94.94"><defs><style>.cls-1{fill:#f8f9fc;}.cls-2{fill:#fff;}</style></defs><title>activities_vcic</title><g id="Layer_2" data-name="Layer 2"><g id="Mobile"><g id="Activities"><path class="cls-1" d="M78.12,48.16c.24,5.79-.18,11.63,1.55,17.28,1.48,4.84,4.25,8.49,9.7,8.45,5,0,7.57-3.56,9.46-7.81,1.25-2.8-.08-7.73,5.49-7.24,3.68.32,8.47-1.41,10.74,1.6s.09,7.23-1.36,10.74C109.25,82,101.16,88,89.58,88c-11.37.08-20.38-4.9-24.88-15.76-6.76-16.28-6.92-32.9.12-49.07,5.25-12,16.47-17.08,30.34-14.92C106,10,113.77,19,115.22,31.55c.36,3.16,1.21,7.11-3.93,6.51-3.93-.46-9.67,4.19-11.48-3.45a46.1,46.1,0,0,0-1.43-5.87C96.8,24.6,93.93,22,89.22,22.06c-4.39.06-6.88,2.78-8.53,6.38C77.8,34.73,78.45,41.51,78.12,48.16Z"/><path class="cls-1" d="M174,48.18c.24,5.79-.16,11.62,1.55,17.29,1.36,4.51,3.9,8.06,8.85,8.42,5.43.4,8.29-3.22,10.31-7.81,1.24-2.8-.07-7.72,5.51-7.22,3.68.33,8.46-1.42,10.73,1.61s.08,7.24-1.38,10.75C205.13,82,197,88,185.45,88c-11.37.07-20.37-4.91-24.87-15.77-6.75-16.29-6.91-32.9.14-49.07,5.25-12,16.49-17.07,30.35-14.9,10.81,1.7,18.61,10.73,20,23.29.36,3.17,1.17,7.1-3.95,6.49-3.93-.47-9.67,4.19-11.47-3.47a44.93,44.93,0,0,0-1.44-5.87c-1.58-4.14-4.45-6.73-9.17-6.66-4.38.07-6.88,2.8-8.52,6.39C173.7,34.74,174.34,41.53,174,48.18Z"/><path class="cls-1" d="M30.72,62.65Q35.61,39,40.49,15.36c.79-3.84,1.55-6.81,6.87-7,7.45-.26,9.51,1.3,7.35,9.2C49.16,38,44.27,58.54,39.78,79.18c-1.43,6.55-4.33,8.51-10.57,8-6-.51-11.39.44-13.13-8.31C12,58.13,6.48,37.69,1.77,17.08c-.62-2.73-4.39-7.8,1.44-8,5.22-.22,13.42-5,15.54,5.17,3.14,15,6.12,30.08,9.18,45.12.23,1.11.55,2.21.82,3.31Z"/><path class="cls-1" d="M144.41,47.51c0,11-.34,22,.12,33,.33,7.85-4.83,6.16-9.2,6.28s-8.45.88-8.32-6.23c.42-22,.34-44,.05-66-.09-7.15,4.43-6,8.66-6s9-1.2,8.77,6C144.18,25.51,144.41,36.51,144.41,47.51Z"/><path class="cls-1" d="M244.69,89.8V5.67h.82V89.79Z"/><path class="cls-2" d="M282.82,0h.89a.38.38,0,0,1,.25.08.54.54,0,0,1,.15.21l5.3,12.91a6.86,6.86,0,0,1,.34,1.08,6,6,0,0,1,.32-1.08L295.37.3a.58.58,0,0,1,.16-.21.39.39,0,0,1,.26-.09h.88l-6.42,15.57h-1Z"/><path class="cls-2" d="M309.79,0V.94h-8.2V7.23h6.82v.91h-6.82v6.49h8.2v.93h-9.33V0Z"/><path class="cls-2" d="M315.57,0a.51.51,0,0,1,.19.17L325.84,13.7a6.27,6.27,0,0,1,0-.64V0h1V15.57h-.54a.47.47,0,0,1-.41-.22L315.73,1.84q0,.33,0,.63v13.1h-1V0h.55A.62.62,0,0,1,315.57,0Z"/><path class="cls-2" d="M342.9,0V1h-5.47V15.57h-1.12V1h-5.5V0Z"/><path class="cls-2" d="M352.67,14.76a4.94,4.94,0,0,0,2-.39,4.31,4.31,0,0,0,1.5-1.08,4.77,4.77,0,0,0,.94-1.63,6.2,6.2,0,0,0,.32-2V0h1.12V9.63a7,7,0,0,1-.41,2.4A5.74,5.74,0,0,1,357,14a5.41,5.41,0,0,1-1.86,1.3,6.63,6.63,0,0,1-4.92,0,5.4,5.4,0,0,1-1.86-1.3A5.74,5.74,0,0,1,347.18,12a7,7,0,0,1-.41-2.4V0h1.13V9.61a6.18,6.18,0,0,0,.32,2,4.81,4.81,0,0,0,.94,1.63,4.3,4.3,0,0,0,1.5,1.09A4.85,4.85,0,0,0,352.67,14.76Z"/><path class="cls-2" d="M365.82,8.53v7H364.7V0h4a6.48,6.48,0,0,1,4,1A3.64,3.64,0,0,1,374,4.09a4.19,4.19,0,0,1-.31,1.63A3.82,3.82,0,0,1,372.83,7a4.7,4.7,0,0,1-1.39.91,6.19,6.19,0,0,1-1.84.47,1.8,1.8,0,0,1,.47.44l5.36,6.73h-1a.65.65,0,0,1-.3-.07.79.79,0,0,1-.25-.22l-5-6.31a1.11,1.11,0,0,0-.4-.34,1.69,1.69,0,0,0-.67-.1Zm0-.84h2.71a6.44,6.44,0,0,0,1.85-.25,4,4,0,0,0,1.39-.71,3.05,3.05,0,0,0,.86-1.11,3.47,3.47,0,0,0,.3-1.46,2.86,2.86,0,0,0-1.09-2.46,5.29,5.29,0,0,0-3.17-.8h-2.85Z"/><path class="cls-2" d="M388.9,0V.94h-8.2V7.23h6.82v.91H380.7v6.49h8.2v.93h-9.33V0Z"/><path class="cls-2" d="M296.27,39.35a.26.26,0,0,1,.19.08l.44.47a7.23,7.23,0,0,1-1.06.93,6.55,6.55,0,0,1-1.25.7,7.34,7.34,0,0,1-1.48.45,9.19,9.19,0,0,1-1.78.16,7.57,7.57,0,0,1-3-.57A6.59,6.59,0,0,1,286.06,40a7.39,7.39,0,0,1-1.5-2.51,9.49,9.49,0,0,1-.54-3.28,9.05,9.05,0,0,1,.56-3.23,7.36,7.36,0,0,1,1.56-2.51,7,7,0,0,1,2.41-1.63,8,8,0,0,1,3.1-.58,8.83,8.83,0,0,1,1.55.13,7.13,7.13,0,0,1,1.31.36,6.24,6.24,0,0,1,1.15.59,8.87,8.87,0,0,1,1.06.81l-.34.5a.31.31,0,0,1-.27.13.47.47,0,0,1-.25-.12l-.39-.29c-.16-.11-.35-.24-.57-.37a4.61,4.61,0,0,0-.8-.37,6.72,6.72,0,0,0-1.07-.29,7.36,7.36,0,0,0-1.37-.12,6.78,6.78,0,0,0-2.61.49,5.84,5.84,0,0,0-2,1.4,6.39,6.39,0,0,0-1.34,2.2,8.3,8.3,0,0,0-.48,2.9,8.57,8.57,0,0,0,.47,2.95A6.36,6.36,0,0,0,287,39.32a5.69,5.69,0,0,0,2,1.38,6.3,6.3,0,0,0,2.47.48,9,9,0,0,0,1.49-.11,5.79,5.79,0,0,0,1.2-.33,5.41,5.41,0,0,0,1-.54,7.73,7.73,0,0,0,.94-.75l.1-.07A.24.24,0,0,1,296.27,39.35Z"/><path class="cls-2" d="M313.47,42h-.87a.38.38,0,0,1-.25-.08.55.55,0,0,1-.15-.21l-1.84-4.52h-7.65l-1.83,4.52a.47.47,0,0,1-.15.21.41.41,0,0,1-.26.09h-.86L306,26.4h1.12Zm-10.42-5.65h7l-3.18-7.86c-.05-.12-.1-.27-.15-.42s-.1-.32-.15-.5l-.15.5c-.05.16-.1.3-.15.43Z"/><path class="cls-2" d="M318.71,35.7V42h-1.12V26.4h4a6.18,6.18,0,0,1,4.13,1.2A4.27,4.27,0,0,1,327.12,31a4.59,4.59,0,0,1-.38,1.88,4.17,4.17,0,0,1-1.09,1.48,5.12,5.12,0,0,1-1.74,1,7.19,7.19,0,0,1-2.31.35Zm0-.9h2.89a5.56,5.56,0,0,0,1.85-.29,4.07,4.07,0,0,0,1.38-.79,3.44,3.44,0,0,0,.87-1.19A3.69,3.69,0,0,0,326,31a3.47,3.47,0,0,0-1.11-2.76,4.88,4.88,0,0,0-3.29-1h-2.89Z"/><path class="cls-2" d="M333.17,42H332V26.4h1.13Z"/><path class="cls-2" d="M349.7,26.4v1h-5.47V42h-1.12V27.36h-5.5v-1Z"/><path class="cls-2" d="M364.16,42h-.87a.38.38,0,0,1-.25-.08.55.55,0,0,1-.15-.21L361,37.15H353.4l-1.83,4.52a.47.47,0,0,1-.15.21.41.41,0,0,1-.26.09h-.86l6.37-15.57h1.12Zm-10.42-5.65h7l-3.18-7.86c-.05-.12-.1-.27-.15-.42s-.1-.32-.15-.5l-.15.5c-.05.16-.1.3-.15.43Z"/><path class="cls-2" d="M369.07,41h7.38v1h-8.5V26.4h1.12Z"/><path class="cls-2" d="M286.5,68.37h-1.13V52.8h1.13Z"/><path class="cls-2" d="M293.65,52.84a.51.51,0,0,1,.19.17L303.91,66.5a6.27,6.27,0,0,1,0-.64V52.8h1V68.37h-.54a.47.47,0,0,1-.41-.22L293.81,54.64q0,.33,0,.63v13.1h-1V52.8h.55A.62.62,0,0,1,293.65,52.84Z"/><path class="cls-2" d="M308.67,52.8h.89a.38.38,0,0,1,.25.08.54.54,0,0,1,.15.21L315.27,66a6.86,6.86,0,0,1,.34,1.08,6,6,0,0,1,.32-1.08l5.29-12.91a.58.58,0,0,1,.16-.21.39.39,0,0,1,.26-.09h.88l-6.42,15.57h-1Z"/><path class="cls-2" d="M335.64,52.8v.94h-8.2V60h6.82v.91h-6.82v6.49h8.2v.93h-9.33V52.8Z"/><path class="cls-2" d="M348.17,54.69a.31.31,0,0,1-.29.19.63.63,0,0,1-.37-.2,4.74,4.74,0,0,0-1.58-.91,4.87,4.87,0,0,0-2.92,0,3.14,3.14,0,0,0-1.08.66,2.8,2.8,0,0,0-.66,1,3,3,0,0,0-.23,1.15,2.36,2.36,0,0,0,.34,1.31,3,3,0,0,0,.89.88,5.72,5.72,0,0,0,1.25.61l1.44.49q.74.24,1.44.53a5.2,5.2,0,0,1,1.25.73,3.36,3.36,0,0,1,.89,1.08,3.44,3.44,0,0,1,.34,1.6,5,5,0,0,1-.34,1.84,4.3,4.3,0,0,1-1,1.5,4.57,4.57,0,0,1-1.56,1,5.68,5.68,0,0,1-2.11.37,6,6,0,0,1-2.65-.54,6.25,6.25,0,0,1-1.95-1.49l.31-.48a.39.39,0,0,1,.31-.17.44.44,0,0,1,.25.13l.37.32c.15.13.32.27.53.42a4.34,4.34,0,0,0,.72.42,4.9,4.9,0,0,0,2.14.46,4.58,4.58,0,0,0,1.65-.28,3.63,3.63,0,0,0,1.23-.76,3.24,3.24,0,0,0,.77-1.15,3.83,3.83,0,0,0,.26-1.42,2.51,2.51,0,0,0-.34-1.36,2.92,2.92,0,0,0-.89-.89,5.76,5.76,0,0,0-1.25-.6l-1.44-.47q-.74-.23-1.44-.52a5,5,0,0,1-1.25-.73,3.34,3.34,0,0,1-.89-1.11,3.68,3.68,0,0,1-.34-1.67,3.94,3.94,0,0,1,.3-1.51,3.75,3.75,0,0,1,.87-1.28,4.29,4.29,0,0,1,1.42-.89,5.17,5.17,0,0,1,1.92-.34,5.84,5.84,0,0,1,2.18.38,5.21,5.21,0,0,1,1.76,1.18Z"/><path class="cls-2" d="M363.61,52.8v1h-5.47V68.37H357V53.76h-5.5v-1Z"/><path class="cls-2" d="M375.39,64.49l.14-.35a3,3,0,0,1,.16-.32L381.8,53a.41.41,0,0,1,.18-.18.72.72,0,0,1,.24,0H383V68.37h-1V55.1a5.9,5.9,0,0,1,0-.61l-6.13,10.88a.48.48,0,0,1-.44.29h-.18a.49.49,0,0,1-.44-.29l-6.29-10.89a6,6,0,0,1,0,.62V68.37h-1V52.8h.77a.78.78,0,0,1,.25,0,.39.39,0,0,1,.18.18l6.28,10.82A4.58,4.58,0,0,1,375.39,64.49Z"/><path class="cls-2" d="M398.27,52.8v.94h-8.2V60h6.82v.91h-6.82v6.49h8.2v.93h-9.33V52.8Z"/><path class="cls-2" d="M404.06,52.84a.51.51,0,0,1,.19.17L414.32,66.5a6.27,6.27,0,0,1,0-.64V52.8h1V68.37h-.54a.47.47,0,0,1-.41-.22L404.21,54.64q0,.33,0,.63v13.1h-1V52.8h.55A.62.62,0,0,1,404.06,52.84Z"/><path class="cls-2" d="M431.38,52.8v1h-5.47V68.37h-1.12V53.76h-5.5v-1Z"/><path class="cls-2" d="M296.27,92.15a.26.26,0,0,1,.19.08l.44.47a7.23,7.23,0,0,1-1.06.93,6.55,6.55,0,0,1-1.25.7,7.34,7.34,0,0,1-1.48.45,9.19,9.19,0,0,1-1.78.16,7.57,7.57,0,0,1-3-.57,6.59,6.59,0,0,1-2.31-1.61,7.39,7.39,0,0,1-1.5-2.51A9.49,9.49,0,0,1,284,87a9.05,9.05,0,0,1,.56-3.23,7.36,7.36,0,0,1,1.56-2.51,7,7,0,0,1,2.41-1.63,8,8,0,0,1,3.1-.58,8.83,8.83,0,0,1,1.55.13,7.13,7.13,0,0,1,1.31.36,6.24,6.24,0,0,1,1.15.59,8.87,8.87,0,0,1,1.06.81l-.34.5a.31.31,0,0,1-.27.13.47.47,0,0,1-.25-.12l-.39-.29c-.16-.11-.35-.24-.57-.37a4.61,4.61,0,0,0-.8-.37,6.72,6.72,0,0,0-1.07-.29,7.36,7.36,0,0,0-1.37-.12,6.78,6.78,0,0,0-2.61.49,5.84,5.84,0,0,0-2,1.4,6.39,6.39,0,0,0-1.34,2.2,8.3,8.3,0,0,0-.48,2.9,8.57,8.57,0,0,0,.47,2.95A6.36,6.36,0,0,0,287,92.12a5.69,5.69,0,0,0,2,1.38,6.3,6.3,0,0,0,2.47.48,9,9,0,0,0,1.49-.11,5.79,5.79,0,0,0,1.2-.33,5.41,5.41,0,0,0,1-.54,7.73,7.73,0,0,0,.94-.75l.1-.07A.24.24,0,0,1,296.27,92.15Z"/><path class="cls-2" d="M315.64,87a9.44,9.44,0,0,1-.54,3.27,7.24,7.24,0,0,1-1.52,2.51,6.71,6.71,0,0,1-2.34,1.61,8.3,8.3,0,0,1-6,0,6.71,6.71,0,0,1-2.34-1.61,7.31,7.31,0,0,1-1.52-2.51,10.07,10.07,0,0,1,0-6.53,7.33,7.33,0,0,1,1.52-2.51,6.76,6.76,0,0,1,2.34-1.61,7.7,7.7,0,0,1,3-.57,7.83,7.83,0,0,1,3,.57,6.68,6.68,0,0,1,2.34,1.61,7.32,7.32,0,0,1,1.52,2.51A9.41,9.41,0,0,1,315.64,87Zm-1.17,0a8.89,8.89,0,0,0-.45-2.93,6.31,6.31,0,0,0-1.27-2.2,5.45,5.45,0,0,0-2-1.38,6.65,6.65,0,0,0-2.56-.48,6.55,6.55,0,0,0-2.54.48,5.57,5.57,0,0,0-2,1.38,6.27,6.27,0,0,0-1.29,2.2,9.62,9.62,0,0,0,0,5.86,6.28,6.28,0,0,0,1.29,2.19,5.51,5.51,0,0,0,2,1.38,6.6,6.6,0,0,0,2.54.47,6.7,6.7,0,0,0,2.56-.47,5.39,5.39,0,0,0,2-1.37A6.32,6.32,0,0,0,314,89.91,8.88,8.88,0,0,0,314.47,87Z"/><path class="cls-2" d="M328.39,90.89l.14-.35a3,3,0,0,1,.16-.32l6.12-10.81a.41.41,0,0,1,.18-.18.72.72,0,0,1,.24,0H336V94.77h-1V81.5a5.9,5.9,0,0,1,0-.61l-6.13,10.88a.48.48,0,0,1-.44.29h-.18a.49.49,0,0,1-.44-.29l-6.29-10.89a6,6,0,0,1,0,.62V94.77h-1V79.2h.77a.78.78,0,0,1,.25,0,.39.39,0,0,1,.18.18l6.28,10.82A4.58,4.58,0,0,1,328.39,90.89Z"/><path class="cls-2" d="M343.39,88.5v6.27h-1.12V79.2h4a6.18,6.18,0,0,1,4.13,1.2,4.27,4.27,0,0,1,1.39,3.42,4.59,4.59,0,0,1-.38,1.88,4.17,4.17,0,0,1-1.09,1.48,5.12,5.12,0,0,1-1.74,1,7.19,7.19,0,0,1-2.31.35Zm0-.9h2.89a5.56,5.56,0,0,0,1.85-.29,4.07,4.07,0,0,0,1.38-.79,3.44,3.44,0,0,0,.87-1.19,3.69,3.69,0,0,0,.3-1.5,3.47,3.47,0,0,0-1.11-2.76,4.88,4.88,0,0,0-3.29-1h-2.89Z"/><path class="cls-2" d="M365.65,79.2v.94h-8.2v6.29h6.82v.91h-6.82v6.49h8.2v.93h-9.33V79.2Z"/><path class="cls-2" d="M380.8,79.2v1h-5.47V94.77h-1.12V80.16h-5.5v-1Z"/><path class="cls-2" d="M386.36,94.77h-1.13V79.2h1.13Z"/><path class="cls-2" d="M402.88,79.2v1h-5.47V94.77h-1.12V80.16h-5.5v-1Z"/><path class="cls-2" d="M408.43,94.77H407.3V79.2h1.13Z"/><path class="cls-2" d="M428.67,87a9.44,9.44,0,0,1-.54,3.27,7.24,7.24,0,0,1-1.52,2.51,6.71,6.71,0,0,1-2.34,1.61,8.3,8.3,0,0,1-6,0,6.71,6.71,0,0,1-2.34-1.61,7.31,7.31,0,0,1-1.52-2.51,10.07,10.07,0,0,1,0-6.53,7.33,7.33,0,0,1,1.52-2.51,6.76,6.76,0,0,1,2.34-1.61,7.7,7.7,0,0,1,3-.57,7.83,7.83,0,0,1,3,.57,6.68,6.68,0,0,1,2.34,1.61,7.32,7.32,0,0,1,1.52,2.51A9.41,9.41,0,0,1,428.67,87Zm-1.17,0a8.89,8.89,0,0,0-.45-2.93,6.31,6.31,0,0,0-1.27-2.2,5.45,5.45,0,0,0-2-1.38,6.65,6.65,0,0,0-2.56-.48,6.55,6.55,0,0,0-2.54.48,5.57,5.57,0,0,0-2,1.38,6.27,6.27,0,0,0-1.29,2.2,9.62,9.62,0,0,0,0,5.86,6.28,6.28,0,0,0,1.29,2.19,5.51,5.51,0,0,0,2,1.38,6.6,6.6,0,0,0,2.54.47,6.7,6.7,0,0,0,2.56-.47,5.39,5.39,0,0,0,2-1.37,6.32,6.32,0,0,0,1.27-2.19A8.88,8.88,0,0,0,427.51,87Z"/><path class="cls-2" d="M434.45,79.24a.51.51,0,0,1,.19.17L444.71,92.9a6.27,6.27,0,0,1,0-.64V79.2h1V94.77h-.54a.47.47,0,0,1-.41-.22L434.6,81q0,.33,0,.63v13.1h-1V79.2h.55A.62.62,0,0,1,434.45,79.24Z"/></g></g></g></svg>