<svg xmlns="http://www.w3.org/2000/svg" viewBox="0 0 437.4 191.05"><defs><style>.cls-1{fill:#fff;}</style></defs><title>activities_1mc</title><g id="Layer_2" data-name="Layer 2"><g id="Mobile"><g id="Activities"><g id="Nav_Responsive" data-name="Nav Responsive"><g id="Imported-Layers"><g id="Group"><path id="Fill-2" class="cls-1" d="M65.73,87.37a9.52,9.52,0,0,0,7.54-3.31V33.14a9.45,9.45,0,0,0-7.54-3.37c-6,0-10.23,4.34-10.23,11.4V76.08c0,7.05,4.23,11.29,10.23,11.29"/><path id="Fill-3" class="cls-1" d="M157.64,42.19V76.07c0,7,4.23,11.28,10.22,11.28A9.54,9.54,0,0,0,175.4,84V33.15a9.49,9.49,0,0,0-7.54-3.37c-6,0-10.22,4.34-10.22,11.39"/><path id="Fill-4" class="cls-1" d="M175.4,106.88v-4.28a28.6,28.6,0,0,1-7.6,1c-13.74,0-25.7-9.28-25.7-25.89V41.1c0-16.6,12-25.88,25.7-25.88a28.78,28.78,0,0,1,7.6,1V0H124.34V16.24a28.57,28.57,0,0,0-7.6-1C103,15.22,91,24.5,91,41.11V77.73c0,16.61,12,25.89,25.7,25.89a28.75,28.75,0,0,0,7.6-1v4.28c0,12.09,6.38,21.9,14.24,21.9h47.68c0-.21,0-.41.05-.62-6.25-2.3-10.91-10.94-10.91-21.28ZM124.34,84.06a9.52,9.52,0,0,1-7.54,3.31c-6,0-10.22-4.24-10.22-11.29V41.17c0-7.05,4.23-11.4,10.22-11.4a9.46,9.46,0,0,1,7.54,3.37V84.06Z"/><path id="Fill-8" class="cls-1" d="M277.54,106.88V102.6a28.47,28.47,0,0,1-7.6,1c-13.74,0-25.7-9.28-25.7-25.89V41.11c0-16.6,12-25.88,25.7-25.88a28.65,28.65,0,0,1,7.6,1V0H226.47V16.24a28.74,28.74,0,0,0-7.61-1c-13.74,0-25.7,9.28-25.7,25.88V77.74c0,16.6,12,25.89,25.7,25.89a28.56,28.56,0,0,0,7.61-1v4.28c0,12.1,6.37,21.9,14.22,21.9h48.43c0-.13,0-.25,0-.38-6.61-1.89-11.62-10.79-11.62-21.52ZM226.47,84a9.53,9.53,0,0,1-7.54,3.31c-6,0-10.22-4.23-10.22-11.28V41.18c0-7,4.23-11.39,10.22-11.39a9.48,9.48,0,0,1,7.54,3.37V84Z"/><path id="Fill-28" class="cls-1" d="M277.54,84A9.52,9.52,0,0,1,270,87.35c-6,0-10.22-4.23-10.22-11.28V41.18c0-7,4.23-11.39,10.22-11.39a9.46,9.46,0,0,1,7.54,3.37V84.37"/><path id="Fill-29" class="cls-1" d="M386.1,0H330.82V16.13a28.91,28.91,0,0,0-7.6-1,29.72,29.72,0,0,0-3.13.18l-.32,0a28.12,28.12,0,0,0-4.9,1h0a25.44,25.44,0,0,0-5.46,2.36,23.59,23.59,0,0,0-4.66,3.57l-.37.38a22.82,22.82,0,0,0-1.57,1.8l-.38.48a23,23,0,0,0-1.53,2.33l-.07.12a24.34,24.34,0,0,0-1.31,2.75c-.08.21-.15.43-.23.64-.28.74-.52,1.5-.73,2.28-.09.32-.17.65-.24,1-.17.74-.31,1.51-.42,2.3,0,.33-.1.66-.14,1a31.79,31.79,0,0,0-.2,3.46V77.21c0,16.49,12,25.71,25.7,25.71a28.73,28.73,0,0,0,7.6-1v5c0,.06,0,.11,0,.16a28.36,28.36,0,0,0,4.25,15.37l.06.08c.31.46.63.9,1,1.32l.13.14c.32.39.64.76,1,1.11.09.09.18.16.27.25.3.29.6.58.92.84.13.11.27.19.4.29.28.22.57.44.86.63s.35.19.52.29.53.31.8.44.44.17.66.25.48.21.72.28.59.14.88.2.37.1.55.13a9.75,9.75,0,0,0,1.47.11H423c8,0,14.43-9.8,14.43-21.9V0ZM330.82,84a9.53,9.53,0,0,1-7.54,3.31c-6,0-10.23-4.23-10.23-11.28V41.18c0-7,4.23-11.39,10.23-11.39a9.47,9.47,0,0,1,7.54,3.37V84Z"/><path id="Fill-30" class="cls-1" d="M73.28,101.57l0,0v-.43a28.91,28.91,0,0,1-7.59,1c-9.34,0-17.84-4.26-22.34-12.16A27,27,0,0,1,40,76.47V40.09c0-16.49,12-25.71,25.71-25.71a28.72,28.72,0,0,1,7.59,1V0H42c-1.6,0-2.77.15-3.37.63C14.87,19.55,3.08,22.26,2.22,22.7l.09,11.73a46.13,46.13,0,0,1,15.45-1.55V64.39H20v36.84c-.19,0-20,25.32-20,25.32H91.29s-15.79-2.73-18-25.7"/></g><g id="Group-2" data-name="Group"><path id="Fill-31" class="cls-1" d="M11.2,156.45l-6.76,6V159l6.76-5.81h4.34v37.74H13.32V155.42"/><path id="Fill-32" class="cls-1" d="M64.39,190.94V169l-8.06,15.31H51.4l-7-15.31v22H37.74V153.2h7.07l9.6,20.41L64,153.2H71v37.74H64.39"/><path id="Fill-33" class="cls-1" d="M86.59,153.2h6.66v37.74H86.59Z"/><path id="Fill-34" class="cls-1" d="M108.79,190.94V153.2h6.66v31.08h17.76v6.66H108.79"/><path id="Fill-35" class="cls-1" d="M146.54,190.94V153.2h6.66v31.08H171v6.66H146.54"/><path id="Fill-36" class="cls-1" d="M182.06,153.2h6.66v37.74h-6.66Z"/><path id="Fill-37" class="cls-1" d="M225.87,187a14.5,14.5,0,0,1-20.18,0c-3.77-3.77-3.67-8.44-3.67-14.89s-.11-11.11,3.67-14.88a14.49,14.49,0,0,1,20.18,0c3.77,3.77,3.72,8.44,3.72,14.88s.05,11.11-3.72,14.89Zm-5.4-25.37a6.05,6.05,0,0,0-4.66-2,6.16,6.16,0,0,0-4.72,2c-1.42,1.57-1.78,3.3-1.78,10.48s.37,8.91,1.78,10.48a6.17,6.17,0,0,0,4.72,2,6.06,6.06,0,0,0,4.66-2c1.42-1.57,1.83-3.3,1.83-10.48s-.42-8.91-1.83-10.48Z"/><path id="Fill-38" class="cls-1" d="M261.23,190.73l-14.78-22.9v23.12h-6.66V153.2h8.69L262,176.31V153.2h6.66v37.74H262"/><path id="Fill-39" class="cls-1" d="M301.52,190.33a12.57,12.57,0,0,1-9-3.68c-3.28-3.28-3.33-6.51-3.33-14.58s.05-11.3,3.33-14.58a12.58,12.58,0,0,1,9-3.68c6.46,0,11,4,12.21,10.49H311c-1.19-5.61-5.49-8.8-11.28-7.93a8.51,8.51,0,0,0-4.21,1.94c-3.29,2.79-3.53,5.4-3.53,13.76s.24,11,3.52,13.76a8.47,8.47,0,0,0,4.15,1.93c5.79.91,10.26-2.28,11.45-7.92h2.67c-1.21,6.46-5.85,10.49-12.21,10.49"/><path id="Fill-40" class="cls-1" d="M341.39,191c-7.49,0-12.79-5.14-12.79-12.42V153.2H333V178c0,6.18,3.94,10.27,10,10.27s10-4.09,10-10.27V153.2h2.22v25.43c0,7.28-5.3,12.42-12.79,12.42"/><path id="Fill-41" class="cls-1" d="M387.14,175.4H375.23v15.54H373V153.2h14.14c6.66,0,11.64,4,11.64,11.1s-5,11.1-11.64,11.1Zm-2-20h-9.95V171h9.95c4.9,0,8.27-2.48,8.27-7.77s-3.37-7.77-8.27-7.77Z"/><path id="Fill-42" class="cls-1" d="M421,191c-5.51,0-9-1.52-12.42-4.93l2-2c3.35,3.35,6.13,4.4,10.59,4.4,5.92,0,9.59-2.83,9.59-7.7a6.51,6.51,0,0,0-2-5.24c-1.41-1.1-2.31-1.57-5.4-2l-4.35-.68a12.69,12.69,0,0,1-6.66-2.73,8.5,8.5,0,0,1-2.94-6.86c0-6.29,4.41-10.22,11.59-10.22a14.74,14.74,0,0,1,10.74,4L429.86,159a11.84,11.84,0,0,0-9.07-3.46c-5.45,0-8.65,2.93-8.65,7.7a6,6,0,0,0,1.94,4.88,12.5,12.5,0,0,0,5.56,2.3l4,.63c3.51.47,5.14,1.15,6.66,2.47a9.17,9.17,0,0,1,3.25,7.23c0,6.34-4.77,10.33-12.58,10.33"/></g></g></g></g></g></g></svg>