<svg xmlns="http://www.w3.org/2000/svg" viewBox="0 0 546.98 163.75"><defs><style>.cls-1{fill:#fff;}</style></defs><title>activities_cc</title><g id="Layer_2" data-name="Layer 2"><g id="Mobile"><g id="Activities"><path class="cls-1" d="M427.41,71.47c6.86-7.63,14.47-10.33,23.48-8.91S465,69.45,466.67,78c2.23,11.75.77,23.68,1,35.53a2,2,0,0,1-.18,1.1c-3.91,5.51-9.6,2-14.44,2.73-3.36.52-4.6-1.67-4.58-4.87.05-7.16.1-14.32-.07-21.48C448.18,83,445.06,78.43,440,78.3c-6.25-.16-10.25,4.52-10.55,12.87-.25,7-.19,13.94-.11,20.91,0,3.76-1.39,5.5-5.32,5.47-16.5-.12-13.87,1.31-14-13.09-.12-11.68.12-23.37-.09-35-.09-4.62,1.55-6.74,6.21-6.29a12.27,12.27,0,0,0,2.26,0C423.75,62.64,428.37,63.15,427.41,71.47Z"/><path class="cls-1" d="M41.34,58.55A44.09,44.09,0,0,1,53.23,61.1c2.27.83,4.77,2.92,6.13-1.53.64-2.09,2.21-.24,3,.54,6.44,6.34,12.79,12.78,19.23,19.12,1.88,1.85,1.87,3.38,0,5.23C75.26,90.66,69,97,62.77,103.2c-.77.77-2.15,2.26-2.7,1.47-3.25-4.69-6.84-.77-10.12-.47-3.74.34-7.45,1.08-11.23.75-13.37-1.18-22.15-11.19-21.4-24.35S27.57,58.52,41.34,58.55Z"/><path class="cls-1" d="M254.1,118.63c-29.47-.3-36.71-26.35-26.93-43.05C233,65.66,247.09,60.31,261,62.78c16.77,3,25.74,14,24.67,30.31-1,14.52-12.68,24.94-28.74,25.54C256,118.66,255,118.63,254.1,118.63Zm12.06-29.56a31.59,31.59,0,0,0-.57-3.47c-1.56-6.21-5.42-9.65-10.84-9.76s-9.63,3.59-11.31,9.88a19.16,19.16,0,0,0,1.11,12.69,10,10,0,0,0,9.14,6.48,10.27,10.27,0,0,0,10-5.1C265.51,96.82,266.22,93.52,266.16,89.07Z"/><path class="cls-1" d="M117.1,111.46c-6.94,7.38-14.94,8.53-23.74,6.08a16.41,16.41,0,0,1-12.28-14.62C80.37,96,84.16,89.6,90.72,86.43c6.33-3.06,13.07-3.25,19.91-3.21,2,0,5.24,1.26,5.5-2.08.24-3-2.41-4.69-5.16-5.12a43,43,0,0,0-16.84.69c-2,.47-5.06,3.65-6.09-.24C87.13,73,85.81,68.36,90,65.6c8.8-5.84,29.79-4.54,37.89,2.21,5,4.13,7.06,9.71,7.21,16,.24,10,.3,20,.47,30,0,1.16.1,2.26-.92,3.08C130.88,119.88,119,116.77,117.1,111.46Zm-6.54-17.74C103,93.75,99,96,99.2,100c.17,4.48,3.61,5.44,7.16,5.56,4.5.15,10.57-5.36,10.11-9.08C115.94,92.36,112.38,94.39,110.56,93.72Z"/><path class="cls-1" d="M546.1,94.73c.17,6-.36,12.06.75,18,.56,3-.77,4.71-4,4.7-3,0-6,0-9-.05-.9,0-2.44-.25-2.59-.73-2.75-8.71-6.06-1.8-9-.33-7.81,3.85-15.43,3-22.66-1.24-5.62-3.3-7.39-8.78-6.94-15.06.52-7.16,4.4-11.82,11-14.39,6.29-2.47,12.88-2.48,19.5-2.44,1.63,0,4.23,1.17,4.56-1.72.25-2.28-1.46-3.92-3.47-4.7-5.67-2.2-11.44-1.21-17.26-.53-2.37.28-5.63,4.69-7.33-.45-2-6.07,0-10.18,5.13-11.64,8.47-2.38,17-3,25.68-.79,10.13,2.64,15.52,9.42,15.72,20C546.16,87.19,546.1,91,546.1,94.73Zm-23.73-1c-1.41,0-2.34,0-3.27,0-3.77.21-7,1.38-8.45,5.26a4.09,4.09,0,0,0,1.65,4.95c3.42,2.5,7,2.21,10.47.07a11,11,0,0,0,2.59-2.1c1.61-1.88,3.24-4.19,2.48-6.55C526.94,92.65,523.94,94.16,522.37,93.76Z"/><path class="cls-1" d="M312.6,78.65c0-10.74.15-21.48-.07-32.21-.09-4.66,1.65-6.34,6.28-6.24,14.6.3,13.08-1.57,13.12,12.93.06,19.22-.11,38.43.09,57.65.06,5.16-1.73,6.95-6.9,6.83-14.2-.31-12.43,1-12.53-12.39C312.54,96.36,312.59,87.51,312.6,78.65Z"/><path class="cls-1" d="M181.29,70.6c3.55-3.93,7.1-7.44,12.46-8.3,7.29-1.16,9.66,1.11,8.94,8.47-.48,4.88-1.13,8.08-7.74,7.76-7.53-.36-11.88,5.09-12.24,13.33-.29,6.57-.27,13.17-.09,19.74.12,4.36-1.6,6-6,6-15.63-.2-13.27,1.25-13.4-13.11-.11-11.28,0-22.57,0-33.85,0-7.25.25-7.45,7.74-7.48h1.13C179.65,63.15,179.65,63.15,181.29,70.6Z"/><path class="cls-1" d="M.12,97.91c10.3,16.11,25.22,20.74,42.67,20.17,1.09,0,2.48-.58,3,.66.69,1.53-.85,2.34-1.71,3.2Q30.4,135.77,16.59,149.51C12.33,153.77,8.09,158,3.8,162.27c-.76.75-1.59,2-2.79,1.23A3.32,3.32,0,0,1,.16,161Q.09,129.48.12,97.91Z"/><path class="cls-1" d="M.62,66.84c-.27-2.36-.5-3.44-.5-4.53q0-29.06,0-58.13c0-1.41-.65-3.36,1-4S3.77,1.3,4.78,2.3Q24.37,21.8,43.89,41.4c.88.89,2.41,1.74,1.85,3.19-.64,1.64-2.31.71-3.52.69C30.27,45,19.06,47,9.52,55,6,58,4.11,62.16.62,66.84Z"/><path class="cls-1" d="M361.45,90.28c0-7.35.07-14.7,0-22,0-3.56,1.49-5.12,5.08-5.11,17.07,0,14.07-1.25,14.25,13.43.14,11.68-.09,23.37.08,35,.07,4.38-1.59,6-6,6-15.51-.2-13.25,1.31-13.42-13.17C361.39,99.7,361.44,95,361.45,90.28Z"/><path class="cls-1" d="M417.2,143.89c-1.12,5.21-1.85,8.83-2.68,12.42-.48,2.08-1.21,4.31-3.91,3.9-3.31-.5-2-3.16-1.66-4.95,1-5.35,2.27-10.66,3.46-16,.56-2.51,1.42-4.71,4.66-4.63,2.85.07,3.81,1.94,4.45,4.26a41.89,41.89,0,0,0,4.06,10.53c.85-3.78,1.74-7.56,2.53-11.35.46-2.21,1.64-3.37,3.95-2.91,2.55.51,1.87,2.43,1.53,4-1.2,5.7-2.49,11.38-3.71,17.08-.52,2.44-1.54,4.19-4.43,4.12s-3.95-1.71-4.62-4.1C419.85,152.73,418.76,149.16,417.2,143.89Z"/><path class="cls-1" d="M217.15,157c.13,1.42,0,2.77-1.61,3.18s-2.77-.26-3.86-1.6c-4-4.92-8.1-5.12-12.25-.51-1.69,1.88-3.8,3.43-5.78,1.93-2.38-1.79.39-3.65,1.28-5.22,3.26-5.71,6.75-11.29,10.16-16.91,1.14-1.88,2.57-3.21,5-2.91,2.59.31,3.3,2.2,3.71,4.32C214.94,145.17,216,151.08,217.15,157Z"/><path class="cls-1" d="M481.08,160.65c-5.28-.05-9.69-1.55-11.62-7.09s0-12.48,4.61-15.82A17.3,17.3,0,0,1,489.13,135c1.78.45,3.29,1.15,2.75,3.44s-2.17,1.95-4,1.62c-7.16-1.29-11.73,1.43-12.78,7.43a6.94,6.94,0,0,0,2.12,6.69c1.66,1.53,3.86,2.39,5.53.56s1.63-3.76-1.42-4.62a1.8,1.8,0,0,1-.83-3.16c2.27-2.39,5.29-1.6,8-1s1.92,2.8,1.68,4.66C489,159.3,487.75,160.68,481.08,160.65Z"/><path class="cls-1" d="M147.14,139.26c-.59,2.72-.73,4.9,2.65,5.19,2.92.25,5.24-.22,5.76-3.76a15.72,15.72,0,0,1,1.32-4.3c.66-1.43,2.12-1.39,3.46-1.22,1.74.22,2.1,1.47,1.8,2.9-1.35,6.44-2.76,12.87-4.18,19.3-.41,1.86-1.47,3.15-3.54,2.81-2.76-.45-2.15-2.48-1.91-4.39.27-2.12,1.58-4.72-1.28-5.95a5.2,5.2,0,0,0-5.84.71c-1.45,1.39-1.18,3.5-1.73,5.28-.67,2.14-.91,4.92-4.07,4.29-3.43-.69-2.09-3.41-1.67-5.49,1.07-5.35,2.24-10.68,3.4-16,.42-1.95,1.11-3.71,3.66-3.35C147.7,135.67,147.43,137.6,147.14,139.26Z"/><path class="cls-1" d="M534.69,160.53c-8.48,0-8.69-.27-6.92-8.35,1-4.4,1.73-8.84,2.88-13.19,1.06-4,12-6.6,14.82-3.53,1.48,1.64.76,3.26-1.06,4.05a14.06,14.06,0,0,1-3.86.57c-1.62.2-3.82-.22-4.08,2-.29,2.49,2,2.18,3.58,2.47s3.22.34,3,2.47c-.17,1.94-1.76,2.17-3.32,2.31a22.35,22.35,0,0,0-3.89.47,2.86,2.86,0,0,0-2,3c0,1.56.84,2.24,2.3,2.7,2,.62,6.1-1.26,5.43,2.67C541,161.89,536.89,160,534.69,160.53Z"/><path class="cls-1" d="M361.82,160.53c-8.68,0-8.9-.21-7.38-7.87.92-4.61,2-9.18,3-13.78.54-2.54,2-4.07,4.61-4.13,3.53-.09,7.25-.5,10.44,1.07,1.4.69.54,2.87-1,3.57a15.23,15.23,0,0,1-3.84.68c-1.75.28-4.3-.37-4.33,2.35,0,2.38,2.36,1.86,3.92,2.16,1.32.26,2.74.43,2.63,2.25-.1,1.58-1.21,2.24-2.64,2.42a41.34,41.34,0,0,0-4.47.53c-1.45.35-2,1.58-2,3s.83,2.26,2.28,2.74c2,.65,6.11-1.22,5.44,2.71S363.58,159.7,361.82,160.53Z"/><path class="cls-1" d="M371.67,41.45c3.36.75,9.19-2.34,9.17,5.59,0,7.76-.23,8.26-8.09,8.3-1.32,0-2.63,0-3.95,0-6.94-.06-7.44-.56-7.36-7.29C361.52,41.5,361.59,41.45,371.67,41.45Z"/><path class="cls-1" d="M98.25,139.48c-4-.54-7,1.17-9.06,4.46a8,8,0,0,0-.29,8.59c1.47,2.66,3.85,3.34,6.71,3.17,1.33-.08,3.36-1.2,3.71,1.11s-1.27,3.26-3.38,3.71c-7.44,1.59-13.7-3.09-14.22-10.69a14.37,14.37,0,0,1,17.14-15.28c1.93.37,4.67.58,4.07,3.54C102.39,140.81,100.05,139.74,98.25,139.48Z"/><path class="cls-1" d="M259.45,160.53c-7.72,0-7.86-.17-6.35-7.5,1-4.79,2-9.56,2.92-14.37.49-2.68,1.76-4.25,4.56-3.6s1.66,3,1.38,4.65c-.65,3.89-1.5,7.75-2.4,11.59-.64,2.71-.24,4.37,3.06,4.41,1.72,0,4.39-.51,4.39,2.19,0,2.94-2.76,2.43-4.74,2.61C261.34,160.59,260.39,160.52,259.45,160.53Z"/><path class="cls-1" d="M309.33,160.52c-8.07,0-8.06,0-6.35-7.86,1-4.41,1.86-8.83,2.75-13.26.5-2.5,1-5.32,4.43-4.41s1.61,3.74,1.33,5.73c-.5,3.53-1.32,7-2.12,10.5-.61,2.64-.39,4.43,3,4.46,1.73,0,4.39-.51,4.46,2.13.08,3-2.69,2.5-4.67,2.67C311.22,160.58,310.27,160.52,309.33,160.52Z"/></g></g></g></svg>