<svg xmlns="http://www.w3.org/2000/svg" viewBox="0 0 565.65 131.5"><defs><style>.cls-1{fill:#fff;}</style></defs><title>activities_aa</title><g id="Layer_2" data-name="Layer 2"><g id="Mobile"><g id="Activities"><path class="cls-1" d="M65.61,131.5A65.52,65.52,0,0,1,0,65.51C.09,28,31.36-.55,67.11,0c35.29.57,64.39,30,64.37,66.19S102,131.5,65.61,131.5ZM117,95c-.87-1.81-1.62-3.28-2.3-4.77-9.22-20.42-18.52-40.8-27.55-61.3-1.55-3.52-3.28-5.47-7.25-4.68a6.47,6.47,0,0,1-2.26,0c-1.74-.29-2.5.57-3.16,2.08-2.54,5.89-5.2,11.72-7.83,17.57-.31.69-.67,1.36-1.16,2.33-2.52-5.59-5.19-10.7-7.12-16.07-1.64-4.6-4-6.81-9.12-6-2.15.33-3.22.85-4.11,2.81q-12.57,28-25.31,55.86c-1.83,4-3.7,8-5.63,12.2H20c6.13,0,6.32.07,8.47-5.66,4.36-11.63,13-18.36,24.41-22.11,1-.34,2.09-.57,3.51-1L43.3,95c3.34,0,6.44-.11,9.52,0a2.94,2.94,0,0,0,3.23-2.12c2.15-5,4.37-9.95,6.57-14.91.89-2,1.82-4,2.86-6.29.49,1,.83,1.69,1.14,2.38,2.78,6.19,5.54,12.4,8.36,18.57.38.84,1.06,2.15,1.67,2.19,3.63.21,7.27.1,11,.1L74.73,66.38a4.89,4.89,0,0,1,1,0c11.26,3.26,20.54,9,25.52,20.23,1,2.27,1.92,4.6,3.07,6.8a3.09,3.09,0,0,0,2.1,1.51C109.8,95.09,113.2,95,117,95Z"/><path class="cls-1" d="M484.77,86.34H468.9v-56l-.43-.19L446.6,59.95,425,30.33l-.47.13V86.34H408.6V1.07c4.8,0,9.53-.07,14.26.08.67,0,1.44,1,1.93,1.65q9.91,13.52,19.75,27.1c.62.85,1.25,1.68,2,2.73.6-.76,1.11-1.38,1.57-2,6.76-9.28,13.53-18.54,20.24-27.86A3.56,3.56,0,0,1,471.72,1c4.29.11,8.59,0,13.05,0Z"/><path class="cls-1" d="M237.22,86.46V1.18c.79,0,1.52-.12,2.25-.12,9,0,18,0,27,0a43.18,43.18,0,0,1,43.25,44.33c-.39,18.82-15,36.08-34.12,40a50.6,50.6,0,0,1-9.43,1c-8.76.13-17.53,0-26.29,0Zm16.14-15.87c4.72,0,9.31,0,13.9,0a25.19,25.19,0,0,0,4.49-.52c11.07-2.19,20.15-11.6,21.6-22.35a27,27,0,0,0-14.8-27.89c-8.07-4.15-16.64-2.53-25.19-2.89Z"/><path class="cls-1" d="M499.37,71.37l10.54-12L511.78,61c6.33,5.55,13.4,9.49,22,10.19a19.08,19.08,0,0,0,11.3-2.52c4.71-2.7,7.49-10.9-.36-14.39-4.42-2-9.33-2.83-14-4.19-4-1.15-8.07-2-11.93-3.5-8.94-3.41-14.44-9.88-15.24-19.55-.77-9.37,3-16.83,11-21.85,10.65-6.68,21.87-6.46,33.24-2.09A49.83,49.83,0,0,1,563.7,13.34L553.5,25.73l-2.26-1.83c-6-4.76-12.47-8.46-20.43-7.71A17.84,17.84,0,0,0,523,18.86c-5.15,3.35-4.87,9.79.71,12.26,4.7,2.08,9.93,2.95,14.88,4.5s10.12,2.69,14.68,5c16.59,8.51,15.58,31.14,2.15,40.37-8.74,6-18.15,7.23-28.29,5.36A55.56,55.56,0,0,1,499.37,71.37Z"/><path class="cls-1" d="M316.09,86.46c2.36-6.17,4.58-12,6.82-17.83q12.6-32.72,25.16-65.46c.61-1.59,1.3-2.23,3-2.15,3.39.15,6.8.15,10.2,0a2.7,2.7,0,0,1,3.1,2.09q13.81,36,27.75,72c1.41,3.65,2.8,7.3,4.3,11.19-.85.08-1.48.18-2.11.18-4.38,0-8.77-.08-13.14.05-1.67,0-2.34-.57-2.89-2.06C376,78,373.43,71.62,371.06,65.18a2.18,2.18,0,0,0-2.42-1.73c-8.16.07-16.32.08-24.48,0-1.62,0-2.22.63-2.73,2-2.4,6.43-4.93,12.81-7.33,19.24a2.34,2.34,0,0,1-2.62,1.82C326.5,86.4,321.52,86.46,316.09,86.46ZM356.3,27.1l-7.71,20.21H364Z"/><path class="cls-1" d="M226.9,86.45c-5.52,0-10.88.05-16.22-.08-.56,0-1.34-1-1.62-1.7-2.5-6.39-5-12.79-7.31-19.24a2.6,2.6,0,0,0-3-2c-8,.07-16,.08-24,0A2.49,2.49,0,0,0,172,65.38c-2.4,6.43-5,12.8-7.32,19.24a2.42,2.42,0,0,1-2.77,1.88c-5-.1-9.93,0-15.22,0,.79-2.12,1.44-3.94,2.14-5.75Q163.73,42,178.6,3.21c.66-1.72,1.49-2.27,3.28-2.19,3.47.15,6.95.1,10.42,0a2.21,2.21,0,0,1,2.5,1.65q15.78,41.06,31.65,82.09C226.62,85.24,226.71,85.75,226.9,86.45ZM194.61,47.36,186.86,27.1l-7.73,20.27Z"/><path class="cls-1" d="M332.72,130.89a33.76,33.76,0,0,1-4.78-.07,3.83,3.83,0,0,1-2.06-1.45c-2.78-3.46-5.48-7-8.65-11v12.42h-6.47V107.32c1.78,0,3.51-.11,5.21.06a3,3,0,0,1,1.72,1.2c2.77,3.47,5.49,7,8.61,11V107.48h6.43Z"/><path class="cls-1" d="M253.41,124.18v6.52h-6.5V107.12c5,.22,9.88.19,14.7.75a6.6,6.6,0,0,1,5.92,5.75c.62,3.46-.17,6.45-3.3,8.49l-1.17.78,5.4,8c-2.64,0-4.91.06-7.17-.05-.44,0-.94-.67-1.27-1.13a40,40,0,0,1-2.62-4C256.55,124.17,255.42,123.53,253.41,124.18Zm.1-5.57c1.78,0,3.28.07,4.78,0a2.6,2.6,0,0,0,2.76-2.68c0-1.74-1.17-2.57-2.75-2.71s-3.12,0-4.8,0Z"/><path class="cls-1" d="M491,107.44h6.45v8.66h8.15v-8.64h6.63v23.25h-6.58v-8.45h-8.08v8.46H491Z"/><path class="cls-1" d="M429.46,107.43H448v5.64h-12.1v3.37h11v5.27H436v3.64h12.33v5.41H429.46Z"/><path class="cls-1" d="M298.61,130.79H279.74V107.47H298.4V113H286.24v3.46h11v5.25H286.21v3.61h12.4Z"/><path class="cls-1" d="M173.44,130.9a32.79,32.79,0,0,0-3.83,0c-2.3.3-3.89-.22-4.51-2.76-.14-.57-1.21-1.17-1.93-1.29-1.33-.21-2.72.06-4.06-.09-2.34-.25-4.11.13-4.6,2.88a2.09,2.09,0,0,1-1.56,1.16c-1.79.15-3.6.06-5.71.06.28-.83.45-1.44.7-2,2.78-6.59,5.61-13.16,8.32-19.78A2.49,2.49,0,0,1,159,107.2c4.39.1,4.39,0,6.09,4Zm-10.77-9.29-2.48-6.39-2.46,6.39Z"/><path class="cls-1" d="M458.45,127.5l3.22-3.84c3.08.8,5.7,1.61,8.38,2.09.69.12,1.56-.8,2.35-1.25-.64-.62-1.18-1.53-1.95-1.81-2-.76-4.22-1.14-6.26-1.9-3.19-1.19-4.44-3.06-4.51-6.07A6.52,6.52,0,0,1,464,108c5.08-1.93,9.89-1,14.55,2.15l-3,4.27c-2.45-.63-4.65-1.32-6.9-1.69-.66-.11-1.47.68-2.21,1.06.6.65,1.07,1.62,1.81,1.9,2.11.8,4.35,1.21,6.48,2a6.13,6.13,0,0,1,4.45,6.16,6.94,6.94,0,0,1-5,6.85C468.55,132.31,463.35,131.26,458.45,127.5Z"/><path class="cls-1" d="M222.24,124.54v6.17h-6.66v-23.6c4.66.25,9.27.16,13.77.83,4,.6,6,3.66,6.06,7.62,0,4.18-1.87,7-5.87,8A56.68,56.68,0,0,1,222.24,124.54Zm0-5.51c2.33-.16,4.8.77,6.12-1.63a3.49,3.49,0,0,0-.21-3.09c-1.49-2-3.78-1.1-5.91-1.16Z"/><path class="cls-1" d="M544.77,130.72V107.09c4.68.26,9.29.17,13.78.87,4.18.66,6.2,3.91,6.05,8.3a7.87,7.87,0,0,1-7,7.69,62,62,0,0,1-6.21.45v6.31ZM551.49,119c2.2-.08,4.58.82,6-1.44a3.46,3.46,0,0,0,0-3.09c-1.48-2.21-3.84-1.22-6-1.29Z"/><path class="cls-1" d="M184.42,130.72V107c4.9.38,9.71.43,14.39,1.23,3.44.59,5.13,3.4,5.33,7,.21,3.76-1.22,6.55-4.46,7.87a22.54,22.54,0,0,1-8.79,1.17v6.47ZM191,119c2.39-.23,5,.85,6.24-1.83a3.45,3.45,0,0,0-.39-3.06c-1.59-1.84-3.8-1-5.84-1Z"/><path class="cls-1" d="M413,122.58l4.65,3.32c-2.2,4.83-8.12,6.11-12.63,5.35a11.9,11.9,0,0,1-9.65-10.36c-.61-6,2.34-11.08,7.56-13.09a12.33,12.33,0,0,1,14.73,4.13L413,115.62c-4.46-3.18-7.34-3.34-9.51-.56a6.91,6.91,0,0,0,.57,8.91C406.5,126.22,409.64,125.79,413,122.58Z"/><path class="cls-1" d="M358.1,130.81h-6.6V113.28h-7.1v-5.76h20.5v5.6h-6.8Z"/><path class="cls-1" d="M531.75,130.81h-6.41V107.45h6.41Z"/><path class="cls-1" d="M376.75,107.44h6.32v23.27h-6.32Z"/><path class="cls-1" d="M50.9,38.47,58,54.53l-16.4,5.33Z"/><path class="cls-1" d="M73,54.52l7-16,9.37,21.34Z"/></g></g></g></svg>