<svg xmlns="http://www.w3.org/2000/svg" viewBox="0 0 428.21 258.15"><defs><style>.cls-1{fill:#fff;}.cls-2{fill:none;stroke:#fff;stroke-miterlimit:10;stroke-width:3px;}</style></defs><title>mspace</title><g id="Layer_2" data-name="Layer 2"><g id="Mobile"><g id="Spaces"><path class="cls-1" d="M39,215.61a1.93,1.93,0,0,1,.51,1.38v39.06a2,2,0,0,1-.48,1.38,1.68,1.68,0,0,1-1.32.54,1.54,1.54,0,0,1-1.26-.51,2.15,2.15,0,0,1-.42-1.41v-33.3L21.78,250.23a2.11,2.11,0,0,1-4,0L3.48,223v33.06a2.15,2.15,0,0,1-.42,1.41A1.54,1.54,0,0,1,1.8,258a1.71,1.71,0,0,1-1.35-.51A2.06,2.06,0,0,1,0,256.05V217a1.93,1.93,0,0,1,.51-1.38,1.85,1.85,0,0,1,1.41-.54,2.1,2.1,0,0,1,1.8,1.38l16.14,31,15.9-31q.72-1.38,1.8-1.38A1.84,1.84,0,0,1,39,215.61Z"/><path class="cls-1" d="M91,256.41a1.39,1.39,0,0,1-.54,1.11,1.91,1.91,0,0,1-1.26.45,1.66,1.66,0,0,1-.93-.3,1.92,1.92,0,0,1-.69-.84L83,246.39H59.76l-4.62,10.44a1.84,1.84,0,0,1-2.91.69,1.48,1.48,0,0,1-.51-1.17,1.5,1.5,0,0,1,.12-.66l17.52-39.36a2,2,0,0,1,2-1.32,2.26,2.26,0,0,1,1.23.36,2,2,0,0,1,.81,1l17.46,39.36A1.61,1.61,0,0,1,91,256.41ZM61.14,243.15H81.6L71.4,219.93Z"/><path class="cls-1" d="M133.26,256.23a1.74,1.74,0,0,1-1.68,1.68,1.86,1.86,0,0,1-1.14-.48l-23.52-20v18.6a1.93,1.93,0,0,1-.51,1.38,2,2,0,0,1-2.7,0,1.93,1.93,0,0,1-.51-1.38V217a1.93,1.93,0,0,1,.51-1.38,2,2,0,0,1,2.7,0,1.93,1.93,0,0,1,.51,1.38v18.06l22.32-19.44a1.56,1.56,0,0,1,1.14-.48,1.71,1.71,0,0,1,1.2.51,1.57,1.57,0,0,1,.54,1.17,1.77,1.77,0,0,1-.66,1.32l-20.88,17.94,22,18.84A1.76,1.76,0,0,1,133.26,256.23Z"/><path class="cls-1" d="M145.35,257.13a1.75,1.75,0,0,1-.57-1.32V217.23a1.75,1.75,0,0,1,.57-1.32,2,2,0,0,1,1.41-.54h22.8a1.73,1.73,0,0,1,1.23.42,1.56,1.56,0,0,1,.45,1.2,1.48,1.48,0,0,1-.45,1.14,1.73,1.73,0,0,1-1.23.42H148.44v16h19.92a1.74,1.74,0,0,1,1.23.42,1.83,1.83,0,0,1,0,2.4,1.73,1.73,0,0,1-1.23.42H148.44v16.68h21.12a1.81,1.81,0,0,1,1.23.39,1.46,1.46,0,0,1,.45,1.17,1.56,1.56,0,0,1-.45,1.2,1.73,1.73,0,0,1-1.23.42h-22.8A2,2,0,0,1,145.35,257.13Z"/><path class="cls-1" d="M216.3,256.47a1.42,1.42,0,0,1-.51,1.11,1.72,1.72,0,0,1-1.17.45,1.83,1.83,0,0,1-1.62-1l-8.1-13a10.78,10.78,0,0,0-3.57-3.78,10.5,10.5,0,0,0-5.07-1H188v16.74a1.91,1.91,0,0,1-.51,1.41,2,2,0,0,1-2.7,0,1.91,1.91,0,0,1-.51-1.41V217.23a1.75,1.75,0,0,1,.57-1.32,2,2,0,0,1,1.41-.54h14.94q6.66,0,10.26,3t3.6,8.85a10.82,10.82,0,0,1-3.06,8.1q-3.06,3-8.64,3.48a7.26,7.26,0,0,1,2.64,1.59,15.65,15.65,0,0,1,2.46,3.09l7.44,11.94A1.86,1.86,0,0,1,216.3,256.47ZM201,236.13q10.44,0,10.44-8.94,0-4.38-2.58-6.51T201,218.55H188v17.58Z"/><path class="cls-1" d="M234.51,256.74a16.13,16.13,0,0,1-6.45-3.81,2.16,2.16,0,0,1-.78-1.74,1.74,1.74,0,0,1,.39-1.14,1.12,1.12,0,0,1,.87-.48,2.39,2.39,0,0,1,1.38.6,20,20,0,0,0,13.14,4.68q5.46,0,8.43-2.19a7.26,7.26,0,0,0,3-6.21,5.11,5.11,0,0,0-1.44-3.78,9.86,9.86,0,0,0-3.66-2.25,50.53,50.53,0,0,0-5.94-1.65,59.33,59.33,0,0,1-8-2.22,13,13,0,0,1-5.13-3.45,8.87,8.87,0,0,1-2.1-6.21,10.75,10.75,0,0,1,1.89-6.27,12.27,12.27,0,0,1,5.31-4.23,19.42,19.42,0,0,1,7.86-1.5,22.35,22.35,0,0,1,7.8,1.35,15.73,15.73,0,0,1,6.06,3.87,2.41,2.41,0,0,1,.78,1.74,1.75,1.75,0,0,1-.39,1.14,1.11,1.11,0,0,1-.87.48,2.38,2.38,0,0,1-1.38-.6,22.83,22.83,0,0,0-5.85-3.66,16.86,16.86,0,0,0-6.15-1q-5.34,0-8.34,2.28a7.54,7.54,0,0,0-3,6.36,5.89,5.89,0,0,0,1.32,4,9.16,9.16,0,0,0,3.45,2.43,38.21,38.21,0,0,0,5.49,1.74l1.56.36q4.86,1.2,7.68,2.22a11.82,11.82,0,0,1,4.77,3.15,8.16,8.16,0,0,1,1.95,5.73,10.28,10.28,0,0,1-1.89,6.09,12.2,12.2,0,0,1-5.34,4.14,20,20,0,0,1-7.89,1.47A26.17,26.17,0,0,1,234.51,256.74Z"/><path class="cls-1" d="M271.77,257.46a1.91,1.91,0,0,1-.51-1.41V217.23a1.75,1.75,0,0,1,.57-1.32,2,2,0,0,1,1.41-.54h14q6.6,0,10.23,3.18t3.63,9q0,5.88-3.66,9.09t-10.2,3.21H275v16.2a1.91,1.91,0,0,1-.51,1.41,2,2,0,0,1-2.7,0ZM287,236.67q10.38,0,10.38-9.12t-10.38-9H275v18.12Z"/><path class="cls-1" d="M345.66,256.41a1.39,1.39,0,0,1-.54,1.11,1.91,1.91,0,0,1-1.26.45,1.66,1.66,0,0,1-.93-.3,1.92,1.92,0,0,1-.69-.84l-4.56-10.44H314.4l-4.62,10.44a1.84,1.84,0,0,1-2.91.69,1.48,1.48,0,0,1-.51-1.17,1.5,1.5,0,0,1,.12-.66L324,216.33a2,2,0,0,1,2-1.32,2.26,2.26,0,0,1,1.23.36,2,2,0,0,1,.81,1l17.46,39.36A1.61,1.61,0,0,1,345.66,256.41Zm-29.88-13.26h20.46L326,219.93Z"/><path class="cls-1" d="M363.69,255.54A16.92,16.92,0,0,1,357,248,29.95,29.95,0,0,1,357,225a17,17,0,0,1,6.66-7.47,19.5,19.5,0,0,1,10.23-2.61,21.77,21.77,0,0,1,7.65,1.35,16.88,16.88,0,0,1,6.15,3.87,2.33,2.33,0,0,1,.84,1.74,1.75,1.75,0,0,1-.39,1.14,1.12,1.12,0,0,1-.87.48,2.38,2.38,0,0,1-1.38-.6,22.61,22.61,0,0,0-5.88-3.66,17.11,17.11,0,0,0-6.18-1q-7.26,0-11.25,4.8t-4,13.5q0,8.76,4,13.56t11.25,4.8a17.09,17.09,0,0,0,6.18-1,22.56,22.56,0,0,0,5.88-3.66,2.88,2.88,0,0,1,1.38-.6,1.12,1.12,0,0,1,.87.48,1.75,1.75,0,0,1,.39,1.14,2.33,2.33,0,0,1-.84,1.74,16.88,16.88,0,0,1-6.15,3.87,21.77,21.77,0,0,1-7.65,1.35A19.5,19.5,0,0,1,363.69,255.54Z"/><path class="cls-1" d="M402.32,257.13a1.75,1.75,0,0,1-.57-1.32V217.23a1.75,1.75,0,0,1,.57-1.32,2,2,0,0,1,1.41-.54h22.8a1.73,1.73,0,0,1,1.23.42,1.56,1.56,0,0,1,.45,1.2,1.48,1.48,0,0,1-.45,1.14,1.73,1.73,0,0,1-1.23.42H405.41v16h19.92a1.74,1.74,0,0,1,1.23.42,1.83,1.83,0,0,1,0,2.4,1.73,1.73,0,0,1-1.23.42H405.41v16.68h21.12a1.81,1.81,0,0,1,1.23.39,1.46,1.46,0,0,1,.45,1.17,1.56,1.56,0,0,1-.45,1.2,1.73,1.73,0,0,1-1.23.42h-22.8A2,2,0,0,1,402.32,257.13Z"/><path class="cls-2" d="M122.16,47.41c1.83-2.5,4.49-3.32,7.38-3.31,2.69,0,3.77-1.26,4.92-3.63,2.2-4.53,2.57-8.28-1.39-12.1-2.07-2-1.7-4.75.29-6.87,2.55-2.73,5.18-5.4,7.93-7.92s5.47-1.89,8.27.25c5.47,4.18,14,.69,15-6,.68-4.64,2.42-6.19,7.15-6.28,2.53,0,5.07,0,7.61,0,5.47,0,7.38,1.52,7.76,6.89.21,3,1.55,4.23,4.16,5.45,4.26,2,7.91,3.2,11.78-.86,1.8-1.89,4.55-1.53,6.55.35,2.82,2.64,5.59,5.36,8.21,8.21s1.49,5.57-.58,8.26a8.8,8.8,0,0,0,5.46,14c5.37.89,6.74,2.45,6.89,7.91,0,1.47,0,2.94,0,4.4,0,8.07-.57,8.76-8.3,10.27-4.63.9-7.9,9.17-5.13,13,4.47,6.11,4.4,7.1-1,12.47l-2.26,2.27c-6,6-6.61,6.14-13.28,1-1.73-1.33-3.19-1.62-5.07-.53a11.27,11.27,0,0,1-3.33,1.34c-3.12.64-4.25,2.63-4.64,5.61-.86,6.59-2.15,7.62-8.7,7.65h-2.4c-10,0-10,0-11.8-9.72-.25-1.4-.62-2.45-2.08-3.08-4.41-1.9-8.54-4.22-12.79.75-2.21,2.58-5.29,2.07-7.77-.42-2.26-2.27-4.59-4.48-6.79-6.8-3.17-3.34-3.21-5.37-.35-9.12,3.13-4.1,3.08-8.54-.1-12.4-1.17-1.41-2.79-1.44-4.38-1.5-2.92-.11-5.57-.73-7.25-3.44ZM175.87,36.3a18,18,0,0,0-18.52,18.4,18.47,18.47,0,1,0,36.93.13C194.25,44.23,186.4,36.32,175.87,36.3Z"/><path class="cls-2" d="M308.21,106.4a10.77,10.77,0,0,1-3.91,2.68c-6.52,2.16-8.07,7.31-3.94,12.77a5.42,5.42,0,0,1,1.06,1.68c1.5,5.59-3.46,7.89-6,11.31-1.74,2.31-4.31,2.17-6.87.79-6.13-3.31-11.27-.61-12.1,6.24a5.72,5.72,0,0,1-.6,2.29c-3,4.89-8.12,3-12.4,3.42-3.13.3-4.56-2.05-5.31-4.95-1.58-6-7-7.77-11.87-3.72-2.84,2.36-5.44,2.49-8.21.09q-2.12-1.83-4.29-3.6c-3.11-2.53-3.45-5.39-1.38-8.81,3-5,.3-9.93-5.59-10.39-3.8-.3-5.85-2.18-6.13-6-.12-1.59-.42-3.17-.56-4.76-.41-4.68.95-6.64,5.43-7.88a7.13,7.13,0,0,0,3.4-11.46c-2.67-3-2.79-5.87-.17-8.9q1.7-2,3.34-4c2.47-3,5.2-3.77,8.72-1.53,4,2.57,10.75-.87,11.12-5.65.31-4,2.27-6.08,6.27-6.33,1.46-.09,2.91-.31,4.37-.47,4.68-.49,6.73.85,8,5.24,1.33,4.55,8.11,6.78,11.72,3.67,3-2.56,5.68-2.5,8.53,0,1.4,1.23,2.83,2.43,4.27,3.62,2.93,2.43,3.35,5.1,1.31,8.44-2.66,4.34.47,10.42,5.48,10.65,3.54.16,5.26,2.13,6.31,5.13ZM264.64,88.08a15.09,15.09,0,1,0,15.08,15.32A15.11,15.11,0,0,0,264.64,88.08Z"/><path class="cls-2" d="M229,151c.4,3.89-1,6.72-5.78,7.52-2.94.5-4.65,5.63-3.1,8.35,2.34,4.12,1.94,5.71-2.13,9.65-2.7,2.62-5.39,3.71-8.84,1.2-2.91-2.12-8.09-.27-8.8,3.31-.92,4.61-3.82,5.46-7.87,5.47s-6.84-1.31-7.82-5.69c-.9-4-5-5.47-8.56-3.27s-6.23.81-8.8-1.88-4.34-5.36-1.88-9.15,1-7.47-3.21-8.48c-4.61-1.1-5.15-4.26-5.1-8.19,0-3.75,1-6.4,5.19-7.27a5.89,5.89,0,0,0,3.49-9c-2.14-3.27-1-5.74,1.37-8.16s4.95-5,9-2.83,8.56.59,9.93-3.8c1.15-3.71,3.86-4.29,7.2-4.23s6.66.07,7.9,4.36c1.32,4.55,5.37,6.23,9.52,4.07,3.94-2.06,6.2.35,8.64,2.76s3.64,4.81,1.69,8.15c-2.28,3.91-.7,7.69,3.61,9.15C228.17,144.29,229,145.65,229,151Zm-35.64-12.88c-7-.05-12.3,5-12.42,11.84s5.69,12.73,12.33,12.62a12.33,12.33,0,0,0,12.13-12.33A11.67,11.67,0,0,0,193.32,138.11Z"/></g></g></g></svg>