<svg xmlns="http://www.w3.org/2000/svg" viewBox="0 0 468.24 289.81"><defs><style>.cls-1{fill:#fff;}.cls-2{fill:#ec6726;}</style></defs><title>preview-activities</title><g id="Layer_2" data-name="Layer 2"><g id="Mobile"><g id="Home"><path class="cls-1" d="M0,91.42v-2c.61-1.07,1.18-2.16,1.84-3.2,3.17-5,5.6-10,4.44-16.41A12.6,12.6,0,0,1,7.81,61c6.31-9.44,10.49-19.79,13.7-30.58,1.67-5.6,3.52-11.22,2.4-17.23A30,30,0,0,1,23.7,4.8c.24-2.51,1.24-3.18,3.45-1.73A33.76,33.76,0,0,0,33.83,7c1.36.5,2.77,1.26,4.13.14,2.31-1.89,2.48-.07,2.69,1.75a39.78,39.78,0,0,0,.07-6.58C40.46.07,41.24-.3,43.15.2c3.25.86,6.53,1.6,9.79,2.43A865.6,865.6,0,0,0,145.55,21c19.55,2.72,39.18,4.61,58.89,5.42,12.09.5,24.2,1.1,36.32.73,1.51,0,3.29.33,3.93-1.72.33-1.05.32-2.43,1.89-2.32s2,1.57,2.42,2.87c1.08,3.75,5,6.44,8.71,5.51a9.15,9.15,0,0,1,6.5.73c2.58,1.23,5.66,1.22,7.88,3.42a2.86,2.86,0,0,0,2.56.33c3.31-1.46,6.54-.46,9.79,0,1.36.21,3.43-.31,3.73,1.36s-1.7,2.1-3,2.78a3.66,3.66,0,0,1-.94.36c-6,1.32-8.59,6.27-12.11,10.83,2.49.37,3.91-1.23,5.67-1.73,1-.28,2.7-.93,2.42.94-.5,3.4,2,2.45,3,1.91,4.21-2.19,9.16-3.2,12.21-7.39A8.86,8.86,0,0,1,301,41.58c.55-.11,1.22-.2,1.52.36a1.26,1.26,0,0,1-.19,1.2c-3.91,3.16-2.37,4.74,1.58,5.71a1.91,1.91,0,0,1,1.07.79c2,3.34,4.83,2.56,7.67,1.51,3-1.12,6.05-2.37,9.13-3.42,1.09-.37,2.77-.93,3.19.69.72,2.79,2.43,2.1,4.15,1.53,2-.66,3.29-.36,3.49,2a4.07,4.07,0,0,0,.6,1.89c1.29,1.89.1,2.44-1.42,2.56-2.45.19-4.92.22-7.39.23-5.13,0-9.66,2.59-13.76,4.84-2.73,1.49-3.63,6.32-5.35,9.66l.6.29,4-5.66c.75,2.06.05,3.33-.26,4.56a89.2,89.2,0,0,0-3,18.21c-.21,5.22.33,10.33,3.12,14.91,2.38,3.91,4.45,4,7,.09,3.15-4.89,3.69-10.28.9-15.34-1.74-3.15-1.39-6.14-1.45-9.36-.16-8.24,5.81-13.2,9.9-19.18a2.68,2.68,0,0,1,1.11-.73c2.55-1.17,12,2.34,13.18,4.87a1.72,1.72,0,0,1,.25.61c0,4.64,2.46,9.63-2,13.62a1.38,1.38,0,0,0,0,2.31c.88.53,1.39-.38,1.86-1s.73-1.13,1.13-1.67c2.11-2.84,3.71-2.9,5.74-.05,2.5,3.5,3.16,7.6,3.48,11.78a3.85,3.85,0,0,1-1.59,3.71c-2.45,2-2.54,5.38-3.82,8.08a1,1,0,0,0,.65,1.39c2.53.72,5.19,2.47,7.71,1.32,9.26-4.23,17.66-9.74,24.23-17.72a2.48,2.48,0,0,0,.46-2.77c-1.84-4.72-1.73-4.89,3.28-5.95,1.2-.25,2.44-.31,3.66-.52,3.51-.61,7.19-.51,10.43-2.35,2.14-1.22,4.08-3.24,2.68-5.39-2.32-3.57-1-5.58,1.61-7.9a11.47,11.47,0,0,0,2.2-3.74c1.52-3.26,4.15-4.55,7.57-5.37,8.2-2,16.9-2,23.84-8.55,3.42-3.24,4.89-6.45,4.73-10.44a34.59,34.59,0,0,1,3.17-15.65c.65-1.48,1.39-2.74,3.19-1.17,1,.87,1.82.28,2.72-.29,3.71-2.35,6.82-1.2,8.1,3,1,3.32,2,6.66,3,10a4.57,4.57,0,0,0,2.43,2.9c2.32,1.3,3.89,3.65,6.31,5,1.12.64,1,2.39.46,3.75A10,10,0,0,1,463.28,46c-.75.42-1.63.52-2.18,1.42a20.26,20.26,0,0,1-6,6c-8.77,6-9.17,6.93-9.57,17.25-.17,4.26,2.81,6,5,8.58a1.37,1.37,0,0,0,1.86.15c.58-.43.35-1-.05-1.44s-1.46-1.17-.37-1.85c.71-.44,1.6.1,2.07.72,1.11,1.46,2.3,3.24.16,4.59-3.91,2.45-7.94,4.74-12.05,6.83-3,1.52-6.22,2.55-9.29,3.92a13.46,13.46,0,0,0-6.72,6.34c-.52,1-1.32,2.25-.73,3.39,3.29,6.37.86,11.89-2.49,17.25-.87,1.4-2,3.14-3.24.07a1.71,1.71,0,0,0-2.37-.53,2.58,2.58,0,0,0,1.28,2.28c3.72,2.36,3.61,5.83,3,9.52s-2.23,7.28-3.29,10.94c-.21.7-.19,1.79-1.3,1.6-.84-.15-1.18-1.06-1.19-1.85a48.42,48.42,0,0,1,.17-5c.12-1.34.44-2.66-.58-3.83-.49.51.18,1.56-.7,1.71-1.84.32-1.44-2.38-3.53-2.5,1.36,4.37,1.61,9.5,4.27,12.43a42.39,42.39,0,0,1,5.89,8.59c3.56,6.57,3.17,8-2.92,11.89A3.62,3.62,0,0,0,417,167c-.13.57.39.67.88.69,3.13.11,1.5,1.69.72,2.69-1.5,1.92-3.81,2.71-5.9,3.76-2.71,1.35-5.09,3.1-5.69,6.21a3.81,3.81,0,0,1-3.23,3.29c-2.89.75-5.46,2.31-5.87,5.36-.79,5.81-5.21,9-8.76,12.64-5,5.15-8.82,10.64-8.66,18.12.22,9.71,4.52,17.65,10.82,24.71.8.89,2.26,1.65,1.85,3-.63,2.09.57,3.43,1.47,4.92,3,4.9,5.73,9.88,6.95,15.59.87,4.1.35,8.25.5,12.36.14,3.75-4.21,8.42-7.88,9.43.22-2.61,3.62-2.84,4.15-5.52a5.91,5.91,0,0,0-1.55.27c-2.79,1.53-4.56.9-5.48-2.27-.44-1.51-1.41-3.44-2.85-3.53-4.79-.31-5.41-5.39-9-7.4-3.17-1.78-4.61-6.64-6.82-10.14-2.44-3.85-2-8.15-2-12.4,0-2.18-.1-4.43-2.57-5.34-2.86-1.05-4.84-3.13-6.86-5.26-3.62-3.81-5.54-3.89-9.47-.62-3.59,3-7,3-10.48-.13a10.4,10.4,0,0,0-6.1-2.54,36.19,36.19,0,0,0-11.36.67c-4.5,1-4.51,1-6.8-2.68-1,3.54-3.71,3.38-6.44,3.42-3.69.05-7.41.22-9.66,4.21,1.38.12,2-2.23,3.27-.86,1.06,1.12.66,2.51-.09,3.74a1.58,1.58,0,0,1-.21.26c-1.74,1.83-.8,2.68,1.14,3.2a11,11,0,0,1,1.27.44c1,.42,2.37.81,1.94,2.25s-1.78,1.57-3.07,1.3A9.12,9.12,0,0,1,301.2,249c-1.46-1.19-2.19-.86-3,.86-.58,1.29-1.33,4.32-3.35.78-.32-.56-1-.05-1.5.2-4.15,2.1-6,1.56-8.27-2.28-.7-1.17-2.11-2.56-3.17-1.89-3.48,2.19-6.79.35-10.08,0-8.5-.95-16.51-1.12-22.9,6.12-2.09,2.36-5.19,3.87-8,5.57-3.91,2.41-7.9,4.7-11.93,6.91a6,6,0,0,0-3.39,5.72c0,4.93-.45,9.86.4,14.77.31,1.81.08,3.29-2.33,2.77-5.17-1.12-10.26-2.5-14.61-5.7a12,12,0,0,1-5.34-9.65,8,8,0,0,0-2.09-5.1c-3.31-4.15-6.77-8.09-8.18-13.59-1.3-5.08-5.13-8.58-10.13-10.55-6.44-2.53-8.19-1.9-11.69,4.14a18.55,18.55,0,0,1-1.71,2.49,2.05,2.05,0,0,1-2.67.73c-7-3.23-14.19-6.3-14.06-15.91a5.73,5.73,0,0,0-2.53-5.25c-4.3-2.54-7.15-6.39-10-10.31a4.81,4.81,0,0,0-3.46-2.38c-3.45-.38-6.9-.82-10.32-1.4-2.23-.38-3.73,0-4,2.54a2.06,2.06,0,0,1-2.61,1.92c-13.63-1.55-27.16-3.32-39-11.34-5.65-3.84-11.66-7.15-17.49-10.71-.66-.4-1.65-.82-1.8-1.4-.61-2.32-2.4-2.28-4.19-2.51-4.89-.63-9.81-1-14.65-2-2.29-.5-3.52-1.63-3.53-4.1,0-5.15-1.44-9.56-6.84-11.59a1.37,1.37,0,0,1-.76-.62c-1.66-4.33-6.17-5.93-8.88-9.27a7.88,7.88,0,0,0-5.66-2.67c-3.16-.23-3.78-2.09-2.88-4.65,1.15-3.26.36-6.15-1.19-9-1.65-3.05-3.72-5.9-4.74-9.26-.54-1.8-1.31-3.74.26-5.42,1.22-1.29.92-2.26-.15-3.45a9.77,9.77,0,0,1-2.4-7.15,28.12,28.12,0,0,0-4.07-15.18c-1.58-2.72-2.21-5.3-1.3-8.3.46-1.5.73-3.05,1-4.59C2.64,94.89,2.22,92.82,0,91.42Z"/><path class="cls-2" d="M377.95,136a14.85,14.85,0,0,1,13.11,21.79c-1.05,2-2.08,4.08-3.12,6.12l-3.66,7.15c-.91,1.79-1.81,3.58-2.72,5.36l-3,5.94-.38.76c0,.09-.08.21-.19.22s-.18-.13-.23-.23l-1.54-3-4.26-8.32-3.52-6.92c-1.21-2.39-2.44-4.76-3.65-7.16a14.85,14.85,0,0,1,5.63-19.61A14.25,14.25,0,0,1,377.95,136Zm0,6a8.81,8.81,0,1,0,8.82,8.84A8.76,8.76,0,0,0,377.92,142Z"/><path class="cls-2" d="M117.94,77a9.52,9.52,0,0,1,8.4,14c-.67,1.3-1.33,2.62-2,3.92L122,99.48l-1.74,3.44-1.95,3.81-.24.49c0,.06,0,.14-.12.14s-.12-.08-.15-.14l-1-2-2.73-5.34-2.25-4.43c-.78-1.53-1.57-3.05-2.34-4.59a9.52,9.52,0,0,1,3.61-12.57A9.14,9.14,0,0,1,117.94,77Zm0,3.86a5.65,5.65,0,1,0,5.65,5.67A5.62,5.62,0,0,0,117.92,80.86Z"/><path class="cls-2" d="M22.94,99a9.52,9.52,0,0,1,8.4,14c-.67,1.3-1.33,2.62-2,3.92L27,121.48l-1.74,3.44-1.95,3.81-.24.49c0,.06,0,.14-.12.14s-.12-.08-.15-.14l-1-2-2.73-5.34-2.25-4.43c-.78-1.53-1.57-3.05-2.34-4.59a9.52,9.52,0,0,1,3.61-12.57A9.14,9.14,0,0,1,22.94,99Zm0,3.86a5.65,5.65,0,1,0,5.65,5.67A5.62,5.62,0,0,0,22.92,102.86Z"/><path class="cls-2" d="M251.94,92a9.52,9.52,0,0,1,8.4,14c-.67,1.3-1.33,2.62-2,3.92L256,114.48l-1.74,3.44-1.95,3.81-.24.49c0,.06,0,.14-.12.14s-.12-.08-.15-.14l-1-2-2.73-5.34-2.25-4.43c-.78-1.53-1.57-3.05-2.34-4.59a9.52,9.52,0,0,1,3.61-12.57A9.14,9.14,0,0,1,251.94,92Zm0,3.86a5.65,5.65,0,1,0,5.65,5.67A5.62,5.62,0,0,0,251.92,95.86Z"/><path class="cls-2" d="M341.94,182a9.52,9.52,0,0,1,8.4,14c-.67,1.3-1.33,2.62-2,3.92L346,204.48l-1.74,3.44-1.95,3.81-.24.49c0,.06,0,.14-.12.14s-.12-.08-.15-.14l-1-2-2.73-5.34-2.25-4.43c-.78-1.53-1.57-3.05-2.34-4.59a9.52,9.52,0,0,1,3.61-12.57A9.14,9.14,0,0,1,341.94,182Zm0,3.86a5.65,5.65,0,1,0,5.65,5.67A5.62,5.62,0,0,0,341.92,185.86Z"/><path class="cls-2" d="M214.94,191a9.52,9.52,0,0,1,8.4,14c-.67,1.3-1.33,2.62-2,3.92L219,213.48l-1.74,3.44-1.95,3.81-.24.49c0,.06,0,.14-.12.14s-.12-.08-.15-.14l-1-2-2.73-5.34-2.25-4.43c-.78-1.53-1.57-3.05-2.34-4.59a9.52,9.52,0,0,1,3.61-12.57A9.14,9.14,0,0,1,214.94,191Zm0,3.86a5.65,5.65,0,1,0,5.65,5.67A5.62,5.62,0,0,0,214.92,194.86Z"/></g></g></g></svg>