<svg xmlns="http://www.w3.org/2000/svg" viewBox="0 0 402.72 230"><defs><style>.cls-1{fill:#fff;}</style></defs><title>activities_1789</title><g id="Layer_2" data-name="Layer 2"><g id="Mobile"><g id="Activities"><path class="cls-1" d="M110.79,186.09H78.63V39.53h32.16Z"/><path class="cls-1" d="M361,127.61V97.75a39.51,39.51,0,0,0,5.26-2.7,13.71,13.71,0,0,0,6-13.84c-.72-5.28-4.07-8.67-8.58-11.17-1.11-.61-2.69-1.77-2.71-2.71-.2-9.26-.12-18.52-.12-27.77,20-.18,39.91,17.94,40.8,38.64,1,22.32,1.61,44.75.54,67-1,20.48-15.59,35.91-35.07,40.11-1.92.41-3.89.62-6.09,1V156.25c8.51-2.49,11.89-8.5,11.42-17.19-.24-4.34,0-8.7,0-13.33Z"/><path class="cls-1" d="M9.21,7.93C2.39,18.2,4.5,28.53,8.75,38.87c-.68-4.31-1.73-8.6-2-12.93C6.25,15.37,8.46,8,18.63,3.91c11.13-4.46,22.26-6.24,33,.9,8,5.31,11.21,13.85,13.42,22.52,4.25,16.7-5.39,32-21.3,36.24,3-6.12,6.92-12.6,9.32-19.62,4.62-13.45-2-25.7-14.59-28.56-5.23-1.18-10.26,2.34-11.34,7.94-.89,4.59,2.34,8.49,7.17,9.9,3.59,1,6,.59,7.86-2.69a3,3,0,0,1,.53-.62c1.92-1.92,4.16-4.73,6.79-2.81,1.59,1.17,1.56,4.56,2,6.23.38,2.7,1,4.46.8,6.11C51.16,47.85,46.84,54.85,42,61.6a9.9,9.9,0,0,0-1.92,4c14.38-2.82,23.76-11.11,28.16-25.23v63c-6.56-5.06-12.84-9.92-19.14-14.77-3.88-3-7.88-5.83-11.62-9-2-1.68-3.65-1.62-5.83-.46-6.1,3.23-12.27,6.32-18.47,9.35C10.16,90,1.51,88.23.36,85.32c-.82-2.08-.08-5,.53-7.38,1.78-7,4-13.95,5.68-21,.6-2.54-.09-5.36.14-8C7.59,38.64,0,30,1.31,19.6,2,14.32,4,10.17,9.21,7.93Z"/><path class="cls-1" d="M262.57,39.16C280.49,41.27,293,50.08,300.08,66c6.88,15.47,3.9,33.27-7.3,46.43,12.4,16.44,15.07,34,4.45,52.46-7.18,12.44-21,20.64-34.65,21.19V156.27c5.29-2,9.33-5.11,10.67-10.87,1.52-6.58-1.39-13.41-7.57-16.14-2.63-1.16-3.2-2.57-3.16-5.17.14-8.85.06-17.71.06-26.62,5.6-1.92,9.55-5.11,10.75-11.14C274.6,80,272,73.5,266,70.84c-3-1.31-3.53-2.93-3.47-5.81C262.68,56.6,262.57,48.16,262.57,39.16Z"/><path class="cls-1" d="M255.93,156.32v29.91c-15-1.72-26.72-8.36-34.27-21.18-10.7-18.17-8.36-35.66,4.22-52.36-12.19-15.92-14.68-33-5-51.06,6.1-11.44,20.11-22,35.23-22.09,0,9.37,0,18.75-.08,28.12a3.2,3.2,0,0,1-1.75,2.21c-6.2,2.64-9.59,7.48-9.36,14,.24,6.83,4.22,11.54,11.2,13.57,0,9.59.05,19.13-.08,28.66a3.61,3.61,0,0,1-1.9,2.58c-6,2.59-9.31,7.35-9.23,13.6.08,6.49,3.75,11.18,10,13.53A9.42,9.42,0,0,1,255.93,156.32Z"/><path class="cls-1" d="M204.73,71.52c-3.53,12.12-6.85,23.59-10.2,35-7.38,25.22-14.8,50.43-22.11,75.67-.82,2.83-1.91,4.15-5.2,4.05-9.35-.28-18.72-.1-28.5-.1,3.79-13,7.43-25.52,11.09-38,7-24,14.12-47.91,21-71.92,1-3.53,2.32-5,6.31-4.85C186.08,71.78,195.08,71.52,204.73,71.52Z"/><path class="cls-1" d="M354.94,97.46v29.31c-14.81,1.37-37-12.52-40.69-36.17C309.76,61.71,332.35,40,355.09,39.4c0,9.39,0,18.79-.08,28.18a3.24,3.24,0,0,1-1.75,2.25c-6.4,2.79-10,7.49-9.56,14.55C344.15,91.27,348.4,95.34,354.94,97.46Z"/><path class="cls-1" d="M204.27,65.82H148.81V77H121.13V39.13h83.13Z"/><path class="cls-1" d="M354.94,156.47q0,14.67,0,29.33c-21-.09-42.36-20.25-41.12-45.46h29.52C344.28,149.74,346.21,152.37,354.94,156.47Z"/><path class="cls-1" d="M372.2,205c6.66,0,12.93-.37,19.12.18,2.47.22,5.73,1.94,6.83,4s-.3,5.08-.56,7.41c.76,2.45,2.38,5.11,2.15,7.6-.31,3.31-3.31,4.71-6.63,4.72-6.9,0-13.8,0-20.91,0ZM376,218.94v6.53c5.53,0,10.82.23,16.06-.15,1.38-.1,2.63-2.07,3.93-3.18-1.34-1.06-2.63-2.95-4-3C386.7,218.72,381.42,218.94,376,218.94Zm-.11-4c5.59,0,10.85.18,16.08-.14,1.12-.07,2.14-1.93,3.21-3-1-.92-2-2.58-3-2.64-5.35-.27-10.73-.13-16.24-.13Z"/><path class="cls-1" d="M276.68,218.62v6.76h20.5l1,1c-.84.93-1.65,2.65-2.51,2.67-7.6.21-15.22.12-23,.12V205.31h24.1V209H276.75v5.75h13.31c.91,2.68.44,4-2.34,3.87C284.19,218.54,280.65,218.62,276.68,218.62Z"/><path class="cls-1" d="M110.44,229V205.32h24.18v3.61h-20v5.79h13c1.27,2.78.7,4-2.26,3.92-3.51-.1-7,0-10.78,0v6.76h20.81V229Z"/><path class="cls-1" d="M264.89,229.84c-1.6-1-4-1.74-4.67-3.21-3.51-7.66-9.74-7.3-16.11-6.34-2.68,2.42,1.79,7.81-4.33,9.17v-24.4c6.53,0,12.91-.23,19.26.08,4.28.2,6.77,2.93,7.29,6.85.48,3.63-1.17,5.91-5.95,8.17l5.62,8.3Zm-21.43-13.38c5.21,0,10.12.25,15-.17a5,5,0,0,0,3.38-3.47c.08-1.17-1.91-3.45-3.13-3.55-5-.41-10-.17-15.22-.17Z"/><path class="cls-1" d="M167.16,230c-2-1.2-4.38-2-6-3.66-5.17-5.17-10.05-10.63-15.59-16.56v19.09h-4V205.41c2.87-1,4.93-.19,7,2.14,4.86,5.48,10,10.71,15.61,16.64V205.47l4-.57v23.79Z"/><path class="cls-1" d="M366.07,229.79c-1.46-1.08-3.47-1.86-4.24-3.3a4.37,4.37,0,0,0-4.76-2.67,56.22,56.22,0,0,1-8.17,0c-3.17-.28-5.37.43-6.79,3.63-.48,1.08-2.55,1.46-3.9,2.16l-.82-1c4-7.57,7.92-15.18,12-22.68,1-1.76,4.94-1.27,6,.65,3.94,7.23,7.8,14.52,11.68,21.78Zm-7.8-9.47-6-11.63-6,11.63Z"/><path class="cls-1" d="M204.43,205.15h3.66a4.75,4.75,0,0,1,.38,1.22c0,4.49.12,9,0,13.47-.06,2.89,1.29,4.73,3.9,5.44a23,23,0,0,0,6.81.93c6.62-.27,8.24-2.13,8.25-8.71,0-3.93,0-7.87,0-12.13L231,205a6.23,6.23,0,0,1,.41,1.39q.05,6.53,0,13.06c0,5.71-1.6,8.18-7.19,9.57-5.19,1.29-10.5,1.37-15.47-1.2a7.39,7.39,0,0,1-4.38-7.19C204.5,215.62,204.43,210.6,204.43,205.15Z"/><path class="cls-1" d="M76.09,205.39c2.92-.95,4.61-.26,5.94,2.48,2.72,5.58,5.84,11,9.17,17.12,3.24-6,6.39-11.55,9.24-17.24,1.28-2.56,2.89-3.31,5.76-2.3-4,7.45-7.84,14.87-11.87,22.2a3.62,3.62,0,0,1-6.26-.16C84,220.18,80.09,212.79,76.09,205.39Z"/><path class="cls-1" d="M189,228.95h-4.17V209.19H173.65l-.38-3.94h26.87v3.69H189Z"/><path class="cls-1" d="M317.47,204.92v20.51H336V229H313.61V205.33Z"/></g></g></g></svg>