<svg xmlns="http://www.w3.org/2000/svg" viewBox="0 0 273.5 273.5"><defs><style>.cls-1{fill:#fff;}</style></defs><title>activities_ct</title><g id="Layer_2" data-name="Layer 2"><g id="Mobile"><g id="Activities"><path class="cls-1" d="M150.1,273.5c0-9.87.06-19.74-.05-29.61,0-2,.62-2.31,2.52-2.54,3.69-.45,5.77,1,7.66,4.06A178.6,178.6,0,0,0,172,261.88c0-5.9.1-11.8-.05-17.69-.06-2.21.53-2.88,2.77-2.8,4.64.16,4.63,0,4.65,4.64q.05,13.73.13,27.47h-8c-.69-2.25-2.37-3.9-3.63-5.79-3.21-4.81-6.52-9.55-9.79-14.32l-.47.19V273.5Z"/><path class="cls-1" d="M99.36,273.5c0-9.78.12-19.55,0-29.33,0-2.25.63-2.85,2.82-2.78,4.64.15,4.58,0,4.67,4.59.06,2.72-1.21,6.35.57,7.89,1.54,1.34,5.07.44,7.72.45,6.13,0,6.13,0,6.13-6v-1.87c0-5.06,0-5,5-5.06,2,0,2.54.5,2.52,2.51-.11,9.87-.05,19.73-.05,29.6h-7.48c0-3.91,0-7.82.05-11.72,0-1.57-.36-2.21-2.06-2.15-3.46.12-6.93.12-10.39,0-1.71-.06-2.09.59-2.05,2.15.09,3.91,0,7.81,0,11.72Z"/><path class="cls-1" d="M185.89,273.5c0-10,0-20.08-.09-30.13,0-1.52.47-1.94,2-2,5.19-.1,5.19-.16,5.19,5.13,0,2.92,0,5.83,0,9.42l8.26-9.51c1.22-1.41,2.47-2.79,3.62-4.26a2,2,0,0,1,1.86-.75h7.86c-2.5,2.86-4.67,5.35-6.85,7.82a31.82,31.82,0,0,1-3.76,4.12c-2.25,1.79-1.65,3.2-.17,5.14,3.76,4.91,7.32,10,11,15h-9.08c-2.25-4.68-5.92-8.38-8.59-12.71-3.16,2-4.73,4.51-4.15,8.22a24.84,24.84,0,0,1-.08,4.48Z"/><path class="cls-1" d="M76.92,273.5c0-8.17,0-16.35.06-24.52,0-1.76-.5-2.33-2.24-2.22-2.3.14-4.62,0-6.93,0s-1.48-1.73-1.53-2.82-.68-2.58,1.53-2.57q13.06.1,26.12,0c2.6,0,1.47,1.86,1.63,3s.25,2.5-1.76,2.37c-2.39-.15-4.8.07-7.19-.07-1.75-.1-2.25.47-2.24,2.22.09,8.17,0,16.34,0,24.52Z"/><path class="cls-1" d="M135.68,273.5c0-9.85.05-19.7,0-29.55,0-1.92.38-2.61,2.46-2.56,5.07.11,5.07,0,5.07,5q0,13.58,0,27.15Z"/><path class="cls-1" d="M137.28,0c6.82,2.94,9.52,8,7.84,14.66-1.28,5.1-5.81,7.92-11.65,7.24-4.64-.54-8.25-4.67-8.48-9.72-.31-6.82,1.4-9.43,8-12.18Zm3.2,11.48a9,9,0,0,0-.72-4.23,4.73,4.73,0,0,0-5-3.51c-2.46.13-3.74,1.43-4.48,3.75a11.86,11.86,0,0,0,.33,7.28c.58,1.87,1.78,3.39,4.18,3.42C138.65,18.25,140.47,16.23,140.49,11.48Z"/><path class="cls-1" d="M0,148.5c1.3-2.44,3.31-3.3,6.07-3.25,7.56.13,15.12.06,22.67,0a5.59,5.59,0,0,1,3.05.66,3.49,3.49,0,0,1,1.83,4,3.33,3.33,0,0,1-3.43,2.77q-13.2.08-26.41,0c-2.07,0-3-1.57-3.8-3.19Z"/><path class="cls-1" d="M273.5,149.57c-1,2.4-2.73,3.31-5.4,3.26-7.91-.14-15.83,0-23.74-.06-3,0-4.53-1.22-4.57-3.59s1.81-3.88,4.7-3.89c7.65,0,15.3.08,22.94-.05,2.77,0,4.78.81,6.07,3.25Z"/><path class="cls-1" d="M139.51,231.3H66.35c-5.85,0-10.07-2.71-11-7.61a34.55,34.55,0,0,1,0-12.46c.71-4,3.57-6.25,7.39-7.1,1.28-.28,1.64-.76,1.56-1.9,0-.44,0-.89,0-1.33Q64.3,149,64.35,97c0-2.15-.56-3.05-2.66-3.63A8.9,8.9,0,0,1,55,84.52q-.05-4.14,0-8.28a9.37,9.37,0,0,1,9.48-9.42,5.27,5.27,0,0,0,4.86-2.28C82,48,98.92,38.25,119.18,34.17c23.95-4.83,46.35-.85,67.05,12.24a72.43,72.43,0,0,1,20,18.57,4,4,0,0,0,3.71,1.86c2.37,0,4.76-.42,7.12.41,4.59,1.6,6.8,4.51,6.8,9.28q0,3.87,0,7.74c0,4.63-2.13,7.77-6.57,9.16-1.61.5-2,1.24-2,2.8q.06,52.73,0,105.47c0,1.49.27,2.23,1.91,2.76,4.65,1.49,6.65,4.53,6.65,9.36,0,2.23-.16,4.46,0,6.67.62,7.18-4.91,10.81-10.91,10.83q-24.3.05-48.6,0ZM196.69,66.72,197,66c-18.19-19.92-41.05-28.27-67.74-25.8-20.34,1.88-37.6,10.48-51.41,26.53ZM139.6,74.25H94.48c-9.43,0-18.87,0-28.3,0-2,0-2.77.58-2.64,2.59s0,3.91,0,5.87c0,3.85,0,3.86,3.76,3.86H211.49c.53,0,1.07,0,1.6,0,1.59.12,2.26-.57,2.21-2.19a51.94,51.94,0,0,1,0-6.67c.25-2.66-.61-3.5-3.38-3.49C187.83,74.3,163.71,74.25,139.6,74.25Zm-.11,149.56h73.43c1.58,0,2.48-.61,2.38-2.4-.11-2,0-4.09,0-6.14,0-3.79,0-3.79-3.75-3.79H67.35c-.62,0-1.25,0-1.87,0-1.33,0-1.95.58-1.92,1.94,0,2.14,0,4.27,0,6.41,0,3.92.06,4,4.1,4Zm15.94-59c0-23.44,0-46,0-68.63,0-1.81-.6-2.2-2.28-2.19-8.9.07-17.79.11-26.69,0-2.16,0-2.62.63-2.61,2.68.07,21.88,0,43.77,0,65.65q0,.88,0,1.77a213.37,213.37,0,0,1,13.53-19c2.26-2.89,2.2-2.87,4.54.11A149.8,149.8,0,0,1,155.43,164.81Zm17.63-15c0-17.53,0-35.07.05-52.6,0-2.27-.64-2.9-2.83-2.74a52.52,52.52,0,0,1-8,0c-2.34-.19-2.77.72-2.74,2.86.12,7.92,0,15.84,0,23.76q0,40.05,0,80.1c0,3.84-.45,3.32,3.46,3.36,2.22,0,4.47-.17,6.67,0,2.58.25,3.43-.43,3.41-3.25C173,184.2,173.06,167,173.06,149.85Zm20.17-1c0,17.45,0,34.9,0,52.34,0,2.22.59,3,2.83,2.82a46.6,46.6,0,0,1,7.74,0c2.55.24,3-.74,3-3.11Q206.67,149,206.72,97a12.13,12.13,0,0,1,0-1.33c.14-1.27-.4-1.71-1.67-1.68-3,.07-6.06.17-9.08,0-2.23-.14-2.82.57-2.81,2.79C193.27,114.12,193.23,131.48,193.23,148.84Zm-86.91.46c0,17.36,0,34.72,0,52.08,0,2,.32,2.89,2.57,2.72a60.54,60.54,0,0,1,8.54,0c2.11.14,2.48-.67,2.47-2.59-.07-14.78,0-29.56,0-44.33,0-20,0-40.06,0-60.09,0-1.92-.38-2.73-2.48-2.58a49.16,49.16,0,0,1-7.74,0c-2.58-.22-3.44.42-3.41,3.26C106.4,114.94,106.32,132.12,106.32,149.31ZM72.65,149c0,17.26,0,34.51,0,51.77,0,2.12.36,3,2.71,2.85a56.16,56.16,0,0,1,8.26,0c2.15.15,2.66-.62,2.65-2.68-.08-14.14,0-28.28,0-42.43,0-20.46,0-40.91,0-61.37,0-1.92-.39-2.71-2.48-2.58a62.19,62.19,0,0,1-8.53,0c-2.2-.16-2.61.67-2.6,2.69C72.68,114.44,72.65,131.7,72.65,149Zm29.47-2.09c0-16.73,0-33.47,0-50.2,0-2-.43-2.88-2.62-2.69a36.54,36.54,0,0,1-6.67,0c-2.24-.21-2.6.73-2.59,2.72.07,15.4,0,30.79,0,46.19q0,25.63,0,51.27c0,1.14-.49,2.49,1.26,3.09a47.45,47.45,0,0,0,7.9,2c2.08.33,2.68-.35,2.66-2.48C102.09,180.15,102.13,163.51,102.13,146.86Zm86.94-1.59c0-16.29,0-32.58,0-48.88,0-1.82-.4-2.56-2.34-2.42a36.87,36.87,0,0,1-6.67,0c-2.47-.26-2.88.73-2.88,3q.11,49.68,0,99.35a12.48,12.48,0,0,1,0,1.33c-.14,1.28.41,1.68,1.68,1.64,2.6-.09,5-1,7.46-1.66,1.94-.49,2.75-1.49,2.73-3.73C189,177.68,189.06,161.47,189.06,145.27Zm-49.38,6.84c-4.2,5.66-8.26,11.11-10.91,17.44a8.08,8.08,0,0,0-.76,4.35c1.08,7.5,9.24,11.8,16.61,8.7,4.44-1.87,8.34-6.9,6.24-12.38C148.3,163.55,144,158,139.68,152.11Zm15.75,29.15c-3.46,4-6.92,6.67-11.53,7.46-1.06.18-1.31,1-1.29,2,.06,2.4.11,4.8,0,7.2-.08,1.58.54,2,2,1.91,3-.09,6-.06,9.07,0,1.16,0,1.8-.18,1.79-1.58C155.39,192.83,155.43,187.43,155.43,181.26Zm-31.49.05c0,6.13,0,11.59,0,17.05,0,1.27.63,1.43,1.66,1.42,3,0,6-.07,9.06,0,1.35,0,1.64-.56,1.61-1.75-.06-2.48,0-5,0-7.46,0-.79.12-1.74-.95-1.93C130.71,187.87,127.33,185.13,123.94,181.32Z"/><path class="cls-1" d="M193.31,27.5c2.17-3.29,4.46-6.51,6.46-9.89,1.5-2.55,2.74-.53,4.07,0,2.22.82.4,1.9,0,2.56-3,4.79-6.15,9.53-9.31,14.23-.52.78-.8,2.48-2.17,1.76s-3.76-.89-3.7-3.54a118.11,118.11,0,0,0-.44-14.1c-2,3-4,6.05-6,9.1-1.73,2.66-2.24,2.76-4.69,1-.69-.5-1-1-.5-1.74q5.35-8.25,10.71-16.5a1,1,0,0,1,1.56-.35c1.35.94,3.54.9,3.51,3.39,0,3.83.05,7.65.09,11.48,0,.85,0,1.7,0,2.55Z"/><path class="cls-1" d="M123.16,22.06c-3.12,1.94-5.68,1.43-7.87-1.37a23.78,23.78,0,0,0-2.77-2.48c-1.31-1.21-2.67-.69-3.92,0s0,1.66.07,2.49a9.3,9.3,0,0,0,.76,2.24c.87,2.61-.45,4.12-3.19,3.81-1-.12-1-.89-1.19-1.49-1.93-5.77-3.8-11.56-5.76-17.32-.32-.93-.42-1.45.7-1.7,3.77-.84,7.38-2.45,11.32-2.46,2.63,0,4.93.87,6.09,3.44,1.09,2.4,1.32,4.83-.82,6.86-1,1-.31,1.5.33,2.14C118.89,18.22,121.35,19.74,123.16,22.06ZM109.53,7.41c-1.22,1-4.26,0-4.38,2-.08,1.41-.23,4.9,2.57,4.88,3.56,0,5.73-1.35,5.57-3.59S111.92,7.6,109.53,7.41Z"/><path class="cls-1" d="M250.78,209.95a4.31,4.31,0,0,1-2.6-.74Q238.07,204,228,198.72c-2.9-1.51-3.69-3.1-2.66-5.16,1.13-2.27,3.56-3,6.12-1.72,7.16,3.65,14.28,7.37,21.4,11.08,1.6.84,2.76,2.1,2.28,4S253.09,210,250.78,209.95Z"/><path class="cls-1" d="M22.83,209.95c-2.28,0-3.79-.86-4.39-2.9s.56-3.23,2.15-4.05c7.28-3.79,14.57-7.57,21.9-11.25a4,4,0,0,1,5.78,2c1.08,2.51-.47,3.84-2.39,4.85-7,3.64-14,7.23-20.93,10.84A3.73,3.73,0,0,1,22.83,209.95Z"/><path class="cls-1" d="M229.11,104.18a3.65,3.65,0,0,1-4.07-2.73c-.59-1.8.35-3.23,2.06-4.11,7.29-3.76,14.55-7.58,21.88-11.26a4.15,4.15,0,0,1,5.82,1.87c1,2,.3,3.55-2.45,5-6.8,3.56-13.63,7.07-20.44,10.61A4.64,4.64,0,0,1,229.11,104.18Z"/><path class="cls-1" d="M44.35,104.17a4.57,4.57,0,0,1-2.8-.66C34.74,100,27.91,96.46,21.11,92.9c-2.69-1.41-3.4-3-2.38-5a4.18,4.18,0,0,1,5.85-1.81c7.32,3.69,14.58,7.52,21.87,11.28,1.71.88,2.62,2.34,2,4.13A3.65,3.65,0,0,1,44.35,104.17Z"/><path class="cls-1" d="M103.36,27.42c-2.44,1.69-4.67,3.34-7.17.36-.68-.82-1.69-.72-2.66-.11a15.57,15.57,0,0,1-3.29,1.68c-2.3.76-2.84,2.11-2,4.34.48,1.36-2.2,3.94-3.62,3.64-.71-.15-.61-.73-.72-1.24C82.5,29.55,81.17,23,79.76,16.47a1.23,1.23,0,0,1,.84-1.65c1.23-.44,2.22-2,3.79-.93C90.71,18.37,97,22.89,103.36,27.42Zm-16.64-.27,5.07-2.76L84.67,19Z"/><path class="cls-1" d="M195.33,37.69c7.45-3.2,14.59-6.23,21.68-9.35,2-.86,2.6,1,3.77,1.63s.26,1.66-.13,2.46c-2.71,5.66-5.41,11.33-8.2,17-.31.63-.33,2.45-1.82,1.34-1.11-.83-3.57-1.51-2.32-3.38,1.88-2.83.68-4.2-1.45-5.89s-3.59-3.16-6.42-1.29C197.87,41.88,197.23,38.69,195.33,37.69Zm12.15-.7c1.19,1.12,2.13,2,3.14,2.91.4.34.92,1.1,1.45.1,1.06-2,2.1-4,3.5-6.73Z"/><path class="cls-1" d="M77.7,33.28c4.19,5.15,1.53,11.7-5.4,13.54-6.55,1.74-16.06-5.89-15.65-12.66.23-3.71,2.79-5.87,5.85-7.28a9.19,9.19,0,0,1,8.89.65c.5.3,1,.83.35,1.22-1.41.88-2.32,3.07-4.72,1.6-2-1.26-3.71,0-5.12,1.52s-1.22,3-.17,4.6a19.13,19.13,0,0,0,6.85,6.16c2,1.09,3.7.66,5.32-.85s2.08-2.88.86-4.67c-.52-.77-.13-1.08.38-1.51C76,34.85,76.85,34.06,77.7,33.28Z"/><path class="cls-1" d="M158.15,2.35c-1,5.22-1.78,10-2.9,14.74-.42,1.78.26,2,1.6,2.15,2.27.3,4.52.8,6.79,1,1.22.12,1.72.64,1.29,1.65-.31.72.23,2.24-1.77,1.84-4.06-.81-8.18-1.29-12.29-1.83-1.49-.19-1.42-1.15-1.23-2.13,1.19-6,2.45-11.92,3.62-17.9.18-.94.47-1.79,1.41-1.13C155.78,1.54,158.37-.14,158.15,2.35Z"/><path class="cls-1" d="M179.8,6.46c-.2.61-.3,1-.43,1.29-2.15,5.52-4.41,11-6.42,16.56-1,2.69-2.42,1.25-3.94.95-2.11-.42-1.09-1.63-.73-2.56,2.09-5.45,4.25-10.87,6.35-16.31.43-1.13.84-2,2.27-1.23C177.85,5.67,179.27,5.35,179.8,6.46Z"/></g></g></g></svg>