<svg xmlns="http://www.w3.org/2000/svg" viewBox="0 0 241.66 273.71"><defs><style>.cls-1{fill:#fff;}</style></defs><title>activities_lch</title><g id="Layer_2" data-name="Layer 2"><g id="Mobile"><g id="Activities"><path class="cls-1" d="M212.92,155.46c0,3.34,0,6.68,0,10,0,.94-.53,2.25.69,2.74.91.37,1.6-.63,2.3-1.13a15.41,15.41,0,0,1,9.69-3.25c6.55.23,10.42,4.08,10.67,10.74.17,4.62.11,9.25.05,13.88,0,2.1.47,3.46,2.93,3.5,3.09,0,2.23,2.5,2.37,4.27.18,2.27-1.14,2.82-3.12,2.79-4.37-.06-8.74,0-13.11,0-1.69,0-3.23-.21-3-2.41.15-1.83-1-4.48,2.32-4.67,1.94-.11,2.74-1,2.71-2.91-.06-4,.12-8-.11-11.95s-2.39-5.61-6.49-5.14c-5.5.63-7.88,3.24-7.89,8.66,0,2.06,0,4.11,0,6.17,0,2.54-.57,5,3.44,5.47,2.27.25,1.23,3,1.32,4.63s-1.1,2.12-2.55,2.12c-4.75,0-9.51,0-14.26,0-2.15,0-2.6-1.25-2.48-3s-.63-4,2.2-4,3.19-1.67,3.18-4q-.1-17.54,0-35.08c0-2.38,0-4.28-3.31-4.26-2.84,0-1.93-2.47-2.06-4.1s.06-3.18,2.3-3.17l.77,0c11.46-.72,11.46-.72,11.46,10.64Q212.92,153.73,212.92,155.46Z"/><path class="cls-1" d="M127.59,169.28c1.94-1.29,3.37-2.3,4.86-3.22,8.12-4.95,19.53-1.7,18.84,10.5-.22,3.84,0,7.71,0,11.56,0,2.17.28,3.79,3,3.87,3,.08,2.25,2.49,2.38,4.29.16,2.31-1.24,2.77-3.17,2.75-4.37,0-8.73,0-13.1,0-1.74,0-3.15-.38-3-2.52.13-1.75-.88-4.2,2.13-4.5,2.23-.22,2.68-1.51,2.65-3.42-.06-3.72.07-7.45-.06-11.17-.15-4.28-2.26-6-6.51-5.43-5.52.69-7.7,3.18-7.7,8.82,0,2.31,0,4.62,0,6.94s0,4,3,4.35,1.72,3,1.83,4.69c.12,2-1.33,2.22-2.86,2.22-4.5,0-9,0-13.49,0-1.8,0-3.08-.52-2.92-2.6.13-1.76-.81-4.24,2.23-4.4,2.6-.13,3.17-1.51,3.13-3.78-.09-4.37-.06-8.73,0-13.1,0-1.94-.51-3.2-2.76-3.26-3.6-.09-2.44-2.88-2.57-4.85-.17-2.42,1.52-2.6,3.32-2.59s3.61.12,5.39,0C125.37,164.13,128,164.5,127.59,169.28Z"/><path class="cls-1" d="M93.44,193.88c-2.8,1.94-4.67,3.51-6.91,4.47-9.12,3.91-16.82-1-17-10.85-.08-4.11-.06-8.23,0-12.34,0-1.93-.46-3.21-2.72-3.29-3.52-.13-2.51-2.87-2.62-4.88-.13-2.44,1.58-2.58,3.37-2.55,13.66.25,10.82-2,11.14,10.63.09,3.73-.08,7.46.07,11.18.16,3.92,2.15,5.78,6,5.21,5.18-.78,9.36-2.32,8.51-8.94a37.13,37.13,0,0,1,0-6.55c.13-2.54-.41-4.2-3.5-4.17-2.74,0-2.26-2.25-2.31-4s.28-3.4,2.65-3.35c.26,0,.51,0,.77,0,13.64.22,10.92-2,11.2,10.61.1,4.5,0,9,0,13.5,0,1.88.39,3.33,2.67,3.38,3.23.07,2.61,2.49,2.67,4.47.06,2.39-1.53,2.62-3.36,2.6a55.62,55.62,0,0,0-6.17,0C94.65,199.38,92.82,198.41,93.44,193.88Z"/><path class="cls-1" d="M180.7,192.22a25.15,25.15,0,0,0,7.79-1.39c1.35-.41,3.08-2.23,4.07-.68s.44,4-.33,5.93a2.47,2.47,0,0,1-.79.82c-5.57,4.62-19.71,3.43-26.13-2.2-6.14-5.37-7.49-15-3.12-22.17,5.76-9.48,20-11.71,28.34-4.42a10.31,10.31,0,0,1,3.74,6.12,5.6,5.6,0,0,1-2.45,6.05,5.33,5.33,0,0,1-6.17,0c-2-1.32-3-3.18-2.2-5.61.75-2.16-.65-2.73-2.17-3.27a9.15,9.15,0,0,0-11.55,5c-2.37,5.39-.59,11.49,4.16,14.2A12.55,12.55,0,0,0,180.7,192.22Z"/><path class="cls-1" d="M14.69,166.6c0,7.19,0,14.38,0,21.57,0,2.18.26,3.78,3,3.79,3.12,0,2.22,2.47,2.37,4.24S19.4,199,17.39,199q-7.32-.08-14.63,0c-2,0-2.9-.8-2.71-2.75C.21,194.53-.8,192,2.33,192c2.9,0,3.28-1.57,3.27-3.95q-.1-17.71,0-35.43c0-2.36-.36-3.95-3.28-3.92-3.16,0-2.08-2.56-2.27-4.28-.23-2,.58-3.21,2.8-3a7.27,7.27,0,0,0,.77,0C14.69,141,14.69,141,14.69,152Q14.69,159.28,14.69,166.6Z"/><path class="cls-1" d="M32.53,237.92c0-7.19,0-14.38,0-21.58,0-1.31-.39-3.19,1.82-3.07,1.83.1,1.55,1.78,1.58,3,.07,3.21,0,6.42,0,9.63,0,2,0,3.17,2.76,2.08,6.6-2.62,11,.35,11.11,7.39.14,8.09.05,16.18,0,24.27,0,1.21.3,2.88-1.55,3-2.19.14-1.87-1.69-1.88-3,0-7.71,0-15.41,0-23.12,0-4.49-1.61-6.46-4.87-6.37S36,232.58,36,236.63c-.07,7.45,0,14.9-.06,22.35,0,1.38.68,3.57-1.64,3.64s-1.74-2.13-1.76-3.51C32.49,252,32.52,245,32.53,237.92Z"/><path class="cls-1" d="M170.58,229.31a46.08,46.08,0,0,1,4.38-1.9c4.93-1.52,9.38,1.36,9.5,6.45.2,8.73.08,17.47.07,26.2,0,1.12.14,2.56-1.55,2.57-2,0-1.62-1.65-1.62-2.84,0-7.58,0-15.16,0-22.73,0-4.85-1.49-6.9-4.77-6.95-3.61-.05-5.91,2.57-5.94,7-.05,7.45,0,14.9-.05,22.35,0,1.26.6,3.23-1.66,3.16-1.92-.06-1.44-1.83-1.44-3q-.05-21.58,0-43.16c0-1.28-.5-3.25,1.74-3.1,1.86.13,1.34,1.92,1.36,3.08C170.62,220.52,170.58,224.62,170.58,229.31Z"/><path class="cls-1" d="M9.16,245.31c0,3.08-.15,6.18,0,9.25.24,3.73,2.26,5.57,5.6,5.47,3.55-.1,4.78-2.25,5.15-5.5.2-1.74-1.41-5,1.71-4.89,2.76.13,1.45,3.35,1.43,5.14C23,260.17,20,263,14.53,263c-5.26.07-8.43-2.8-8.58-8.23-.18-6.55-.09-13.11,0-19.66,0-3.21,1.34-5.84,4.52-6.95,3.43-1.19,6.93-1.23,9.81,1.34,2.64,2.35,2.77,5.65,2.59,8.93a1.38,1.38,0,0,1-1.49,1.42c-1,0-1.35-.61-1.48-1.44-.18-1.14-.28-2.3-.47-3.44-.47-2.87-2-4.83-5.07-4.8s-5,2-5.15,5.1C9,238.62,9.16,242,9.16,245.31Z"/><path class="cls-1" d="M145.92,238c0,7.18,0,14.36,0,21.54,0,1.18.45,2.92-1.44,3-2.27.13-1.73-1.81-1.73-3.08q-.06-21.54,0-43.09c0-1.18-.45-2.93,1.43-3,2.23-.13,1.74,1.82,1.75,3.1C145.95,223.67,145.92,230.86,145.92,238Z"/><path class="cls-1" d="M227.63,238.31c0,7.19,0,14.38,0,21.57,0,1,.45,2.62-1.29,2.7s-1.56-1.43-1.57-2.54q0-22,0-43.91c0-1.1-.18-2.67,1.42-2.69,2,0,1.42,1.8,1.43,2.92C227.66,223.67,227.63,231,227.63,238.31Z"/><path class="cls-1" d="M195.24,245c0-4.87,0-9.74,0-14.61,0-1.09-.2-2.53,1.49-2.61s1.61,1.37,1.61,2.46q.05,15,0,30c0,1.13.09,2.53-1.66,2.4s-1.46-1.54-1.46-2.64C195.22,255,195.24,250,195.24,245Z"/><path class="cls-1" d="M213.72,238.48c0,6.92,0,13.84,0,20.76,0,1.43.49,3.47-1.78,3.6s-2-1.9-2-3.36q0-21.53,0-43.06c0-1.35-.25-3.17,1.78-3.23,2.34-.08,2,1.92,2,3.37C213.75,223.87,213.72,231.17,213.72,238.48Z"/><path class="cls-1" d="M196.72,219.41c1.08,0,1.74.6,1.75,1.6a1.48,1.48,0,0,1-1.7,1.56,1.45,1.45,0,0,1-1.49-1.39A1.54,1.54,0,0,1,196.72,219.41Z"/><path class="cls-1" d="M117.3.17h-4.62C70.39.41,38.08,41.23,47.53,82.49c8.2,35.83,46.18,59.15,84,51.6,32.11-6.42,55.66-32.59,57-63.15C190.52,25.6,149.59-2.44,117.3.17Zm-28,68.72c-2.41-.3-3.8-1.47-3.74-3.79a3.43,3.43,0,0,1,3.73-3.6c2.52,0,4.13,1.51,3.92,4.09C93,67.83,91.35,68.81,89.33,68.89Zm9.5-8.71c-2.1-.15-3.72-1-3.94-3.35a3.33,3.33,0,0,1,3.26-4c2.46-.24,4.27.86,4.35,3.52C102.56,58.66,101,59.78,98.83,60.17Zm9.23-8.89c-2.56,0-4.14-1.44-3.94-4.07.17-2.28,1.76-3.46,4-3.35s3.47,1.5,3.72,3.75C111.57,49.87,110.3,51.27,108.06,51.28Zm9.29,19.95c-2.25.07-3.84-1.15-4-3.42-.15-2.62,1.46-4.08,4-4,2.23.06,3.49,1.49,3.74,3.72C120.85,69.79,119.61,71.16,117.35,71.23ZM121,80.1c0,2.35-1.59,3.61-3.85,3.58s-3.78-1.25-3.78-3.64,1.61-3.4,3.84-3.59C119.49,76.66,121.08,77.7,121,80.1ZM113.4,55.29c-.13-2.39,1.33-3.67,3.61-3.79s3.69,1.08,4.1,3.38c-.15,2.33-1.44,3.72-3.7,3.83S113.53,57.68,113.4,55.29Zm4-20.3c2.2.06,3.51,1.45,3.72,3.72-.26,2.29-1.54,3.57-3.79,3.65s-3.82-1.12-4-3.39C113.23,36.33,114.9,34.93,117.42,35Zm0,73.5c-2.19.11-3.84-.9-4-3.25s1.31-3.58,3.53-3.71a3.61,3.61,0,0,1,4.09,3.24A3.52,3.52,0,0,1,117.45,108.49Zm.17-12.28a3.52,3.52,0,0,1-4.2-3.15c-.35-2.6,1.18-4.13,3.72-4.27,2.29-.13,3.46,1.38,4,3.2C121,94.55,119.82,96,117.62,96.21ZM126,51.27a3.46,3.46,0,0,1-3.37-4c.22-2.26,1.76-3.35,4-3.46,2.22.31,3.75,1.45,3.69,3.76C130.27,50.2,128.53,51.53,126,51.27ZM135.67,60c-2.24-.07-3.76-1.37-3.71-3.73s1.65-3.51,3.91-3.46a3.49,3.49,0,0,1,3.76,3.66C139.31,58.84,137.93,60.12,135.67,60Zm9.23,8.76c-2.24-.09-3.74-1.31-3.7-3.63,0-2.67,1.85-3.91,4.3-3.68a3.6,3.6,0,0,1,3.45,3.91C148.53,67.73,147.15,68.9,144.9,68.81Z"/><path class="cls-1" d="M59.91,191.83c-2.2.06-2.26-1.62-2.27-3.24,0-4,.11-8-.07-11.94-.29-6.43-3.3-10.27-9-11.94-7.49-2.17-16.67-.32-19.76,4a6.12,6.12,0,0,0-.61,1c-.91,2-1.21,4,.26,5.81a4.61,4.61,0,0,0,4.84,1.64A4.45,4.45,0,0,0,37,173.21c.15-1,.14-2,1.39-2.47,4-1.62,9.58,1.37,10.22,5.53.41,2.67-.11,4-3.37,3.63-4.32-.55-8.73-.76-13,.78-4.86,1.77-7.45,5.33-7.17,9.79s3.21,7.57,8.34,8.76c4.37,1,8.38,0,12.31-1.88.84-.39,2.15-1.75,2.62-.64,1.65,3.88,4.92,1.59,7,2.3,1.49,0,2.65,0,3.8,0,1.74-.06,3.84.43,3.86-2.4C63.06,194.32,63.63,191.74,59.91,191.83Zm-11.22-3.26a3.15,3.15,0,0,1-1.75,2.75,14.14,14.14,0,0,1-8.1,1.89c-2.2-.23-4-1.14-4.24-3.65s1.13-4.19,3.44-4.84a19.5,19.5,0,0,1,3.85-.49C48.23,184.38,49,185,48.69,188.58Z"/><path class="cls-1" d="M104.22,235.59c-.18-7.5-4.78-10.25-11.62-7.14-.73.33-1.18,1.14-2.28.19-2.6-2.25-3.12-.4-3.13,1.9,0,6.67,0,13.33,0,20s0,13.33,0,20c0,1.23-.63,3.25,1.62,3.18s1.44-2.05,1.51-3.3c.13-2.17.11-4.36,0-6.54-.09-2.37.47-2.78,2.85-1.8,6.1,2.52,10.86-.67,11-7.27Q104.47,245.21,104.22,235.59ZM101,254.84c-.13,3-1.49,5.19-4.93,5.18a5.34,5.34,0,0,1-5.62-5.54q-.16-9.25,0-18.5a5.8,5.8,0,0,1,5.7-6q4.68-.07,4.94,6c0,.26,0,.51,0,.77q0,4.24,0,8.48H101C101,248.42,101.12,251.64,101,254.84Z"/><path class="cls-1" d="M76.66,259.6c-1.19-.93-.9-2.33-.91-3.58,0-3.47,0-6.94,0-10.41h0q0-5.4,0-10.79c0-.26,0-.51,0-.77-.29-4.35-2.44-6.49-6.81-6.79-4.8-.33-8,1.59-8.71,5.67-.31,1.75-2,4.61,1,5.17,2.76.53,1.7-2.5,2-4,.48-2.13,1.55-3.53,3.73-3.85s3.87.07,5,2.06A7.27,7.27,0,0,1,69,242c-2.71,1.45-5.64,2.55-7.85,4.81-3.21,3.28-4,9.23-1.61,12.85,2.06,3.18,5.8,4,10.69,1.84,1.75-.76,2.81-.28,4.17.57.94.59,2.32,1.09,3.19,0S77.54,260.29,76.66,259.6Zm-5.23-2c-2.15,2.28-5.93,2.9-8.07,1.28s-2.57-6.06-.7-8.86,5.14-4.16,8.14-5.62c1.16-.56,1.69.06,1.72,1.19,0,1.67,0,3.34,0,5.58C72.18,253,73.4,255.55,71.43,257.65Z"/><path class="cls-1" d="M129.46,251c-2.45-.27-1.22,2.53-1.75,3.91a4.59,4.59,0,0,0-.14.76c-.6,3-2.4,4.47-5.43,4.31s-4.68-1.88-4.9-4.88c-.12-1.66.1-3.35-.11-5-.5-3.8,1.16-4.77,4.79-4.71,10,.16,10.41-.49,8.89-10.57-.06-.38-.13-.76-.21-1.13-1-4.59-4-6.77-9-6.42-4.66.33-7.31,2.9-7.52,7.59-.15,3.33,0,6.67,0,10h0c0,3.33-.07,6.67,0,10,.13,4.92,3.07,7.83,7.94,8s8.36-2.43,8.85-7.14C131,254.1,132.15,251.31,129.46,251Zm-12.3-13c0-5.53,1.49-7.84,5.07-7.91s5.34,2.38,5.34,8.07c0,4.87,0,4.87-5.32,4.87C117.15,243,117.15,243,117.16,238Z"/><path class="cls-1" d="M212.95,238.06c0,6.93,0,13.86,0,20.8,0,1,.43,2.73-1.22,2.71-1.29,0-1-1.58-1-2.54q0-21,0-42c0-1-.25-2.53,1-2.53,1.63,0,1.2,1.7,1.2,2.74C213,224.19,212.95,231.13,212.95,238.06Z"/></g></g></g></svg>