<svg xmlns="http://www.w3.org/2000/svg" viewBox="0 0 220.32 252.61"><defs><style>.cls-1{fill:none;stroke:#fff;stroke-miterlimit:10;stroke-width:3px;}.cls-2{fill:#fff;}</style></defs><title>cube</title><g id="Layer_2" data-name="Layer 2"><g id="Mobile"><g id="Spaces"><path class="cls-1" d="M94.95,83.76,51.4,48.57c0,20.45,0,38.81,0,57.18,0,2.16-.2,4.4,1.74,6,14.14,11.49,28.3,23,43.83,35.55,0-21.13,0-40.22,0-59.3A5.18,5.18,0,0,0,94.95,83.76Z"/><path class="cls-1" d="M115.19,58.78c14.16-11.4,28.39-22.72,43.44-34.73-15.08-7.63-29-14.65-42.87-21.75a6,6,0,0,0-6,0C95.85,9.47,81.92,16.49,66.83,24.15c15,11.95,28.91,23,42.76,34.12C111.47,59.77,113,60.58,115.19,58.78Z"/><path class="cls-1" d="M174.1,48.65C158.69,61,144.86,72.11,130.95,83.13c-2.78,2.2-2.68,5.05-2.67,8,0,15.94,0,31.89.06,47.83,0,1.66-1,3.85,2.08,5.17,13.55-11.09,27.3-22.36,41.07-33.6,2.09-1.7,2.65-3.85,2.64-6.44C174.07,86.31,174.1,68.49,174.1,48.65Z"/><path class="cls-1" d="M125.53,75.49c13.76-10.42,27.09-21.4,40.54-32.23,3.24-2.61,7.67-5,3.36-10.22h0c-3.88-4.3-7.22-2.6-11,.51-13.5,11.13-27.32,21.87-40.7,33.15-4,3.34-6.32,3-10.1-.15C94,55.15,80,44.24,66.3,32.91c-3.22-2.67-5.82-3.58-9-.42-6.17,3.91-2.59,7,1,9.86C72.36,53.66,86.4,65,100.69,76.08c3.8,2.94,5.37,6,5.3,10.82-.27,18.06,0,36.13-.19,54.2-.06,5.2,1.58,8.26,6.93,8.84,5.34-.6,7-3.67,6.94-8.87-.22-17.54.11-35.08-.19-52.62C119.38,82.84,120.85,79,125.53,75.49Z"/><path class="cls-2" d="M11.76,249.13a22.55,22.55,0,0,1-8.72-10,40.41,40.41,0,0,1,0-30.76,22.58,22.58,0,0,1,8.72-10,25.22,25.22,0,0,1,13.44-3.48,28,28,0,0,1,10.28,1.92,22.92,22.92,0,0,1,8.2,5.28,2.62,2.62,0,0,1,.8,1.92,1.79,1.79,0,0,1-.32,1.08,1,1,0,0,1-.8.44,2.11,2.11,0,0,1-1.36-.64,30.57,30.57,0,0,0-8.28-5.28A24,24,0,0,0,25,198.21q-10.16,0-15.8,6.72T3.6,223.73q0,12.16,5.6,18.88T25,249.33a23.89,23.89,0,0,0,8.72-1.44A30.82,30.82,0,0,0,42,242.61a2.7,2.7,0,0,1,1.36-.64,1,1,0,0,1,.8.44,1.79,1.79,0,0,1,.32,1.08,2.62,2.62,0,0,1-.8,1.92,22.91,22.91,0,0,1-8.2,5.28,28,28,0,0,1-10.28,1.92A25.22,25.22,0,0,1,11.76,249.13Z"/><path class="cls-2" d="M67.88,247q-5.4-5.56-5.4-16.44V197a1.94,1.94,0,0,1,.44-1.36,1.6,1.6,0,0,1,1.24-.48,1.45,1.45,0,0,1,1.16.52,2,2,0,0,1,.44,1.32v34.16q0,18.16,18.08,18.16,8.88,0,13.44-4.56t4.56-13.6V197a1.79,1.79,0,0,1,.52-1.32,1.61,1.61,0,0,1,1.16-.52,1.57,1.57,0,0,1,1.2.52,1.87,1.87,0,0,1,.48,1.32v33.6q0,10.88-5.44,16.44t-15.92,5.56Q73.28,252.61,67.88,247Z"/><path class="cls-2" d="M163.72,227.85a14.29,14.29,0,0,1,2.68,8.84q0,7.52-4.72,11.4T148.16,252H128.48a2,2,0,0,1-1.4-.56,1.63,1.63,0,0,1-.6-1.2V197.33a1.59,1.59,0,0,1,.6-1.24,2.07,2.07,0,0,1,1.4-.52h18.8q8.56,0,13.2,3.8t4.64,11a13,13,0,0,1-2.36,7.88,14,14,0,0,1-6.6,4.84A13,13,0,0,1,163.72,227.85Zm-33.88-6.12h17q7.2,0,11-3t3.76-8.8q0-11.2-14.72-11.2h-17ZM159.24,246q3.64-2.88,3.64-8.88T159.16,228q-3.72-3.08-11.08-3.08H129.84v23.92h18.24Q155.6,248.85,159.24,246Z"/><path class="cls-2" d="M186.68,251.41a1.63,1.63,0,0,1-.6-1.2V197.33a1.59,1.59,0,0,1,.6-1.24,2.07,2.07,0,0,1,1.4-.52h30.8a1.34,1.34,0,0,1,1,.44,1.66,1.66,0,0,1,.4,1.16,1.55,1.55,0,0,1-.4,1.08,1.34,1.34,0,0,1-1,.44H189.44v23.12h27.84a1.41,1.41,0,0,1,1,.4,1.52,1.52,0,0,1,.4,1.12,1.66,1.66,0,0,1-.4,1.16,1.34,1.34,0,0,1-1,.44H189.44v23.92h29.44a1.41,1.41,0,0,1,1,.4,1.52,1.52,0,0,1,.4,1.12,1.66,1.66,0,0,1-.4,1.16,1.34,1.34,0,0,1-1,.44h-30.8A2,2,0,0,1,186.68,251.41Z"/></g></g></g></svg>