<svg xmlns="http://www.w3.org/2000/svg" viewBox="0 0 53 53"><defs><style>.cls-1{fill:#fff;}</style></defs><title>electives</title><g id="Layer_2" data-name="Layer 2"><g id="Mobile"><g id="Courses"><path class="cls-1" d="M26.5,0A26.5,26.5,0,1,0,53,26.5,26.5,26.5,0,0,0,26.5,0Zm9,28.5a1.67,1.67,0,0,1-1.23.49H28.21v6.07a1.74,1.74,0,0,1-.49,1.25,1.75,1.75,0,0,1-2.47,0,1.73,1.73,0,0,1-.49-1.25V29H18.66a1.72,1.72,0,1,1,0-3.44h6.11V19.44a1.72,1.72,0,1,1,3.44,0v6.11h6.11a1.74,1.74,0,0,1,1.23,3Z"/></g></g></g></svg>