<svg xmlns="http://www.w3.org/2000/svg" viewBox="0 0 157.5 251.31"><defs><style>.cls-1{fill:#fff;}.cls-2{fill:none;stroke:#fff;stroke-miterlimit:10;stroke-width:3px;}</style></defs><title>Asset 19</title><g id="Layer_2" data-name="Layer 2"><g id="Mobile"><g id="Spaces"><path class="cls-1" d="M51,222.71a1.68,1.68,0,0,1,.44,1.24v22.32a1.4,1.4,0,0,1-.28.8,3.48,3.48,0,0,1-.68.72,33.5,33.5,0,0,1-8.12,2.56,51,51,0,0,1-10,1,27,27,0,0,1-13.88-3.4A22.06,22.06,0,0,1,9.59,238a40.59,40.59,0,0,1,0-30.92,22.51,22.51,0,0,1,8.76-10,25.42,25.42,0,0,1,13.48-3.48,29,29,0,0,1,10.56,1.92,21.32,21.32,0,0,1,8.08,5.28,3.26,3.26,0,0,1,.8,1.92,1.79,1.79,0,0,1-.32,1.08,1,1,0,0,1-.88.44,2.11,2.11,0,0,1-1.36-.64,30.86,30.86,0,0,0-8.24-5.28,23.66,23.66,0,0,0-8.64-1.44q-10.32,0-16,6.68t-5.64,18.84q0,12.4,5.72,19t16.44,6.64a45.81,45.81,0,0,0,8.6-.8,31.56,31.56,0,0,0,7.32-2.24v-19.6H34.19a1.84,1.84,0,0,1-1.36-.48,1.54,1.54,0,0,1-.48-1.12,1.5,1.5,0,0,1,.48-1.16,1.94,1.94,0,0,1,1.36-.44h15.6A1.57,1.57,0,0,1,51,222.71Z"/><path class="cls-1" d="M75.87,220.51h37.92v3H75.87v25.68a2,2,0,0,1-.44,1.32,1.74,1.74,0,0,1-2.48,0,2,2,0,0,1-.44-1.32V195.71a2,2,0,0,1,.44-1.32,1.74,1.74,0,0,1,2.48,0,2,2,0,0,1,.44,1.32Zm40.92-26.12a2,2,0,0,1,.44,1.32v53.52a2,2,0,0,1-.44,1.32,1.74,1.74,0,0,1-2.48,0,2,2,0,0,1-.44-1.32V195.71a2,2,0,0,1,.44-1.32,1.74,1.74,0,0,1,2.48,0Z"/><path class="cls-1" d="M139.43,250.55a2,2,0,0,1-.44-1.32V195.71a2,2,0,0,1,.44-1.32,1.53,1.53,0,0,1,1.24-.52,1.45,1.45,0,0,1,1.16.52,2,2,0,0,1,.44,1.32v53.52a2,2,0,0,1-.44,1.32,1.44,1.44,0,0,1-1.16.52A1.53,1.53,0,0,1,139.43,250.55Z"/><path class="cls-2" d="M156,46.82c-12.94,31.76-39.39,36-69.3,33.79,0,1.33,0,2.66,0,4,.64,16.47-1.82,32.31-9.72,47C71.67,141.49,64.73,150,55.06,156H53c-4.12-2.91-4.09-5.36,0-8.45,1.89-1.42,3.66-3,5.41-4.45L14.37,99c-1.48,1.82-3.1,3.7-4.59,5.68-2.89,3.83-5.45,3.79-8.28-.22v-2.06C12.28,86,28,76.89,46.73,73.06c9.74-2,19.87-2.12,30.24-3.13-.07-1-.18-2.8-.32-4.57-1-12.45-.08-24.66,4.83-36.28C87.15,15.65,97,6.49,110.68,1.5h2.75c3.84,4.15,3.16,6.65-2.26,8.64-1.67.61-3.27,1.42-4.78,2.08L145.25,51c.64-1.4,1.47-3,2.1-4.66,2-5.43,4.49-6.09,8.65-2.25ZM137.9,60.33,97.13,19.52A38.31,38.31,0,0,0,87.93,35a3.45,3.45,0,0,0,.74,2.89Q104,53.35,119.49,68.66a3.75,3.75,0,0,0,3.15.77A39.41,39.41,0,0,0,137.9,60.33ZM66.18,134.65c2.49-5.22,5-10.4,7.39-15.65a3,3,0,0,0-.71-2.57q-15.8-16-31.76-31.78a2.84,2.84,0,0,0-2.25-.83,55.3,55.3,0,0,0-15.46,7.86Zm-14.05-55,25.63,25.61V79.68ZM84.24,49.53c.4,7.3.76,14.28,1.22,21.26a1.88,1.88,0,0,0,1.3,1.27c7,.45,13.94.79,21.18,1.17Z"/></g></g></g></svg>