<svg xmlns="http://www.w3.org/2000/svg" viewBox="0 0 590.78 175"><defs><style>.cls-1{fill:#fff;}</style></defs><title>logo-white</title><g id="Layer_2" data-name="Layer 2"><g id="logo"><path class="cls-1" d="M213.94,32a7.57,7.57,0,0,0-6.12,2.64,10.27,10.27,0,0,0-2.22,6.84v.18h16.74v-.18a10.09,10.09,0,0,0-2.28-6.84A7.68,7.68,0,0,0,213.94,32Z"/><path class="cls-1" d="M374.86,32a7.57,7.57,0,0,0-6.12,2.64,10.27,10.27,0,0,0-2.22,6.84v.18h16.74v-.18A10.09,10.09,0,0,0,381,34.68,7.68,7.68,0,0,0,374.86,32Z"/><path class="cls-1" d="M249.22,32.4a7.47,7.47,0,0,0-6.33,2.79,11.13,11.13,0,0,0-2.25,6.57q-.06.66-.06,2.34t.06,2.34a10.22,10.22,0,0,0,2.31,6.33,7.64,7.64,0,0,0,6.27,2.67q4.32,0,6.3-2.7a12.6,12.6,0,0,0,2.16-7.08q.06-.6.06-1.74Q257.74,32.4,249.22,32.4Z"/><path class="cls-1" d="M305.08,32A7.57,7.57,0,0,0,299,34.68a10.27,10.27,0,0,0-2.22,6.84v.18h16.74v-.18a10.09,10.09,0,0,0-2.28-6.84A7.68,7.68,0,0,0,305.08,32Z"/><path class="cls-1" d="M38.93,85q-5.16,0-5.16,7.26a9.39,9.39,0,0,0,1.29,5.25,4.33,4.33,0,0,0,3.87,1.95,4.48,4.48,0,0,0,4-1.8,9.63,9.63,0,0,0,1.23-5.4,9.79,9.79,0,0,0-1.23-5.43A4.46,4.46,0,0,0,38.93,85Z"/><path class="cls-1" d="M550,32.4a7.47,7.47,0,0,0-6.33,2.79,11.13,11.13,0,0,0-2.25,6.57q-.06.66-.06,2.34t.06,2.34a10.22,10.22,0,0,0,2.31,6.33A7.64,7.64,0,0,0,550,55.44q4.32,0,6.3-2.7a12.6,12.6,0,0,0,2.16-7.08q.06-.6.06-1.74Q558.51,32.4,550,32.4Z"/><path class="cls-1" d="M39.27,0V51A40.38,40.38,0,0,0,0,91.39v.22A40.39,40.39,0,0,0,40.39,132l.61,0v43H248.78V86h342V0ZM179.62,29.76a1.44,1.44,0,0,1,.39-1,1.29,1.29,0,0,1,1-.42h2.52A1.34,1.34,0,0,1,185,29.76V32.4q2.46-4.08,8.34-4.08h2.34A1.25,1.25,0,0,1,197,29.7v2.22a1.4,1.4,0,0,1-.36,1,1.32,1.32,0,0,1-1,.39h-3.42A7,7,0,0,0,187,35.22a7.12,7.12,0,0,0-1.89,5.22v17.7a1.29,1.29,0,0,1-.42,1,1.44,1.44,0,0,1-1,.39H181a1.33,1.33,0,0,1-1.38-1.38ZM61.54,94.93a9.67,9.67,0,0,1-2.64,6.66,8.25,8.25,0,0,1-6,2.34,8.72,8.72,0,0,1-4.41-1,8,8,0,0,1-2.61-2.22,8.27,8.27,0,0,1-2.67,2.73,9.25,9.25,0,0,1-5,1.11,8.64,8.64,0,0,1-7.11-3.24q-2.61-3.24-2.61-9t2.58-9a8.46,8.46,0,0,1,7-3.27,7.75,7.75,0,0,1,3.6.75,7.43,7.43,0,0,1,2.46,2.07v-.9a1.36,1.36,0,0,1,.42-1.05,1.44,1.44,0,0,1,1-.39H48a1.35,1.35,0,0,1,1.44,1.44V94.39a5.21,5.21,0,0,0,.93,3.36,3.11,3.11,0,0,0,2.55,1.14,2.78,2.78,0,0,0,2.64-1.38,6.23,6.23,0,0,0,.78-3.12q.12-1.8.12-3.78,0-.9-.12-3.06-.48-7.2-4.41-10.62T39.16,73.51q-7.32,0-11.37,3.69T23,87.55a44.26,44.26,0,0,0-.18,4.74q0,3.18.18,4.92.66,6.72,4.83,10.29t11.79,3.57a30.33,30.33,0,0,0,6.12-.51,13.44,13.44,0,0,0,3.63-1.2,29.37,29.37,0,0,0,2.73-1.77L53,107a1.45,1.45,0,0,1,.84-.21h3.36a1.43,1.43,0,0,1,1.44,1.44,2,2,0,0,1-.36.9q-6.36,7.08-18.6,7.08-10.08,0-15.57-5T17.69,97.51q-.12-2.28-.12-5.22t.12-5a23.21,23.21,0,0,1,3.18-9.69,18.27,18.27,0,0,1,7.23-6.69,23.37,23.37,0,0,1,11.07-2.46q21.3,0,22.38,18.84.12,2.4.12,3.9Q61.66,93.37,61.54,94.93Zm23.81-35.8a1.4,1.4,0,0,1-.36-1V19a1.49,1.49,0,0,1,.36-1,1.24,1.24,0,0,1,1-.39H111A1.35,1.35,0,0,1,112.42,19v2.16a1.24,1.24,0,0,1-.39,1,1.49,1.49,0,0,1-1,.36H90.52V35.82h19.14a1.34,1.34,0,0,1,1.44,1.44v2a1.34,1.34,0,0,1-.39,1,1.42,1.42,0,0,1-1,.39H90.52V54.54h20.94A1.34,1.34,0,0,1,112.9,56v2.16a1.29,1.29,0,0,1-.42,1,1.44,1.44,0,0,1-1,.39H86.32A1.24,1.24,0,0,1,85.36,59.13ZM123,137.59q0,8.4-4.47,12.54t-12.57,4.14q-8.16,0-12.66-4.14t-4.5-12.54V113.17a1.52,1.52,0,0,1,.39-1.08,1.36,1.36,0,0,1,1-.42h5.52a1.44,1.44,0,0,1,1.5,1.5v24.42q0,4.74,2.25,7.14a9.71,9.71,0,0,0,12.78,0q2.25-2.4,2.25-7.14V113.17a1.44,1.44,0,0,1,1.5-1.5h5.52a1.37,1.37,0,0,1,1,.42,1.53,1.53,0,0,1,.39,1.08ZM126,41.52V58.14a1.33,1.33,0,0,1-1.38,1.38H121.9a1.33,1.33,0,0,1-1.38-1.38V29.7a1.33,1.33,0,0,1,1.38-1.38h2.58a1.25,1.25,0,0,1,1.38,1.38v2.64A12.81,12.81,0,0,1,130,28.92a13,13,0,0,1,5.91-1.2q5.76,0,8.94,3.69t3.18,9.75v17a1.33,1.33,0,0,1-1.38,1.38h-2.76a1.34,1.34,0,0,1-1.38-1.38V41.52a9.88,9.88,0,0,0-2.1-6.72,7.55,7.55,0,0,0-6-2.4,8,8,0,0,0-6.12,2.43A9.39,9.39,0,0,0,126,41.52Zm39,110.65a1.46,1.46,0,0,1-.42,1.08,1.39,1.39,0,0,1-1,.42H158.9a2,2,0,0,1-1.8-1l-17.1-26v25.62a1.44,1.44,0,0,1-.39,1,1.36,1.36,0,0,1-1,.42H133.4a1.43,1.43,0,0,1-1.44-1.44V113.17a1.52,1.52,0,0,1,.39-1.08,1.36,1.36,0,0,1,1-.42h4.68a1.91,1.91,0,0,1,1.74,1L157,139.33V113.17a1.52,1.52,0,0,1,.39-1.08,1.36,1.36,0,0,1,1-.42h5.16a1.44,1.44,0,0,1,1.5,1.5Zm3.26-92.65q-9.3,0-9.3-10.5V32.94H154.3A1.24,1.24,0,0,1,153,31.62V29.7a1.4,1.4,0,0,1,.36-1,1.24,1.24,0,0,1,1-.39H159v-10a1.41,1.41,0,0,1,.36-1,1.25,1.25,0,0,1,1-.39H163a1.33,1.33,0,0,1,1.38,1.38v10h7.44a1.34,1.34,0,0,1,1.38,1.38v1.92a1.24,1.24,0,0,1-.39,1,1.41,1.41,0,0,1-1,.36h-7.44V48.6a8.71,8.71,0,0,0,1,4.62,3.7,3.7,0,0,0,3.39,1.56h3.66a1.25,1.25,0,0,1,1,.39,1.4,1.4,0,0,1,.36,1v2a1.4,1.4,0,0,1-.36,1,1.24,1.24,0,0,1-1,.39Zm40,65.65a1,1,0,0,1-.39.81,1.32,1.32,0,0,1-.87.33h-5.82a1.55,1.55,0,0,1-1.08-.33,2.51,2.51,0,0,1-.6-1.17,8.48,8.48,0,0,0-3.12-5.25,10.18,10.18,0,0,0-5.88-1.53q-8.58,0-8.94,9.6-.06,1.62-.06,5t.06,5.1q.36,9.6,8.94,9.6a10.21,10.21,0,0,0,5.85-1.53,8.41,8.41,0,0,0,3.15-5.25,2.53,2.53,0,0,1,.6-1.17,1.55,1.55,0,0,1,1.08-.33h5.82a1.32,1.32,0,0,1,.93.36,1,1,0,0,1,.33.9,13,13,0,0,1-2.31,7.14,14.78,14.78,0,0,1-6.15,5,22,22,0,0,1-9.3,1.83q-8.28,0-12.81-4.23t-4.83-12q-.06-1.62-.06-5.28t.06-5.4q.3-7.68,4.86-12t12.78-4.29a22,22,0,0,1,9.3,1.83,14.8,14.8,0,0,1,6.15,5,13,13,0,0,1,2.31,7.14ZM227.8,44.4a1.33,1.33,0,0,1-1.38,1.38H205.6v.54A11.14,11.14,0,0,0,208,53a7.17,7.17,0,0,0,5.88,2.76,8.52,8.52,0,0,0,4.59-1.11,9.77,9.77,0,0,0,2.67-2.31,3.11,3.11,0,0,1,.84-.87,2.47,2.47,0,0,1,1-.15h2.64a1.49,1.49,0,0,1,.93.3.94.94,0,0,1,.39.78,5.32,5.32,0,0,1-1.62,3.18,13.24,13.24,0,0,1-4.59,3.21,16.3,16.3,0,0,1-6.81,1.35,12.93,12.93,0,0,1-9.78-3.81q-3.66-3.81-4-10.41l-.06-2,.06-2q.36-6.48,4-10.32a12.88,12.88,0,0,1,9.78-3.84q6.6,0,10.23,4.2t3.63,11.4ZM263.14,46a16.77,16.77,0,0,1-3.33,10.14q-3.15,4-9.45,4t-9.72-4.56v14a1.33,1.33,0,0,1-1.38,1.38h-2.7a1.4,1.4,0,0,1-1-.36,1.32,1.32,0,0,1-.39-1V29.7a1.32,1.32,0,0,1,.39-1,1.4,1.4,0,0,1,1-.36h2.52a1.25,1.25,0,0,1,1.38,1.38v2.64q3.48-4.62,9.9-4.62t9.45,4a16.73,16.73,0,0,1,3.33,10.17q.06.66.06,2T263.14,46Zm25-14a1.4,1.4,0,0,1-.36,1,1.32,1.32,0,0,1-1,.39h-3.42a7,7,0,0,0-5.19,1.92,7.12,7.12,0,0,0-1.89,5.22v17.7a1.29,1.29,0,0,1-.42,1,1.44,1.44,0,0,1-1,.39h-2.7a1.33,1.33,0,0,1-1.38-1.38V29.76a1.44,1.44,0,0,1,.39-1,1.29,1.29,0,0,1,1-.42h2.52a1.34,1.34,0,0,1,1.44,1.44V32.4q2.46-4.08,8.34-4.08h2.34a1.25,1.25,0,0,1,1.38,1.38ZM318.94,44.4a1.33,1.33,0,0,1-1.38,1.38H296.74v.54a11.14,11.14,0,0,0,2.4,6.66A7.17,7.17,0,0,0,305,55.74a8.52,8.52,0,0,0,4.59-1.11,9.77,9.77,0,0,0,2.67-2.31,3.11,3.11,0,0,1,.84-.87,2.47,2.47,0,0,1,1-.15h2.64a1.49,1.49,0,0,1,.93.3.94.94,0,0,1,.39.78,5.32,5.32,0,0,1-1.62,3.18,13.24,13.24,0,0,1-4.59,3.21,16.3,16.3,0,0,1-6.81,1.35,12.93,12.93,0,0,1-9.78-3.81q-3.66-3.81-4-10.41l-.06-2,.06-2q.36-6.48,4-10.32a12.88,12.88,0,0,1,9.78-3.84q6.6,0,10.23,4.2t3.63,11.4ZM353.8,58.14a1.33,1.33,0,0,1-1.38,1.38h-2.76a1.34,1.34,0,0,1-1.38-1.38V41.52a9.88,9.88,0,0,0-2.1-6.72,7.55,7.55,0,0,0-6-2.4,8,8,0,0,0-6.12,2.43,9.39,9.39,0,0,0-2.28,6.69V58.14a1.33,1.33,0,0,1-1.38,1.38h-2.76a1.33,1.33,0,0,1-1.38-1.38V29.7a1.33,1.33,0,0,1,1.38-1.38h2.58a1.25,1.25,0,0,1,1.38,1.38v2.64a12.81,12.81,0,0,1,4.17-3.42,13,13,0,0,1,5.91-1.2q5.76,0,8.94,3.69t3.18,9.75ZM388.72,44.4a1.33,1.33,0,0,1-1.38,1.38H366.52v.54a11.14,11.14,0,0,0,2.4,6.66,7.17,7.17,0,0,0,5.88,2.76,8.52,8.52,0,0,0,4.59-1.11,9.77,9.77,0,0,0,2.67-2.31,3.11,3.11,0,0,1,.84-.87,2.47,2.47,0,0,1,1-.15h2.64a1.49,1.49,0,0,1,.93.3.94.94,0,0,1,.39.78,5.32,5.32,0,0,1-1.62,3.18,13.24,13.24,0,0,1-4.59,3.21,16.3,16.3,0,0,1-6.81,1.35,12.93,12.93,0,0,1-9.78-3.81q-3.66-3.81-4-10.41l-.06-2,.06-2q.36-6.48,4-10.32a12.88,12.88,0,0,1,9.78-3.84q6.6,0,10.23,4.2t3.63,11.4ZM423,58.14a1.33,1.33,0,0,1-1.38,1.38h-2.58a1.33,1.33,0,0,1-1.38-1.38v-2.7a11.5,11.5,0,0,1-4.08,3.51,13.26,13.26,0,0,1-5.94,1.17q-5.7,0-8.82-3.69t-3.12-9.81V29.7a1.33,1.33,0,0,1,1.38-1.38h2.76a1.33,1.33,0,0,1,1.38,1.38V46.32q0,9.12,7.92,9.12A7.9,7.9,0,0,0,415.27,53a9.47,9.47,0,0,0,2.25-6.69V29.7a1.33,1.33,0,0,1,1.38-1.38h2.76A1.33,1.33,0,0,1,423,29.7Zm26.4-26.22a1.4,1.4,0,0,1-.36,1,1.32,1.32,0,0,1-1,.39h-3.42a7,7,0,0,0-5.19,1.92,7.12,7.12,0,0,0-1.89,5.22v17.7a1.29,1.29,0,0,1-.42,1,1.44,1.44,0,0,1-1,.39h-2.7A1.33,1.33,0,0,1,432,58.14V29.76a1.44,1.44,0,0,1,.39-1,1.29,1.29,0,0,1,1-.42h2.52a1.34,1.34,0,0,1,1.44,1.44V32.4q2.46-4.08,8.34-4.08h2.34a1.25,1.25,0,0,1,1.38,1.38Zm27.15,23.7a9.66,9.66,0,0,1-4.38,3.3,18.14,18.14,0,0,1-6.93,1.2,16.25,16.25,0,0,1-7-1.35,11.65,11.65,0,0,1-4.23-3.09,5.13,5.13,0,0,1-1.38-2.88,1.11,1.11,0,0,1,.42-.93,1.43,1.43,0,0,1,.9-.33h2.52a1.16,1.16,0,0,1,.57.12,2.61,2.61,0,0,1,.57.54,10.91,10.91,0,0,0,3.09,2.64,9.37,9.37,0,0,0,4.59,1,9.81,9.81,0,0,0,5.19-1.2,3.85,3.85,0,0,0,2-3.48,3.38,3.38,0,0,0-.84-2.4,7.26,7.26,0,0,0-2.79-1.62,46.9,46.9,0,0,0-5.79-1.56q-5.22-1.14-7.38-3.3a7.55,7.55,0,0,1-2.16-5.58,7.87,7.87,0,0,1,1.32-4.29A9.49,9.49,0,0,1,458.76,29,13.88,13.88,0,0,1,465,27.72,15,15,0,0,1,471.42,29a11.16,11.16,0,0,1,4,2.94,5,5,0,0,1,1.35,2.82,1.18,1.18,0,0,1-.39.9,1.32,1.32,0,0,1-.93.36h-2.28a1.25,1.25,0,0,1-1.2-.66q-1-1.14-1.71-1.77a5.71,5.71,0,0,0-2-1.08A10.34,10.34,0,0,0,465,32a7.14,7.14,0,0,0-4.5,1.23,4,4,0,0,0-1.56,3.27,3.41,3.41,0,0,0,.66,2.13,5.92,5.92,0,0,0,2.52,1.62,35.35,35.35,0,0,0,5.52,1.53q5.7,1.2,8.07,3.42a7.46,7.46,0,0,1,2.37,5.7A8,8,0,0,1,476.58,55.62Zm36.21,2.52a1.33,1.33,0,0,1-1.38,1.38h-2.82a1.34,1.34,0,0,1-1.38-1.38V41.52a9.88,9.88,0,0,0-2.1-6.72,7.62,7.62,0,0,0-6.06-2.4,8,8,0,0,0-6.12,2.43,9.39,9.39,0,0,0-2.28,6.69V58.14a1.33,1.33,0,0,1-1.38,1.38h-2.76a1.34,1.34,0,0,1-1.38-1.38V18.3a1.32,1.32,0,0,1,.39-1,1.4,1.4,0,0,1,1-.36h2.76a1.25,1.25,0,0,1,1.38,1.38v14a11.86,11.86,0,0,1,4.11-3.39,13.13,13.13,0,0,1,5.85-1.17q5.76,0,9,3.69t3.21,9.75Zm14.1,0a1.34,1.34,0,0,1-1.38,1.38h-2.64a1.33,1.33,0,0,1-1.38-1.38V29.7a1.33,1.33,0,0,1,1.38-1.38h2.64a1.34,1.34,0,0,1,1.38,1.38Zm.48-37.08a1.29,1.29,0,0,1-.42,1,1.44,1.44,0,0,1-1,.39h-3.54A1.34,1.34,0,0,1,521,21.06V17.94a1.44,1.44,0,0,1,.39-1,1.29,1.29,0,0,1,1-.42h3.54a1.43,1.43,0,0,1,1.44,1.44ZM563.91,46a16.77,16.77,0,0,1-3.33,10.14q-3.15,4-9.45,4t-9.72-4.56v14A1.33,1.33,0,0,1,540,70.92h-2.7a1.4,1.4,0,0,1-1-.36,1.32,1.32,0,0,1-.39-1V29.7a1.32,1.32,0,0,1,.39-1,1.4,1.4,0,0,1,1-.36h2.52a1.25,1.25,0,0,1,1.38,1.38v2.64q3.48-4.62,9.9-4.62t9.45,4a16.73,16.73,0,0,1,3.33,10.17q.06.66.06,2T563.91,46Z"/></g></g></svg>