<svg xmlns="http://www.w3.org/2000/svg" viewBox="0 0 679 78.19"><defs><style>.cls-1{opacity:0.15;}.cls-2,.cls-3{fill:none;stroke:#fff;stroke-miterlimit:10;stroke-width:5px;}.cls-2{opacity:0.2;}.cls-3{opacity:0.8;}.cls-4{fill:#fff;}</style></defs><title>logo-title_1</title><g id="Layer_2" data-name="Layer 2"><g id="Mobile"><g id="Home"><rect class="cls-1" x="2.5" y="2.5" width="674" height="73.19"/><rect class="cls-2" x="2.5" y="2.5" width="674" height="73.19"/><rect class="cls-3" x="453.29" y="2.5" width="72.99" height="73.19" rx="36.5" ry="36.5"/><path class="cls-4" d="M556.06,56.22q-3.83-3.52-3.83-10.67V24.77a1.3,1.3,0,0,1,.33-.92,1.16,1.16,0,0,1,.89-.36h4.7a1.22,1.22,0,0,1,1.28,1.28V45.55q0,4,1.91,6.08a8.26,8.26,0,0,0,10.88,0q1.91-2,1.91-6.08V24.77a1.23,1.23,0,0,1,1.28-1.28h4.7a1.16,1.16,0,0,1,.89.36,1.3,1.3,0,0,1,.33.92V45.55q0,7.15-3.8,10.67t-10.7,3.52Q559.89,59.75,556.06,56.22Z"/><path class="cls-4" d="M589.36,58.88A1.18,1.18,0,0,1,589,58V24.77a1.3,1.3,0,0,1,.33-.92,1.16,1.16,0,0,1,.89-.36h4a1.63,1.63,0,0,1,1.48.87L610.29,47V24.77a1.3,1.3,0,0,1,.33-.92,1.16,1.16,0,0,1,.89-.36h4.39a1.22,1.22,0,0,1,1.28,1.28V58a1.25,1.25,0,0,1-.36.92,1.18,1.18,0,0,1-.87.36h-4a1.66,1.66,0,0,1-1.53-.87L595.84,36.21V58a1.23,1.23,0,0,1-.33.87,1.16,1.16,0,0,1-.89.36h-4.39A1.18,1.18,0,0,1,589.36,58.88Z"/><path class="cls-4" d="M628,56.15q-3.86-3.6-4.11-10.24-.05-1.38-.05-4.49t.05-4.6q.25-6.54,4.14-10.19T638.89,23a18.71,18.71,0,0,1,7.91,1.56A12.59,12.59,0,0,1,652,28.8a11.08,11.08,0,0,1,2,6.08V35a.87.87,0,0,1-.33.69,1.12,1.12,0,0,1-.74.28h-5a1.32,1.32,0,0,1-.92-.28,2.14,2.14,0,0,1-.51-1,7.22,7.22,0,0,0-2.66-4.47,8.66,8.66,0,0,0-5-1.3q-7.3,0-7.61,8.17-.05,1.38-.05,4.24t.05,4.34q.31,8.17,7.61,8.17a8.69,8.69,0,0,0,5-1.3,7.16,7.16,0,0,0,2.68-4.47,2.15,2.15,0,0,1,.51-1,1.32,1.32,0,0,1,.92-.28h5a1.12,1.12,0,0,1,.79.31.86.86,0,0,1,.28.77,11.08,11.08,0,0,1-2,6.08,12.58,12.58,0,0,1-5.23,4.26,18.7,18.7,0,0,1-7.91,1.56Q631.84,59.75,628,56.15Z"/><path class="cls-4" d="M475,56.91q-5-4.47-5.77-12.39-.11-2.06-.11-4.72t.11-4.55a21,21,0,0,1,2.87-8.76,16.51,16.51,0,0,1,6.53-6,21.11,21.11,0,0,1,10-2.22q19.25,0,20.22,17,.11,2.17.11,3.52,0,2-.11,3.42a8.74,8.74,0,0,1-2.39,6,7.46,7.46,0,0,1-5.42,2.11,7.88,7.88,0,0,1-4-.92,7.19,7.19,0,0,1-2.36-2,7.48,7.48,0,0,1-2.41,2.47,8.36,8.36,0,0,1-4.53,1,7.81,7.81,0,0,1-6.42-2.93Q479,45,479,39.81t2.33-8.16a7.65,7.65,0,0,1,6.34-3,7,7,0,0,1,3.25.68,6.71,6.71,0,0,1,2.22,1.87v-.81a1.23,1.23,0,0,1,.38-.95,1.3,1.3,0,0,1,.92-.35h2.17a1.22,1.22,0,0,1,1.3,1.3V41.7a4.71,4.71,0,0,0,.84,3,2.81,2.81,0,0,0,2.3,1,2.51,2.51,0,0,0,2.39-1.25,5.63,5.63,0,0,0,.71-2.82q.11-1.63.11-3.42,0-.81-.11-2.77-.43-6.51-4-9.6t-11.52-3.09q-6.61,0-10.27,3.33a14.19,14.19,0,0,0-4.31,9.35,40,40,0,0,0-.16,4.28q0,2.87.16,4.45.6,6.07,4.36,9.3t10.65,3.23a27.41,27.41,0,0,0,5.53-.46,12.15,12.15,0,0,0,3.28-1.08,26.54,26.54,0,0,0,2.47-1.6l.76-.57a1.31,1.31,0,0,1,.76-.19h3a1.3,1.3,0,0,1,1.3,1.3,1.84,1.84,0,0,1-.33.81q-5.75,6.4-16.81,6.4Q480,61.38,475,56.91Zm17-12.23a8.7,8.7,0,0,0,1.11-4.88,8.85,8.85,0,0,0-1.11-4.91,4,4,0,0,0-3.6-1.65q-4.66,0-4.66,6.56A8.48,8.48,0,0,0,485,44.55a3.91,3.91,0,0,0,3.5,1.76A4.05,4.05,0,0,0,492.07,44.69Z"/><path class="cls-4" d="M21.09,54.16a1.18,1.18,0,0,1-.3-.83v-33a1.26,1.26,0,0,1,.3-.88,1,1,0,0,1,.81-.33H42.67a1.13,1.13,0,0,1,1.21,1.21v1.82a1,1,0,0,1-.33.81,1.25,1.25,0,0,1-.88.3H25.43V34.52H41.56a1.13,1.13,0,0,1,1.21,1.21v1.72a1.13,1.13,0,0,1-.33.83,1.19,1.19,0,0,1-.88.33H25.43V50.29H43.08a1.13,1.13,0,0,1,1.21,1.21v1.82a1.09,1.09,0,0,1-.35.83,1.21,1.21,0,0,1-.86.33H21.89A1,1,0,0,1,21.09,54.16Z"/><path class="cls-4" d="M51,54.16a1.13,1.13,0,0,1-.33-.83v-24a1.12,1.12,0,0,1,1.16-1.16H54a1.06,1.06,0,0,1,1.16,1.16v2.22a10.79,10.79,0,0,1,3.51-2.88,11,11,0,0,1,5-1,9.41,9.41,0,0,1,7.53,3.11A12.15,12.15,0,0,1,73.92,39V53.33a1.12,1.12,0,0,1-1.16,1.16H70.43a1.13,1.13,0,0,1-1.16-1.16v-14a8.32,8.32,0,0,0-1.77-5.66,6.36,6.36,0,0,0-5.06-2,6.73,6.73,0,0,0-5.16,2,7.91,7.91,0,0,0-1.92,5.64v14a1.12,1.12,0,0,1-1.16,1.16H51.87A1.13,1.13,0,0,1,51,54.16Z"/><path class="cls-4" d="M83.17,45.64V32.09h-4A1,1,0,0,1,78.06,31V29.36a1.18,1.18,0,0,1,.3-.83,1,1,0,0,1,.81-.33h4V19.76a1.19,1.19,0,0,1,.3-.83,1,1,0,0,1,.81-.33H86.5a1.12,1.12,0,0,1,1.16,1.16V28.2h6.27a1.13,1.13,0,0,1,1.16,1.16V31a1,1,0,0,1-.33.81,1.18,1.18,0,0,1-.83.3H87.67v13.2a7.34,7.34,0,0,0,.83,3.89,3.12,3.12,0,0,0,2.86,1.31h3.08a1,1,0,0,1,.81.33,1.18,1.18,0,0,1,.3.83v1.67a1.18,1.18,0,0,1-.3.83,1,1,0,0,1-.81.33H91Q83.17,54.49,83.17,45.64Z"/><path class="cls-4" d="M100.84,54.16a1.13,1.13,0,0,1-.33-.83V29.42a1.22,1.22,0,0,1,.33-.86,1.09,1.09,0,0,1,.83-.35h2.12A1.13,1.13,0,0,1,105,29.42v2.22q2.07-3.44,7-3.44h2a1.06,1.06,0,0,1,1.16,1.16v1.87a1.18,1.18,0,0,1-.3.83,1.11,1.11,0,0,1-.86.33h-2.88A5.86,5.86,0,0,0,106.75,34a6,6,0,0,0-1.59,4.4V53.33a1.09,1.09,0,0,1-.35.83,1.21,1.21,0,0,1-.86.33h-2.28A1.13,1.13,0,0,1,100.84,54.16Z"/><path class="cls-4" d="M121.18,51.79A13.23,13.23,0,0,1,117.8,43l-.05-1.72.05-1.67a13.2,13.2,0,0,1,3.39-8.7,10.85,10.85,0,0,1,8.24-3.24q5.56,0,8.62,3.54t3.06,9.61v.91a1.12,1.12,0,0,1-1.16,1.16H122.4v.46a9.39,9.39,0,0,0,2,5.61,6,6,0,0,0,5,2.33,7.18,7.18,0,0,0,3.87-.94,8.23,8.23,0,0,0,2.25-1.95,2.62,2.62,0,0,1,.71-.73,2.08,2.08,0,0,1,.86-.13h2.22a1.25,1.25,0,0,1,.78.25.79.79,0,0,1,.33.66A4.48,4.48,0,0,1,139,51.15a11.15,11.15,0,0,1-3.87,2.7A13.73,13.73,0,0,1,129.42,55,10.89,10.89,0,0,1,121.18,51.79ZM136.5,39.48v-.15a8.51,8.51,0,0,0-1.92-5.76,6.47,6.47,0,0,0-5.16-2.22,6.38,6.38,0,0,0-5.16,2.22,8.65,8.65,0,0,0-1.87,5.76v.15Z"/><path class="cls-4" d="M147.65,63.79a1.11,1.11,0,0,1-.33-.86V29.36a1.11,1.11,0,0,1,.33-.86,1.18,1.18,0,0,1,.83-.3h2.12a1.06,1.06,0,0,1,1.16,1.16v2.22a9.82,9.82,0,0,1,8.34-3.89q5.31,0,8,3.36a14.1,14.1,0,0,1,2.81,8.57q.05.56.05,1.72t-.05,1.72a14.13,14.13,0,0,1-2.81,8.54q-2.65,3.39-8,3.39t-8.19-3.84V62.93a1.12,1.12,0,0,1-1.16,1.16h-2.27A1.18,1.18,0,0,1,147.65,63.79Zm16.81-15a10.61,10.61,0,0,0,1.82-6q.05-.5.05-1.47,0-9.71-7.18-9.71A6.29,6.29,0,0,0,153.82,34a9.37,9.37,0,0,0-1.9,5.54q-.05.56-.05,2t.05,2a8.61,8.61,0,0,0,1.95,5.33,6.44,6.44,0,0,0,5.28,2.25Q162.79,51.05,164.46,48.78Z"/><path class="cls-4" d="M177.63,54.16a1.13,1.13,0,0,1-.33-.83V29.42a1.22,1.22,0,0,1,.33-.86,1.09,1.09,0,0,1,.83-.35h2.12a1.13,1.13,0,0,1,1.21,1.21v2.22q2.07-3.44,7-3.44h2A1.06,1.06,0,0,1,192,29.36v1.87a1.18,1.18,0,0,1-.3.83,1.11,1.11,0,0,1-.86.33h-2.88A5.86,5.86,0,0,0,183.54,34a6,6,0,0,0-1.59,4.4V53.33a1.09,1.09,0,0,1-.35.83,1.21,1.21,0,0,1-.86.33h-2.28A1.13,1.13,0,0,1,177.63,54.16Z"/><path class="cls-4" d="M198,51.79A13.23,13.23,0,0,1,194.59,43l-.05-1.72.05-1.67a13.2,13.2,0,0,1,3.39-8.7,10.85,10.85,0,0,1,8.24-3.24q5.56,0,8.62,3.54t3.06,9.61v.91a1.12,1.12,0,0,1-1.16,1.16H199.19v.46a9.39,9.39,0,0,0,2,5.61,6,6,0,0,0,5,2.33,7.18,7.18,0,0,0,3.87-.94,8.23,8.23,0,0,0,2.25-1.95,2.62,2.62,0,0,1,.71-.73,2.08,2.08,0,0,1,.86-.13h2.22a1.25,1.25,0,0,1,.78.25.79.79,0,0,1,.33.66,4.48,4.48,0,0,1-1.37,2.68,11.15,11.15,0,0,1-3.87,2.7A13.73,13.73,0,0,1,206.22,55,10.89,10.89,0,0,1,198,51.79ZM213.3,39.48v-.15a8.51,8.51,0,0,0-1.92-5.76,6.47,6.47,0,0,0-5.16-2.22,6.38,6.38,0,0,0-5.16,2.22,8.65,8.65,0,0,0-1.87,5.76v.15Z"/><path class="cls-4" d="M224.39,54.16a1.13,1.13,0,0,1-.33-.83v-24a1.12,1.12,0,0,1,1.16-1.16h2.17a1.06,1.06,0,0,1,1.16,1.16v2.22a10.79,10.79,0,0,1,3.51-2.88,11,11,0,0,1,5-1,9.41,9.41,0,0,1,7.53,3.11A12.15,12.15,0,0,1,247.27,39V53.33a1.12,1.12,0,0,1-1.16,1.16h-2.33a1.13,1.13,0,0,1-1.16-1.16v-14a8.32,8.32,0,0,0-1.77-5.66,6.36,6.36,0,0,0-5.06-2,6.73,6.73,0,0,0-5.16,2,7.91,7.91,0,0,0-1.92,5.64v14a1.12,1.12,0,0,1-1.16,1.16h-2.33A1.13,1.13,0,0,1,224.39,54.16Z"/><path class="cls-4" d="M256.77,51.79A13.23,13.23,0,0,1,253.38,43l-.05-1.72.05-1.67a13.2,13.2,0,0,1,3.39-8.7A10.85,10.85,0,0,1,265,27.7q5.56,0,8.62,3.54t3.06,9.61v.91a1.12,1.12,0,0,1-1.16,1.16H258v.46A9.39,9.39,0,0,0,260,49a6,6,0,0,0,5,2.33,7.18,7.18,0,0,0,3.87-.94,8.23,8.23,0,0,0,2.25-1.95,2.62,2.62,0,0,1,.71-.73,2.08,2.08,0,0,1,.86-.13h2.22a1.25,1.25,0,0,1,.78.25.79.79,0,0,1,.33.66,4.48,4.48,0,0,1-1.37,2.68,11.15,11.15,0,0,1-3.87,2.7A13.73,13.73,0,0,1,265,55,10.89,10.89,0,0,1,256.77,51.79Zm15.32-12.31v-.15a8.51,8.51,0,0,0-1.92-5.76A6.47,6.47,0,0,0,265,31.34a6.38,6.38,0,0,0-5.16,2.22A8.65,8.65,0,0,0,258,39.32v.15Z"/><path class="cls-4" d="M285.23,51.89a12.37,12.37,0,0,1-2.63-8.27V29.36a1.12,1.12,0,0,1,1.16-1.16h2.33a1.12,1.12,0,0,1,1.16,1.16v14q0,7.69,6.67,7.68a6.66,6.66,0,0,0,5.13-2,8,8,0,0,0,1.9-5.64v-14a1.12,1.12,0,0,1,1.16-1.16h2.33a1.12,1.12,0,0,1,1.16,1.16v24a1.12,1.12,0,0,1-1.16,1.16h-2.17a1.12,1.12,0,0,1-1.16-1.16V51.05a9.69,9.69,0,0,1-3.44,3,11.17,11.17,0,0,1-5,1A9.19,9.19,0,0,1,285.23,51.89Z"/><path class="cls-4" d="M313.52,54.16a1.13,1.13,0,0,1-.33-.83V29.42a1.22,1.22,0,0,1,.33-.86,1.09,1.09,0,0,1,.83-.35h2.12a1.13,1.13,0,0,1,1.21,1.21v2.22q2.07-3.44,7-3.44h2a1.06,1.06,0,0,1,1.16,1.16v1.87a1.18,1.18,0,0,1-.3.83,1.11,1.11,0,0,1-.86.33h-2.88A5.86,5.86,0,0,0,319.43,34a6,6,0,0,0-1.59,4.4V53.33a1.09,1.09,0,0,1-.35.83,1.21,1.21,0,0,1-.86.33h-2.28A1.13,1.13,0,0,1,313.52,54.16Z"/><path class="cls-4" d="M335.31,53.86a9.82,9.82,0,0,1-3.56-2.6,4.33,4.33,0,0,1-1.16-2.43.94.94,0,0,1,.35-.78,1.21,1.21,0,0,1,.76-.28h2.12a1,1,0,0,1,.48.1,2.2,2.2,0,0,1,.48.46,9.19,9.19,0,0,0,2.6,2.22,7.9,7.9,0,0,0,3.87.81,8.27,8.27,0,0,0,4.37-1,3.24,3.24,0,0,0,1.64-2.93,2.85,2.85,0,0,0-.71-2A6.12,6.12,0,0,0,344.21,44a39.52,39.52,0,0,0-4.88-1.31q-4.4-1-6.22-2.78a6.36,6.36,0,0,1-1.82-4.7,6.63,6.63,0,0,1,1.11-3.61,8,8,0,0,1,3.31-2.83,11.7,11.7,0,0,1,5.23-1.09,12.66,12.66,0,0,1,5.43,1.06,9.41,9.41,0,0,1,3.39,2.48,4.17,4.17,0,0,1,1.14,2.38,1,1,0,0,1-.33.76,1.12,1.12,0,0,1-.78.3h-1.92a1.06,1.06,0,0,1-1-.56q-.86-1-1.44-1.49a4.81,4.81,0,0,0-1.69-.91,8.71,8.71,0,0,0-2.78-.38,6,6,0,0,0-3.79,1,3.33,3.33,0,0,0-1.31,2.76,2.87,2.87,0,0,0,.56,1.79,5,5,0,0,0,2.12,1.37,29.79,29.79,0,0,0,4.65,1.29q4.8,1,6.8,2.88a6.29,6.29,0,0,1,2,4.8,6.72,6.72,0,0,1-1.24,3.94A8.14,8.14,0,0,1,347,54a15.29,15.29,0,0,1-5.84,1A13.69,13.69,0,0,1,335.31,53.86Z"/><path class="cls-4" d="M358.26,54.16a1.13,1.13,0,0,1-.33-.83V19.76a1.11,1.11,0,0,1,.33-.86,1.18,1.18,0,0,1,.83-.3h2.33a1.06,1.06,0,0,1,1.16,1.16V31.54A10,10,0,0,1,366,28.68a11.07,11.07,0,0,1,4.93-1,9.48,9.48,0,0,1,7.56,3.11,12.07,12.07,0,0,1,2.7,8.22V53.33a1.12,1.12,0,0,1-1.16,1.16H377.7a1.13,1.13,0,0,1-1.16-1.16v-14a8.32,8.32,0,0,0-1.77-5.66,6.42,6.42,0,0,0-5.11-2,6.73,6.73,0,0,0-5.16,2,7.91,7.91,0,0,0-1.92,5.64v14a1.12,1.12,0,0,1-1.16,1.16h-2.33A1.13,1.13,0,0,1,358.26,54.16Z"/><path class="cls-4" d="M388.49,22.92a1.13,1.13,0,0,1-.33-.83V19.46a1.22,1.22,0,0,1,.33-.86,1.09,1.09,0,0,1,.83-.35h3a1.21,1.21,0,0,1,1.21,1.21v2.63a1.09,1.09,0,0,1-.35.83,1.21,1.21,0,0,1-.86.33h-3A1.13,1.13,0,0,1,388.49,22.92Zm.4,31.24a1.13,1.13,0,0,1-.33-.83v-24a1.12,1.12,0,0,1,1.16-1.16H392a1.13,1.13,0,0,1,1.16,1.16v24A1.13,1.13,0,0,1,392,54.49h-2.22A1.13,1.13,0,0,1,388.9,54.16Z"/><path class="cls-4" d="M401.08,63.79a1.11,1.11,0,0,1-.33-.86V29.36a1.11,1.11,0,0,1,.33-.86,1.18,1.18,0,0,1,.83-.3H404a1.06,1.06,0,0,1,1.16,1.16v2.22a9.82,9.82,0,0,1,8.34-3.89q5.31,0,8,3.36a14.1,14.1,0,0,1,2.81,8.57q.05.56.05,1.72t-.05,1.72a14.13,14.13,0,0,1-2.81,8.54q-2.65,3.39-8,3.39t-8.19-3.84V62.93a1.12,1.12,0,0,1-1.16,1.16h-2.27A1.18,1.18,0,0,1,401.08,63.79Zm16.81-15a10.61,10.61,0,0,0,1.82-6q.05-.5.05-1.47,0-9.71-7.18-9.71A6.29,6.29,0,0,0,407.25,34a9.37,9.37,0,0,0-1.9,5.54q-.05.56-.05,2t.05,2a8.61,8.61,0,0,0,1.95,5.33,6.44,6.44,0,0,0,5.28,2.25Q416.22,51.05,417.89,48.78Z"/></g></g></g></svg>