<svg xmlns="http://www.w3.org/2000/svg" viewBox="0 0 53 53"><defs><style>.cls-1{fill:#fff;}</style></defs><title>majorreq</title><g id="Layer_2" data-name="Layer 2"><g id="Mobile"><g id="Courses"><path class="cls-1" d="M26.5,0A26.5,26.5,0,1,0,53,26.5,26.5,26.5,0,0,0,26.5,0Zm2.17,38.86a3,3,0,0,1-4.15,0,3.08,3.08,0,0,1,0-4.19,3,3,0,0,1,4.15,0,3.08,3.08,0,0,1,0,4.19Zm.86-24.09L28.09,30a1.76,1.76,0,0,1-.49,1.13,1.47,1.47,0,0,1-2,0A1.75,1.75,0,0,1,25.11,30L23.66,14.73l0-.39a2.43,2.43,0,0,1,.84-1.94,3.51,3.51,0,0,1,4.27,0,2.43,2.43,0,0,1,.84,1.94Z"/></g></g></g></svg>