<svg xmlns="http://www.w3.org/2000/svg" viewBox="0 0 319 120"><defs><style>.cls-1,.cls-2{fill:#fff;}.cls-1{opacity:0.5;}</style></defs><title>preview-courses3</title><g id="Layer_2" data-name="Layer 2"><g id="Mobile"><g id="Home"><path class="cls-1" d="M319,120H0V0H319ZM4,116H315V4H4Z"/><path class="cls-2" d="M95.74,99.31a9.6,9.6,0,0,1-2.65-1.12,3.55,3.55,0,0,1-.92-.81,1.54,1.54,0,0,1-.27-.92,1.13,1.13,0,0,1,.27-.77.89.89,0,0,1,.7-.31,2.69,2.69,0,0,1,1.26.54,11.91,11.91,0,0,0,2.14,1,8,8,0,0,0,2.65.38,5.65,5.65,0,0,0,3-.68,2.21,2.21,0,0,0,1.08-2,2,2,0,0,0-.4-1.28,3.28,3.28,0,0,0-1.37-.86,19.48,19.48,0,0,0-2.84-.77,10.67,10.67,0,0,1-4.54-1.84,3.88,3.88,0,0,1-1.37-3.13A4.53,4.53,0,0,1,93.38,84a5.81,5.81,0,0,1,2.39-1.87,8.44,8.44,0,0,1,3.47-.68,9.78,9.78,0,0,1,2.72.38,8.1,8.1,0,0,1,2.32,1.06,2.34,2.34,0,0,1,1.22,1.8,1.15,1.15,0,0,1-.29.79.89.89,0,0,1-.68.32,2.69,2.69,0,0,1-1.3-.61,11.34,11.34,0,0,0-1.91-1,6,6,0,0,0-2.23-.36,4.48,4.48,0,0,0-2.72.76,2.38,2.38,0,0,0-1,2,2,2,0,0,0,.38,1.28,3.12,3.12,0,0,0,1.26.86,14.71,14.71,0,0,0,2.54.74,18.13,18.13,0,0,1,3.8,1.19,4.41,4.41,0,0,1,1.93,1.58,4.47,4.47,0,0,1,.58,2.38,4.31,4.31,0,0,1-1.91,3.65,8.39,8.39,0,0,1-5,1.39A12.25,12.25,0,0,1,95.74,99.31Z"/><path class="cls-2" d="M119.45,98.49a1,1,0,0,1-.45.92,2.12,2.12,0,0,1-1.35.23l-1-.07a6.11,6.11,0,0,1-4.25-1.73,6.63,6.63,0,0,1-1.37-4.57v-9h-2.41a1.38,1.38,0,0,1-1-.31,1,1,0,0,1-.34-.81,1.13,1.13,0,0,1,.34-.86,1.33,1.33,0,0,1,1-.32h2.41V77.86a1.4,1.4,0,0,1,.4-1.06,1.5,1.5,0,0,1,1.08-.38,1.45,1.45,0,0,1,1,.38,1.4,1.4,0,0,1,.4,1.06v4.07h4a1.28,1.28,0,0,1,.92.32,1.13,1.13,0,0,1,.34.86,1,1,0,0,1-.34.81,1.33,1.33,0,0,1-.92.31h-4v9.18a4.16,4.16,0,0,0,.81,2.86,3.47,3.47,0,0,0,2.43,1l1,.07Q119.45,97.44,119.45,98.49Z"/><path class="cls-2" d="M136.71,82a1.45,1.45,0,0,1,.38,1V98.23a1.48,1.48,0,0,1-2.47,1,1.34,1.34,0,0,1-.38-1v-1.8a5.71,5.71,0,0,1-2.32,2.41,6.82,6.82,0,0,1-3.37.83A6,6,0,0,1,123.84,98a7.46,7.46,0,0,1-1.58-5.17V83a1.41,1.41,0,0,1,.4-1,1.46,1.46,0,0,1,1.08-.4,1.4,1.4,0,0,1,1.06.4,1.45,1.45,0,0,1,.38,1v9.72a5.22,5.22,0,0,0,.94,3.44,3.67,3.67,0,0,0,3,1.1,4.85,4.85,0,0,0,3.71-1.49,5.52,5.52,0,0,0,1.4-3.94V83a1.41,1.41,0,0,1,.4-1,1.46,1.46,0,0,1,1.08-.4A1.4,1.4,0,0,1,136.71,82Z"/><path class="cls-2" d="M157.68,74.29a1.37,1.37,0,0,1,.4,1V98.2a1.41,1.41,0,0,1-.4,1,1.46,1.46,0,0,1-1.08.4,1.4,1.4,0,0,1-1.06-.4,1.45,1.45,0,0,1-.38-1V96.25a5.78,5.78,0,0,1-2.32,2.56,6.93,6.93,0,0,1-3.58.9,7.27,7.27,0,0,1-4.07-1.15,7.6,7.6,0,0,1-2.74-3.22,11.2,11.2,0,0,1-1-4.81,11,11,0,0,1,1-4.75,7.22,7.22,0,0,1,6.8-4.28,6.94,6.94,0,0,1,3.58.9,5.8,5.8,0,0,1,2.32,2.56V75.3a1.39,1.39,0,0,1,.38-1,1.44,1.44,0,0,1,1.06-.38A1.46,1.46,0,0,1,157.68,74.29Zm-3.91,21.26a7.79,7.79,0,0,0,1.39-5,7.71,7.71,0,0,0-1.39-4.93,4.76,4.76,0,0,0-3.94-1.73,4.86,4.86,0,0,0-4,1.73,7.45,7.45,0,0,0-1.42,4.86,7.8,7.8,0,0,0,1.42,5,4.8,4.8,0,0,0,4,1.78A4.74,4.74,0,0,0,153.77,95.55Z"/><path class="cls-2" d="M177.73,95.71a1.2,1.2,0,0,1,.29.83q0,.9-1.26,1.66A10.9,10.9,0,0,1,174,99.33a11,11,0,0,1-2.81.38,8.57,8.57,0,0,1-6.43-2.41,9.12,9.12,0,0,1-2.36-6.66,10.44,10.44,0,0,1,1-4.77,7.78,7.78,0,0,1,2.93-3.22,8.09,8.09,0,0,1,4.3-1.15,7,7,0,0,1,5.44,2.23,8.69,8.69,0,0,1,2,6,1.55,1.55,0,0,1-.29,1,1.2,1.2,0,0,1-.94.32H165.35q.33,6.19,5.87,6.19a6.88,6.88,0,0,0,2.41-.38,15.65,15.65,0,0,0,2.16-1,3.44,3.44,0,0,1,1.26-.54A.89.89,0,0,1,177.73,95.71ZM167.06,85.2a6.58,6.58,0,0,0-1.64,4.07h10.19a6.24,6.24,0,0,0-1.33-4.09,4.47,4.47,0,0,0-3.53-1.42A4.88,4.88,0,0,0,167.06,85.2Z"/><path class="cls-2" d="M197.57,88.44V98.2a1.31,1.31,0,0,1-1.44,1.44,1.5,1.5,0,0,1-1.08-.38,1.39,1.39,0,0,1-.4-1.06V88.62a5.44,5.44,0,0,0-1-3.56,3.8,3.8,0,0,0-3-1.12,5.14,5.14,0,0,0-3.85,1.48,5.48,5.48,0,0,0-1.44,4V98.2a1.31,1.31,0,0,1-1.44,1.44,1.5,1.5,0,0,1-1.08-.38,1.39,1.39,0,0,1-.4-1.06V83a1.41,1.41,0,0,1,.4-1,1.46,1.46,0,0,1,1.08-.4,1.35,1.35,0,0,1,1,.4,1.4,1.4,0,0,1,.38,1V84.8a5.9,5.9,0,0,1,2.41-2.47,7.24,7.24,0,0,1,3.53-.85Q197.57,81.49,197.57,88.44Z"/><path class="cls-2" d="M212.25,98.49a1,1,0,0,1-.45.92,2.12,2.12,0,0,1-1.35.23l-1-.07a6.11,6.11,0,0,1-4.25-1.73,6.63,6.63,0,0,1-1.37-4.57v-9h-2.41a1.38,1.38,0,0,1-1-.31,1,1,0,0,1-.34-.81,1.13,1.13,0,0,1,.34-.86,1.33,1.33,0,0,1,1-.32h2.41V77.86a1.4,1.4,0,0,1,.4-1.06,1.5,1.5,0,0,1,1.08-.38,1.45,1.45,0,0,1,1,.38,1.4,1.4,0,0,1,.4,1.06v4.07h4a1.28,1.28,0,0,1,.92.32,1.13,1.13,0,0,1,.34.86,1,1,0,0,1-.34.81,1.33,1.33,0,0,1-.92.31h-4v9.18a4.16,4.16,0,0,0,.81,2.86,3.47,3.47,0,0,0,2.43,1l1,.07Q212.25,97.44,212.25,98.49Z"/><path class="cls-2" d="M217.89,99.31a9.6,9.6,0,0,1-2.65-1.12,3.55,3.55,0,0,1-.92-.81,1.54,1.54,0,0,1-.27-.92,1.13,1.13,0,0,1,.27-.77.89.89,0,0,1,.7-.31,2.69,2.69,0,0,1,1.26.54,11.91,11.91,0,0,0,2.14,1,8,8,0,0,0,2.65.38,5.65,5.65,0,0,0,3-.68,2.21,2.21,0,0,0,1.08-2,2,2,0,0,0-.4-1.28,3.28,3.28,0,0,0-1.37-.86,19.48,19.48,0,0,0-2.84-.77A10.67,10.67,0,0,1,216,89.92a3.88,3.88,0,0,1-1.37-3.13,4.53,4.53,0,0,1,.86-2.74,5.81,5.81,0,0,1,2.39-1.87,8.44,8.44,0,0,1,3.47-.68,9.78,9.78,0,0,1,2.72.38,8.1,8.1,0,0,1,2.32,1.06,2.34,2.34,0,0,1,1.22,1.8,1.15,1.15,0,0,1-.29.79.89.89,0,0,1-.68.32,2.69,2.69,0,0,1-1.3-.61,11.34,11.34,0,0,0-1.91-1,6,6,0,0,0-2.23-.36,4.48,4.48,0,0,0-2.72.76,2.38,2.38,0,0,0-1,2,2,2,0,0,0,.38,1.28,3.12,3.12,0,0,0,1.26.86,14.71,14.71,0,0,0,2.54.74,18.13,18.13,0,0,1,3.8,1.19,4.41,4.41,0,0,1,1.93,1.58,4.47,4.47,0,0,1,.58,2.38,4.31,4.31,0,0,1-1.91,3.65,8.39,8.39,0,0,1-5,1.39A12.25,12.25,0,0,1,217.89,99.31Z"/><path class="cls-2" d="M126.36,48.89a1.54,1.54,0,0,1,.48,1.2,1.64,1.64,0,0,1-.46,1.25,1.92,1.92,0,0,1-1.37.43H109.13a1.92,1.92,0,0,1-1.37-.43,1.64,1.64,0,0,1-.46-1.25,1.53,1.53,0,0,1,.48-1.2,1.94,1.94,0,0,1,1.34-.43h6V22.73l-5.23,3.41a1.44,1.44,0,0,1-.77.24,1.48,1.48,0,0,1-1.18-.62,2.1,2.1,0,0,1-.5-1.34,1.52,1.52,0,0,1,.77-1.44l7.3-4.75a3.06,3.06,0,0,1,1.68-.53,1.82,1.82,0,0,1,1.34.53A2,2,0,0,1,119,19.7V48.46h6A1.94,1.94,0,0,1,126.36,48.89Z"/><path class="cls-2" d="M153.79,37.37a8.39,8.39,0,0,1,1.61,5.23,8.67,8.67,0,0,1-3,7q-3,2.54-8.11,2.54a17.09,17.09,0,0,1-6-1.06,14.28,14.28,0,0,1-4.82-2.88,2.19,2.19,0,0,1-.77-1.63,1.86,1.86,0,0,1,.38-1.2,1.14,1.14,0,0,1,.91-.48,2.18,2.18,0,0,1,1.34.53A16.43,16.43,0,0,0,139.7,48a12.53,12.53,0,0,0,4.56.82,7.92,7.92,0,0,0,5.4-1.63,5.94,5.94,0,0,0,1.85-4.7q0-6.19-7.78-6.19h-2.54a1.57,1.57,0,0,1-1.22-.5,1.69,1.69,0,0,1-.46-1.18A1.6,1.6,0,0,1,141.19,33H143a8.86,8.86,0,0,0,5.76-1.66,5.83,5.83,0,0,0,2-4.78,5.35,5.35,0,0,0-1.63-4.2,6.67,6.67,0,0,0-4.61-1.46,11.72,11.72,0,0,0-4.37.84,16.16,16.16,0,0,0-4.22,2.57,2.17,2.17,0,0,1-1.34.53,1.14,1.14,0,0,1-.91-.48,1.86,1.86,0,0,1-.38-1.2,2.19,2.19,0,0,1,.77-1.63,14.38,14.38,0,0,1,4.78-2.88,16.32,16.32,0,0,1,5.78-1.06,10.87,10.87,0,0,1,7.32,2.33,7.84,7.84,0,0,1,2.71,6.26,9,9,0,0,1-1.46,5.11,8.14,8.14,0,0,1-4.06,3.14A8.58,8.58,0,0,1,153.79,37.37Z"/><path class="cls-2" d="M164.57,47.74q-3-4.42-3-12.86t3-12.91a11.06,11.06,0,0,1,17.66,0q3,4.39,3,12.89t-3,12.91a11,11,0,0,1-17.66,0Zm14.78-2.3q1.92-3.41,1.92-10.61t-1.9-10.61a7,7,0,0,0-11.93,0q-1.92,3.38-1.92,10.58t1.92,10.61a6.9,6.9,0,0,0,11.9,0Z"/><path class="cls-2" d="M193.37,47.74q-3-4.42-3-12.86t3-12.91a11.06,11.06,0,0,1,17.66,0q3,4.39,3,12.89t-3,12.91a11,11,0,0,1-17.66,0Zm14.78-2.3q1.92-3.41,1.92-10.61t-1.9-10.61a7,7,0,0,0-11.93,0q-1.92,3.38-1.92,10.58t1.92,10.61a6.9,6.9,0,0,0,11.9,0Z"/></g></g></g></svg>