<svg xmlns="http://www.w3.org/2000/svg" viewBox="0 0 319 120"><defs><style>.cls-1,.cls-2{fill:#fff;}.cls-1{opacity:0.5;}</style></defs><title>preview-courses1</title><g id="Layer_2" data-name="Layer 2"><g id="Mobile"><g id="Home"><path class="cls-1" d="M319,120H0V0H319ZM4,116H315V4H4Z"/><path class="cls-2" d="M74.4,75.29a1.37,1.37,0,0,1,.4,1V99.2a1.41,1.41,0,0,1-.4,1,1.46,1.46,0,0,1-1.08.4,1.4,1.4,0,0,1-1.06-.4,1.45,1.45,0,0,1-.38-1V97.25a5.78,5.78,0,0,1-2.32,2.56,6.93,6.93,0,0,1-3.58.9,7.27,7.27,0,0,1-4.07-1.15,7.59,7.59,0,0,1-2.74-3.22,11.18,11.18,0,0,1-1-4.81,11,11,0,0,1,1-4.75A7.22,7.22,0,0,1,66,82.49a6.94,6.94,0,0,1,3.58.9,5.8,5.8,0,0,1,2.32,2.56V76.3a1.39,1.39,0,0,1,.38-1,1.43,1.43,0,0,1,1.06-.38A1.46,1.46,0,0,1,74.4,75.29ZM70.49,96.55a7.79,7.79,0,0,0,1.39-5,7.72,7.72,0,0,0-1.39-4.93,4.76,4.76,0,0,0-3.94-1.73,4.87,4.87,0,0,0-4,1.73,7.45,7.45,0,0,0-1.42,4.86,7.8,7.8,0,0,0,1.42,5,4.8,4.8,0,0,0,4,1.78A4.74,4.74,0,0,0,70.49,96.55Z"/><path class="cls-2" d="M94.45,96.71a1.2,1.2,0,0,1,.29.83q0,.9-1.26,1.66a10.91,10.91,0,0,1-2.74,1.13,11,11,0,0,1-2.81.38,8.57,8.57,0,0,1-6.43-2.41,9.12,9.12,0,0,1-2.36-6.66,10.45,10.45,0,0,1,1-4.77,7.79,7.79,0,0,1,2.93-3.22,8.1,8.1,0,0,1,4.3-1.15,7,7,0,0,1,5.44,2.23,8.69,8.69,0,0,1,2,6,1.56,1.56,0,0,1-.29,1,1.2,1.2,0,0,1-.94.32H82.07q.32,6.19,5.87,6.19A6.89,6.89,0,0,0,90.35,98a15.7,15.7,0,0,0,2.16-1,3.43,3.43,0,0,1,1.26-.54A.89.89,0,0,1,94.45,96.71ZM83.78,86.2a6.58,6.58,0,0,0-1.64,4.07H92.33A6.24,6.24,0,0,0,91,86.18a4.47,4.47,0,0,0-3.53-1.42A4.89,4.89,0,0,0,83.78,86.2Z"/><path class="cls-2" d="M112.05,83.65a7.61,7.61,0,0,1,2.74,3.22,11.19,11.19,0,0,1,1,4.81,11,11,0,0,1-1,4.77,7.19,7.19,0,0,1-6.8,4.27,6.93,6.93,0,0,1-3.58-.9,5.77,5.77,0,0,1-2.32-2.56v8.46a1.39,1.39,0,0,1-.38,1,1.44,1.44,0,0,1-1.06.38,1.46,1.46,0,0,1-1.08-.4,1.36,1.36,0,0,1-.4-1V84a1.41,1.41,0,0,1,.4-1,1.46,1.46,0,0,1,1.08-.4,1.4,1.4,0,0,1,1.06.4,1.45,1.45,0,0,1,.38,1v1.94a5.79,5.79,0,0,1,2.32-2.56,6.94,6.94,0,0,1,3.58-.9A7.27,7.27,0,0,1,112.05,83.65Zm-.68,12.92a7.58,7.58,0,0,0,1.4-4.9,7.82,7.82,0,0,0-1.4-5,5.33,5.33,0,0,0-7.9-.05,7.71,7.71,0,0,0-1.39,4.93,7.79,7.79,0,0,0,1.39,5,4.74,4.74,0,0,0,3.94,1.75A4.82,4.82,0,0,0,111.37,96.57Z"/><path class="cls-2" d="M133.87,89.41V99.2a1.45,1.45,0,0,1-.38,1,1.35,1.35,0,0,1-1,.4A1.36,1.36,0,0,1,131,99.2V97.47a5.15,5.15,0,0,1-2.09,2.39,6.16,6.16,0,0,1-3.24.85,7.1,7.1,0,0,1-3.11-.68,5.56,5.56,0,0,1-2.25-1.91,4.72,4.72,0,0,1-.83-2.7,4.38,4.38,0,0,1,1-3.08,6.11,6.11,0,0,1,3.31-1.58,32.7,32.7,0,0,1,6.41-.49H131V89.08a4.73,4.73,0,0,0-.88-3.17,3.62,3.62,0,0,0-2.86-1,10.57,10.57,0,0,0-5,1.33,3.28,3.28,0,0,1-1.37.61.92.92,0,0,1-.72-.32,1.2,1.2,0,0,1-.29-.83,1.36,1.36,0,0,1,.31-.88,3.6,3.6,0,0,1,1-.77,11.61,11.61,0,0,1,2.86-1.13,12.71,12.71,0,0,1,3.19-.41Q133.87,82.49,133.87,89.41Zm-4.23,7.54A5.24,5.24,0,0,0,131,93.18v-1h-.65a32.23,32.23,0,0,0-4.82.27,4.69,4.69,0,0,0-2.36.9,2.37,2.37,0,0,0-.7,1.85,3,3,0,0,0,1,2.32,3.72,3.72,0,0,0,2.57.92A4.68,4.68,0,0,0,129.64,96.95Z"/><path class="cls-2" d="M149.38,83.79a1.28,1.28,0,0,1-.32.92,1.72,1.72,0,0,1-1.12.41l-1.08.11a4.85,4.85,0,0,0-3.58,1.71,5.52,5.52,0,0,0-1.17,3.51V99.2a1.39,1.39,0,0,1-.4,1.08,1.69,1.69,0,0,1-2.11,0,1.36,1.36,0,0,1-.41-1.06V84a1.34,1.34,0,0,1,.43-1.06,1.53,1.53,0,0,1,1-.38A1.33,1.33,0,0,1,142,84v2a5.46,5.46,0,0,1,2.14-2.41,7.26,7.26,0,0,1,3.19-1l.5,0Q149.38,82.46,149.38,83.79Z"/><path class="cls-2" d="M162.67,99.49a1,1,0,0,1-.45.92,2.12,2.12,0,0,1-1.35.23l-1-.07a6.11,6.11,0,0,1-4.25-1.73,6.63,6.63,0,0,1-1.37-4.57v-9h-2.41a1.38,1.38,0,0,1-1-.31,1,1,0,0,1-.34-.81,1.13,1.13,0,0,1,.34-.86,1.33,1.33,0,0,1,1-.32h2.41V78.86a1.4,1.4,0,0,1,.4-1.06,1.5,1.5,0,0,1,1.08-.38,1.45,1.45,0,0,1,1,.38,1.4,1.4,0,0,1,.4,1.06v4.07h4a1.28,1.28,0,0,1,.92.32,1.13,1.13,0,0,1,.34.86,1,1,0,0,1-.34.81,1.33,1.33,0,0,1-.92.31h-4v9.18a4.16,4.16,0,0,0,.81,2.86,3.47,3.47,0,0,0,2.43,1l1,.07Q162.67,98.44,162.67,99.49Z"/><path class="cls-2" d="M190.89,89.44V99.2a1.4,1.4,0,0,1-.4,1.06,1.45,1.45,0,0,1-1,.38,1.51,1.51,0,0,1-1.06-.38A1.36,1.36,0,0,1,188,99.2V89.51a5.61,5.61,0,0,0-.86-3.49,3.25,3.25,0,0,0-2.7-1.08A4.3,4.3,0,0,0,181,86.42a6,6,0,0,0-1.26,4V99.2a1.37,1.37,0,0,1-.41,1.06,1.52,1.52,0,0,1-1.06.38,1.45,1.45,0,0,1-1-.38,1.39,1.39,0,0,1-.4-1.06V89.51a5.61,5.61,0,0,0-.86-3.49,3.29,3.29,0,0,0-2.74-1.08,4.32,4.32,0,0,0-3.44,1.48,5.9,5.9,0,0,0-1.28,4V99.2a1.4,1.4,0,0,1-.4,1.06,1.45,1.45,0,0,1-1,.38,1.51,1.51,0,0,1-1.06-.38,1.36,1.36,0,0,1-.41-1.06V84a1.38,1.38,0,0,1,.41-1,1.47,1.47,0,0,1,1.06-.4,1.4,1.4,0,0,1,1,.38,1.35,1.35,0,0,1,.4,1V85.7a5.68,5.68,0,0,1,2.2-2.38,6.26,6.26,0,0,1,3.24-.83q4.1,0,5.36,3.46a5.84,5.84,0,0,1,2.3-2.52,6.69,6.69,0,0,1,3.53-.94Q190.89,82.49,190.89,89.44Z"/><path class="cls-2" d="M210.48,96.71a1.2,1.2,0,0,1,.29.83q0,.9-1.26,1.66a10.9,10.9,0,0,1-2.74,1.13,11,11,0,0,1-2.81.38,8.57,8.57,0,0,1-6.43-2.41,9.12,9.12,0,0,1-2.36-6.66,10.44,10.44,0,0,1,1-4.77,7.78,7.78,0,0,1,2.93-3.22,8.09,8.09,0,0,1,4.3-1.15,7,7,0,0,1,5.44,2.23,8.69,8.69,0,0,1,2,6,1.55,1.55,0,0,1-.29,1,1.2,1.2,0,0,1-.94.32H198.09q.33,6.19,5.87,6.19a6.88,6.88,0,0,0,2.41-.38,15.65,15.65,0,0,0,2.16-1,3.44,3.44,0,0,1,1.26-.54A.89.89,0,0,1,210.48,96.71ZM199.8,86.2a6.58,6.58,0,0,0-1.64,4.07h10.19A6.24,6.24,0,0,0,207,86.18a4.47,4.47,0,0,0-3.53-1.42A4.88,4.88,0,0,0,199.8,86.2Z"/><path class="cls-2" d="M230.31,89.44V99.2a1.31,1.31,0,0,1-1.44,1.44,1.5,1.5,0,0,1-1.08-.38,1.39,1.39,0,0,1-.4-1.06V89.62a5.44,5.44,0,0,0-1-3.56,3.8,3.8,0,0,0-3-1.12,5.14,5.14,0,0,0-3.85,1.48,5.48,5.48,0,0,0-1.44,4V99.2a1.31,1.31,0,0,1-1.44,1.44,1.5,1.5,0,0,1-1.08-.38,1.39,1.39,0,0,1-.4-1.06V84a1.41,1.41,0,0,1,.4-1,1.46,1.46,0,0,1,1.08-.4,1.35,1.35,0,0,1,1,.4,1.4,1.4,0,0,1,.38,1V85.8a5.9,5.9,0,0,1,2.41-2.47,7.24,7.24,0,0,1,3.53-.85Q230.31,82.49,230.31,89.44Z"/><path class="cls-2" d="M245,99.49a1,1,0,0,1-.45.92,2.12,2.12,0,0,1-1.35.23l-1-.07A6.11,6.11,0,0,1,238,98.84a6.63,6.63,0,0,1-1.37-4.57v-9H234.2a1.38,1.38,0,0,1-1-.31,1,1,0,0,1-.34-.81,1.13,1.13,0,0,1,.34-.86,1.33,1.33,0,0,1,1-.32h2.41V78.86a1.4,1.4,0,0,1,.4-1.06,1.5,1.5,0,0,1,1.08-.38,1.45,1.45,0,0,1,1,.38,1.4,1.4,0,0,1,.4,1.06v4.07h4a1.28,1.28,0,0,1,.92.32,1.13,1.13,0,0,1,.34.86,1,1,0,0,1-.34.81,1.33,1.33,0,0,1-.92.31h-4v9.18a4.16,4.16,0,0,0,.81,2.86,3.47,3.47,0,0,0,2.43,1l1,.07Q245,98.44,245,99.49Z"/><path class="cls-2" d="M250.63,100.31A9.6,9.6,0,0,1,248,99.2a3.55,3.55,0,0,1-.92-.81,1.54,1.54,0,0,1-.27-.92,1.13,1.13,0,0,1,.27-.77.89.89,0,0,1,.7-.31,2.69,2.69,0,0,1,1.26.54,11.91,11.91,0,0,0,2.14,1,8,8,0,0,0,2.65.38,5.65,5.65,0,0,0,3-.68,2.21,2.21,0,0,0,1.08-2,2,2,0,0,0-.4-1.28,3.28,3.28,0,0,0-1.37-.86,19.48,19.48,0,0,0-2.84-.77,10.67,10.67,0,0,1-4.54-1.84,3.88,3.88,0,0,1-1.37-3.13,4.53,4.53,0,0,1,.86-2.74,5.81,5.81,0,0,1,2.39-1.87,8.44,8.44,0,0,1,3.47-.68,9.78,9.78,0,0,1,2.72.38,8.1,8.1,0,0,1,2.32,1.06,2.34,2.34,0,0,1,1.22,1.8,1.15,1.15,0,0,1-.29.79.89.89,0,0,1-.68.32,2.69,2.69,0,0,1-1.3-.61,11.34,11.34,0,0,0-1.91-1,6,6,0,0,0-2.23-.36,4.48,4.48,0,0,0-2.72.76,2.38,2.38,0,0,0-1,2,2,2,0,0,0,.38,1.28,3.12,3.12,0,0,0,1.26.86,14.71,14.71,0,0,0,2.54.74,18.13,18.13,0,0,1,3.8,1.19,4.41,4.41,0,0,1,1.93,1.58,4.47,4.47,0,0,1,.58,2.38,4.31,4.31,0,0,1-1.91,3.65,8.39,8.39,0,0,1-5,1.39A12.25,12.25,0,0,1,250.63,100.31Z"/><path class="cls-2" d="M155.66,49.89a1.54,1.54,0,0,1,.48,1.2,1.64,1.64,0,0,1-.46,1.25,1.92,1.92,0,0,1-1.37.43H138.43a1.92,1.92,0,0,1-1.37-.43,1.64,1.64,0,0,1-.46-1.25,1.53,1.53,0,0,1,.48-1.2,1.94,1.94,0,0,1,1.34-.43h6V23.73l-5.23,3.41a1.44,1.44,0,0,1-.77.24,1.48,1.48,0,0,1-1.18-.62,2.1,2.1,0,0,1-.5-1.34,1.52,1.52,0,0,1,.77-1.44l7.3-4.75a3.06,3.06,0,0,1,1.68-.53,1.82,1.82,0,0,1,1.34.53,2,2,0,0,1,.53,1.49V49.46h6A1.94,1.94,0,0,1,155.66,49.89Z"/><path class="cls-2" d="M165.07,48.74q-3-4.42-3-12.86t3-12.91a11.06,11.06,0,0,1,17.66,0q3,4.39,3,12.89t-3,12.91a11,11,0,0,1-17.66,0Zm14.78-2.3q1.92-3.41,1.92-10.61t-1.9-10.61a7,7,0,0,0-11.93,0Q166,28.62,166,35.82t1.92,10.61a6.9,6.9,0,0,0,11.9,0Z"/></g></g></g></svg>