<svg xmlns="http://www.w3.org/2000/svg" viewBox="0 0 534.02 319.43"><defs><style>.cls-1{fill:#fff;}</style></defs><title>previewResources</title><g id="Layer_2" data-name="Layer 2"><g id="Mobile"><g id="Home"><path class="cls-1" d="M3.25,318.52a6,6,0,0,1-2.41-2.62,10.1,10.1,0,0,1,0-8.06,6,6,0,0,1,2.41-2.62,7.24,7.24,0,0,1,3.7-.91,8,8,0,0,1,2.63.43A6.37,6.37,0,0,1,11.74,306a1,1,0,0,1,.4.84,1,1,0,0,1-.21.64.63.63,0,0,1-.5.26,1.09,1.09,0,0,1-.69-.27,7.45,7.45,0,0,0-1.84-1.06,5.45,5.45,0,0,0-1.88-.3,4.35,4.35,0,0,0-3.55,1.49,8.07,8.07,0,0,0,0,8.59A4.35,4.35,0,0,0,7,317.64a5.14,5.14,0,0,0,1.84-.31,8.88,8.88,0,0,0,1.88-1.05,1.38,1.38,0,0,1,.69-.27.63.63,0,0,1,.5.26,1,1,0,0,1,.21.64,1,1,0,0,1-.4.84A6.35,6.35,0,0,1,9.58,319a7.94,7.94,0,0,1-2.62.43A7.25,7.25,0,0,1,3.25,318.52Z"/><path class="cls-1" d="M18.45,318.5a6.16,6.16,0,0,1-2.38-2.62,9,9,0,0,1-.84-4,9.16,9.16,0,0,1,.83-4,6,6,0,0,1,2.38-2.62,7.07,7.07,0,0,1,3.65-.91,7.11,7.11,0,0,1,3.67.91,6,6,0,0,1,2.38,2.63,10.18,10.18,0,0,1,0,8,6.06,6.06,0,0,1-2.38,2.64,7,7,0,0,1-3.67.92A7,7,0,0,1,18.45,318.5Zm7.11-2.35a8.11,8.11,0,0,0,0-8.6,4.23,4.23,0,0,0-3.47-1.5,4.19,4.19,0,0,0-3.43,1.5,8.14,8.14,0,0,0,0,8.6,4.17,4.17,0,0,0,3.43,1.51A4.23,4.23,0,0,0,25.56,316.15Z"/><path class="cls-1" d="M46,318.42a.84.84,0,0,1-.32.67,1.1,1.1,0,0,1-.72.27.93.93,0,0,1-.52-.16,1,1,0,0,1-.37-.45l-1.38-3.15H35l-1.38,3.15a1,1,0,0,1-.38.45,1,1,0,0,1-.53.16,1.13,1.13,0,0,1-.74-.27.84.84,0,0,1-.33-.67,1.14,1.14,0,0,1,.11-.42l5.92-13a1.11,1.11,0,0,1,.47-.53,1.33,1.33,0,0,1,1.37,0A1.12,1.12,0,0,1,40,305l5.92,13A1.17,1.17,0,0,1,46,318.42Zm-10.23-4.54h6.15l-3.09-7Z"/><path class="cls-1" d="M51.76,318.52a6,6,0,0,1-2.41-2.62,10.1,10.1,0,0,1,0-8.06,6,6,0,0,1,2.41-2.62,7.24,7.24,0,0,1,3.7-.91,8,8,0,0,1,2.63.43A6.37,6.37,0,0,1,60.25,306a1,1,0,0,1,.4.84,1,1,0,0,1-.21.64.63.63,0,0,1-.5.26,1.09,1.09,0,0,1-.69-.27,7.45,7.45,0,0,0-1.84-1.06,5.45,5.45,0,0,0-1.88-.3A4.35,4.35,0,0,0,52,307.56a8.07,8.07,0,0,0,0,8.59,4.35,4.35,0,0,0,3.55,1.49,5.14,5.14,0,0,0,1.84-.31,8.88,8.88,0,0,0,1.88-1.05,1.38,1.38,0,0,1,.69-.27.63.63,0,0,1,.5.26,1,1,0,0,1,.21.64,1,1,0,0,1-.4.84A6.35,6.35,0,0,1,58.09,319a7.94,7.94,0,0,1-2.62.43A7.25,7.25,0,0,1,51.76,318.52Z"/><path class="cls-1" d="M76.75,304.66a1.09,1.09,0,0,1,.29.79v12.83a1.09,1.09,0,0,1-.29.79,1,1,0,0,1-.78.3,1.05,1.05,0,0,1-.78-.29,1.08,1.08,0,0,1-.29-.8v-5.65H66.63v5.65a1.09,1.09,0,0,1-.29.79,1,1,0,0,1-.78.3,1.05,1.05,0,0,1-.78-.29,1.08,1.08,0,0,1-.29-.8V305.44a1.09,1.09,0,0,1,.29-.79,1.14,1.14,0,0,1,1.55,0,1.09,1.09,0,0,1,.29.79v5.42h8.27v-5.42a1.09,1.09,0,0,1,.29-.79,1.14,1.14,0,0,1,1.55,0Z"/><path class="cls-1" d="M82,319a1,1,0,0,1-.28-.77V305.51a1,1,0,0,1,.28-.77,1.06,1.06,0,0,1,.79-.28h7.73a1.1,1.1,0,0,1,.75.23.83.83,0,0,1,.26.65.79.79,0,0,1-.26.64,1.13,1.13,0,0,1-.75.22H83.87v4.66h6.26a1.09,1.09,0,0,1,.75.23.94.94,0,0,1,0,1.3,1.09,1.09,0,0,1-.75.23H83.87v4.89h6.68q1,0,1,.86a.82.82,0,0,1-.26.65,1.09,1.09,0,0,1-.75.23H82.82A1.07,1.07,0,0,1,82,319Z"/><path class="cls-1" d="M96.95,319a6,6,0,0,1-2.3-1.22,1.07,1.07,0,0,1-.4-.86,1,1,0,0,1,.21-.64A.62.62,0,0,1,95,316a1.39,1.39,0,0,1,.71.27,7,7,0,0,0,4.26,1.39,4.49,4.49,0,0,0,2.58-.63,2.07,2.07,0,0,0,.9-1.81,1.49,1.49,0,0,0-.84-1.39A11.09,11.09,0,0,0,99.9,313a16.18,16.18,0,0,1-2.9-.86,4.32,4.32,0,0,1-1.78-1.31,3.36,3.36,0,0,1-.64-2.11,3.85,3.85,0,0,1,.71-2.28,4.62,4.62,0,0,1,2-1.55,7.05,7.05,0,0,1,2.88-.56,8.64,8.64,0,0,1,2.75.42,5.8,5.8,0,0,1,2.14,1.24,1.1,1.1,0,0,1,.42.86,1,1,0,0,1-.22.63.65.65,0,0,1-.51.27,1.37,1.37,0,0,1-.69-.27,7.56,7.56,0,0,0-1.82-1.06,5.74,5.74,0,0,0-2-.33,4.21,4.21,0,0,0-2.52.66,2.15,2.15,0,0,0-.9,1.84,1.69,1.69,0,0,0,.8,1.52,8.68,8.68,0,0,0,2.56.93,21.3,21.3,0,0,1,3,.87,4.6,4.6,0,0,1,1.83,1.24,3,3,0,0,1,.68,2,3.73,3.73,0,0,1-.7,2.24,4.53,4.53,0,0,1-2,1.51,7.51,7.51,0,0,1-2.93.54A10.27,10.27,0,0,1,96.95,319Z"/><path class="cls-1" d="M145,304.66a1.09,1.09,0,0,1,.29.79v12.89a1,1,0,0,1-.26.76,1,1,0,0,1-.72.27.9.9,0,0,1-.69-.27,1.07,1.07,0,0,1-.25-.76v-9.77l-4.12,7.83a1.09,1.09,0,0,1-2.06,0l-4.14-7.75v9.68a1.07,1.07,0,0,1-.25.76.93.93,0,0,1-.71.27.91.91,0,0,1-.7-.28,1,1,0,0,1-.26-.75V305.44a1.09,1.09,0,0,1,.29-.79,1,1,0,0,1,.76-.3,1.19,1.19,0,0,1,1.05.76l5,9.6,5-9.6a1.18,1.18,0,0,1,1-.76A1,1,0,0,1,145,304.66Z"/><path class="cls-1" d="M163.21,318.42a.85.85,0,0,1-.33.67,1.1,1.1,0,0,1-.72.27.92.92,0,0,1-.51-.16,1,1,0,0,1-.37-.45l-1.39-3.15H152.2l-1.39,3.15a1,1,0,0,1-.38.45,1,1,0,0,1-.53.16,1.13,1.13,0,0,1-.75-.27.84.84,0,0,1-.32-.67,1.13,1.13,0,0,1,.1-.42l5.92-13a1.11,1.11,0,0,1,.47-.53,1.33,1.33,0,0,1,1.37,0,1.11,1.11,0,0,1,.47.53l5.92,13A1.14,1.14,0,0,1,163.21,318.42ZM153,313.88h6.15l-3.09-7Z"/><path class="cls-1" d="M178.45,318.5a.81.81,0,0,1-.3.64,1,1,0,0,1-.7.26,1.1,1.1,0,0,1-.95-.53l-2.81-4.37a3,3,0,0,0-1-1.06,2.92,2.92,0,0,0-1.43-.3h-2.37v5.12a1.1,1.1,0,0,1-.28.8,1.18,1.18,0,0,1-1.56,0,1.07,1.07,0,0,1-.29-.8V305.51a1,1,0,0,1,.29-.77,1.06,1.06,0,0,1,.79-.28H173a5.66,5.66,0,0,1,3.75,1.09,3.94,3.94,0,0,1,1.29,3.19,4,4,0,0,1-1,2.83,4.67,4.67,0,0,1-2.81,1.38,2.51,2.51,0,0,1,1,.53,4.6,4.6,0,0,1,.86,1l2.16,3.4A1,1,0,0,1,178.45,318.5Zm-5.69-7.1a3.81,3.81,0,0,0,2.43-.64,2.41,2.41,0,0,0,.79-2,2.36,2.36,0,0,0-.78-2,3.89,3.89,0,0,0-2.44-.62h-3.93v5.21Z"/><path class="cls-1" d="M193.85,318.36a.93.93,0,0,1-.3.69,1,1,0,0,1-.7.29,1,1,0,0,1-.73-.34l-7.48-6.74v6a1.11,1.11,0,0,1-.28.8,1.07,1.07,0,0,1-.81.29,1,1,0,0,1-.78-.29,1.07,1.07,0,0,1-.29-.8V305.44a1.08,1.08,0,0,1,.29-.79,1,1,0,0,1,.78-.3,1,1,0,0,1,1.09,1.09v5.75l7.16-6.53a1,1,0,0,1,1.39,0,.93.93,0,0,1,.29.67,1,1,0,0,1-.36.73l-6.26,5.59,6.63,6A1,1,0,0,1,193.85,318.36Z"/><path class="cls-1" d="M197.49,319a1,1,0,0,1-.28-.77V305.51a1,1,0,0,1,.28-.77,1.06,1.06,0,0,1,.79-.28H206a1.1,1.1,0,0,1,.75.23.83.83,0,0,1,.26.65.79.79,0,0,1-.26.64,1.13,1.13,0,0,1-.75.22h-6.68v4.66h6.26a1.09,1.09,0,0,1,.75.23.94.94,0,0,1,0,1.3,1.09,1.09,0,0,1-.75.23h-6.26v4.89H206q1,0,1,.86a.82.82,0,0,1-.26.65,1.09,1.09,0,0,1-.75.23h-7.73A1.07,1.07,0,0,1,197.49,319Z"/><path class="cls-1" d="M214.46,319.06a1.07,1.07,0,0,1-.3-.79v-12H210q-1,0-1-.9a.85.85,0,0,1,.26-.67,1.09,1.09,0,0,1,.74-.23h10.58a1.1,1.1,0,0,1,.75.23.84.84,0,0,1,.26.67q0,.9-1,.9h-4.2v12a1.08,1.08,0,0,1-.29.79,1.18,1.18,0,0,1-1.58,0Z"/><path class="cls-1" d="M224.88,319.07a1.07,1.07,0,0,1-.29-.8V305.44a1.08,1.08,0,0,1,.29-.79,1,1,0,0,1,.78-.3,1,1,0,0,1,1.09,1.09v12.83a1.11,1.11,0,0,1-.28.8,1.07,1.07,0,0,1-.81.29A1,1,0,0,1,224.88,319.07Z"/><path class="cls-1" d="M243.33,304.66a1.12,1.12,0,0,1,.28.79v12.83a1.08,1.08,0,0,1-.29.79,1,1,0,0,1-.76.3,1,1,0,0,1-.84-.42l-8.23-10.86v10.18a1.11,1.11,0,0,1-.28.79,1,1,0,0,1-.74.3,1,1,0,0,1-.74-.29,1.13,1.13,0,0,1-.27-.8V305.44a1.08,1.08,0,0,1,.29-.79,1,1,0,0,1,.76-.3,1,1,0,0,1,.84.42l8.23,10.88V305.44a1.13,1.13,0,0,1,.27-.79.94.94,0,0,1,.73-.3A1,1,0,0,1,243.33,304.66Z"/><path class="cls-1" d="M260.09,311.64a.83.83,0,0,1,.24.63v4.91a2,2,0,0,1-.2,1,1.4,1.4,0,0,1-.79.5,9.59,9.59,0,0,1-2,.52,14.06,14.06,0,0,1-2.29.19,7.92,7.92,0,0,1-3.88-.9,6,6,0,0,1-2.5-2.6,8.93,8.93,0,0,1-.86-4.07,8.83,8.83,0,0,1,.86-4,6.1,6.1,0,0,1,2.47-2.61,7.49,7.49,0,0,1,3.77-.91,8.33,8.33,0,0,1,2.72.43,5.93,5.93,0,0,1,2.13,1.25,1,1,0,0,1,.42.84,1,1,0,0,1-.21.64.63.63,0,0,1-.5.26.84.84,0,0,1-.34-.06,2.67,2.67,0,0,1-.38-.21,7.68,7.68,0,0,0-1.87-1.06,5.67,5.67,0,0,0-1.93-.3,4.53,4.53,0,0,0-3.65,1.48,8,8,0,0,0,0,8.65,4.76,4.76,0,0,0,3.79,1.48,10.43,10.43,0,0,0,3.23-.5V313h-2.75a.94.94,0,0,1-.66-.22.86.86,0,0,1,0-1.2.94.94,0,0,1,.66-.22h3.84A.89.89,0,0,1,260.09,311.64Z"/><path class="cls-1" d="M287.94,319a1,1,0,0,1-.28-.73V305.44a1.09,1.09,0,0,1,.29-.79,1,1,0,0,1,.78-.3,1,1,0,0,1,1.09,1.09v12h6.38a1.1,1.1,0,0,1,.75.23,1,1,0,0,1,0,1.34,1.09,1.09,0,0,1-.75.23h-7.5A1.06,1.06,0,0,1,287.94,319Z"/><path class="cls-1" d="M300.69,319a1,1,0,0,1-.29-.77V305.51a1,1,0,0,1,.29-.77,1.06,1.06,0,0,1,.79-.28h7.73a1.1,1.1,0,0,1,.74.23.82.82,0,0,1,.26.65.79.79,0,0,1-.26.64,1.13,1.13,0,0,1-.74.22h-6.68v4.66h6.26a1.09,1.09,0,0,1,.75.23.94.94,0,0,1,0,1.3,1.09,1.09,0,0,1-.75.23h-6.26v4.89h6.68q1,0,1,.86a.82.82,0,0,1-.26.65,1.09,1.09,0,0,1-.74.23h-7.73A1.06,1.06,0,0,1,300.69,319Z"/><path class="cls-1" d="M325.66,311.64a.83.83,0,0,1,.24.63v4.91a2,2,0,0,1-.2,1,1.4,1.4,0,0,1-.79.5,9.61,9.61,0,0,1-2,.52,14,14,0,0,1-2.29.19,7.92,7.92,0,0,1-3.88-.9,6,6,0,0,1-2.5-2.6,8.93,8.93,0,0,1-.86-4.07,8.83,8.83,0,0,1,.86-4,6.11,6.11,0,0,1,2.47-2.61,7.49,7.49,0,0,1,3.77-.91,8.31,8.31,0,0,1,2.72.43,5.92,5.92,0,0,1,2.13,1.25,1,1,0,0,1,.42.84,1,1,0,0,1-.21.64.62.62,0,0,1-.5.26.85.85,0,0,1-.34-.06,2.67,2.67,0,0,1-.38-.21,7.75,7.75,0,0,0-1.87-1.06,5.68,5.68,0,0,0-1.93-.3,4.53,4.53,0,0,0-3.65,1.48,8,8,0,0,0,0,8.65,4.76,4.76,0,0,0,3.79,1.48,10.41,10.41,0,0,0,3.23-.5V313h-2.75a.94.94,0,0,1-.66-.22.87.87,0,0,1,0-1.2.94.94,0,0,1,.66-.22H325A.88.88,0,0,1,325.66,311.64Z"/><path class="cls-1" d="M343.6,318.42a.84.84,0,0,1-.32.67,1.1,1.1,0,0,1-.72.27.93.93,0,0,1-.52-.16,1,1,0,0,1-.37-.45l-1.38-3.15H332.6l-1.38,3.15a1,1,0,0,1-.38.45,1,1,0,0,1-.53.16,1.13,1.13,0,0,1-.74-.27.84.84,0,0,1-.33-.67,1.14,1.14,0,0,1,.11-.42l5.92-13a1.11,1.11,0,0,1,.47-.53,1.33,1.33,0,0,1,1.37,0,1.12,1.12,0,0,1,.47.53l5.92,13A1.17,1.17,0,0,1,343.6,318.42Zm-10.23-4.54h6.15l-3.09-7Z"/><path class="cls-1" d="M347.39,319a1,1,0,0,1-.28-.73V305.44a1.09,1.09,0,0,1,.29-.79,1,1,0,0,1,.78-.3,1,1,0,0,1,1.09,1.09v12h6.38a1.1,1.1,0,0,1,.75.23,1,1,0,0,1,0,1.34,1.09,1.09,0,0,1-.75.23h-7.5A1.06,1.06,0,0,1,347.39,319Z"/><path class="cls-1" d="M400,318.42a.84.84,0,0,1-.32.67,1.1,1.1,0,0,1-.72.27.93.93,0,0,1-.52-.16,1,1,0,0,1-.37-.45l-1.38-3.15H389l-1.38,3.15a1,1,0,0,1-.38.45,1,1,0,0,1-.53.16,1.13,1.13,0,0,1-.74-.27.84.84,0,0,1-.33-.67,1.14,1.14,0,0,1,.11-.42l5.92-13a1.11,1.11,0,0,1,.47-.53,1.33,1.33,0,0,1,1.37,0,1.12,1.12,0,0,1,.47.53l5.92,13A1.17,1.17,0,0,1,400,318.42Zm-10.23-4.54h6.15l-3.09-7Z"/><path class="cls-1" d="M405.75,318.52a6,6,0,0,1-2.41-2.62,10.1,10.1,0,0,1,0-8.06,6,6,0,0,1,2.41-2.62,7.24,7.24,0,0,1,3.7-.91,8,8,0,0,1,2.63.43,6.37,6.37,0,0,1,2.16,1.25,1,1,0,0,1,.4.84,1,1,0,0,1-.21.64.63.63,0,0,1-.5.26,1.09,1.09,0,0,1-.69-.27,7.45,7.45,0,0,0-1.84-1.06,5.45,5.45,0,0,0-1.88-.3,4.35,4.35,0,0,0-3.55,1.49,8.07,8.07,0,0,0,0,8.59,4.35,4.35,0,0,0,3.55,1.49,5.14,5.14,0,0,0,1.84-.31,8.88,8.88,0,0,0,1.88-1.05,1.38,1.38,0,0,1,.69-.27.63.63,0,0,1,.5.26,1,1,0,0,1,.21.64,1,1,0,0,1-.4.84,6.35,6.35,0,0,1-2.16,1.25,7.94,7.94,0,0,1-2.62.43A7.25,7.25,0,0,1,405.75,318.52Z"/><path class="cls-1" d="M421,318.52a6,6,0,0,1-2.41-2.62,10.1,10.1,0,0,1,0-8.06A6,6,0,0,1,421,305.2a7.24,7.24,0,0,1,3.7-.91,8,8,0,0,1,2.63.43,6.37,6.37,0,0,1,2.16,1.25,1,1,0,0,1,.4.84,1,1,0,0,1-.21.64.63.63,0,0,1-.5.26,1.09,1.09,0,0,1-.69-.27,7.45,7.45,0,0,0-1.84-1.06,5.45,5.45,0,0,0-1.88-.3,4.35,4.35,0,0,0-3.55,1.49,8.07,8.07,0,0,0,0,8.59,4.35,4.35,0,0,0,3.55,1.49,5.14,5.14,0,0,0,1.84-.31,8.88,8.88,0,0,0,1.88-1.05,1.38,1.38,0,0,1,.69-.27.63.63,0,0,1,.5.26,1,1,0,0,1,.21.64,1,1,0,0,1-.4.84A6.35,6.35,0,0,1,427.3,319a7.94,7.94,0,0,1-2.62.43A7.25,7.25,0,0,1,421,318.52Z"/><path class="cls-1" d="M436.17,318.5a6.16,6.16,0,0,1-2.38-2.62,9,9,0,0,1-.84-4,9.16,9.16,0,0,1,.83-4,6,6,0,0,1,2.38-2.62,7.81,7.81,0,0,1,7.33,0,6,6,0,0,1,2.38,2.63,10.18,10.18,0,0,1,0,8,6.06,6.06,0,0,1-2.38,2.64,7,7,0,0,1-3.67.92A7,7,0,0,1,436.17,318.5Zm7.11-2.35a8.11,8.11,0,0,0,0-8.6,4.23,4.23,0,0,0-3.47-1.5,4.19,4.19,0,0,0-3.43,1.5,8.14,8.14,0,0,0,0,8.6,4.17,4.17,0,0,0,3.43,1.51A4.23,4.23,0,0,0,443.28,316.15Z"/><path class="cls-1" d="M452.33,317.9a6.12,6.12,0,0,1-1.53-4.51v-7.94a1.07,1.07,0,0,1,.29-.8,1.17,1.17,0,0,1,1.55,0,1.07,1.07,0,0,1,.29.8v8.08a4.38,4.38,0,0,0,1,3.09,4.54,4.54,0,0,0,5.81,0,4.35,4.35,0,0,0,1-3.09v-8.08a1.08,1.08,0,0,1,.29-.79,1,1,0,0,1,.78-.3,1.05,1.05,0,0,1,.78.29,1.07,1.07,0,0,1,.29.8v7.94a6.37,6.37,0,0,1-10.52,4.51Z"/><path class="cls-1" d="M479.33,304.66a1.12,1.12,0,0,1,.28.79v12.83a1.08,1.08,0,0,1-.29.79,1,1,0,0,1-.76.3,1,1,0,0,1-.84-.42l-8.23-10.86v10.18a1.11,1.11,0,0,1-.28.79,1,1,0,0,1-.74.3,1,1,0,0,1-.74-.29,1.13,1.13,0,0,1-.27-.8V305.44a1.08,1.08,0,0,1,.29-.79,1,1,0,0,1,.76-.3,1,1,0,0,1,.84.42l8.23,10.88V305.44a1.13,1.13,0,0,1,.27-.79.94.94,0,0,1,.73-.3A1,1,0,0,1,479.33,304.66Z"/><path class="cls-1" d="M488.15,319.06a1.07,1.07,0,0,1-.3-.79v-12h-4.2q-1,0-1-.9a.85.85,0,0,1,.26-.67,1.09,1.09,0,0,1,.74-.23h10.58a1.1,1.1,0,0,1,.75.23.84.84,0,0,1,.26.67q0,.9-1,.9H490v12a1.08,1.08,0,0,1-.29.79,1.18,1.18,0,0,1-1.58,0Z"/><path class="cls-1" d="M498.57,319.07a1.07,1.07,0,0,1-.29-.8V305.44a1.08,1.08,0,0,1,.29-.79,1,1,0,0,1,.78-.3,1,1,0,0,1,1.09,1.09v12.83a1.11,1.11,0,0,1-.28.8,1.07,1.07,0,0,1-.81.29A1,1,0,0,1,498.57,319.07Z"/><path class="cls-1" d="M517,304.66a1.11,1.11,0,0,1,.28.79v12.83a1.09,1.09,0,0,1-.29.79,1,1,0,0,1-.76.3,1,1,0,0,1-.84-.42l-8.23-10.86v10.18a1.12,1.12,0,0,1-.28.79,1,1,0,0,1-.75.3,1,1,0,0,1-.73-.29,1.12,1.12,0,0,1-.27-.8V305.44a1.09,1.09,0,0,1,.29-.79,1,1,0,0,1,.76-.3,1,1,0,0,1,.84.42l8.23,10.88V305.44a1.14,1.14,0,0,1,.27-.79.94.94,0,0,1,.73-.3A1,1,0,0,1,517,304.66Z"/><path class="cls-1" d="M533.78,311.64a.83.83,0,0,1,.24.63v4.91a2,2,0,0,1-.2,1,1.4,1.4,0,0,1-.79.5,9.61,9.61,0,0,1-2,.52,14,14,0,0,1-2.29.19,7.92,7.92,0,0,1-3.88-.9,6,6,0,0,1-2.5-2.6,8.93,8.93,0,0,1-.86-4.07,8.83,8.83,0,0,1,.86-4,6.11,6.11,0,0,1,2.47-2.61,7.49,7.49,0,0,1,3.77-.91,8.31,8.31,0,0,1,2.72.43,5.92,5.92,0,0,1,2.13,1.25,1,1,0,0,1,.42.84,1,1,0,0,1-.21.64.62.62,0,0,1-.5.26.85.85,0,0,1-.34-.06,2.67,2.67,0,0,1-.38-.21,7.75,7.75,0,0,0-1.87-1.06,5.68,5.68,0,0,0-1.93-.3,4.53,4.53,0,0,0-3.65,1.48,8,8,0,0,0,0,8.65,4.76,4.76,0,0,0,3.79,1.48,10.41,10.41,0,0,0,3.23-.5V313H529.3a.94.94,0,0,1-.66-.22.87.87,0,0,1,0-1.2.94.94,0,0,1,.66-.22h3.84A.88.88,0,0,1,533.78,311.64Z"/><path class="cls-1" d="M133.67,216H96.34V45.89h37.33Z"/><path class="cls-1" d="M424.14,148.14V113.47a45.86,45.86,0,0,0,6.11-3.13,15.92,15.92,0,0,0,6.94-16.07c-.83-6.13-4.72-10.06-10-13-1.28-.71-3.12-2.06-3.15-3.15-.24-10.75-.14-21.5-.14-32.24,23.25-.21,46.34,20.82,47.36,44.86,1.1,25.92,1.87,52,.62,77.83-1.14,23.77-18.09,41.69-40.71,46.56-2.23.48-4.52.72-7.07,1.12v-34.9c9.87-2.89,13.8-9.86,13.25-20-.27-5,0-10.09,0-15.47Z"/><path class="cls-1" d="M15.75,9.21c-7.92,11.92-5.47,23.91-.54,35.91-.79-5-2-10-2.27-15C12.31,17.84,14.87,9.27,26.68,4.54,39.6-.65,52.52-2.71,65,5.58c9.24,6.16,13,16.08,15.58,26.14,4.93,19.39-6.25,37.19-24.73,42.07,3.44-7.1,8-14.63,10.82-22.77C72,35.4,64.31,21.18,49.68,17.86c-6.07-1.38-11.91,2.71-13.17,9.22-1,5.33,2.72,9.85,8.33,11.49,4.17,1.22,7,.69,9.13-3.12a3.43,3.43,0,0,1,.61-.72c2.23-2.22,4.83-5.49,7.88-3.26,1.85,1.36,1.81,5.29,2.37,7.24.44,3.14,1.19,5.18.93,7.09-1.31,9.77-6.33,17.89-11.91,25.72a11.49,11.49,0,0,0-2.23,4.64c16.69-3.27,27.58-12.9,32.69-29.29V120c-7.61-5.88-14.91-11.52-22.22-17.15-4.5-3.47-9.14-6.77-13.49-10.42-2.33-2-4.23-1.88-6.77-.53-7.08,3.75-14.25,7.33-21.44,10.86-3.55,1.74-13.58-.35-14.91-3.73-1-2.41-.09-5.79.61-8.57,2.06-8.16,4.66-16.19,6.59-24.38.7-3-.1-6.23.16-9.32,1-11.93-7.75-22-6.27-34C7.32,16.62,9.74,11.81,15.75,9.21Z"/><path class="cls-1" d="M309.86,45.45c20.8,2.45,35.33,12.68,43.54,31.14,8,18,4.52,38.62-8.48,53.89,14.4,19.09,17.49,39.53,5.16,60.89-8.34,14.44-24.34,24-40.23,24.6V181.41c6.14-2.35,10.84-5.93,12.38-12.62,1.77-7.64-1.61-15.57-8.78-18.74-3.05-1.35-3.71-3-3.66-6,.17-10.28.06-20.56.06-30.9,6.5-2.23,11.08-5.93,12.48-12.93,1.48-7.41-1.52-14.9-8.52-18-3.45-1.52-4.1-3.4-4-6.75C310,65.71,309.86,55.91,309.86,45.45Z"/><path class="cls-1" d="M302.15,181.46v34.72c-17.36-2-31-9.71-39.78-24.59-12.42-21.09-9.7-41.4,4.89-60.78-14.15-18.49-17-38.3-5.86-59.28,7.08-13.28,23.34-25.54,40.9-25.64,0,10.88,0,21.76-.09,32.64a3.72,3.72,0,0,1-2,2.57c-7.19,3.06-11.13,8.69-10.87,16.2.28,7.93,4.9,13.39,13,15.76,0,11.14.06,22.21-.1,33.27a4.19,4.19,0,0,1-2.2,3c-7,3-10.8,8.53-10.71,15.79.09,7.54,4.35,13,11.62,15.7A10.93,10.93,0,0,1,302.15,181.46Z"/><path class="cls-1" d="M242.72,83c-4.1,14.07-8,27.38-11.85,40.68-8.57,29.28-17.19,58.54-25.67,87.84-1,3.29-2.21,4.82-6,4.71-10.86-.32-21.73-.11-33.08-.11C170.49,201,174.71,186.51,179,172c8.15-27.82,16.39-55.62,24.38-83.49,1.17-4.1,2.7-5.82,7.32-5.63C221.07,83.33,231.51,83,242.72,83Z"/><path class="cls-1" d="M417.09,113.14v34c-17.19,1.58-43-14.54-47.24-42-5.2-33.53,21-58.79,47.41-59.43,0,10.91,0,21.81-.09,32.71a3.76,3.76,0,0,1-2,2.61C407.71,84.3,403.52,89.75,404,98,404.56,106,409.51,110.68,417.09,113.14Z"/><path class="cls-1" d="M242.18,76.4H177.8v13H145.67V45.42h96.51Z"/><path class="cls-1" d="M417.09,181.64q0,17,0,34c-24.42-.1-49.18-23.51-47.74-52.78h34.27C404.71,173.83,407,176.88,417.09,181.64Z"/><path class="cls-1" d="M437.13,238c7.73,0,15-.43,22.2.21,2.86.26,6.65,2.26,7.93,4.6,1.2,2.19-.35,5.9-.65,8.6.88,2.84,2.77,5.94,2.5,8.83-.36,3.84-3.84,5.47-7.7,5.48-8,0-16,0-24.28,0Zm4.38,16.16v7.58c6.42,0,12.56.26,18.65-.18,1.6-.12,3-2.4,4.57-3.7-1.56-1.24-3-3.42-4.68-3.54C454,253.91,447.83,254.16,441.51,254.16Zm-.12-4.61c6.49,0,12.6.21,18.67-.16,1.31-.08,2.48-2.25,3.72-3.45-1.18-1.07-2.31-3-3.53-3.06-6.22-.32-12.46-.15-18.85-.15Z"/><path class="cls-1" d="M326.25,253.79v7.85H350l1.11,1.14c-1,1.08-1.92,3.07-2.92,3.1-8.83.25-17.66.14-26.73.14V238.34h28v4.32H326.33v6.67h15.45c1.06,3.11.51,4.59-2.72,4.49C335,253.69,330.85,253.79,326.25,253.79Z"/><path class="cls-1" d="M133.27,265.79V238.35h28.07v4.19H138.12v6.73h15.12c1.48,3.23.82,4.65-2.62,4.55-4.08-.12-8.17,0-12.52,0v7.85h24.16v4.15Z"/><path class="cls-1" d="M312.56,266.81c-1.86-1.22-4.64-2-5.42-3.73-4.07-8.89-11.31-8.47-18.71-7.36-3.11,2.81,2.08,9.06-5,10.64V238c7.58,0,15-.26,22.36.09,5,.24,7.86,3.4,8.47,7.95.56,4.21-1.36,6.86-6.9,9.49l6.53,9.64Zm-24.88-15.53c6.05,0,11.75.29,17.38-.19,1.51-.13,3.82-2.54,3.92-4s-2.22-4-3.64-4.13c-5.77-.48-11.6-.2-17.66-.2Z"/><path class="cls-1" d="M199.11,267c-2.34-1.39-5.08-2.38-6.94-4.24-6-6-11.67-12.34-18.1-19.22V265.7h-4.65V238.45c3.33-1.16,5.73-.22,8.13,2.49,5.65,6.37,11.63,12.44,18.12,19.31V238.52l4.65-.66v27.62Z"/><path class="cls-1" d="M430,266.75c-1.69-1.25-4-2.16-4.92-3.84a5.08,5.08,0,0,0-5.53-3.1,65.26,65.26,0,0,1-9.48,0c-3.68-.32-6.24.5-7.89,4.22-.56,1.26-3,1.7-4.53,2.51l-1-1.14c4.64-8.79,9.2-17.62,14-26.33,1.13-2,5.73-1.48,6.95.75,4.58,8.4,9.05,16.85,13.56,25.29Zm-9.06-11L414,242.26l-6.91,13.5Z"/><path class="cls-1" d="M242.37,238.15h4.25a5.51,5.51,0,0,1,.44,1.42c0,5.21.14,10.43,0,15.64-.07,3.35,1.5,5.49,4.53,6.31a26.67,26.67,0,0,0,7.9,1.08c7.68-.32,9.57-2.47,9.58-10.11,0-4.57,0-9.13,0-14.08l4.12-.43a7.24,7.24,0,0,1,.47,1.62q.06,7.58.05,15.16c0,6.62-1.86,9.5-8.35,11.11-6,1.5-12.19,1.58-18-1.39a8.58,8.58,0,0,1-5.09-8.34C242.45,250.31,242.37,244.48,242.37,238.15Z"/><path class="cls-1" d="M93.38,238.43c3.39-1.1,5.35-.31,6.9,2.87,3.15,6.48,6.78,12.73,10.64,19.88,3.77-7,7.42-13.41,10.73-20,1.48-3,3.36-3.84,6.69-2.67-4.61,8.65-9.1,17.26-13.78,25.77a4.2,4.2,0,0,1-7.26-.18C102.57,255.6,98,247,93.38,238.43Z"/><path class="cls-1" d="M224.51,265.78h-4.84V242.84h-13l-.44-4.57h31.19v4.29H224.51Z"/><path class="cls-1" d="M373.59,237.88v23.81h21.54v4.12h-26V238.36Z"/></g></g></g></svg>