<svg xmlns="http://www.w3.org/2000/svg" viewBox="0 0 319 120"><defs><style>.cls-1,.cls-2{fill:#fff;}.cls-1{opacity:0.5;}</style></defs><title>preview-courses2</title><g id="Layer_2" data-name="Layer 2"><g id="Mobile"><g id="Home"><path class="cls-1" d="M319,120H0V0H319ZM4,116H315V4H4Z"/><path class="cls-2" d="M103.36,98.59a7.45,7.45,0,0,1-2.92-3.17,11.42,11.42,0,0,1,0-9.54,7.84,7.84,0,0,1,3-3.24,8.32,8.32,0,0,1,4.39-1.15,10,10,0,0,1,2.72.38,7.5,7.5,0,0,1,2.36,1.1,3.19,3.19,0,0,1,.92.85,1.65,1.65,0,0,1,.27.92,1.25,1.25,0,0,1-.27.83.87.87,0,0,1-.7.32,1.22,1.22,0,0,1-.54-.14,3.37,3.37,0,0,1-.49-.29l-.27-.18a11.6,11.6,0,0,0-1.78-1,5.3,5.3,0,0,0-2.07-.36,5,5,0,0,0-4.09,1.78,7.6,7.6,0,0,0-1.46,5,7.38,7.38,0,0,0,1.46,4.9A5.05,5.05,0,0,0,108,97.3a5.58,5.58,0,0,0,2.11-.36,9.74,9.74,0,0,0,1.78-1,8.68,8.68,0,0,1,.76-.43,1.42,1.42,0,0,1,.61-.18.84.84,0,0,1,.67.32,1.25,1.25,0,0,1,.27.83,1.49,1.49,0,0,1-.25.85,3.51,3.51,0,0,1-.94.85,8.56,8.56,0,0,1-2.43,1.1,10.22,10.22,0,0,1-2.86.41A8.37,8.37,0,0,1,103.36,98.59Z"/><path class="cls-2" d="M120.6,98.59a7.44,7.44,0,0,1-2.92-3.19,11.77,11.77,0,0,1,0-9.61,7.44,7.44,0,0,1,2.92-3.19A8.44,8.44,0,0,1,125,81.49a8.53,8.53,0,0,1,4.39,1.12,7.41,7.41,0,0,1,2.93,3.19,11.77,11.77,0,0,1,0,9.61,7.4,7.4,0,0,1-2.93,3.19A8.53,8.53,0,0,1,125,99.71,8.44,8.44,0,0,1,120.6,98.59Zm8.35-3a7.77,7.77,0,0,0,1.39-5,7.71,7.71,0,0,0-1.4-4.95,5.36,5.36,0,0,0-7.92,0,7.72,7.72,0,0,0-1.4,4.95,7.77,7.77,0,0,0,1.39,5,5.46,5.46,0,0,0,8,0Z"/><path class="cls-2" d="M152.07,82a1.45,1.45,0,0,1,.38,1V98.23a1.33,1.33,0,0,1-1.44,1.4,1.39,1.39,0,0,1-1-.38,1.34,1.34,0,0,1-.38-1v-1.8a5.71,5.71,0,0,1-2.32,2.41,6.82,6.82,0,0,1-3.37.83A6,6,0,0,1,139.2,98a7.45,7.45,0,0,1-1.58-5.17V83a1.41,1.41,0,0,1,.4-1,1.46,1.46,0,0,1,1.08-.4,1.4,1.4,0,0,1,1.06.4,1.45,1.45,0,0,1,.38,1v9.72a5.23,5.23,0,0,0,.94,3.44,3.67,3.67,0,0,0,3,1.1,4.85,4.85,0,0,0,3.71-1.49,5.52,5.52,0,0,0,1.4-3.94V83a1.41,1.41,0,0,1,.4-1,1.46,1.46,0,0,1,1.08-.4A1.4,1.4,0,0,1,152.07,82Z"/><path class="cls-2" d="M168.07,82.79a1.28,1.28,0,0,1-.32.92,1.72,1.72,0,0,1-1.12.41l-1.08.11A4.85,4.85,0,0,0,162,85.94a5.52,5.52,0,0,0-1.17,3.51V98.2a1.39,1.39,0,0,1-.4,1.08,1.69,1.69,0,0,1-2.11,0,1.36,1.36,0,0,1-.41-1.06V83a1.34,1.34,0,0,1,.43-1.06,1.53,1.53,0,0,1,1-.38,1.33,1.33,0,0,1,1.37,1.4v2a5.46,5.46,0,0,1,2.14-2.41,7.26,7.26,0,0,1,3.19-1l.5,0Q168.07,81.46,168.07,82.79Z"/><path class="cls-2" d="M173.16,99.31a9.6,9.6,0,0,1-2.65-1.12,3.53,3.53,0,0,1-.92-.81,1.53,1.53,0,0,1-.27-.92,1.12,1.12,0,0,1,.27-.77.89.89,0,0,1,.7-.31,2.7,2.7,0,0,1,1.26.54,11.93,11.93,0,0,0,2.14,1,8,8,0,0,0,2.65.38,5.64,5.64,0,0,0,3-.68,2.21,2.21,0,0,0,1.08-2,2,2,0,0,0-.4-1.28,3.29,3.29,0,0,0-1.37-.86,19.56,19.56,0,0,0-2.84-.77,10.66,10.66,0,0,1-4.54-1.84,3.88,3.88,0,0,1-1.37-3.13A4.53,4.53,0,0,1,170.8,84a5.8,5.8,0,0,1,2.39-1.87,8.44,8.44,0,0,1,3.47-.68,9.79,9.79,0,0,1,2.72.38,8.11,8.11,0,0,1,2.32,1.06,2.34,2.34,0,0,1,1.22,1.8,1.15,1.15,0,0,1-.29.79.89.89,0,0,1-.68.32,2.69,2.69,0,0,1-1.3-.61,11.27,11.27,0,0,0-1.91-1,6,6,0,0,0-2.23-.36,4.47,4.47,0,0,0-2.72.76,2.38,2.38,0,0,0-1,2,2,2,0,0,0,.38,1.28,3.12,3.12,0,0,0,1.26.86,14.74,14.74,0,0,0,2.54.74,18.11,18.11,0,0,1,3.8,1.19,4.42,4.42,0,0,1,1.93,1.58,4.47,4.47,0,0,1,.58,2.38,4.31,4.31,0,0,1-1.91,3.65,8.39,8.39,0,0,1-5,1.39A12.26,12.26,0,0,1,173.16,99.31Z"/><path class="cls-2" d="M201.94,95.71a1.2,1.2,0,0,1,.29.83q0,.9-1.26,1.66a10.9,10.9,0,0,1-2.74,1.13,11,11,0,0,1-2.81.38A8.57,8.57,0,0,1,189,97.3a9.12,9.12,0,0,1-2.36-6.66,10.44,10.44,0,0,1,1-4.77,7.78,7.78,0,0,1,2.93-3.22,8.09,8.09,0,0,1,4.3-1.15,7,7,0,0,1,5.44,2.23,8.69,8.69,0,0,1,2,6,1.55,1.55,0,0,1-.29,1,1.2,1.2,0,0,1-.94.32H189.56q.33,6.19,5.87,6.19a6.88,6.88,0,0,0,2.41-.38,15.65,15.65,0,0,0,2.16-1,3.44,3.44,0,0,1,1.26-.54A.89.89,0,0,1,201.94,95.71ZM191.27,85.2a6.58,6.58,0,0,0-1.64,4.07h10.19a6.24,6.24,0,0,0-1.33-4.09A4.47,4.47,0,0,0,195,83.76,4.88,4.88,0,0,0,191.27,85.2Z"/><path class="cls-2" d="M209.41,99.31a9.6,9.6,0,0,1-2.65-1.12,3.55,3.55,0,0,1-.92-.81,1.54,1.54,0,0,1-.27-.92,1.13,1.13,0,0,1,.27-.77.89.89,0,0,1,.7-.31,2.69,2.69,0,0,1,1.26.54A11.91,11.91,0,0,0,210,97a8,8,0,0,0,2.65.38,5.65,5.65,0,0,0,3-.68,2.21,2.21,0,0,0,1.08-2,2,2,0,0,0-.4-1.28,3.28,3.28,0,0,0-1.37-.86,19.48,19.48,0,0,0-2.84-.77,10.67,10.67,0,0,1-4.54-1.84,3.88,3.88,0,0,1-1.37-3.13,4.53,4.53,0,0,1,.86-2.74,5.81,5.81,0,0,1,2.39-1.87,8.44,8.44,0,0,1,3.47-.68,9.78,9.78,0,0,1,2.72.38A8.1,8.1,0,0,1,218,82.93a2.34,2.34,0,0,1,1.22,1.8,1.15,1.15,0,0,1-.29.79.89.89,0,0,1-.68.32,2.69,2.69,0,0,1-1.3-.61,11.34,11.34,0,0,0-1.91-1,6,6,0,0,0-2.23-.36,4.48,4.48,0,0,0-2.72.76,2.38,2.38,0,0,0-1,2,2,2,0,0,0,.38,1.28,3.12,3.12,0,0,0,1.26.86,14.71,14.71,0,0,0,2.54.74,18.13,18.13,0,0,1,3.8,1.19,4.41,4.41,0,0,1,1.93,1.58,4.47,4.47,0,0,1,.58,2.38,4.31,4.31,0,0,1-1.91,3.65,8.39,8.39,0,0,1-5,1.39A12.25,12.25,0,0,1,209.41,99.31Z"/><path class="cls-2" d="M141.26,48.89a1.53,1.53,0,0,1,.48,1.2,1.64,1.64,0,0,1-.46,1.25,1.92,1.92,0,0,1-1.37.43H124a1.92,1.92,0,0,1-1.37-.43,1.64,1.64,0,0,1-.46-1.25,1.53,1.53,0,0,1,.48-1.2,1.94,1.94,0,0,1,1.34-.43h6V22.73l-5.23,3.41a1.44,1.44,0,0,1-.77.24,1.48,1.48,0,0,1-1.18-.62,2.1,2.1,0,0,1-.5-1.34,1.52,1.52,0,0,1,.77-1.44l7.3-4.75a3.06,3.06,0,0,1,1.68-.53,1.82,1.82,0,0,1,1.34.53,2,2,0,0,1,.53,1.49V48.46h6A1.94,1.94,0,0,1,141.26,48.89Z"/><path class="cls-2" d="M170.06,48.89a1.54,1.54,0,0,1,.48,1.2,1.64,1.64,0,0,1-.46,1.25,1.92,1.92,0,0,1-1.37.43H152.83a1.92,1.92,0,0,1-1.37-.43,1.64,1.64,0,0,1-.46-1.25,1.53,1.53,0,0,1,.48-1.2,1.94,1.94,0,0,1,1.34-.43h6V22.73l-5.23,3.41a1.44,1.44,0,0,1-.77.24,1.48,1.48,0,0,1-1.18-.62,2.1,2.1,0,0,1-.5-1.34,1.52,1.52,0,0,1,.77-1.44l7.3-4.75a3.06,3.06,0,0,1,1.68-.53,1.82,1.82,0,0,1,1.34.53,2,2,0,0,1,.53,1.49V48.46h6A1.94,1.94,0,0,1,170.06,48.89Z"/><path class="cls-2" d="M199.63,48.89a1.53,1.53,0,0,1,.48,1.2q0,1.68-1.82,1.68H179.47a1.87,1.87,0,0,1-1.34-.5A1.63,1.63,0,0,1,177.6,50a2.17,2.17,0,0,1,.67-1.58l11.57-12.72a23.49,23.49,0,0,0,3.48-4.82,9.43,9.43,0,0,0,1.08-4.3,5.53,5.53,0,0,0-1.61-4.27,6.44,6.44,0,0,0-4.54-1.49,11.85,11.85,0,0,0-4.42.84,16.16,16.16,0,0,0-4.22,2.57,2.21,2.21,0,0,1-1.34.58,1.12,1.12,0,0,1-.91-.5,2,2,0,0,1-.38-1.22,2,2,0,0,1,.77-1.63,14.33,14.33,0,0,1,4.8-2.88,16.51,16.51,0,0,1,5.81-1.06,10.58,10.58,0,0,1,7.27,2.4,8.22,8.22,0,0,1,2.71,6.48A12.59,12.59,0,0,1,197,32a26.94,26.94,0,0,1-4.34,6l-9.6,10.42h15.22A1.94,1.94,0,0,1,199.63,48.89Z"/></g></g></g></svg>