<svg xmlns="http://www.w3.org/2000/svg" viewBox="0 0 1530.05 1318.87"><defs><style>.cls-1{fill:#ec6726;}.cls-2{fill:#039be5;}.cls-3{fill:#873871;}.cls-4{fill:#36b3a8;}.cls-5{fill:#1f2c35;}.cls-6{fill:#fff;}</style></defs><title>resources_info_large_1</title><g id="Layer_2" data-name="Layer 2"><g id="Desktop"><g id="Resources"><polygon class="cls-1" points="1166.42 1290.87 927.42 1290.87 927.42 352.37 924.42 352.37 924.42 1293.87 1166.42 1293.87 1166.42 1290.87"/><polygon class="cls-1" points="1213.42 1222.28 1213.42 1290.87 1181.42 1290.87 1181.42 1293.87 1216.42 1293.87 1216.42 1222.28 1213.42 1222.28"/><polygon class="cls-2" points="1367.42 1318.87 1172.42 1318.87 1172.42 1219.37 1175.42 1219.37 1175.42 1315.87 1364.42 1315.87 1364.42 352.37 1367.42 352.37 1367.42 1318.87"/><polygon class="cls-3" points="195.92 1294.37 118.92 1294.37 118.92 352.87 121.92 352.87 121.92 1291.37 192.92 1291.37 192.92 1226.87 195.92 1226.87 195.92 1294.37"/><polygon class="cls-4" points="527.42 1293.87 234.42 1293.87 234.42 1222.37 237.42 1222.37 237.42 1290.87 524.42 1290.87 524.42 352.37 527.42 352.37 527.42 1293.87"/><rect class="cls-5" x="174.92" y="623.45" width="1142.99" height="465.22"/><path class="cls-6" d="M595.59,939.77h-41.5V750.64h41.5Z"/><path class="cls-6" d="M918.49,864.3V825.77a51,51,0,0,0,6.79-3.48c6.13-4.34,8.72-10.46,7.71-17.86-.93-6.81-5.25-11.19-11.07-14.41-1.43-.79-3.47-2.29-3.5-3.5-.26-11.95-.16-23.9-.16-35.84,25.84-.23,51.51,23.15,52.65,49.87,1.23,28.81,2.08,57.75.69,86.52-1.27,26.43-20.11,46.35-45.26,51.76-2.48.53-5,.8-7.86,1.24V901.26c11-3.22,15.34-11,14.73-22.18-.3-5.6-.05-11.22-.05-17.2Z"/><path class="cls-6" d="M464.5,709.86c-8.81,13.25-6.08,26.58-.6,39.92-.87-5.56-2.24-11.09-2.52-16.68-.69-13.64,2.15-23.16,15.28-28.43,14.36-5.76,28.72-8.05,42.54,1.16,10.27,6.85,14.47,17.87,17.32,29.06,5.48,21.55-7,41.34-27.49,46.77,3.82-7.9,8.92-16.26,12-25.32,6-17.36-2.57-33.17-18.83-36.86-6.75-1.53-13.24,3-14.64,10.24-1.15,5.92,3,11,9.26,12.77,4.64,1.35,7.8.77,10.14-3.47a3.81,3.81,0,0,1,.68-.81c2.48-2.47,5.37-6.11,8.76-3.62,2.06,1.51,2,5.88,2.63,8,.49,3.49,1.32,5.76,1,7.88-1.46,10.86-7,19.88-13.24,28.59a12.77,12.77,0,0,0-2.48,5.15c18.55-3.64,30.66-14.34,36.34-32.56V833c-8.46-6.53-16.58-12.81-24.7-19.06-5-3.86-10.17-7.53-15-11.59-2.59-2.17-4.7-2.09-7.52-.59-7.87,4.17-15.84,8.15-23.84,12.07-3.94,1.93-15.1-.39-16.58-4.15-1.06-2.68-.1-6.43.68-9.52,2.29-9.07,5.18-18,7.33-27.1.78-3.28-.12-6.92.18-10.36,1.14-13.26-8.61-24.46-7-37.83C455.14,718.1,457.83,712.75,464.5,709.86Z"/><path class="cls-6" d="M791.45,750.15c23.13,2.72,39.28,14.1,48.4,34.61,8.88,20,5,42.93-9.42,59.91,16,21.22,19.45,43.94,5.74,67.69-9.27,16.05-27.06,26.64-44.72,27.34V901.28c6.83-2.62,12-6.59,13.77-14,2-8.5-1.79-17.31-9.76-20.83-3.39-1.5-4.13-3.32-4.07-6.67.19-11.42.07-22.85.07-34.35,7.23-2.48,12.32-6.59,13.87-14.37,1.64-8.23-1.69-16.56-9.47-20-3.84-1.69-4.56-3.78-4.48-7.5C791.6,772.66,791.45,761.78,791.45,750.15Z"/><path class="cls-6" d="M782.88,901.35v38.59c-19.3-2.23-34.48-10.79-44.22-27.34-13.8-23.44-10.78-46,5.44-67.57-15.73-20.55-18.94-42.58-6.51-65.89,7.87-14.76,25.95-28.39,45.46-28.5,0,12.09.05,24.19-.1,36.29a4.13,4.13,0,0,1-2.26,2.86c-8,3.41-12.38,9.66-12.08,18,.31,8.81,5.44,14.89,14.46,17.52,0,12.38.07,24.68-.11,37a4.66,4.66,0,0,1-2.45,3.33c-7.79,3.34-12,9.48-11.91,17.55.1,8.38,4.84,14.42,12.92,17.46A12.15,12.15,0,0,1,782.88,901.35Z"/><path class="cls-6" d="M716.82,791.92c-4.55,15.64-8.84,30.44-13.17,45.22-9.52,32.55-19.1,65.07-28.54,97.65-1.06,3.65-2.46,5.36-6.71,5.23-12.07-.36-24.16-.12-36.78-.12,4.9-16.79,9.59-32.93,14.31-49.06C655,859.9,664.16,829,673,798c1.31-4.55,3-6.47,8.14-6.25C692.75,792.26,704.36,791.92,716.82,791.92Z"/><path class="cls-6" d="M910.65,825.4v37.82c-19.11,1.76-47.78-16.16-52.51-46.68-5.78-37.27,23.37-65.35,52.71-66.06,0,12.12.05,24.24-.1,36.36a4.18,4.18,0,0,1-2.26,2.9c-8.26,3.6-12.92,9.66-12.33,18.78C896.73,817.41,902.22,822.66,910.65,825.4Z"/><path class="cls-6" d="M716.21,784.56H644.65V799H608.93V750.11H716.21Z"/><path class="cls-6" d="M910.65,901.54q0,18.93,0,37.85c-27.14-.11-54.67-26.14-53.07-58.67h38.09C896.89,892.86,899.39,896.25,910.65,901.54Z"/><path class="cls-6" d="M932.93,964.2c8.59,0,16.69-.48,24.68.24,3.18.28,7.39,2.51,8.82,5.12,1.34,2.44-.39,6.55-.72,9.56,1,3.16,3.07,6.6,2.77,9.81-.4,4.27-4.27,6.08-8.56,6.09-8.9,0-17.8,0-27,0Zm4.87,18v8.43c7.14,0,14,.29,20.73-.2,1.78-.13,3.39-2.67,5.08-4.11-1.73-1.37-3.39-3.8-5.21-3.93C951.64,981.88,944.83,982.16,937.8,982.16Zm-.14-5.12c7.22,0,14,.23,20.75-.18,1.45-.09,2.76-2.5,4.14-3.84-1.31-1.19-2.56-3.33-3.93-3.4-6.91-.35-13.85-.16-21-.16Z"/><path class="cls-6" d="M809.66,981.75v8.73h26.45l1.24,1.27c-1.08,1.2-2.13,3.41-3.24,3.45-9.81.27-19.63.16-29.71.16V964.57h31.09v4.8H809.75v7.42h17.18c1.18,3.46.57,5.1-3,5C819.35,981.64,814.78,981.75,809.66,981.75Z"/><path class="cls-6" d="M595.14,995.09v-30.5h31.2v4.66H600.53v7.48h16.81c1.64,3.59.91,5.17-2.92,5.05-4.53-.13-9.08,0-13.91,0v8.73h26.86v4.61Z"/><path class="cls-6" d="M794.45,996.23c-2.07-1.35-5.16-2.24-6-4.14-4.53-9.88-12.57-9.42-20.79-8.19C764.17,987,769.94,994,762,995.73V964.24c8.43,0,16.66-.29,24.85.1,5.52.26,8.74,3.78,9.41,8.83.62,4.68-1.51,7.63-7.67,10.54l7.26,10.71ZM766.8,979c6.73,0,13.06.32,19.32-.21,1.68-.14,4.25-2.82,4.36-4.47s-2.47-4.46-4-4.59c-6.41-.53-12.89-.22-19.64-.22Z"/><path class="cls-6" d="M668.33,996.43c-2.6-1.55-5.65-2.64-7.72-4.72-6.67-6.68-13-13.71-20.12-21.36V995h-5.17V964.7c3.7-1.29,6.37-.24,9,2.76,6.28,7.08,12.93,13.82,20.15,21.47V964.78l5.17-.73v30.7Z"/><path class="cls-6" d="M925,996.16c-1.88-1.39-4.48-2.4-5.47-4.26-1.49-2.8-3.22-3.62-6.15-3.44a72.55,72.55,0,0,1-10.54,0c-4.09-.36-6.93.56-8.77,4.69-.62,1.4-3.3,1.89-5,2.79L888,994.65c5.16-9.77,10.22-19.59,15.55-29.27,1.25-2.28,6.38-1.64,7.73.84,5.09,9.34,10.06,18.73,15.08,28.11Zm-10.07-12.22-7.72-15-7.69,15Z"/><path class="cls-6" d="M716.43,964.36h4.72a6.13,6.13,0,0,1,.49,1.58c0,5.79.15,11.59,0,17.38-.08,3.73,1.67,6.11,5,7a29.65,29.65,0,0,0,8.78,1.2c8.54-.35,10.64-2.74,10.65-11.24,0-5.08,0-10.15,0-15.66l4.58-.48a8,8,0,0,1,.53,1.8q.07,8.43.06,16.86c0,7.36-2.07,10.56-9.28,12.35-6.7,1.66-13.55,1.76-20-1.55a9.54,9.54,0,0,1-5.66-9.27C716.52,977.88,716.43,971.4,716.43,964.36Z"/><path class="cls-6" d="M550.8,964.67c3.77-1.22,6-.34,7.67,3.19C562,975.07,566,982,570.3,990c4.19-7.75,8.25-14.9,11.93-22.25,1.65-3.3,3.73-4.27,7.43-3-5.12,9.62-10.11,19.19-15.31,28.65-1.68,3.05-6.32,2.94-8.07-.2C561,983.76,556,974.22,550.8,964.67Z"/><path class="cls-6" d="M696.57,995.08H691.2V969.58H676.7l-.49-5.09h34.67v4.76H696.57Z"/><path class="cls-6" d="M862.3,964.06v26.46h23.95v4.58H857.32V964.59Z"/><rect class="cls-5" x="173.74" y="1088.66" width="1144.16" height="144.21"/><path class="cls-6" d="M1319.41,1234.37H172.24V1087.16H1319.41Zm-1144.16-3H1316.41V1090.16H175.24Z"/><path class="cls-6" d="M533.92,1160.43a2.7,2.7,0,0,1,.8,2v12.3a7.35,7.35,0,0,1-.69,3.72,5,5,0,0,1-2.8,1.77,29.4,29.4,0,0,1-5.32,1.26,39.17,39.17,0,0,1-5.83.46,22.52,22.52,0,0,1-10.81-2.46,16.62,16.62,0,0,1-7-7.12,23.77,23.77,0,0,1-2.43-11.13,23.51,23.51,0,0,1,2.43-11,17,17,0,0,1,6.89-7.15,21.27,21.27,0,0,1,10.53-2.49q8.07,0,13.21,4.35a4.46,4.46,0,0,1,1,1.26,3.63,3.63,0,0,1-.37,3.6,2.06,2.06,0,0,1-1.66.86,3.13,3.13,0,0,1-1.14-.2,6.48,6.48,0,0,1-1.2-.66,18.25,18.25,0,0,0-4.69-2.49,15.71,15.71,0,0,0-4.92-.72q-6.24,0-9.41,3.69t-3.17,11q0,14.88,13,14.87a28.78,28.78,0,0,0,7.78-1.09v-10.13h-6.46a3.12,3.12,0,0,1-2.14-.69,2.84,2.84,0,0,1,0-3.89,3.12,3.12,0,0,1,2.14-.69H531.8A2.93,2.93,0,0,1,533.92,1160.43Z"/><path class="cls-6" d="M547.39,1180.54a3.42,3.42,0,0,1-.94-2.57v-33.35a3.42,3.42,0,0,1,.94-2.57,3.58,3.58,0,0,1,2.6-.92h20.65a4,4,0,0,1,2.57.74,2.57,2.57,0,0,1,.92,2.12,2.72,2.72,0,0,1-.92,2.2,3.88,3.88,0,0,1-2.57.77h-17v11.1H569.5a4,4,0,0,1,2.58.74A2.64,2.64,0,0,1,573,1161a2.57,2.57,0,0,1-.92,2.12,4,4,0,0,1-2.58.74H553.65v11.78h17a3.88,3.88,0,0,1,2.57.77,2.73,2.73,0,0,1,.92,2.2,2.57,2.57,0,0,1-.92,2.12,4,4,0,0,1-2.57.74H550A3.58,3.58,0,0,1,547.39,1180.54Z"/><path class="cls-6" d="M594.13,1180.74a3.59,3.59,0,0,1-1-2.66v-30.89H582.71q-3.43,0-3.43-3t3.43-3h28.2q3.43,0,3.43,3t-3.43,3H600.51v30.89a3.44,3.44,0,0,1-3.66,3.66A3.67,3.67,0,0,1,594.13,1180.74Z"/><path class="cls-6" d="M648.87,1179.46a16.73,16.73,0,0,1-6.72-7.21,26.82,26.82,0,0,1,0-21.94,16.77,16.77,0,0,1,6.72-7.18,20.12,20.12,0,0,1,10.21-2.52,22.1,22.1,0,0,1,7.09,1.12,18.43,18.43,0,0,1,5.89,3.23,3.3,3.3,0,0,1,1,1.2,3.73,3.73,0,0,1,.29,1.54,3.28,3.28,0,0,1-.69,2.12,2.06,2.06,0,0,1-1.66.86,4.23,4.23,0,0,1-2.35-.8,17,17,0,0,0-4.58-2.55,14.59,14.59,0,0,0-4.69-.72q-6,0-9,3.72t-3.06,10.93q0,7.27,3.06,11t9,3.72a13.46,13.46,0,0,0,4.55-.74,21.8,21.8,0,0,0,4.72-2.52,7.92,7.92,0,0,1,1.14-.57,3.2,3.2,0,0,1,1.2-.23,2.06,2.06,0,0,1,1.66.86,3.29,3.29,0,0,1,.69,2.12,3.77,3.77,0,0,1-.29,1.52,3.21,3.21,0,0,1-1,1.23,18.42,18.42,0,0,1-5.89,3.23,22.12,22.12,0,0,1-7.09,1.12A20.11,20.11,0,0,1,648.87,1179.46Z"/><path class="cls-6" d="M690.29,1179.46a16.83,16.83,0,0,1-6.67-7.21,27,27,0,0,1,0-21.94,16.65,16.65,0,0,1,6.67-7.18,22,22,0,0,1,20.45,0,16.7,16.7,0,0,1,6.64,7.18,27,27,0,0,1,0,21.94,16.84,16.84,0,0,1-6.67,7.21,21.85,21.85,0,0,1-20.37,0Zm18.88-7.21q3.12-3.83,3.12-11t-3.12-11a11.84,11.84,0,0,0-17.39,0q-3.12,3.81-3.12,11t3.12,11a11.78,11.78,0,0,0,17.39,0Z"/><path class="cls-6" d="M763.63,1141.84a3.72,3.72,0,0,1,.94,2.66v33.58a3.75,3.75,0,0,1-1,2.69,3.31,3.31,0,0,1-2.52,1,3.27,3.27,0,0,1-2.8-1.32l-20.88-27.17v24.77a3.9,3.9,0,0,1-.92,2.69,3.59,3.59,0,0,1-5,0,3.89,3.89,0,0,1-.92-2.69V1144.5a3.66,3.66,0,0,1,1-2.66,3.43,3.43,0,0,1,2.57-1,3.22,3.22,0,0,1,2.75,1.32l20.82,27.06V1144.5a3.72,3.72,0,0,1,.94-2.66,3.26,3.26,0,0,1,2.49-1A3.33,3.33,0,0,1,763.63,1141.84Z"/><path class="cls-6" d="M809.8,1141.84a3.72,3.72,0,0,1,.94,2.66v33.58a3.75,3.75,0,0,1-1,2.69,3.31,3.31,0,0,1-2.52,1,3.27,3.27,0,0,1-2.8-1.32l-20.88-27.17v24.77a3.9,3.9,0,0,1-.92,2.69,3.59,3.59,0,0,1-5,0,3.89,3.89,0,0,1-.92-2.69V1144.5a3.66,3.66,0,0,1,1-2.66,3.43,3.43,0,0,1,2.57-1,3.22,3.22,0,0,1,2.75,1.32l20.82,27.06V1144.5a3.72,3.72,0,0,1,.94-2.66,3.26,3.26,0,0,1,2.49-1A3.33,3.33,0,0,1,809.8,1141.84Z"/><path class="cls-6" d="M823.82,1180.54a3.42,3.42,0,0,1-.94-2.57v-33.35a3.42,3.42,0,0,1,.94-2.57,3.58,3.58,0,0,1,2.6-.92h20.65a4,4,0,0,1,2.57.74,2.57,2.57,0,0,1,.92,2.12,2.72,2.72,0,0,1-.92,2.2,3.88,3.88,0,0,1-2.57.77h-17v11.1h15.85a4,4,0,0,1,2.58.74,2.64,2.64,0,0,1,.92,2.17,2.57,2.57,0,0,1-.92,2.12,4,4,0,0,1-2.58.74H830.08v11.78h17a3.88,3.88,0,0,1,2.57.77,2.73,2.73,0,0,1,.92,2.2,2.57,2.57,0,0,1-.92,2.12,4,4,0,0,1-2.57.74H826.42A3.58,3.58,0,0,1,823.82,1180.54Z"/><path class="cls-6" d="M867.69,1179.46a16.73,16.73,0,0,1-6.72-7.21,26.82,26.82,0,0,1,0-21.94,16.77,16.77,0,0,1,6.72-7.18,20.12,20.12,0,0,1,10.21-2.52,22.1,22.1,0,0,1,7.09,1.12,18.43,18.43,0,0,1,5.89,3.23,3.3,3.3,0,0,1,1,1.2,3.73,3.73,0,0,1,.29,1.54,3.28,3.28,0,0,1-.69,2.12,2.06,2.06,0,0,1-1.66.86,4.23,4.23,0,0,1-2.35-.8,17,17,0,0,0-4.58-2.55,14.59,14.59,0,0,0-4.69-.72q-6,0-9,3.72t-3.06,10.93q0,7.27,3.06,11t9,3.72a13.46,13.46,0,0,0,4.55-.74,21.8,21.8,0,0,0,4.72-2.52,7.92,7.92,0,0,1,1.14-.57,3.2,3.2,0,0,1,1.2-.23,2.06,2.06,0,0,1,1.66.86,3.29,3.29,0,0,1,.69,2.12,3.77,3.77,0,0,1-.29,1.52,3.21,3.21,0,0,1-1,1.23,18.42,18.42,0,0,1-5.89,3.23,22.12,22.12,0,0,1-7.09,1.12A20.11,20.11,0,0,1,867.69,1179.46Z"/><path class="cls-6" d="M912,1180.74a3.59,3.59,0,0,1-1-2.66v-30.89H900.62q-3.43,0-3.43-3t3.43-3h28.2q3.43,0,3.43,3t-3.43,3H918.41v30.89a3.44,3.44,0,0,1-3.66,3.66A3.67,3.67,0,0,1,912,1180.74Z"/><path class="cls-6" d="M941,1180.54A3.42,3.42,0,0,1,940,1178v-33.35A3.42,3.42,0,0,1,941,1142a3.58,3.58,0,0,1,2.6-.92h20.65a4,4,0,0,1,2.57.74,2.57,2.57,0,0,1,.92,2.12,2.72,2.72,0,0,1-.92,2.2,3.88,3.88,0,0,1-2.57.77h-17v11.1h15.85a4,4,0,0,1,2.58.74,2.64,2.64,0,0,1,.92,2.17,2.57,2.57,0,0,1-.92,2.12,4,4,0,0,1-2.58.74H947.24v11.78h17a3.88,3.88,0,0,1,2.57.77,2.73,2.73,0,0,1,.92,2.2,2.57,2.57,0,0,1-.92,2.12,4,4,0,0,1-2.57.74H943.58A3.58,3.58,0,0,1,941,1180.54Z"/><path class="cls-6" d="M978.1,1180.54a3.42,3.42,0,0,1-.94-2.57v-33.35a3.42,3.42,0,0,1,.94-2.57,3.58,3.58,0,0,1,2.6-.92H992q9.9,0,15.36,5.29t5.46,14.85q0,9.61-5.46,14.9T992,1181.46H980.71A3.58,3.58,0,0,1,978.1,1180.54Zm13.47-5.09q13.9,0,13.9-14.19t-13.9-14.13h-7v28.32Z"/><rect class="cls-3" x="173.74" y="1088.66" width="40.52" height="143.02"/><path class="cls-6" d="M215.77,1233.18H172.24v-146h43.52Zm-40.52-3h37.52v-140H175.24Z"/><rect class="cls-4" x="215.46" y="1088.66" width="40.52" height="143.02"/><path class="cls-6" d="M257.48,1233.18H214v-146h43.52Zm-40.52-3h37.52v-140H217Z"/><rect class="cls-1" x="257.17" y="1088.66" width="40.52" height="143.02"/><path class="cls-6" d="M299.2,1233.18H255.67v-146H299.2Zm-40.52-3H296.2v-140H258.67Z"/><rect class="cls-2" x="298.89" y="1088.66" width="40.52" height="143.02"/><path class="cls-6" d="M340.91,1233.18H297.39v-146h43.52Zm-40.52-3h37.52v-140H300.39Z"/><rect class="cls-3" x="1278.58" y="1088.66" width="40.52" height="143.02" transform="translate(2597.68 2320.34) rotate(180)"/><path class="cls-6" d="M1320.6,1233.18h-43.52v-146h43.52Zm-40.52-3h37.52v-140h-37.52Z"/><rect class="cls-4" x="1236.86" y="1088.66" width="40.52" height="143.02" transform="translate(2514.25 2320.34) rotate(180)"/><path class="cls-6" d="M1278.89,1233.18h-43.52v-146h43.52Zm-40.52-3h37.52v-140h-37.52Z"/><rect class="cls-1" x="1195.15" y="1088.66" width="40.52" height="143.02" transform="translate(2430.82 2320.34) rotate(180)"/><path class="cls-6" d="M1237.17,1233.18h-43.52v-146h43.52Zm-40.52-3h37.52v-140h-37.52Z"/><rect class="cls-2" x="1153.43" y="1088.66" width="40.52" height="143.02" transform="translate(2347.39 2320.34) rotate(180)"/><path class="cls-6" d="M1195.46,1233.18h-43.52v-146h43.52Zm-40.52-3h37.52v-140h-37.52Z"/><path d="M7.18,307.21a13.53,13.53,0,0,1-5.33-6,24,24,0,0,1,0-18.46,13.56,13.56,0,0,1,5.33-6,15.6,15.6,0,0,1,8.18-2.09,17.4,17.4,0,0,1,6.12,1.08,13.51,13.51,0,0,1,4.92,3.1,1.87,1.87,0,0,1,.67,1.39,1.4,1.4,0,0,1-.31.91.89.89,0,0,1-.7.38,1.9,1.9,0,0,1-1.1-.48,18.06,18.06,0,0,0-4.7-2.93,13.69,13.69,0,0,0-4.94-.82q-5.81,0-9,3.84T3.12,292q0,7,3.19,10.85t9,3.84a13.67,13.67,0,0,0,4.94-.82,18.06,18.06,0,0,0,4.7-2.93,2.31,2.31,0,0,1,1.1-.48.9.9,0,0,1,.7.38,1.4,1.4,0,0,1,.31.91,1.87,1.87,0,0,1-.67,1.39,13.51,13.51,0,0,1-4.92,3.1,17.4,17.4,0,0,1-6.12,1.08A15.6,15.6,0,0,1,7.18,307.21Z"/><path d="M42,307.21a13.53,13.53,0,0,1-5.23-6,24.19,24.19,0,0,1,0-18.43,13.58,13.58,0,0,1,5.21-6,15,15,0,0,1,8-2.09A15.13,15.13,0,0,1,58,276.78a13.56,13.56,0,0,1,5.23,6,24.25,24.25,0,0,1,0,18.46,13.53,13.53,0,0,1-5.23,6A15.13,15.13,0,0,1,50,309.3,15,15,0,0,1,42,307.21Zm16.9-4.39Q62,299,62,292t-3.14-10.82q-3.14-3.82-8.9-3.82a10.8,10.8,0,0,0-8.86,3.84Q38,285,38,292t3.14,10.82A10.77,10.77,0,0,0,50,306.66,10.87,10.87,0,0,0,58.85,302.82Z"/><path d="M103.34,307.91a1.11,1.11,0,0,1-.43.89,1.53,1.53,0,0,1-1,.36,1.32,1.32,0,0,1-.74-.24,1.53,1.53,0,0,1-.55-.67L97,299.89H78.34l-3.7,8.35a1.41,1.41,0,0,1-1.34.91,1.43,1.43,0,0,1-1-.36,1.34,1.34,0,0,1-.31-1.46l14-31.49a1.58,1.58,0,0,1,1.58-1.06,1.81,1.81,0,0,1,1,.29,1.59,1.59,0,0,1,.65.77l14,31.49A1.28,1.28,0,0,1,103.34,307.91ZM79.44,297.3H95.81l-8.16-18.58Z"/><path d="M116.81,307.21a13.53,13.53,0,0,1-5.33-6,24,24,0,0,1,0-18.46,13.56,13.56,0,0,1,5.33-6,15.6,15.6,0,0,1,8.18-2.09,17.4,17.4,0,0,1,6.12,1.08,13.51,13.51,0,0,1,4.92,3.1,1.87,1.87,0,0,1,.67,1.39,1.4,1.4,0,0,1-.31.91.89.89,0,0,1-.7.38,1.9,1.9,0,0,1-1.1-.48,18.06,18.06,0,0,0-4.7-2.93,13.69,13.69,0,0,0-4.94-.82q-5.81,0-9,3.84T112.75,292q0,7,3.19,10.85t9,3.84a13.67,13.67,0,0,0,4.94-.82,18.06,18.06,0,0,0,4.7-2.93,2.31,2.31,0,0,1,1.1-.48.9.9,0,0,1,.7.38,1.4,1.4,0,0,1,.31.91,1.87,1.87,0,0,1-.67,1.39,13.51,13.51,0,0,1-4.92,3.1A17.4,17.4,0,0,1,125,309.3,15.6,15.6,0,0,1,116.81,307.21Z"/><path d="M173.37,275.25a1.58,1.58,0,0,1,.38,1.13v31.25a1.58,1.58,0,0,1-.38,1.13,1.45,1.45,0,0,1-1.1.41,1.34,1.34,0,0,1-1.06-.43,1.6,1.6,0,0,1-.38-1.1V293h-21.6v14.59a1.6,1.6,0,0,1-.38,1.1,1.34,1.34,0,0,1-1.06.43,1.42,1.42,0,0,1-1.08-.43,1.54,1.54,0,0,1-.41-1.1V276.37a1.54,1.54,0,0,1,.41-1.1,1.42,1.42,0,0,1,1.08-.43,1.34,1.34,0,0,1,1.06.43,1.6,1.6,0,0,1,.38,1.1v14.06h21.6V276.37a1.6,1.6,0,0,1,.38-1.1,1.34,1.34,0,0,1,1.06-.43A1.45,1.45,0,0,1,173.37,275.25Z"/><path d="M185.83,308.49a1.4,1.4,0,0,1-.46-1.06V276.57a1.4,1.4,0,0,1,.46-1.06,1.57,1.57,0,0,1,1.13-.43H205.2a1.39,1.39,0,0,1,1,.34,1.25,1.25,0,0,1,.36,1,1.19,1.19,0,0,1-.36.91,1.39,1.39,0,0,1-1,.34H188.3v12.82h15.94a1.39,1.39,0,0,1,1,.34,1.46,1.46,0,0,1,0,1.92,1.39,1.39,0,0,1-1,.34H188.3v13.34h16.9a1.46,1.46,0,0,1,1,.31,1.17,1.17,0,0,1,.36.94,1.25,1.25,0,0,1-.36,1,1.38,1.38,0,0,1-1,.34H187A1.57,1.57,0,0,1,185.83,308.49Z"/><path d="M219.14,308.17a12.91,12.91,0,0,1-5.16-3,1.73,1.73,0,0,1-.62-1.39,1.4,1.4,0,0,1,.31-.91.89.89,0,0,1,.7-.38,1.92,1.92,0,0,1,1.1.48A16,16,0,0,0,226,306.66a11.21,11.21,0,0,0,6.74-1.75,5.81,5.81,0,0,0,2.38-5,4.09,4.09,0,0,0-1.15-3,7.9,7.9,0,0,0-2.93-1.8,40.24,40.24,0,0,0-4.75-1.32,47.57,47.57,0,0,1-6.36-1.78,10.39,10.39,0,0,1-4.1-2.76,7.1,7.1,0,0,1-1.68-5,8.6,8.6,0,0,1,1.51-5,9.81,9.81,0,0,1,4.25-3.38,15.54,15.54,0,0,1,6.29-1.2,17.87,17.87,0,0,1,6.24,1.08,12.59,12.59,0,0,1,4.85,3.1,1.93,1.93,0,0,1,.62,1.39,1.4,1.4,0,0,1-.31.91.89.89,0,0,1-.7.38,1.9,1.9,0,0,1-1.1-.48,18.24,18.24,0,0,0-4.68-2.93,13.49,13.49,0,0,0-4.92-.82,10.81,10.81,0,0,0-6.67,1.82,6,6,0,0,0-2.4,5.09,4.71,4.71,0,0,0,1.06,3.19,7.33,7.33,0,0,0,2.76,1.94,30.58,30.58,0,0,0,4.39,1.39l1.25.29q3.89,1,6.14,1.78a9.45,9.45,0,0,1,3.82,2.52,6.53,6.53,0,0,1,1.56,4.58,8.23,8.23,0,0,1-1.51,4.87,9.78,9.78,0,0,1-4.27,3.31A16,16,0,0,1,226,309.3,20.93,20.93,0,0,1,219.14,308.17Z"/><path d="M411.67,275.27a1.55,1.55,0,0,1,.41,1.1v31.25a1.6,1.6,0,0,1-.38,1.1,1.34,1.34,0,0,1-1.06.43,1.23,1.23,0,0,1-1-.41,1.73,1.73,0,0,1-.34-1.13V281l-11.38,22a1.69,1.69,0,0,1-3.17,0l-11.47-21.79v26.45a1.73,1.73,0,0,1-.34,1.13,1.23,1.23,0,0,1-1,.41,1.37,1.37,0,0,1-1.08-.41,1.65,1.65,0,0,1-.36-1.13V276.37a1.54,1.54,0,0,1,.41-1.1,1.48,1.48,0,0,1,1.13-.43q.86,0,1.44,1.1l12.91,24.77,12.72-24.77q.58-1.1,1.44-1.1A1.48,1.48,0,0,1,411.67,275.27Z"/><path d="M452.35,307.91a1.11,1.11,0,0,1-.43.89,1.53,1.53,0,0,1-1,.36,1.32,1.32,0,0,1-.74-.24,1.52,1.52,0,0,1-.55-.67L446,299.89H427.34l-3.7,8.35a1.41,1.41,0,0,1-1.34.91,1.43,1.43,0,0,1-1-.36,1.34,1.34,0,0,1-.31-1.46l14-31.49a1.58,1.58,0,0,1,1.58-1.06,1.81,1.81,0,0,1,1,.29,1.6,1.6,0,0,1,.65.77l14,31.49A1.28,1.28,0,0,1,452.35,307.91Zm-23.9-10.61h16.37l-8.16-18.58Z"/><path d="M486.72,308a1.14,1.14,0,0,1-.41.89,1.37,1.37,0,0,1-.94.36,1.47,1.47,0,0,1-1.3-.77l-6.48-10.37a8.62,8.62,0,0,0-2.86-3,8.39,8.39,0,0,0-4.06-.82h-6.58v13.39a1.53,1.53,0,0,1-.41,1.13,1.63,1.63,0,0,1-2.16,0,1.53,1.53,0,0,1-.41-1.13V276.57a1.4,1.4,0,0,1,.46-1.06,1.57,1.57,0,0,1,1.13-.43h12q5.33,0,8.21,2.42t2.88,7.08a8.66,8.66,0,0,1-2.45,6.48,10.85,10.85,0,0,1-6.91,2.78,5.82,5.82,0,0,1,2.11,1.27,12.59,12.59,0,0,1,2,2.47l6,9.55A1.49,1.49,0,0,1,486.72,308Zm-12.24-16.27q8.35,0,8.35-7.15a6.37,6.37,0,0,0-2.06-5.21q-2.07-1.7-6.29-1.7H464.06v14.06Z"/><path d="M520.8,307.77a1.4,1.4,0,0,1-1.34,1.34,1.49,1.49,0,0,1-.91-.38l-18.82-16v14.88a1.54,1.54,0,0,1-.41,1.1,1.56,1.56,0,0,1-2.16,0,1.54,1.54,0,0,1-.41-1.1V276.37a1.54,1.54,0,0,1,.41-1.1,1.57,1.57,0,0,1,2.16,0,1.55,1.55,0,0,1,.41,1.1v14.45l17.86-15.55a1.25,1.25,0,0,1,.91-.38,1.37,1.37,0,0,1,1,.41,1.25,1.25,0,0,1,.43.94,1.41,1.41,0,0,1-.53,1.06l-16.7,14.35,17.62,15.07A1.41,1.41,0,0,1,520.8,307.77Z"/><path d="M529.51,308.49a1.4,1.4,0,0,1-.46-1.06V276.57a1.4,1.4,0,0,1,.46-1.06,1.57,1.57,0,0,1,1.13-.43h18.24a1.39,1.39,0,0,1,1,.34,1.25,1.25,0,0,1,.36,1,1.19,1.19,0,0,1-.36.91,1.39,1.39,0,0,1-1,.34H532v12.82h15.94a1.39,1.39,0,0,1,1,.34,1.46,1.46,0,0,1,0,1.92,1.39,1.39,0,0,1-1,.34H532v13.34h16.9a1.46,1.46,0,0,1,1,.31,1.17,1.17,0,0,1,.36.94,1.25,1.25,0,0,1-.36,1,1.38,1.38,0,0,1-1,.34H530.64A1.57,1.57,0,0,1,529.51,308.49Z"/><path d="M567.6,308.73a1.6,1.6,0,0,1-.38-1.1v-30H556.12a1.38,1.38,0,0,1-1-.34,1.46,1.46,0,0,1,0-1.92,1.39,1.39,0,0,1,1-.34h25.06a1.35,1.35,0,0,1,1,.36,1.33,1.33,0,0,1,0,1.87,1.35,1.35,0,0,1-1,.36h-11v30a1.54,1.54,0,0,1-.41,1.1,1.42,1.42,0,0,1-1.08.43A1.34,1.34,0,0,1,567.6,308.73Z"/><path d="M590.47,308.73a1.54,1.54,0,0,1-.41-1.1V276.37a1.54,1.54,0,0,1,.41-1.1,1.57,1.57,0,0,1,2.16,0,1.55,1.55,0,0,1,.41,1.1v31.25a1.54,1.54,0,0,1-.41,1.1,1.56,1.56,0,0,1-2.16,0Z"/><path d="M630.84,275.25a1.65,1.65,0,0,1,.36,1.13v31.25a1.6,1.6,0,0,1-.38,1.1,1.34,1.34,0,0,1-1.06.43,1.65,1.65,0,0,1-1.3-.72l-21-28.37v27.55a1.6,1.6,0,0,1-.38,1.1,1.48,1.48,0,0,1-2.06,0,1.72,1.72,0,0,1-.34-1.13V276.37a1.55,1.55,0,0,1,.41-1.1,1.48,1.48,0,0,1,1.13-.43,1.45,1.45,0,0,1,1.25.72l21,28.32v-27.5a1.6,1.6,0,0,1,.38-1.1,1.29,1.29,0,0,1,1-.43A1.31,1.31,0,0,1,630.84,275.25Z"/><path d="M668.61,292a1.26,1.26,0,0,1,.36.94v12.72a1.73,1.73,0,0,1-1.1,1.73,20.39,20.39,0,0,1-4.78,1.44,30.75,30.75,0,0,1-5.69.53,16.91,16.91,0,0,1-8.52-2,13.35,13.35,0,0,1-5.47-6,23.77,23.77,0,0,1,0-18.55,13.66,13.66,0,0,1,5.38-6,15.92,15.92,0,0,1,8.3-2.09,18,18,0,0,1,6.29,1.08,12.17,12.17,0,0,1,4.8,3.1,1.93,1.93,0,0,1,.62,1.39,1.47,1.47,0,0,1-.29.91.87.87,0,0,1-.72.38,2.07,2.07,0,0,1-1.06-.48,17.07,17.07,0,0,0-4.7-2.93,13.93,13.93,0,0,0-4.94-.82q-6,0-9.19,3.82T644.63,292q0,7.15,3.26,10.94t9.5,3.79a27.29,27.29,0,0,0,4.73-.41,19.22,19.22,0,0,0,4.15-1.18v-11h-7.78a1.45,1.45,0,0,1-1-.34,1.33,1.33,0,0,1,0-1.82,1.46,1.46,0,0,1,1-.34h9.17A1.27,1.27,0,0,1,668.61,292Z"/><path d="M851.2,308.53a1.2,1.2,0,0,1-.46-1v-31.2a1.54,1.54,0,0,1,.41-1.1,1.42,1.42,0,0,1,1.08-.43,1.44,1.44,0,0,1,1.1.41,1.58,1.58,0,0,1,.38,1.13v30h16.42a1.39,1.39,0,0,1,1,.34,1.46,1.46,0,0,1,0,1.92,1.38,1.38,0,0,1-1,.34H852.28A1.62,1.62,0,0,1,851.2,308.53Z"/><path d="M879.66,308.49a1.4,1.4,0,0,1-.46-1.06V276.57a1.4,1.4,0,0,1,.46-1.06,1.57,1.57,0,0,1,1.13-.43H899a1.39,1.39,0,0,1,1,.34,1.25,1.25,0,0,1,.36,1,1.19,1.19,0,0,1-.36.91,1.39,1.39,0,0,1-1,.34h-16.9v12.82h15.94a1.39,1.39,0,0,1,1,.34,1.46,1.46,0,0,1,0,1.92,1.39,1.39,0,0,1-1,.34H882.13v13.34H899a1.46,1.46,0,0,1,1,.31,1.17,1.17,0,0,1,.36.94,1.25,1.25,0,0,1-.36,1,1.38,1.38,0,0,1-1,.34H880.79A1.57,1.57,0,0,1,879.66,308.49Z"/><path d="M935.44,292a1.27,1.27,0,0,1,.36.94v12.72a1.73,1.73,0,0,1-1.1,1.73,20.38,20.38,0,0,1-4.78,1.44,30.76,30.76,0,0,1-5.69.53,16.91,16.91,0,0,1-8.52-2,13.36,13.36,0,0,1-5.47-6,23.78,23.78,0,0,1,0-18.55,13.66,13.66,0,0,1,5.38-6,15.91,15.91,0,0,1,8.3-2.09,18,18,0,0,1,6.29,1.08,12.17,12.17,0,0,1,4.8,3.1,1.93,1.93,0,0,1,.62,1.39,1.47,1.47,0,0,1-.29.91.87.87,0,0,1-.72.38,2.07,2.07,0,0,1-1.06-.48,17.08,17.08,0,0,0-4.7-2.93,13.93,13.93,0,0,0-4.94-.82q-6,0-9.19,3.82T911.46,292q0,7.15,3.26,10.94t9.5,3.79a27.31,27.31,0,0,0,4.73-.41,19.2,19.2,0,0,0,4.15-1.18v-11h-7.78a1.45,1.45,0,0,1-1-.34,1.33,1.33,0,0,1,0-1.82,1.46,1.46,0,0,1,1-.34h9.17A1.26,1.26,0,0,1,935.44,292Z"/><path d="M975.69,307.91a1.11,1.11,0,0,1-.43.89,1.53,1.53,0,0,1-1,.36,1.32,1.32,0,0,1-.74-.24,1.52,1.52,0,0,1-.55-.67l-3.65-8.35H950.68l-3.7,8.35a1.41,1.41,0,0,1-1.34.91,1.43,1.43,0,0,1-1-.36,1.34,1.34,0,0,1-.31-1.46l14-31.49a1.58,1.58,0,0,1,1.58-1.06,1.81,1.81,0,0,1,1,.29,1.6,1.6,0,0,1,.65.77l14,31.49A1.28,1.28,0,0,1,975.69,307.91Zm-23.9-10.61h16.37L960,278.73Z"/><path d="M984.92,308.53a1.2,1.2,0,0,1-.46-1v-31.2a1.54,1.54,0,0,1,.41-1.1,1.42,1.42,0,0,1,1.08-.43,1.44,1.44,0,0,1,1.1.41,1.58,1.58,0,0,1,.38,1.13v30h16.42a1.39,1.39,0,0,1,1,.34,1.46,1.46,0,0,1,0,1.92,1.38,1.38,0,0,1-1,.34H986A1.62,1.62,0,0,1,984.92,308.53Z"/><path d="M1227.75,307.91a1.11,1.11,0,0,1-.43.89,1.53,1.53,0,0,1-1,.36,1.32,1.32,0,0,1-.74-.24,1.53,1.53,0,0,1-.55-.67l-3.65-8.35h-18.62l-3.7,8.35a1.41,1.41,0,0,1-1.34.91,1.43,1.43,0,0,1-1-.36,1.34,1.34,0,0,1-.31-1.46l14-31.49a1.58,1.58,0,0,1,1.58-1.06,1.81,1.81,0,0,1,1,.29,1.59,1.59,0,0,1,.65.77l14,31.49A1.28,1.28,0,0,1,1227.75,307.91Zm-23.9-10.61h16.37l-8.16-18.58Z"/><path d="M1241.22,307.21a13.53,13.53,0,0,1-5.33-6,24,24,0,0,1,0-18.46,13.56,13.56,0,0,1,5.33-6,15.6,15.6,0,0,1,8.18-2.09,17.4,17.4,0,0,1,6.12,1.08,13.51,13.51,0,0,1,4.92,3.1,1.87,1.87,0,0,1,.67,1.39,1.4,1.4,0,0,1-.31.91.89.89,0,0,1-.7.38,1.9,1.9,0,0,1-1.1-.48,18.06,18.06,0,0,0-4.7-2.93,13.69,13.69,0,0,0-4.94-.82q-5.81,0-9,3.84t-3.19,10.8q0,7,3.19,10.85t9,3.84a13.67,13.67,0,0,0,4.94-.82,18.06,18.06,0,0,0,4.7-2.93,2.31,2.31,0,0,1,1.1-.48.9.9,0,0,1,.7.38,1.4,1.4,0,0,1,.31.91,1.87,1.87,0,0,1-.67,1.39,13.51,13.51,0,0,1-4.92,3.1,17.4,17.4,0,0,1-6.12,1.08A15.6,15.6,0,0,1,1241.22,307.21Z"/><path d="M1276.11,307.21a13.53,13.53,0,0,1-5.33-6,24,24,0,0,1,0-18.46,13.56,13.56,0,0,1,5.33-6,15.6,15.6,0,0,1,8.18-2.09,17.4,17.4,0,0,1,6.12,1.08,13.51,13.51,0,0,1,4.92,3.1,1.87,1.87,0,0,1,.67,1.39,1.4,1.4,0,0,1-.31.91.89.89,0,0,1-.7.38,1.9,1.9,0,0,1-1.1-.48,18.06,18.06,0,0,0-4.7-2.93,13.69,13.69,0,0,0-4.94-.82q-5.81,0-9,3.84t-3.19,10.8q0,7,3.19,10.85t9,3.84a13.67,13.67,0,0,0,4.94-.82,18.06,18.06,0,0,0,4.7-2.93,2.31,2.31,0,0,1,1.1-.48.9.9,0,0,1,.7.38,1.4,1.4,0,0,1,.31.91,1.87,1.87,0,0,1-.67,1.39,13.51,13.51,0,0,1-4.92,3.1,17.4,17.4,0,0,1-6.12,1.08A15.6,15.6,0,0,1,1276.11,307.21Z"/><path d="M1310.89,307.21a13.53,13.53,0,0,1-5.23-6,24.19,24.19,0,0,1,0-18.43,13.58,13.58,0,0,1,5.21-6,16.57,16.57,0,0,1,16.1,0,13.56,13.56,0,0,1,5.23,6,24.25,24.25,0,0,1,0,18.46,13.53,13.53,0,0,1-5.23,6,16.52,16.52,0,0,1-16.08,0Zm16.9-4.39Q1331,299,1331,292t-3.14-10.82q-3.14-3.82-8.9-3.82a10.8,10.8,0,0,0-8.86,3.84q-3.14,3.84-3.14,10.8T1310,302.8a12.13,12.13,0,0,0,17.74,0Z"/><path d="M1347.44,305.89q-3.34-3.41-3.34-10V276.37a1.52,1.52,0,0,1,.41-1.13,1.63,1.63,0,0,1,2.16,0,1.53,1.53,0,0,1,.41,1.13V296.2q0,10.46,10.18,10.46,5,0,7.61-2.64t2.57-7.82V276.37a1.54,1.54,0,0,1,.41-1.1,1.42,1.42,0,0,1,1.08-.43,1.38,1.38,0,0,1,1.06.41,1.58,1.58,0,0,1,.38,1.13v19.49q0,6.62-3.34,10t-9.77,3.41Q1350.78,309.3,1347.44,305.89Z"/><path d="M1408,275.25a1.65,1.65,0,0,1,.36,1.13v31.25a1.6,1.6,0,0,1-.38,1.1,1.34,1.34,0,0,1-1.06.43,1.65,1.65,0,0,1-1.3-.72l-21-28.37v27.55a1.6,1.6,0,0,1-.38,1.1,1.48,1.48,0,0,1-2.06,0,1.72,1.72,0,0,1-.34-1.13V276.37a1.54,1.54,0,0,1,.41-1.1,1.48,1.48,0,0,1,1.13-.43,1.45,1.45,0,0,1,1.25.72l21,28.32v-27.5a1.6,1.6,0,0,1,.38-1.1,1.28,1.28,0,0,1,1-.43A1.3,1.3,0,0,1,1408,275.25Z"/><path d="M1428.68,308.73a1.6,1.6,0,0,1-.38-1.1v-30h-11.09a1.38,1.38,0,0,1-1-.34,1.46,1.46,0,0,1,0-1.92,1.39,1.39,0,0,1,1-.34h25.06a1.35,1.35,0,0,1,1,.36,1.33,1.33,0,0,1,0,1.87,1.35,1.35,0,0,1-1,.36h-11v30a1.54,1.54,0,0,1-.41,1.1,1.42,1.42,0,0,1-1.08.43A1.34,1.34,0,0,1,1428.68,308.73Z"/><path d="M1451.55,308.73a1.54,1.54,0,0,1-.41-1.1V276.37a1.54,1.54,0,0,1,.41-1.1,1.57,1.57,0,0,1,2.16,0,1.55,1.55,0,0,1,.41,1.1v31.25a1.54,1.54,0,0,1-.41,1.1,1.56,1.56,0,0,1-2.16,0Z"/><path d="M1491.92,275.25a1.65,1.65,0,0,1,.36,1.13v31.25a1.6,1.6,0,0,1-.38,1.1,1.34,1.34,0,0,1-1.06.43,1.65,1.65,0,0,1-1.3-.72l-21-28.37v27.55a1.6,1.6,0,0,1-.38,1.1,1.48,1.48,0,0,1-2.06,0,1.72,1.72,0,0,1-.34-1.13V276.37a1.54,1.54,0,0,1,.41-1.1,1.48,1.48,0,0,1,1.13-.43,1.45,1.45,0,0,1,1.25.72l21,28.32v-27.5a1.6,1.6,0,0,1,.38-1.1,1.28,1.28,0,0,1,1-.43A1.3,1.3,0,0,1,1491.92,275.25Z"/><path d="M1529.69,292a1.26,1.26,0,0,1,.36.94v12.72a1.73,1.73,0,0,1-1.1,1.73,20.38,20.38,0,0,1-4.78,1.44,30.75,30.75,0,0,1-5.69.53,16.91,16.91,0,0,1-8.52-2,13.35,13.35,0,0,1-5.47-6,23.78,23.78,0,0,1,0-18.55,13.66,13.66,0,0,1,5.38-6,15.92,15.92,0,0,1,8.3-2.09,18,18,0,0,1,6.29,1.08,12.17,12.17,0,0,1,4.8,3.1,1.93,1.93,0,0,1,.62,1.39,1.47,1.47,0,0,1-.29.91.87.87,0,0,1-.72.38,2.07,2.07,0,0,1-1.06-.48,17.08,17.08,0,0,0-4.7-2.93,13.93,13.93,0,0,0-4.94-.82q-6,0-9.19,3.82T1505.72,292q0,7.15,3.26,10.94t9.5,3.79a27.3,27.3,0,0,0,4.73-.41,19.21,19.21,0,0,0,4.15-1.18v-11h-7.78a1.45,1.45,0,0,1-1-.34,1.33,1.33,0,0,1,0-1.82,1.46,1.46,0,0,1,1-.34h9.17A1.26,1.26,0,0,1,1529.69,292Z"/><circle class="cls-6" cx="120.07" cy="96.19" r="94.69"/><path class="cls-3" d="M120.07,192.37a96.19,96.19,0,1,1,96.19-96.19A96.3,96.3,0,0,1,120.07,192.37ZM120.07,3a93.19,93.19,0,1,0,93.19,93.19A93.29,93.29,0,0,0,120.07,3Z"/><circle class="cls-6" cx="525.98" cy="96.19" r="94.69"/><path class="cls-4" d="M526,192.37a96.19,96.19,0,1,1,96.19-96.19A96.3,96.3,0,0,1,526,192.37ZM526,3a93.19,93.19,0,1,0,93.19,93.19A93.29,93.29,0,0,0,526,3Z"/><circle class="cls-6" cx="927.47" cy="96.19" r="94.69"/><path class="cls-1" d="M927.47,192.37a96.19,96.19,0,1,1,96.19-96.19A96.3,96.3,0,0,1,927.47,192.37ZM927.47,3a93.19,93.19,0,1,0,93.19,93.19A93.29,93.29,0,0,0,927.47,3Z"/><circle class="cls-6" cx="1365.82" cy="96.19" r="94.69"/><path class="cls-2" d="M1365.82,192.37A96.19,96.19,0,1,1,1462,96.19,96.3,96.3,0,0,1,1365.82,192.37Zm0-189.37A93.19,93.19,0,1,0,1459,96.19,93.29,93.29,0,0,0,1365.82,3Z"/><path class="cls-3" d="M170,95.58c-.36-2.16.61-4.74-2.39-6-14.06-6.13-28-12.43-42.1-18.54a39.16,39.16,0,0,0-17.24-3.18C95.16,68.27,77,86,75,98.18c-1.18,7.24.68,13.31,6.48,18C93,125.43,106.63,124.65,117,114a3.59,3.59,0,0,1,4.44-1c6.35,2.17,12.77,4.13,19.15,6.2a6.78,6.78,0,0,0,6.86-1.22c6.5-5.25,13-10.47,19.64-15.58C169.42,100.59,170.59,98.53,170,95.58Zm-58.53-8.85c4-3.4,8.06-6.76,12-10.21,1.09-1,2-1.29,3.33-.52,1.73,1,3.59,1.71,5.85,2.76-5.94,5-11.51,9.77-17.16,14.44a2.55,2.55,0,0,1-2.15.24c-2-.78-3.94-1.77-6.33-2.88C108.64,89.14,110,87.92,111.45,86.73Zm29.87,29.82c-7-2.42-13.94-4.67-20.73-7.18-2-.75-3.22-.46-4.65,1.11-4.67,5.15-10.38,8.56-17.44,9.07a20,20,0,0,1-17.15-7.25,13.84,13.84,0,0,1-1.13-16.5c3.21-4.87,10.33-7.07,16.85-5a59,59,0,0,1,6.81,2.74c11,5,21.95,10,32.93,15C141.61,110.7,141.63,110.66,141.32,116.54Zm22.62-15.09c-4.82,3.55-9.46,7.33-14.18,11-.76.59-1.56,1.14-2.52,1.84-.65-2.76-.29-4.57,2.06-6.23,5.54-3.91,10.85-8.15,16.48-12.44C166.79,98.35,166,99.95,163.93,101.45Z"/><rect class="cls-4" x="488.1" y="56.03" width="80.32" height="80.32" rx="40.16" ry="40.16"/><polygon class="cls-6" points="550.35 78.93 550.35 80.38 554.83 80.38 521.75 111.38 510.8 93.98 468.37 127.06 468.98 128.31 510.48 95.88 521.47 113.36 555.83 81.33 555.83 86.03 557.05 86.03 557.05 78.93 550.35 78.93"/><path class="cls-6" d="M468.8,129.09l-1.06-2.18,43.19-33.67,10.92,17.36,31.71-29.72h-3.71V78.43h7.7v8.1h-2.22v-4l-34,31.65-11-17.51Zm.19-1.89.16.34,41.44-32.39,11,17.43,34.76-32.4v5.35h.22v-6.1h-5.7v.45h5.24l-34.44,32.28-11-17.45Z"/><rect class="cls-2" x="1339.22" y="61.3" width="53.2" height="69.77" rx="7.79" ry="7.79"/><path class="cls-6" d="M1348.29,66.55h35.64a4.52,4.52,0,0,1,4.52,4.52v7.85a0,0,0,0,1,0,0h-44.68a0,0,0,0,1,0,0V71.08A4.52,4.52,0,0,1,1348.29,66.55Z"/><path class="cls-2" d="M1390,80.42h-47.68V71.08a6,6,0,0,1,6-6h35.64a6,6,0,0,1,6,6Zm-44.68-3H1387V71.08a3,3,0,0,0-3-3h-35.64a3,3,0,0,0-3,3Z"/><rect class="cls-6" x="1343.77" y="84.87" width="22.34" height="12.37"/><path class="cls-2" d="M1367.61,98.74h-25.34V83.37h25.34Zm-22.34-3h19.34V86.37h-19.34Z"/><rect class="cls-6" x="1366.11" y="84.87" width="22.34" height="12.37"/><path class="cls-2" d="M1390,98.74h-25.34V83.37H1390Zm-22.34-3H1387V86.37h-19.34Z"/><rect class="cls-6" x="1343.77" y="99.45" width="22.34" height="12.37"/><path class="cls-2" d="M1367.61,113.32h-25.34V98h25.34Zm-22.34-3h19.34V101h-19.34Z"/><rect class="cls-6" x="1366.11" y="99.45" width="22.34" height="12.37"/><path class="cls-2" d="M1390,113.32h-25.34V98H1390Zm-22.34-3H1387V101h-19.34Z"/><path class="cls-6" d="M1343.77,114h22.34a0,0,0,0,1,0,0V126.4a0,0,0,0,1,0,0h-16.84a5.5,5.5,0,0,1-5.5-5.5V114A0,0,0,0,1,1343.77,114Z"/><path class="cls-2" d="M1367.61,127.9h-18.34a7,7,0,0,1-7-7v-8.37h25.34Zm-22.34-12.37v5.37a4,4,0,0,0,4,4h15.34v-9.37Z"/><path class="cls-6" d="M1366.11,114h22.34a0,0,0,0,1,0,0v6.87a5.5,5.5,0,0,1-5.5,5.5h-16.84a0,0,0,0,1,0,0V114A0,0,0,0,1,1366.11,114Z"/><path class="cls-2" d="M1383,127.9h-18.34V112.54H1390v8.37A7,7,0,0,1,1383,127.9Zm-15.34-3H1383a4,4,0,0,0,4-4v-5.37h-19.34Z"/><rect class="cls-1" x="885.67" y="90.06" width="50.84" height="5.14" transform="translate(13.89 276.2) rotate(-17.37)"/><rect class="cls-1" x="927.11" y="67.35" width="18.35" height="34.79" rx="3.93" ry="3.93" transform="translate(17.39 283.37) rotate(-17.37)"/><rect class="cls-1" x="922.3" y="120.92" width="32.58" height="7.05"/><rect class="cls-1" x="926.11" y="118" width="24.96" height="5.4"/></g></g></g></svg>