<svg xmlns="http://www.w3.org/2000/svg" viewBox="0 0 681.4 1158.87"><defs><style>.cls-1{fill:none;stroke:#1f2c35;}.cls-1,.cls-10,.cls-2,.cls-3,.cls-4,.cls-5{stroke-miterlimit:10;}.cls-1,.cls-2,.cls-3,.cls-4,.cls-5{stroke-width:3px;}.cls-10,.cls-2,.cls-3,.cls-4,.cls-5,.cls-7{fill:#fff;}.cls-2{stroke:#873871;}.cls-3{stroke:#36b3a8;}.cls-4{stroke:#ec6726;}.cls-5{stroke:#039be5;}.cls-6{fill:#1f2c35;}.cls-8{fill:#873871;}.cls-9{fill:#36b3a8;}.cls-10{stroke:#fff;}.cls-11{fill:#039be5;}.cls-12{fill:#ec6726;}</style></defs><title>resources_info_2</title><g id="Layer_2" data-name="Layer 2"><g id="Mobile"><g id="Resources"><line class="cls-1" x1="102.05" y1="144.02" x2="102.05" y2="948.87"/><path d="M235.95,85.21a13.53,13.53,0,0,1-5.33-6A21.44,21.44,0,0,1,228.77,70a21.28,21.28,0,0,1,1.85-9.22,13.56,13.56,0,0,1,5.33-6,15.6,15.6,0,0,1,8.18-2.09,17.4,17.4,0,0,1,6.12,1.08,13.51,13.51,0,0,1,4.92,3.1,1.87,1.87,0,0,1,.67,1.39,1.4,1.4,0,0,1-.31.91.89.89,0,0,1-.7.38,1.9,1.9,0,0,1-1.1-.48,18.06,18.06,0,0,0-4.7-2.93,13.69,13.69,0,0,0-4.94-.82q-5.81,0-9,3.84T231.89,70q0,7,3.19,10.85t9,3.84a13.67,13.67,0,0,0,4.94-.82,18.06,18.06,0,0,0,4.7-2.93,2.31,2.31,0,0,1,1.1-.48.9.9,0,0,1,.7.38,1.4,1.4,0,0,1,.31.91,1.87,1.87,0,0,1-.67,1.39,13.51,13.51,0,0,1-4.92,3.1,17.4,17.4,0,0,1-6.12,1.08A15.6,15.6,0,0,1,235.95,85.21Z"/><path d="M270.73,85.21a13.53,13.53,0,0,1-5.23-6A21.56,21.56,0,0,1,263.67,70a21.68,21.68,0,0,1,1.82-9.24,13.58,13.58,0,0,1,5.21-6,16.57,16.57,0,0,1,16.1,0,13.56,13.56,0,0,1,5.23,6A21.53,21.53,0,0,1,293.86,70,21.69,21.69,0,0,1,292,79.21a13.53,13.53,0,0,1-5.23,6,16.52,16.52,0,0,1-16.08,0Zm16.9-4.39Q290.79,77,290.79,70t-3.14-10.82q-3.14-3.82-8.9-3.82a10.8,10.8,0,0,0-8.86,3.84Q266.74,63,266.74,70t3.14,10.82a12.13,12.13,0,0,0,17.74,0Z"/><path d="M332.12,85.91a1.11,1.11,0,0,1-.43.89,1.53,1.53,0,0,1-1,.36,1.32,1.32,0,0,1-.74-.24,1.53,1.53,0,0,1-.55-.67l-3.65-8.35H307.11l-3.7,8.35a1.41,1.41,0,0,1-1.34.91,1.43,1.43,0,0,1-1-.36,1.34,1.34,0,0,1-.31-1.46l14-31.49a1.58,1.58,0,0,1,1.58-1.06,1.81,1.81,0,0,1,1,.29,1.59,1.59,0,0,1,.65.77l14,31.49A1.28,1.28,0,0,1,332.12,85.91ZM308.21,75.3h16.37l-8.16-18.58Z"/><path d="M345.58,85.21a13.53,13.53,0,0,1-5.33-6A21.44,21.44,0,0,1,338.4,70a21.28,21.28,0,0,1,1.85-9.22,13.56,13.56,0,0,1,5.33-6,15.6,15.6,0,0,1,8.18-2.09,17.4,17.4,0,0,1,6.12,1.08,13.51,13.51,0,0,1,4.92,3.1,1.87,1.87,0,0,1,.67,1.39,1.4,1.4,0,0,1-.31.91.89.89,0,0,1-.7.38,1.9,1.9,0,0,1-1.1-.48,18.06,18.06,0,0,0-4.7-2.93,13.69,13.69,0,0,0-4.94-.82q-5.81,0-9,3.84T341.52,70q0,7,3.19,10.85t9,3.84a13.67,13.67,0,0,0,4.94-.82,18.06,18.06,0,0,0,4.7-2.93,2.31,2.31,0,0,1,1.1-.48.9.9,0,0,1,.7.38,1.4,1.4,0,0,1,.31.91,1.87,1.87,0,0,1-.67,1.39,13.51,13.51,0,0,1-4.92,3.1,17.4,17.4,0,0,1-6.12,1.08A15.6,15.6,0,0,1,345.58,85.21Z"/><path d="M402.15,53.25a1.58,1.58,0,0,1,.38,1.13V85.62a1.58,1.58,0,0,1-.38,1.13,1.45,1.45,0,0,1-1.1.41,1.34,1.34,0,0,1-1.06-.43,1.6,1.6,0,0,1-.38-1.1V71H378V85.62a1.6,1.6,0,0,1-.38,1.1,1.34,1.34,0,0,1-1.06.43,1.42,1.42,0,0,1-1.08-.43,1.54,1.54,0,0,1-.41-1.1V54.37a1.54,1.54,0,0,1,.41-1.1,1.42,1.42,0,0,1,1.08-.43,1.34,1.34,0,0,1,1.06.43,1.6,1.6,0,0,1,.38,1.1V68.44h21.6V54.37a1.6,1.6,0,0,1,.38-1.1,1.34,1.34,0,0,1,1.06-.43A1.45,1.45,0,0,1,402.15,53.25Z"/><path d="M414.6,86.49a1.4,1.4,0,0,1-.46-1.06V54.57a1.4,1.4,0,0,1,.46-1.06,1.57,1.57,0,0,1,1.13-.43H434a1.39,1.39,0,0,1,1,.34,1.25,1.25,0,0,1,.36,1,1.19,1.19,0,0,1-.36.91,1.39,1.39,0,0,1-1,.34h-16.9V68.44H433a1.39,1.39,0,0,1,1,.34,1.46,1.46,0,0,1,0,1.92,1.39,1.39,0,0,1-1,.34H417.08V84.37H434a1.46,1.46,0,0,1,1,.31,1.17,1.17,0,0,1,.36.94,1.25,1.25,0,0,1-.36,1,1.38,1.38,0,0,1-1,.34H415.73A1.57,1.57,0,0,1,414.6,86.49Z"/><path d="M447.92,86.17a12.91,12.91,0,0,1-5.16-3,1.73,1.73,0,0,1-.62-1.39,1.4,1.4,0,0,1,.31-.91.89.89,0,0,1,.7-.38,1.92,1.92,0,0,1,1.1.48,16,16,0,0,0,10.51,3.74,11.21,11.21,0,0,0,6.74-1.75,5.81,5.81,0,0,0,2.38-5,4.09,4.09,0,0,0-1.15-3,7.9,7.9,0,0,0-2.93-1.8A40.24,40.24,0,0,0,455,71.8,47.57,47.57,0,0,1,448.68,70a10.39,10.39,0,0,1-4.1-2.76,7.1,7.1,0,0,1-1.68-5,8.6,8.6,0,0,1,1.51-5,9.81,9.81,0,0,1,4.25-3.38,15.54,15.54,0,0,1,6.29-1.2,17.87,17.87,0,0,1,6.24,1.08,12.59,12.59,0,0,1,4.85,3.1,1.93,1.93,0,0,1,.62,1.39,1.4,1.4,0,0,1-.31.91.89.89,0,0,1-.7.38,1.9,1.9,0,0,1-1.1-.48,18.24,18.24,0,0,0-4.68-2.93,13.49,13.49,0,0,0-4.92-.82,10.81,10.81,0,0,0-6.67,1.82,6,6,0,0,0-2.4,5.09,4.71,4.71,0,0,0,1.06,3.19,7.33,7.33,0,0,0,2.76,1.94,30.58,30.58,0,0,0,4.39,1.39l1.25.29q3.89,1,6.14,1.78a9.45,9.45,0,0,1,3.82,2.52,6.53,6.53,0,0,1,1.56,4.58,8.23,8.23,0,0,1-1.51,4.87,9.78,9.78,0,0,1-4.27,3.31,16,16,0,0,1-6.31,1.18A20.93,20.93,0,0,1,447.92,86.17Z"/><circle class="cls-2" cx="102.64" cy="73.06" r="71.56"/><circle class="cls-3" cx="100.26" cy="275.8" r="71.56"/><circle class="cls-4" cx="102.64" cy="478.55" r="71.56"/><circle class="cls-5" cx="102.64" cy="681.3" r="71.56"/><path d="M261.25,256a1.55,1.55,0,0,1,.41,1.1v31.25a1.6,1.6,0,0,1-.38,1.1,1.34,1.34,0,0,1-1.06.43,1.23,1.23,0,0,1-1-.41,1.72,1.72,0,0,1-.34-1.13V261.73l-11.38,22a1.69,1.69,0,0,1-3.17,0l-11.47-21.79v26.45a1.73,1.73,0,0,1-.34,1.13,1.23,1.23,0,0,1-1,.41,1.37,1.37,0,0,1-1.08-.41,1.65,1.65,0,0,1-.36-1.13V257.12a1.54,1.54,0,0,1,.41-1.1,1.48,1.48,0,0,1,1.13-.43q.86,0,1.44,1.1L246,281.46l12.72-24.77q.58-1.1,1.44-1.1A1.48,1.48,0,0,1,261.25,256Z"/><path d="M301.93,288.66a1.11,1.11,0,0,1-.43.89,1.53,1.53,0,0,1-1,.36,1.32,1.32,0,0,1-.74-.24,1.53,1.53,0,0,1-.55-.67l-3.65-8.35H276.92l-3.7,8.35a1.41,1.41,0,0,1-1.34.91,1.43,1.43,0,0,1-1-.36,1.34,1.34,0,0,1-.31-1.46l14-31.49a1.58,1.58,0,0,1,1.58-1.06,1.81,1.81,0,0,1,1,.29,1.59,1.59,0,0,1,.65.77l14,31.49A1.28,1.28,0,0,1,301.93,288.66ZM278,278h16.37l-8.16-18.58Z"/><path d="M336.29,288.7a1.14,1.14,0,0,1-.41.89,1.37,1.37,0,0,1-.94.36,1.47,1.47,0,0,1-1.3-.77l-6.48-10.37a8.62,8.62,0,0,0-2.86-3,8.39,8.39,0,0,0-4.06-.82h-6.58v13.39a1.53,1.53,0,0,1-.41,1.13,1.63,1.63,0,0,1-2.16,0,1.52,1.52,0,0,1-.41-1.13V257.31a1.4,1.4,0,0,1,.46-1.06,1.57,1.57,0,0,1,1.13-.43h12q5.33,0,8.21,2.42t2.88,7.08a8.66,8.66,0,0,1-2.45,6.48,10.85,10.85,0,0,1-6.91,2.78,5.81,5.81,0,0,1,2.11,1.27,12.59,12.59,0,0,1,2,2.47l6,9.55A1.49,1.49,0,0,1,336.29,288.7Zm-12.24-16.27q8.35,0,8.35-7.15a6.37,6.37,0,0,0-2.06-5.21q-2.06-1.7-6.29-1.7H313.64v14.06Z"/><path d="M370.37,288.51a1.4,1.4,0,0,1-1.34,1.34,1.49,1.49,0,0,1-.91-.38l-18.82-16v14.88a1.54,1.54,0,0,1-.41,1.1,1.56,1.56,0,0,1-2.16,0,1.54,1.54,0,0,1-.41-1.1V257.12a1.54,1.54,0,0,1,.41-1.1,1.57,1.57,0,0,1,2.16,0,1.55,1.55,0,0,1,.41,1.1v14.45L367.16,256a1.25,1.25,0,0,1,.91-.38,1.37,1.37,0,0,1,1,.41,1.26,1.26,0,0,1,.43.94,1.41,1.41,0,0,1-.53,1.06l-16.7,14.35,17.62,15.07A1.41,1.41,0,0,1,370.37,288.51Z"/><path d="M379.08,289.23a1.4,1.4,0,0,1-.46-1.06V257.31a1.4,1.4,0,0,1,.46-1.06,1.57,1.57,0,0,1,1.13-.43h18.24a1.39,1.39,0,0,1,1,.34,1.25,1.25,0,0,1,.36,1,1.19,1.19,0,0,1-.36.91,1.39,1.39,0,0,1-1,.34h-16.9v12.82h15.94a1.39,1.39,0,0,1,1,.34,1.46,1.46,0,0,1,0,1.92,1.39,1.39,0,0,1-1,.34H381.56v13.34h16.9a1.46,1.46,0,0,1,1,.31,1.17,1.17,0,0,1,.36.94,1.25,1.25,0,0,1-.36,1,1.38,1.38,0,0,1-1,.34H380.21A1.57,1.57,0,0,1,379.08,289.23Z"/><path d="M417.17,289.47a1.6,1.6,0,0,1-.38-1.1v-30H405.7a1.38,1.38,0,0,1-1-.34,1.46,1.46,0,0,1,0-1.92,1.39,1.39,0,0,1,1-.34h25.06a1.35,1.35,0,0,1,1,.36,1.33,1.33,0,0,1,0,1.87,1.35,1.35,0,0,1-1,.36h-11v30a1.54,1.54,0,0,1-.41,1.1,1.42,1.42,0,0,1-1.08.43A1.34,1.34,0,0,1,417.17,289.47Z"/><path d="M440,289.47a1.54,1.54,0,0,1-.41-1.1V257.12A1.54,1.54,0,0,1,440,256a1.57,1.57,0,0,1,2.16,0,1.55,1.55,0,0,1,.41,1.1v31.25a1.54,1.54,0,0,1-.41,1.1,1.56,1.56,0,0,1-2.16,0Z"/><path d="M480.41,256a1.65,1.65,0,0,1,.36,1.13v31.25a1.6,1.6,0,0,1-.38,1.1,1.34,1.34,0,0,1-1.06.43,1.65,1.65,0,0,1-1.3-.72l-21-28.37v27.55a1.6,1.6,0,0,1-.38,1.1,1.48,1.48,0,0,1-2.06,0,1.72,1.72,0,0,1-.34-1.13V257.12a1.54,1.54,0,0,1,.41-1.1,1.48,1.48,0,0,1,1.13-.43,1.45,1.45,0,0,1,1.25.72l21,28.32v-27.5a1.6,1.6,0,0,1,.38-1.1,1.28,1.28,0,0,1,1-.43A1.3,1.3,0,0,1,480.41,256Z"/><path d="M518.19,272.7a1.26,1.26,0,0,1,.36.94v12.72a1.73,1.73,0,0,1-1.1,1.73,20.38,20.38,0,0,1-4.78,1.44A30.75,30.75,0,0,1,507,290a16.91,16.91,0,0,1-8.52-2,13.35,13.35,0,0,1-5.47-6,23.78,23.78,0,0,1,0-18.55,13.66,13.66,0,0,1,5.38-6,15.92,15.92,0,0,1,8.3-2.09,18,18,0,0,1,6.29,1.08,12.17,12.17,0,0,1,4.8,3.1,1.93,1.93,0,0,1,.62,1.39,1.47,1.47,0,0,1-.29.91.87.87,0,0,1-.72.38,2.07,2.07,0,0,1-1.06-.48,17.08,17.08,0,0,0-4.7-2.93,13.93,13.93,0,0,0-4.94-.82q-6,0-9.19,3.82t-3.24,10.82q0,7.15,3.26,10.94t9.5,3.79a27.3,27.3,0,0,0,4.73-.41,19.21,19.21,0,0,0,4.15-1.18v-11h-7.78a1.45,1.45,0,0,1-1-.34,1.33,1.33,0,0,1,0-1.82,1.46,1.46,0,0,1,1-.34h9.17A1.26,1.26,0,0,1,518.19,272.7Z"/><path d="M230.53,492a1.2,1.2,0,0,1-.46-1v-31.2a1.54,1.54,0,0,1,.41-1.1,1.42,1.42,0,0,1,1.08-.43,1.45,1.45,0,0,1,1.1.41,1.58,1.58,0,0,1,.38,1.13v30h16.42a1.39,1.39,0,0,1,1,.34,1.46,1.46,0,0,1,0,1.92,1.38,1.38,0,0,1-1,.34H231.61A1.62,1.62,0,0,1,230.53,492Z"/><path d="M259,492a1.4,1.4,0,0,1-.46-1.06V460.06A1.4,1.4,0,0,1,259,459a1.57,1.57,0,0,1,1.13-.43h18.24a1.39,1.39,0,0,1,1,.34,1.25,1.25,0,0,1,.36,1,1.19,1.19,0,0,1-.36.91,1.39,1.39,0,0,1-1,.34h-16.9v12.82H277.4a1.39,1.39,0,0,1,1,.34,1.46,1.46,0,0,1,0,1.92,1.39,1.39,0,0,1-1,.34H261.46v13.34h16.9a1.46,1.46,0,0,1,1,.31,1.17,1.17,0,0,1,.36.94,1.25,1.25,0,0,1-.36,1,1.38,1.38,0,0,1-1,.34H260.12A1.57,1.57,0,0,1,259,492Z"/><path d="M314.77,475.44a1.26,1.26,0,0,1,.36.94V489.1a1.73,1.73,0,0,1-1.1,1.73,20.38,20.38,0,0,1-4.78,1.44,30.75,30.75,0,0,1-5.69.53,16.91,16.91,0,0,1-8.52-2,13.35,13.35,0,0,1-5.47-6,23.78,23.78,0,0,1,0-18.55,13.66,13.66,0,0,1,5.38-6,15.92,15.92,0,0,1,8.3-2.09,18,18,0,0,1,6.29,1.08,12.17,12.17,0,0,1,4.8,3.1,1.93,1.93,0,0,1,.62,1.39,1.47,1.47,0,0,1-.29.91.87.87,0,0,1-.72.38,2.07,2.07,0,0,1-1.06-.48,17.08,17.08,0,0,0-4.7-2.93,13.93,13.93,0,0,0-4.94-.82q-6,0-9.19,3.82t-3.24,10.82q0,7.15,3.26,10.94t9.5,3.79a27.3,27.3,0,0,0,4.73-.41,19.21,19.21,0,0,0,4.15-1.18v-11h-7.78a1.45,1.45,0,0,1-1-.34,1.33,1.33,0,0,1,0-1.82,1.46,1.46,0,0,1,1-.34h9.17A1.26,1.26,0,0,1,314.77,475.44Z"/><path d="M355,491.4a1.11,1.11,0,0,1-.43.89,1.53,1.53,0,0,1-1,.36,1.32,1.32,0,0,1-.74-.24,1.53,1.53,0,0,1-.55-.67l-3.65-8.35H330l-3.7,8.35a1.41,1.41,0,0,1-1.34.91,1.43,1.43,0,0,1-1-.36,1.34,1.34,0,0,1-.31-1.46l14-31.49a1.58,1.58,0,0,1,1.58-1.06,1.81,1.81,0,0,1,1,.29,1.59,1.59,0,0,1,.65.77l14,31.49A1.28,1.28,0,0,1,355,491.4Zm-23.9-10.61h16.37l-8.16-18.58Z"/><path d="M364.25,492a1.2,1.2,0,0,1-.46-1v-31.2a1.54,1.54,0,0,1,.41-1.1,1.42,1.42,0,0,1,1.08-.43,1.45,1.45,0,0,1,1.1.41,1.58,1.58,0,0,1,.38,1.13v30h16.42a1.39,1.39,0,0,1,1,.34,1.46,1.46,0,0,1,0,1.92,1.38,1.38,0,0,1-1,.34H365.33A1.62,1.62,0,0,1,364.25,492Z"/><path d="M258.73,694.15a1.11,1.11,0,0,1-.43.89,1.53,1.53,0,0,1-1,.36,1.32,1.32,0,0,1-.74-.24,1.53,1.53,0,0,1-.55-.67l-3.65-8.35H233.72l-3.7,8.35a1.41,1.41,0,0,1-1.34.91,1.43,1.43,0,0,1-1-.36,1.34,1.34,0,0,1-.31-1.46l14-31.49A1.58,1.58,0,0,1,243,661a1.81,1.81,0,0,1,1,.29,1.59,1.59,0,0,1,.65.77l14,31.49A1.28,1.28,0,0,1,258.73,694.15Zm-23.9-10.61h16.37L243,665Z"/><path d="M272.19,693.45a13.53,13.53,0,0,1-5.33-6,24,24,0,0,1,0-18.46,13.56,13.56,0,0,1,5.33-6,15.6,15.6,0,0,1,8.18-2.09,17.4,17.4,0,0,1,6.12,1.08,13.51,13.51,0,0,1,4.92,3.1,1.87,1.87,0,0,1,.67,1.39,1.4,1.4,0,0,1-.31.91.89.89,0,0,1-.7.38,1.9,1.9,0,0,1-1.1-.48,18.06,18.06,0,0,0-4.7-2.93,13.69,13.69,0,0,0-4.94-.82q-5.81,0-9,3.84t-3.19,10.8q0,7,3.19,10.85t9,3.84a13.67,13.67,0,0,0,4.94-.82,18.06,18.06,0,0,0,4.7-2.93,2.31,2.31,0,0,1,1.1-.48.9.9,0,0,1,.7.38,1.4,1.4,0,0,1,.31.91,1.87,1.87,0,0,1-.67,1.39,13.51,13.51,0,0,1-4.92,3.1,17.4,17.4,0,0,1-6.12,1.08A15.6,15.6,0,0,1,272.19,693.45Z"/><path d="M307.09,693.45a13.53,13.53,0,0,1-5.33-6,24,24,0,0,1,0-18.46,13.56,13.56,0,0,1,5.33-6,15.6,15.6,0,0,1,8.18-2.09,17.4,17.4,0,0,1,6.12,1.08,13.51,13.51,0,0,1,4.92,3.1,1.87,1.87,0,0,1,.67,1.39,1.4,1.4,0,0,1-.31.91.89.89,0,0,1-.7.38,1.9,1.9,0,0,1-1.1-.48,18.06,18.06,0,0,0-4.7-2.93,13.69,13.69,0,0,0-4.94-.82q-5.81,0-9,3.84T303,678.21q0,7,3.19,10.85t9,3.84a13.67,13.67,0,0,0,4.94-.82,18.06,18.06,0,0,0,4.7-2.93,2.31,2.31,0,0,1,1.1-.48.9.9,0,0,1,.7.38,1.4,1.4,0,0,1,.31.91,1.87,1.87,0,0,1-.67,1.39,13.51,13.51,0,0,1-4.92,3.1,17.4,17.4,0,0,1-6.12,1.08A15.6,15.6,0,0,1,307.09,693.45Z"/><path d="M341.86,693.45a13.53,13.53,0,0,1-5.23-6,24.19,24.19,0,0,1,0-18.43,13.58,13.58,0,0,1,5.21-6,16.57,16.57,0,0,1,16.1,0,13.56,13.56,0,0,1,5.23,6,24.25,24.25,0,0,1,0,18.46,13.53,13.53,0,0,1-5.23,6,16.52,16.52,0,0,1-16.08,0Zm16.9-4.39q3.17-3.84,3.17-10.85t-3.14-10.82q-3.14-3.82-8.9-3.82a10.8,10.8,0,0,0-8.86,3.84q-3.14,3.84-3.14,10.8T341,689a12.13,12.13,0,0,0,17.74,0Z"/><path d="M378.41,692.13q-3.34-3.41-3.34-10V662.61a1.52,1.52,0,0,1,.41-1.13,1.63,1.63,0,0,1,2.16,0,1.53,1.53,0,0,1,.41,1.13v19.82q0,10.46,10.18,10.46,5,0,7.61-2.64t2.57-7.82V662.61a1.54,1.54,0,0,1,.41-1.1,1.42,1.42,0,0,1,1.08-.43,1.38,1.38,0,0,1,1.06.41,1.58,1.58,0,0,1,.38,1.13V682.1q0,6.62-3.34,10t-9.77,3.41Q381.75,695.54,378.41,692.13Z"/><path d="M438.94,661.48a1.65,1.65,0,0,1,.36,1.13v31.25a1.6,1.6,0,0,1-.38,1.1,1.34,1.34,0,0,1-1.06.43,1.65,1.65,0,0,1-1.3-.72l-21-28.37v27.55a1.6,1.6,0,0,1-.38,1.1,1.48,1.48,0,0,1-2.06,0,1.72,1.72,0,0,1-.34-1.13V662.61a1.54,1.54,0,0,1,.41-1.1,1.48,1.48,0,0,1,1.13-.43,1.45,1.45,0,0,1,1.25.72l21,28.32v-27.5a1.6,1.6,0,0,1,.38-1.1,1.28,1.28,0,0,1,1-.43A1.3,1.3,0,0,1,438.94,661.48Z"/><path d="M459.65,695a1.6,1.6,0,0,1-.38-1.1v-30H448.18a1.38,1.38,0,0,1-1-.34,1.46,1.46,0,0,1,0-1.92,1.39,1.39,0,0,1,1-.34h25.06a1.35,1.35,0,0,1,1,.36,1.33,1.33,0,0,1,0,1.87,1.35,1.35,0,0,1-1,.36h-11v30a1.54,1.54,0,0,1-.41,1.1,1.42,1.42,0,0,1-1.08.43A1.34,1.34,0,0,1,459.65,695Z"/><path d="M482.52,695a1.54,1.54,0,0,1-.41-1.1V662.61a1.54,1.54,0,0,1,.41-1.1,1.57,1.57,0,0,1,2.16,0,1.55,1.55,0,0,1,.41,1.1v31.25a1.54,1.54,0,0,1-.41,1.1,1.56,1.56,0,0,1-2.16,0Z"/><path d="M522.89,661.48a1.65,1.65,0,0,1,.36,1.13v31.25a1.6,1.6,0,0,1-.38,1.1,1.34,1.34,0,0,1-1.06.43,1.65,1.65,0,0,1-1.3-.72l-21-28.37v27.55a1.6,1.6,0,0,1-.38,1.1,1.48,1.48,0,0,1-2.06,0,1.72,1.72,0,0,1-.34-1.13V662.61a1.54,1.54,0,0,1,.41-1.1,1.48,1.48,0,0,1,1.13-.43,1.45,1.45,0,0,1,1.25.72l21,28.32v-27.5a1.6,1.6,0,0,1,.38-1.1,1.28,1.28,0,0,1,1-.43A1.3,1.3,0,0,1,522.89,661.48Z"/><path d="M560.67,678.19a1.26,1.26,0,0,1,.36.94v12.72a1.73,1.73,0,0,1-1.1,1.73,20.38,20.38,0,0,1-4.78,1.44,30.75,30.75,0,0,1-5.69.53,16.91,16.91,0,0,1-8.52-2,13.35,13.35,0,0,1-5.47-6,23.78,23.78,0,0,1,0-18.55,13.66,13.66,0,0,1,5.38-6,15.92,15.92,0,0,1,8.3-2.09,18,18,0,0,1,6.29,1.08,12.17,12.17,0,0,1,4.8,3.1,1.93,1.93,0,0,1,.62,1.39,1.47,1.47,0,0,1-.29.91.87.87,0,0,1-.72.38,2.07,2.07,0,0,1-1.06-.48,17.08,17.08,0,0,0-4.7-2.93,13.93,13.93,0,0,0-4.94-.82q-6,0-9.19,3.82t-3.24,10.82q0,7.15,3.26,10.94t9.5,3.79a27.3,27.3,0,0,0,4.73-.41,19.21,19.21,0,0,0,4.15-1.18v-11h-7.78a1.45,1.45,0,0,1-1-.34,1.33,1.33,0,0,1,0-1.82,1.46,1.46,0,0,1,1-.34h9.17A1.26,1.26,0,0,1,560.67,678.19Z"/><rect class="cls-6" y="881.45" width="681.4" height="277.43"/><path class="cls-7" d="M250,1070.08H225.25V957.3H250Z"/><path class="cls-7" d="M442.56,1025.08v-23a30.4,30.4,0,0,0,4-2.08,10.55,10.55,0,0,0,4.6-10.65c-.55-4.06-3.13-6.67-6.6-8.59-.85-.47-2.07-1.37-2.09-2.09-.16-7.12-.09-14.25-.09-21.37,15.41-.14,30.72,13.8,31.4,29.74.73,17.18,1.24,34.44.41,51.6-.76,15.76-12,27.64-27,30.87-1.48.32-3,.48-4.69.74v-23.13c6.55-1.92,9.15-6.54,8.78-13.23-.18-3.34,0-6.69,0-10.26Z"/><path class="cls-7" d="M171.83,933c-5.25,7.9-3.62,15.85-.36,23.81a96.49,96.49,0,0,1-1.5-9.95c-.41-8.13,1.28-13.81,9.11-17,8.56-3.43,17.13-4.8,25.37.69,6.12,4.08,8.63,10.66,10.33,17.33a22.54,22.54,0,0,1-16.39,27.89c2.28-4.71,5.32-9.7,7.17-15.1,3.55-10.35-1.53-19.78-11.23-22a7.34,7.34,0,0,0-8.73,6.11c-.68,3.53,1.8,6.53,5.52,7.62,2.77.81,4.65.46,6-2.07a2.27,2.27,0,0,1,.4-.48c1.48-1.47,3.2-3.64,5.22-2.16,1.23.9,1.2,3.51,1.57,4.8.29,2.08.79,3.43.62,4.7-.87,6.47-4.2,11.86-7.89,17a7.62,7.62,0,0,0-1.48,3.07c11.06-2.17,18.28-8.55,21.67-19.42v48.51l-14.73-11.37c-3-2.3-6.06-4.49-8.94-6.91-1.54-1.3-2.81-1.24-4.49-.35-4.69,2.48-9.45,4.86-14.21,7.2-2.35,1.15-9-.23-9.89-2.47-.63-1.6-.06-3.84.41-5.68,1.37-5.41,3.09-10.73,4.37-16.16.46-2-.07-4.13.11-6.18.68-7.91-5.14-14.58-4.16-22.56C166.24,937.89,167.85,934.7,171.83,933Z"/><path class="cls-7" d="M366.81,957c13.79,1.62,23.42,8.41,28.87,20.64,5.3,11.9,3,25.6-5.62,35.73,9.54,12.65,11.6,26.2,3.42,40.37a33.21,33.21,0,0,1-26.67,16.31v-22.92c4.07-1.56,7.18-3.93,8.21-8.37a10.71,10.71,0,0,0-5.82-12.42c-2-.9-2.46-2-2.43-4,.11-6.81,0-13.63,0-20.49,4.31-1.48,7.35-3.93,8.27-8.57,1-4.91-1-9.88-5.65-11.92-2.29-1-2.72-2.25-2.67-4.47C366.89,970.43,366.81,963.94,366.81,957Z"/><path class="cls-7" d="M361.69,1047.17v23c-11.51-1.33-20.56-6.43-26.37-16.3-8.23-14-6.43-27.45,3.24-40.3-9.38-12.25-11.3-25.39-3.88-39.29,4.69-8.8,15.47-16.93,27.11-17,0,7.21,0,14.43-.06,21.64a2.46,2.46,0,0,1-1.35,1.7c-4.77,2-7.38,5.76-7.21,10.74.18,5.26,3.25,8.88,8.62,10.45,0,7.38,0,14.72-.07,22.06a2.78,2.78,0,0,1-1.46,2c-4.64,2-7.16,5.66-7.1,10.47.06,5,2.88,8.6,7.7,10.41A7.25,7.25,0,0,1,361.69,1047.17Z"/><path class="cls-7" d="M322.3,981.91c-2.72,9.33-5.27,18.15-7.85,27-5.68,19.41-11.39,38.81-17,58.23-.63,2.18-1.47,3.19-4,3.12-7.2-.21-14.41-.07-21.93-.07,2.92-10,5.72-19.64,8.54-29.26,5.4-18.45,10.87-36.87,16.16-55.35.78-2.72,1.79-3.86,4.85-3.73C307.95,982.12,314.87,981.91,322.3,981.91Z"/><path class="cls-7" d="M437.89,1001.88v22.55c-11.4,1.05-28.49-9.64-31.32-27.84-3.45-22.22,13.93-39,31.43-39.4,0,7.23,0,14.46-.06,21.68a2.49,2.49,0,0,1-1.35,1.73c-4.93,2.14-7.71,5.76-7.35,11.2S432.86,1000.24,437.89,1001.88Z"/><path class="cls-7" d="M321.94,977.52H279.26v8.59H258V957h64Z"/><path class="cls-7" d="M437.89,1047.28q0,11.29,0,22.57c-16.19-.07-32.6-15.59-31.65-35H429C429.68,1042.11,431.17,1044.13,437.89,1047.28Z"/><path class="cls-7" d="M451.17,1084.66c5.13,0,10-.28,14.72.14,1.9.17,4.41,1.5,5.26,3.05s-.23,3.91-.43,5.7c.58,1.88,1.83,3.94,1.65,5.85-.24,2.54-2.55,3.62-5.1,3.63-5.31,0-10.62,0-16.09,0Zm2.9,10.71v5c4.26,0,8.33.17,12.36-.12,1.06-.08,2-1.59,3-2.45-1-.82-2-2.27-3.11-2.34C462.33,1095.2,458.27,1095.36,454.08,1095.36Zm-.08-3.05c4.31,0,8.35.14,12.37-.11.87-.05,1.65-1.49,2.47-2.29-.78-.71-1.53-2-2.34-2-4.12-.21-8.26-.1-12.5-.1Z"/><path class="cls-7" d="M377.67,1095.12v5.2h15.77l.74.76c-.64.72-1.27,2-1.93,2.05-5.85.16-11.71.09-17.72.09v-18.35h18.54v2.86H377.72v4.42H388c.7,2.06.34,3-1.8,3C383.44,1095.05,380.72,1095.12,377.67,1095.12Z"/><path class="cls-7" d="M249.74,1103.07v-18.19h18.61v2.78H253v4.46h10c1,2.14.54,3.08-1.74,3-2.7-.08-5.41,0-8.3,0v5.21h16v2.75Z"/><path class="cls-7" d="M368.59,1103.75c-1.23-.81-3.07-1.34-3.59-2.47-2.7-5.89-7.5-5.62-12.4-4.88-2.06,1.87,1.38,6-3.33,7.05v-18.78c5,0,9.93-.17,14.82.06a5.63,5.63,0,0,1,5.61,5.27c.37,2.79-.9,4.55-4.58,6.29l4.33,6.39Zm-16.49-10.3c4,0,7.79.19,11.52-.13a3.81,3.81,0,0,0,2.6-2.67,3.67,3.67,0,0,0-2.41-2.74c-3.82-.32-7.69-.13-11.71-.13Z"/><path class="cls-7" d="M293.38,1103.87c-1.55-.92-3.37-1.58-4.6-2.81-4-4-7.74-8.18-12-12.74V1103H273.7v-18.06c2.21-.77,3.8-.14,5.39,1.65,3.74,4.22,7.71,8.24,12,12.8V1085l3.09-.44v18.31Z"/><path class="cls-7" d="M446.45,1103.71c-1.12-.83-2.67-1.43-3.26-2.54a3.37,3.37,0,0,0-3.67-2.05,43.26,43.26,0,0,1-6.29,0c-2.44-.21-4.14.33-5.23,2.8-.37.83-2,1.13-3,1.67l-.63-.75c3.08-5.83,6.1-11.68,9.27-17.45.75-1.36,3.8-1,4.61.5,3,5.57,6,11.17,9,16.76Zm-6-7.29-4.6-9-4.58,9Z"/><path class="cls-7" d="M322.07,1084.75h2.82a3.65,3.65,0,0,1,.29.94c0,3.46.09,6.91,0,10.37a3.83,3.83,0,0,0,3,4.18,17.68,17.68,0,0,0,5.24.72c5.09-.21,6.34-1.64,6.35-6.7,0-3,0-6.06,0-9.34l2.73-.28a4.8,4.8,0,0,1,.31,1.07q0,5,0,10.05c0,4.39-1.23,6.3-5.53,7.36-4,1-8.08,1.05-11.91-.92a5.69,5.69,0,0,1-3.37-5.53C322.12,1092.81,322.07,1088.94,322.07,1084.75Z"/><path class="cls-7" d="M223.3,1084.93c2.25-.73,3.55-.2,4.57,1.9,2.09,4.3,4.49,8.44,7.05,13.18,2.5-4.62,4.92-8.89,7.11-13.27,1-2,2.22-2.54,4.43-1.77-3.05,5.74-6,11.44-9.13,17.08a2.79,2.79,0,0,1-4.81-.12C229.39,1096.32,226.38,1090.63,223.3,1084.93Z"/><path class="cls-7" d="M310.22,1103.06H307v-15.2h-8.64l-.29-3h20.67v2.84h-8.54Z"/><path class="cls-7" d="M409.05,1084.57v15.78h14.28v2.73H406.08v-18.2Z"/></g><g id="Activities"><path class="cls-8" d="M150.2,73.45c-.36-2.16.61-4.74-2.39-6-14.06-6.13-28-12.43-42.1-18.54a39.16,39.16,0,0,0-17.24-3.18c-13.08.46-31.2,18.16-33.19,30.37-1.18,7.24.68,13.31,6.48,18,11.52,9.27,25.1,8.49,35.47-2.18a3.59,3.59,0,0,1,4.44-1C108,93,114.44,95,120.82,97a6.78,6.78,0,0,0,6.86-1.22c6.5-5.25,13-10.47,19.64-15.58C149.64,78.46,150.81,76.4,150.2,73.45ZM91.67,64.6c4-3.4,8.06-6.76,12-10.21,1.09-1,2-1.29,3.33-.52,1.73,1,3.59,1.71,5.85,2.76-5.94,5-11.51,9.77-17.16,14.44a2.55,2.55,0,0,1-2.15.24c-2-.78-3.94-1.77-6.33-2.88C88.87,67,90.26,65.79,91.67,64.6Zm29.87,29.82c-7-2.42-13.94-4.67-20.73-7.18-2-.75-3.22-.46-4.65,1.11-4.67,5.15-10.38,8.56-17.44,9.07a20,20,0,0,1-17.15-7.25,13.84,13.84,0,0,1-1.13-16.5c3.21-4.87,10.33-7.07,16.85-5a59,59,0,0,1,6.81,2.74c11,5,21.95,10,32.93,15C121.83,88.57,121.85,88.53,121.54,94.41Zm22.62-15.09c-4.82,3.55-9.46,7.33-14.18,11-.76.59-1.56,1.14-2.52,1.84-.65-2.76-.29-4.57,2.06-6.23C135.06,82,140.36,77.79,146,73.5,147,76.22,146.19,77.82,144.16,79.32Z"/><rect class="cls-9" x="60.1" y="235.64" width="80.32" height="80.32" rx="40.16" ry="40.16"/><polygon class="cls-10" points="122.34 258.54 122.34 260 126.82 260 93.75 291 82.8 273.6 40.37 306.67 40.98 307.93 82.48 275.5 93.46 292.97 127.83 260.95 127.83 265.64 129.04 265.64 129.04 258.54 122.34 258.54"/><rect class="cls-11" x="76.05" y="646.41" width="53.2" height="69.77" rx="7.79" ry="7.79"/><path class="cls-5" d="M85.12,651.66h35.64a4.52,4.52,0,0,1,4.52,4.52V664a0,0,0,0,1,0,0H80.6a0,0,0,0,1,0,0v-7.85A4.52,4.52,0,0,1,85.12,651.66Z"/><rect class="cls-5" x="80.6" y="669.98" width="22.34" height="12.37"/><rect class="cls-5" x="102.94" y="669.98" width="22.34" height="12.37"/><rect class="cls-5" x="80.6" y="684.56" width="22.34" height="12.37"/><rect class="cls-5" x="102.94" y="684.56" width="22.34" height="12.37"/><path class="cls-5" d="M80.6,699.14h22.34a0,0,0,0,1,0,0v12.37a0,0,0,0,1,0,0H86.1a5.5,5.5,0,0,1-5.5-5.5v-6.87A0,0,0,0,1,80.6,699.14Z"/><path class="cls-5" d="M102.94,699.14h22.34a0,0,0,0,1,0,0V706a5.5,5.5,0,0,1-5.5,5.5H102.94a0,0,0,0,1,0,0V699.14A0,0,0,0,1,102.94,699.14Z"/><rect class="cls-12" x="57.36" y="468.39" width="50.84" height="5.14" transform="translate(-136.82 46.18) rotate(-17.37)"/><rect class="cls-12" x="98.8" y="445.68" width="18.35" height="34.79" rx="3.93" ry="3.93" transform="translate(-133.32 53.35) rotate(-17.37)"/><rect class="cls-12" x="93.99" y="499.26" width="32.58" height="7.05"/><rect class="cls-12" x="97.8" y="496.33" width="24.96" height="5.4"/></g></g></g></svg>