<svg xmlns="http://www.w3.org/2000/svg" viewBox="0 0 686.02 89"><defs><style>.cls-1{fill:#1f2c35;}.cls-1,.cls-3,.cls-4,.cls-5,.cls-6{stroke:#fff;stroke-miterlimit:10;stroke-width:3px;}.cls-2{fill:#fff;}.cls-3{fill:#873871;}.cls-4{fill:#36b3a8;}.cls-5{fill:#ec6726;}.cls-6{fill:#039be5;}</style></defs><title>resources_gc</title><g id="Layer_2" data-name="Layer 2"><g id="Mobile"><g id="Resources"><rect class="cls-1" x="1.5" y="1.5" width="682.31" height="86"/><path class="cls-2" d="M216.29,44.3a1.61,1.61,0,0,1,.48,1.21v7.33a4.38,4.38,0,0,1-.41,2.22,3,3,0,0,1-1.67,1.06,17.52,17.52,0,0,1-3.17.75,23.37,23.37,0,0,1-3.48.27,13.42,13.42,0,0,1-6.45-1.47,9.91,9.91,0,0,1-4.18-4.25A14.18,14.18,0,0,1,196,44.8a14,14,0,0,1,1.45-6.57A10.13,10.13,0,0,1,201.51,34a12.68,12.68,0,0,1,6.28-1.48,11.79,11.79,0,0,1,7.88,2.59,2.66,2.66,0,0,1,.6.75A2.17,2.17,0,0,1,216,38a1.23,1.23,0,0,1-1,.51,1.86,1.86,0,0,1-.68-.12,3.81,3.81,0,0,1-.72-.39,10.89,10.89,0,0,0-2.8-1.48,9.37,9.37,0,0,0-2.93-.43,7,7,0,0,0-5.61,2.2q-1.89,2.2-1.89,6.53,0,8.87,7.78,8.87a17.16,17.16,0,0,0,4.64-.65V47H209a1.86,1.86,0,0,1-1.28-.41,1.69,1.69,0,0,1,0-2.32,1.86,1.86,0,0,1,1.28-.41h6A1.74,1.74,0,0,1,216.29,44.3Z"/><path class="cls-2" d="M224.32,56.29a2,2,0,0,1-.56-1.54V34.87a2,2,0,0,1,.56-1.54,2.14,2.14,0,0,1,1.55-.55h12.32a2.38,2.38,0,0,1,1.54.44,1.54,1.54,0,0,1,.55,1.26,1.63,1.63,0,0,1-.55,1.31,2.32,2.32,0,0,1-1.54.46H228.06v6.62h9.45a2.38,2.38,0,0,1,1.54.44,1.57,1.57,0,0,1,.55,1.3,1.53,1.53,0,0,1-.55,1.26,2.37,2.37,0,0,1-1.54.44h-9.45v7h10.13a2.32,2.32,0,0,1,1.54.46,1.63,1.63,0,0,1,.55,1.31,1.54,1.54,0,0,1-.55,1.26,2.37,2.37,0,0,1-1.54.44H225.87A2.13,2.13,0,0,1,224.32,56.29Z"/><path class="cls-2" d="M252.19,56.41a2.14,2.14,0,0,1-.6-1.59V36.4h-6.21q-2,0-2-1.81t2-1.81h16.82q2,0,2,1.81t-2,1.81H256V54.83A2.05,2.05,0,0,1,253.81,57,2.19,2.19,0,0,1,252.19,56.41Z"/><path class="cls-2" d="M284.84,55.64a10,10,0,0,1-4-4.3,14.47,14.47,0,0,1-1.4-6.55,14.36,14.36,0,0,1,1.4-6.53,10,10,0,0,1,4-4.28,12,12,0,0,1,6.09-1.5,13.2,13.2,0,0,1,4.23.67,11,11,0,0,1,3.51,1.93,2,2,0,0,1,.61.72,2.23,2.23,0,0,1,.17.92A2,2,0,0,1,299,38a1.23,1.23,0,0,1-1,.51,2.51,2.51,0,0,1-1.4-.48,10.13,10.13,0,0,0-2.73-1.52,8.7,8.7,0,0,0-2.8-.43,6.55,6.55,0,0,0-5.37,2.22q-1.83,2.22-1.83,6.52t1.83,6.55a6.55,6.55,0,0,0,5.37,2.22,8,8,0,0,0,2.71-.44,13,13,0,0,0,2.81-1.5,4.7,4.7,0,0,1,.68-.34,1.91,1.91,0,0,1,.72-.14,1.23,1.23,0,0,1,1,.51,2,2,0,0,1,.41,1.26,2.25,2.25,0,0,1-.17.9,1.91,1.91,0,0,1-.61.73,11,11,0,0,1-3.51,1.93,13.2,13.2,0,0,1-4.23.67A12,12,0,0,1,284.84,55.64Z"/><path class="cls-2" d="M309.54,55.64a10,10,0,0,1-4-4.3,14.47,14.47,0,0,1-1.4-6.55,14.52,14.52,0,0,1,1.38-6.53,9.92,9.92,0,0,1,4-4.28,13.14,13.14,0,0,1,12.2,0,10,10,0,0,1,4,4.28,14.52,14.52,0,0,1,1.38,6.53,14.48,14.48,0,0,1-1.4,6.55,10,10,0,0,1-4,4.3,13,13,0,0,1-12.15,0Zm11.26-4.3q1.86-2.29,1.86-6.55t-1.86-6.53a7.06,7.06,0,0,0-10.37,0q-1.86,2.27-1.86,6.53t1.86,6.55a7,7,0,0,0,10.37,0Z"/><path class="cls-2" d="M353.28,33.21a2.22,2.22,0,0,1,.56,1.59v20a2.24,2.24,0,0,1-.58,1.6,2,2,0,0,1-1.5.61,2,2,0,0,1-1.67-.79L337.63,40.05V54.83a2.32,2.32,0,0,1-.55,1.6,2.14,2.14,0,0,1-3,0,2.32,2.32,0,0,1-.55-1.6v-20a2.18,2.18,0,0,1,.58-1.59,2,2,0,0,1,1.54-.6,1.92,1.92,0,0,1,1.64.78l12.42,16.14V34.8a2.22,2.22,0,0,1,.56-1.59,2,2,0,0,1,1.48-.6A2,2,0,0,1,353.28,33.21Z"/><path class="cls-2" d="M380.81,33.21a2.22,2.22,0,0,1,.56,1.59v20a2.24,2.24,0,0,1-.58,1.6,2,2,0,0,1-1.5.61,2,2,0,0,1-1.67-.79L365.17,40.05V54.83a2.32,2.32,0,0,1-.55,1.6,2.14,2.14,0,0,1-3,0,2.32,2.32,0,0,1-.55-1.6v-20a2.18,2.18,0,0,1,.58-1.59,2,2,0,0,1,1.54-.6,1.92,1.92,0,0,1,1.64.78l12.42,16.14V34.8a2.22,2.22,0,0,1,.56-1.59,2,2,0,0,1,1.48-.6A2,2,0,0,1,380.81,33.21Z"/><path class="cls-2" d="M389.17,56.29a2,2,0,0,1-.56-1.54V34.87a2,2,0,0,1,.56-1.54,2.14,2.14,0,0,1,1.55-.55H403a2.38,2.38,0,0,1,1.54.44,1.54,1.54,0,0,1,.55,1.26,1.63,1.63,0,0,1-.55,1.31,2.32,2.32,0,0,1-1.54.46H392.9v6.62h9.45a2.38,2.38,0,0,1,1.54.44,1.57,1.57,0,0,1,.55,1.3,1.53,1.53,0,0,1-.55,1.26,2.37,2.37,0,0,1-1.54.44H392.9v7H403a2.32,2.32,0,0,1,1.54.46,1.63,1.63,0,0,1,.55,1.31,1.54,1.54,0,0,1-.55,1.26,2.37,2.37,0,0,1-1.54.44H390.72A2.13,2.13,0,0,1,389.17,56.29Z"/><path class="cls-2" d="M415.33,55.64a10,10,0,0,1-4-4.3,14.47,14.47,0,0,1-1.4-6.55,14.36,14.36,0,0,1,1.4-6.53,10,10,0,0,1,4-4.28,12,12,0,0,1,6.09-1.5,13.2,13.2,0,0,1,4.23.67,11,11,0,0,1,3.51,1.93,2,2,0,0,1,.61.72,2.23,2.23,0,0,1,.17.92,2,2,0,0,1-.41,1.26,1.23,1.23,0,0,1-1,.51,2.51,2.51,0,0,1-1.4-.48,10.13,10.13,0,0,0-2.73-1.52,8.7,8.7,0,0,0-2.8-.43,6.55,6.55,0,0,0-5.37,2.22q-1.83,2.22-1.83,6.52t1.83,6.55a6.55,6.55,0,0,0,5.37,2.22,8,8,0,0,0,2.71-.44,13,13,0,0,0,2.81-1.5,4.7,4.7,0,0,1,.68-.34,1.91,1.91,0,0,1,.72-.14,1.23,1.23,0,0,1,1,.51,2,2,0,0,1,.41,1.26,2.25,2.25,0,0,1-.17.9,1.91,1.91,0,0,1-.61.73,11,11,0,0,1-3.51,1.93,13.2,13.2,0,0,1-4.23.67A12,12,0,0,1,415.33,55.64Z"/><path class="cls-2" d="M441.77,56.41a2.14,2.14,0,0,1-.6-1.59V36.4H435q-2,0-2-1.81t2-1.81h16.82q2,0,2,1.81t-2,1.81h-6.21V54.83A2.05,2.05,0,0,1,443.39,57,2.19,2.19,0,0,1,441.77,56.41Z"/><path class="cls-2" d="M459,56.29a2,2,0,0,1-.56-1.54V34.87a2,2,0,0,1,.56-1.54,2.14,2.14,0,0,1,1.55-.55H472.9a2.38,2.38,0,0,1,1.54.44,1.54,1.54,0,0,1,.55,1.26,1.63,1.63,0,0,1-.55,1.31,2.32,2.32,0,0,1-1.54.46H462.77v6.62h9.45a2.38,2.38,0,0,1,1.54.44,1.57,1.57,0,0,1,.55,1.3,1.53,1.53,0,0,1-.55,1.26,2.37,2.37,0,0,1-1.54.44h-9.45v7H472.9a2.32,2.32,0,0,1,1.54.46,1.63,1.63,0,0,1,.55,1.31,1.54,1.54,0,0,1-.55,1.26,2.37,2.37,0,0,1-1.54.44H460.59A2.13,2.13,0,0,1,459,56.29Z"/><path class="cls-2" d="M481.17,56.29a2,2,0,0,1-.56-1.54V34.87a2,2,0,0,1,.56-1.54,2.14,2.14,0,0,1,1.55-.55h6.75q5.9,0,9.16,3.16t3.26,8.85q0,5.73-3.26,8.89t-9.16,3.16h-6.75A2.13,2.13,0,0,1,481.17,56.29Zm8-3q8.29,0,8.29-8.46t-8.29-8.43H485V53.26Z"/><rect class="cls-3" x="1.5" y="1.5" width="24.17" height="85.29"/><rect class="cls-4" x="26.38" y="1.5" width="24.17" height="85.29"/><rect class="cls-5" x="51.25" y="1.5" width="24.17" height="85.29"/><rect class="cls-6" x="76.13" y="1.5" width="24.17" height="85.29"/><rect class="cls-3" x="660.36" y="1.5" width="24.17" height="85.29" transform="translate(1344.88 88.29) rotate(180)"/><rect class="cls-4" x="635.48" y="1.5" width="24.17" height="85.29" transform="translate(1295.13 88.29) rotate(180)"/><rect class="cls-5" x="610.61" y="1.5" width="24.17" height="85.29" transform="translate(1245.38 88.29) rotate(180)"/><rect class="cls-6" x="585.73" y="1.5" width="24.17" height="85.29" transform="translate(1195.63 88.29) rotate(180)"/></g></g></g></svg>