<svg xmlns="http://www.w3.org/2000/svg" viewBox="0 0 502.2 218.15"><defs><style>.cls-1{fill:#fff;}.cls-2{fill:none;stroke:#fff;stroke-miterlimit:10;stroke-width:3px;}</style></defs><title>Asset 20</title><g id="Layer_2" data-name="Layer 2"><g id="Mobile"><g id="Spaces"><path class="cls-1" d="M32,216.47a1.42,1.42,0,0,1-.51,1.11,1.72,1.72,0,0,1-1.17.45,1.83,1.83,0,0,1-1.62-1l-8.1-13A10.77,10.77,0,0,0,17,200.33a10.5,10.5,0,0,0-5.07-1H3.72v16.74a1.91,1.91,0,0,1-.51,1.41,1.83,1.83,0,0,1-1.35.51,1.83,1.83,0,0,1-1.35-.51A1.91,1.91,0,0,1,0,216.05V177.23a1.75,1.75,0,0,1,.57-1.32A2,2,0,0,1,2,175.37H16.92q6.66,0,10.26,3t3.6,8.85a10.82,10.82,0,0,1-3.06,8.1q-3.06,3-8.64,3.48a7.26,7.26,0,0,1,2.64,1.59,15.69,15.69,0,0,1,2.46,3.09l7.44,11.94A1.86,1.86,0,0,1,32,216.47Zm-15.3-20.34q10.44,0,10.44-8.94,0-4.38-2.58-6.51t-7.86-2.13h-13v17.58Z"/><path class="cls-1" d="M46.29,217.13a1.75,1.75,0,0,1-.57-1.32V177.23a1.75,1.75,0,0,1,.57-1.32,2,2,0,0,1,1.41-.54H70.5a1.73,1.73,0,0,1,1.23.42,1.56,1.56,0,0,1,.45,1.2,1.48,1.48,0,0,1-.45,1.14,1.73,1.73,0,0,1-1.23.42H49.38v16H69.3a1.73,1.73,0,0,1,1.23.42,1.82,1.82,0,0,1,0,2.4,1.73,1.73,0,0,1-1.23.42H49.38v16.68H70.5a1.82,1.82,0,0,1,1.23.39,1.47,1.47,0,0,1,.45,1.17,1.56,1.56,0,0,1-.45,1.2,1.73,1.73,0,0,1-1.23.42H47.7A2,2,0,0,1,46.29,217.13Z"/><path class="cls-1" d="M89.13,216.74a16.14,16.14,0,0,1-6.45-3.81,2.16,2.16,0,0,1-.78-1.74,1.75,1.75,0,0,1,.39-1.14,1.12,1.12,0,0,1,.87-.48,2.39,2.39,0,0,1,1.38.6,20,20,0,0,0,13.14,4.68q5.46,0,8.43-2.19a7.26,7.26,0,0,0,3-6.21,5.11,5.11,0,0,0-1.44-3.78,9.87,9.87,0,0,0-3.66-2.25A50.5,50.5,0,0,0,98,198.77a59.35,59.35,0,0,1-8-2.22A13,13,0,0,1,85,193.1a8.87,8.87,0,0,1-2.1-6.21,10.75,10.75,0,0,1,1.89-6.27,12.26,12.26,0,0,1,5.31-4.23,19.41,19.41,0,0,1,7.86-1.5,22.34,22.34,0,0,1,7.8,1.35,15.72,15.72,0,0,1,6.06,3.87,2.41,2.41,0,0,1,.78,1.74,1.75,1.75,0,0,1-.39,1.14,1.12,1.12,0,0,1-.87.48,2.38,2.38,0,0,1-1.38-.6,22.83,22.83,0,0,0-5.85-3.66,16.87,16.87,0,0,0-6.15-1q-5.34,0-8.34,2.28a7.53,7.53,0,0,0-3,6.36,5.89,5.89,0,0,0,1.32,4,9.17,9.17,0,0,0,3.45,2.43A38.27,38.27,0,0,0,96.84,195l1.56.36q4.86,1.2,7.68,2.22a11.82,11.82,0,0,1,4.77,3.15,8.16,8.16,0,0,1,1.95,5.73,10.28,10.28,0,0,1-1.89,6.09,12.2,12.2,0,0,1-5.34,4.14,20,20,0,0,1-7.89,1.47A26.18,26.18,0,0,1,89.13,216.74Z"/><path class="cls-1" d="M126.45,217.13a1.75,1.75,0,0,1-.57-1.32V177.23a1.75,1.75,0,0,1,.57-1.32,2,2,0,0,1,1.41-.54h22.8a1.73,1.73,0,0,1,1.23.42,1.56,1.56,0,0,1,.45,1.2,1.48,1.48,0,0,1-.45,1.14,1.73,1.73,0,0,1-1.23.42H129.54v16h19.92a1.73,1.73,0,0,1,1.23.42,1.82,1.82,0,0,1,0,2.4,1.73,1.73,0,0,1-1.23.42H129.54v16.68h21.12a1.82,1.82,0,0,1,1.23.39,1.47,1.47,0,0,1,.45,1.17,1.56,1.56,0,0,1-.45,1.2,1.73,1.73,0,0,1-1.23.42h-22.8A2,2,0,0,1,126.45,217.13Z"/><path class="cls-1" d="M200.34,216.41a1.39,1.39,0,0,1-.54,1.11,1.91,1.91,0,0,1-1.26.45,1.66,1.66,0,0,1-.93-.3,1.91,1.91,0,0,1-.69-.84l-4.56-10.44H169.08l-4.62,10.44a1.77,1.77,0,0,1-1.68,1.14,1.79,1.79,0,0,1-1.23-.45,1.48,1.48,0,0,1-.51-1.17,1.5,1.5,0,0,1,.12-.66l17.52-39.36a2,2,0,0,1,2-1.32,2.26,2.26,0,0,1,1.23.36,2,2,0,0,1,.81,1l17.46,39.36A1.6,1.6,0,0,1,200.34,216.41Zm-29.88-13.26h20.46l-10.2-23.22Z"/><path class="cls-1" d="M244.5,216.47a1.42,1.42,0,0,1-.51,1.11,1.72,1.72,0,0,1-1.17.45,1.83,1.83,0,0,1-1.62-1l-8.1-13a10.77,10.77,0,0,0-3.57-3.78,10.5,10.5,0,0,0-5.07-1h-8.22v16.74a1.91,1.91,0,0,1-.51,1.41,2,2,0,0,1-2.7,0,1.91,1.91,0,0,1-.51-1.41V177.23a1.75,1.75,0,0,1,.57-1.32,2,2,0,0,1,1.41-.54h14.94q6.66,0,10.26,3t3.6,8.85a10.82,10.82,0,0,1-3.06,8.1q-3.06,3-8.64,3.48a7.26,7.26,0,0,1,2.64,1.59,15.69,15.69,0,0,1,2.46,3.09l7.44,11.94A1.86,1.86,0,0,1,244.5,216.47Zm-15.3-20.34q10.44,0,10.44-8.94,0-4.38-2.58-6.51t-7.86-2.13h-13v17.58Z"/><path class="cls-1" d="M265.29,215.54a16.91,16.91,0,0,1-6.66-7.5,29.95,29.95,0,0,1,0-23.07,17,17,0,0,1,6.66-7.47,19.5,19.5,0,0,1,10.23-2.61,21.77,21.77,0,0,1,7.65,1.35,16.87,16.87,0,0,1,6.15,3.87,2.34,2.34,0,0,1,.84,1.74,1.75,1.75,0,0,1-.39,1.14,1.12,1.12,0,0,1-.87.48,2.38,2.38,0,0,1-1.38-.6,22.61,22.61,0,0,0-5.88-3.66,17.11,17.11,0,0,0-6.18-1q-7.26,0-11.25,4.8t-4,13.5q0,8.76,4,13.56t11.25,4.8a17.09,17.09,0,0,0,6.18-1,22.56,22.56,0,0,0,5.88-3.66,2.88,2.88,0,0,1,1.38-.6,1.12,1.12,0,0,1,.87.48,1.75,1.75,0,0,1,.39,1.14,2.33,2.33,0,0,1-.84,1.74,16.87,16.87,0,0,1-6.15,3.87,21.77,21.77,0,0,1-7.65,1.35A19.5,19.5,0,0,1,265.29,215.54Z"/><path class="cls-1" d="M337.2,175.58a2,2,0,0,1,.48,1.41v39.06a2,2,0,0,1-.48,1.41,1.81,1.81,0,0,1-1.38.51,1.67,1.67,0,0,1-1.32-.54,2,2,0,0,1-.48-1.38V197.81H307v18.24a2,2,0,0,1-.48,1.38,1.67,1.67,0,0,1-1.32.54,1.77,1.77,0,0,1-1.35-.54,1.93,1.93,0,0,1-.51-1.38V177a1.93,1.93,0,0,1,.51-1.38,1.77,1.77,0,0,1,1.35-.54,1.67,1.67,0,0,1,1.32.54A2,2,0,0,1,307,177v17.58h27V177a2,2,0,0,1,.48-1.38,1.67,1.67,0,0,1,1.32-.54A1.81,1.81,0,0,1,337.2,175.58Z"/><path class="cls-1" d="M407.16,175.58a2,2,0,0,1,.48,1.41v39.06a2,2,0,0,1-.48,1.41,1.81,1.81,0,0,1-1.38.51,1.67,1.67,0,0,1-1.32-.54,2,2,0,0,1-.48-1.38V197.81H377v18.24a2,2,0,0,1-.48,1.38,1.67,1.67,0,0,1-1.32.54,1.77,1.77,0,0,1-1.35-.54,1.93,1.93,0,0,1-.51-1.38V177a1.93,1.93,0,0,1,.51-1.38,1.77,1.77,0,0,1,1.35-.54,1.67,1.67,0,0,1,1.32.54A2,2,0,0,1,377,177v17.58h27V177a2,2,0,0,1,.48-1.38,1.67,1.67,0,0,1,1.32-.54A1.81,1.81,0,0,1,407.16,175.58Z"/><path class="cls-1" d="M427.23,213.89q-4.17-4.26-4.17-12.54V177a1.91,1.91,0,0,1,.51-1.41,2,2,0,0,1,2.7,0,1.91,1.91,0,0,1,.51,1.41v24.78q0,13.08,12.72,13.08,6.3,0,9.51-3.3t3.21-9.78V177a1.92,1.92,0,0,1,.51-1.38,1.77,1.77,0,0,1,1.35-.54,1.73,1.73,0,0,1,1.32.51,2,2,0,0,1,.48,1.41v24.36q0,8.28-4.17,12.54t-12.21,4.26Q431.4,218.15,427.23,213.89Z"/><path class="cls-1" d="M500.19,199.58a10.71,10.71,0,0,1,2,6.63q0,5.58-3.63,8.52t-10.29,2.94H473.34a2,2,0,0,1-1.41-.54,1.75,1.75,0,0,1-.57-1.32V177.23a1.75,1.75,0,0,1,.57-1.32,2,2,0,0,1,1.41-.54h14.34q6.48,0,10,2.88t3.54,8.22a9.81,9.81,0,0,1-1.77,5.88,10.46,10.46,0,0,1-5,3.66A9.74,9.74,0,0,1,500.19,199.58Zm-25.17-5h12.12q5.1,0,7.74-2.1a7.29,7.29,0,0,0,2.64-6.06q0-7.86-10.38-7.86H475Zm20.91,17.91q2.55-2,2.55-6.15,0-8.52-10.44-8.52H475v16.68h13Q493.38,214.49,495.93,212.48Z"/><path class="cls-2" d="M389,1.5H139.68a21.25,21.25,0,0,0-21.25,21.25v64h0c7.89,26.08,29.41,12.2,35.41,21.77,0-9.74-18.45-13.13-18.45-21.79H367.75A21.25,21.25,0,0,0,389,65.46Z"/></g></g></g></svg>