<svg xmlns="http://www.w3.org/2000/svg" viewBox="0 0 585.88 408.78"><defs><style>.cls-1,.cls-4{fill:#fff;}.cls-2{fill:none;}.cls-2,.cls-4{stroke:#fff;stroke-miterlimit:10;stroke-width:3px;}.cls-3,.cls-5{fill:#873871;}.cls-5{opacity:0.1;}</style></defs><title>spacesinfo</title><g id="Layer_2" data-name="Layer 2"><g id="Layer_18" data-name="Layer 18"><circle class="cls-1" cx="311.8" cy="265.81" r="118.2"/><path class="cls-2" d="M535.3,46.71l-98.47,98.47a11.87,11.87,0,0,0,0,16.79l25.26,25.26h0c13.42,7.19,16.44-6.8,22.59-5.39-3.85-3.85-12.48,2.1-15.89-1.32l91.78-91.77a11.87,11.87,0,0,0,0-16.79Z"/><circle class="cls-1" cx="287.68" cy="49.99" r="49.99"/><path class="cls-3" d="M324.73,36.28c-6.35,15.58-19.32,17.63-34,16.57,0,.65,0,1.31,0,2,.31,8.08-.9,15.85-4.77,23.05a30.7,30.7,0,0,1-10.76,12h-1c-2-1.43-2-2.63,0-4.15.93-.7,1.8-1.48,2.65-2.18L255.26,61.89c-.72.89-1.52,1.81-2.25,2.78-1.42,1.88-2.67,1.86-4.06-.11v-1c5.29-8,13-12.53,22.19-14.41,4.78-1,9.74-1,14.83-1.54,0-.51-.09-1.38-.16-2.24-.5-6.1,0-12.1,2.37-17.8A23.73,23.73,0,0,1,302.5,14h1.35c1.88,2,1.55,3.26-1.11,4.24-.82.3-1.61.69-2.34,1l19.06,19c.31-.69.72-1.47,1-2.28,1-2.66,2.2-3,4.24-1.11Zm-8.88,6.63-20-20a18.79,18.79,0,0,0-4.51,7.57,1.69,1.69,0,0,0,.36,1.42q7.51,7.61,15.12,15.11a1.84,1.84,0,0,0,1.54.38A19.33,19.33,0,0,0,315.86,42.9ZM280.68,79.36c1.22-2.56,2.47-5.1,3.62-7.68a1.46,1.46,0,0,0-.35-1.26q-7.75-7.83-15.58-15.59a1.39,1.39,0,0,0-1.11-.41,27.12,27.12,0,0,0-7.58,3.85Zm-6.89-27L286.36,65V52.4Zm15.75-14.79c.2,3.58.37,7,.6,10.43a.92.92,0,0,0,.64.62c3.42.22,6.84.39,10.39.58Z"/><path class="cls-2" d="M225.78,184.74s-188.15-122-21.37,31.6c0,0,105.6,99.72,180.29,142.52"/><path class="cls-2" d="M384.8,358.59s192,126.06,25.21-27.51"/><path class="cls-4" d="M534.46,47.11l36.7-16.78A16.74,16.74,0,0,1,580.48,29h0a4.4,4.4,0,0,1,3.75,3.87h0a25,25,0,0,1-2.38,13.71l-18,34.94"/><path class="cls-4" d="M433.35,153.57l-.95,3.17a22.88,22.88,0,0,0,5.32,22.3l2.91,3.07a22.88,22.88,0,0,0,23.26,6.14h0"/><polyline class="cls-4" points="544.96 104.36 530.93 162.37 508.13 141.19"/><polyline class="cls-4" points="510.85 70.26 452.84 84.29 474.03 107.09"/><circle class="cls-1" cx="77.4" cy="272.52" r="75.62"/><path class="cls-3" d="M68.66,273.8,46,255.48c0,10.65,0,20.21,0,29.77,0,1.13-.1,2.29.9,3.11l22.82,18.51c0-11,0-20.94,0-30.88A2.7,2.7,0,0,0,68.66,273.8Z"/><path class="cls-3" d="M79.2,260.8C86.57,254.86,94,249,101.81,242.72c-7.85-4-15.1-7.62-22.32-11.32a3.11,3.11,0,0,0-3.15,0c-7.22,3.71-14.47,7.37-22.33,11.35,7.81,6.22,15.05,12,22.26,17.76C77.26,261.32,78,261.74,79.2,260.8Z"/><path class="cls-3" d="M109.87,255.52c-8,6.42-15.22,12.22-22.46,18C86,274.62,86,276.11,86,277.66c0,8.3,0,16.6,0,24.9,0,.87-.5,2,1.08,2.69,7.06-5.78,14.21-11.64,21.38-17.49a3.92,3.92,0,0,0,1.38-3.35C109.85,275.13,109.87,265.85,109.87,255.52Z"/><path class="cls-3" d="M84.58,269.5c7.16-5.42,14.11-11.14,21.11-16.78,1.69-1.36,4-2.62,1.75-5.32h0c-2-2.24-3.76-1.35-5.72.27-7,5.8-14.23,11.39-21.19,17.26-2.06,1.74-3.29,1.57-5.26-.08-7.09-5.93-14.4-11.61-21.52-17.51-1.68-1.39-3-1.86-4.67-.22-3.21,2-1.35,3.65.5,5.13,7.33,5.89,14.64,11.81,22.08,17.56a6.27,6.27,0,0,1,2.76,5.64c-.14,9.4,0,18.81-.1,28.22,0,2.7.83,4.3,3.61,4.6,2.78-.31,3.65-1.91,3.61-4.62-.11-9.13.06-18.27-.1-27.4A7.34,7.34,0,0,1,84.58,269.5Z"/><ellipse class="cls-5" cx="148.41" cy="295.38" rx="13.23" ry="4.34" transform="translate(-178.29 345.74) rotate(-72.09)"/><ellipse class="cls-5" cx="5.8" cy="259.45" rx="13.23" ry="4.34" transform="translate(-242.85 185.17) rotate(-72.09)"/><ellipse class="cls-5" cx="130.3" cy="231.45" rx="4.34" ry="13.23" transform="translate(-120.63 144.36) rotate(-41.48)"/><ellipse class="cls-5" cx="47.4" cy="339.39" rx="5.74" ry="13.23" transform="translate(-290.12 280.1) rotate(-72.09)"/><ellipse class="cls-5" cx="67.79" cy="204.68" rx="13.23" ry="3.99" transform="translate(-28.26 11.64) rotate(-8.13)"/><ellipse class="cls-5" cx="105.25" cy="337.82" rx="13.23" ry="3.99" transform="translate(-108.21 55.62) rotate(-19.8)"/><ellipse class="cls-5" cx="111.44" cy="290.65" rx="13.23" ry="11.73" transform="matrix(0.31, -0.95, 0.95, 0.31, -199.39, 307.29)"/><ellipse class="cls-5" cx="43.44" cy="245.65" rx="13.23" ry="11.73" transform="matrix(0.31, -0.95, 0.95, 0.31, -203.66, 211.43)"/><ellipse class="cls-5" cx="41.44" cy="297.59" rx="13.23" ry="18.04" transform="translate(-254.46 245.49) rotate(-72.09)"/><ellipse class="cls-5" cx="94.69" cy="242.06" rx="7.54" ry="4.85" transform="translate(-164.76 257.71) rotate(-72.09)"/><path class="cls-3" d="M255.66,235.49a6,6,0,0,1,5.23-2.34c1.91,0,2.67-.9,3.48-2.57,1.56-3.21,1.82-5.87-1-8.57-1.46-1.41-1.2-3.36.21-4.87,1.8-1.93,3.67-3.82,5.61-5.61s3.87-1.34,5.86.18a6.78,6.78,0,0,0,10.61-4.27c.48-3.29,1.71-4.39,5.07-4.45,1.8,0,3.59,0,5.39,0,3.87,0,5.23,1.08,5.5,4.88.15,2.14,1.1,3,2.95,3.86,3,1.4,5.6,2.27,8.34-.61,1.28-1.34,3.22-1.08,4.64.25,2,1.87,4,3.8,5.81,5.81s1.06,3.95-.41,5.85a6.23,6.23,0,0,0,3.87,9.91c3.8.63,4.77,1.74,4.88,5.6,0,1,0,2.08,0,3.12,0,5.72-.41,6.21-5.88,7.28-3.28.64-5.59,6.49-3.63,9.18,3.17,4.33,3.11,5-.67,8.83l-1.6,1.6c-4.28,4.28-4.68,4.35-9.4.71a2.85,2.85,0,0,0-3.59-.38,8,8,0,0,1-2.36,1c-2.21.45-3,1.86-3.29,4-.61,4.67-1.52,5.4-6.16,5.42h-1.7c-7.1,0-7.11,0-8.36-6.88a2.46,2.46,0,0,0-1.48-2.18c-3.12-1.35-6-3-9.06.53-1.57,1.83-3.75,1.47-5.5-.3-1.6-1.61-3.25-3.17-4.81-4.81-2.25-2.37-2.28-3.8-.25-6.46a6.59,6.59,0,0,0-.07-8.79c-.83-1-2-1-3.1-1.06-2.07-.08-3.95-.52-5.13-2.43Zm38-7.87a12.77,12.77,0,0,0-13.12,13,13.08,13.08,0,1,0,26.15.09A12.79,12.79,0,0,0,293.7,227.62Z"/><path class="cls-3" d="M387.44,277.27a7.63,7.63,0,0,1-2.77,1.9c-4.62,1.53-5.72,5.17-2.79,9a3.84,3.84,0,0,1,.75,1.19c1.06,4-2.45,5.59-4.27,8-1.23,1.64-3.05,1.54-4.87.56-4.34-2.34-8-.43-8.57,4.42a4.05,4.05,0,0,1-.43,1.62c-2.16,3.47-5.75,2.13-8.78,2.42-2.22.21-3.23-1.46-3.76-3.5-1.12-4.28-5-5.5-8.41-2.63-2,1.68-3.85,1.76-5.81.07q-1.5-1.3-3-2.55c-2.2-1.79-2.44-3.81-1-6.24,2.12-3.51.21-7-4-7.36-2.69-.21-4.14-1.55-4.34-4.26-.08-1.13-.29-2.25-.39-3.37-.29-3.32.67-4.7,3.85-5.58a5.05,5.05,0,0,0,2.41-8.12c-1.89-2.14-2-4.16-.12-6.3q1.2-1.39,2.37-2.82c1.75-2.14,3.68-2.67,6.18-1.08,2.86,1.82,7.62-.62,7.88-4,.22-2.84,1.61-4.31,4.44-4.48,1-.06,2.06-.22,3.1-.33,3.31-.35,4.76.6,5.68,3.71s5.74,4.8,8.3,2.6c2.11-1.82,4-1.77,6,0,1,.87,2,1.72,3,2.57,2.07,1.72,2.38,3.61.93,6a5,5,0,0,0,3.88,7.54c2.51.11,3.72,1.51,4.47,3.63Zm-30.86-13a10.69,10.69,0,1,0,10.68,10.85A10.7,10.7,0,0,0,356.58,264.29Z"/><path class="cls-3" d="M331.31,308.85c.28,2.76-.72,4.76-4.09,5.33-2.08.35-3.3,4-2.2,5.92,1.66,2.92,1.37,4-1.51,6.84-1.91,1.85-3.82,2.63-6.26.85-2.06-1.5-5.73-.19-6.23,2.35-.65,3.27-2.7,3.87-5.58,3.88s-4.84-.93-5.54-4c-.64-2.83-3.51-3.87-6.07-2.32s-4.41.57-6.23-1.33-3.08-3.8-1.33-6.48.73-5.29-2.27-6c-3.27-.78-3.65-3-3.61-5.8s.71-4.53,3.68-5.15a4.17,4.17,0,0,0,2.47-6.35c-1.52-2.32-.72-4.06,1-5.78s3.5-3.55,6.37-2,6.06.42,7-2.69c.82-2.63,2.74-3,5.1-3s4.72,0,5.6,3.09c.94,3.22,3.8,4.41,6.74,2.88s4.39.25,6.12,2,2.58,3.41,1.2,5.77c-1.61,2.77-.5,5.45,2.56,6.48C330.74,304.1,331.31,305.07,331.31,308.85Zm-25.25-9.12a8.39,8.39,0,0,0-8.8,8.39,8.89,8.89,0,0,0,8.73,8.94,8.74,8.74,0,0,0,8.59-8.73A8.26,8.26,0,0,0,306.06,299.73Z"/></g></g></svg>